G04 #@! TF.GenerationSoftware,KiCad,Pcbnew,(5.1.4)-1*
G04 #@! TF.CreationDate,2019-11-04T13:23:32-06:00*
G04 #@! TF.ProjectId,Plataforma-nano,506c6174-6166-46f7-926d-612d6e616e6f,rev?*
G04 #@! TF.SameCoordinates,Original*
G04 #@! TF.FileFunction,Drawing*
%FSLAX46Y46*%
G04 Gerber Fmt 4.6, Leading zero omitted, Abs format (unit mm)*
G04 Created by KiCad (PCBNEW (5.1.4)-1) date 2019-11-04 13:23:32*
%MOMM*%
%LPD*%
G04 APERTURE LIST*
%ADD10C,0.150000*%
G04 APERTURE END LIST*
D10*
X80559857Y-91679809D02*
X80559857Y-92346476D01*
X79512238Y-92632190D02*
X79512238Y-91679809D01*
X81512238Y-91679809D01*
X81512238Y-92632190D01*
X79512238Y-93298857D02*
X80845571Y-94346476D01*
X80845571Y-93298857D02*
X79512238Y-94346476D01*
X80845571Y-95108380D02*
X78845571Y-95108380D01*
X80750333Y-95108380D02*
X80845571Y-95298857D01*
X80845571Y-95679809D01*
X80750333Y-95870285D01*
X80655095Y-95965523D01*
X80464619Y-96060761D01*
X79893190Y-96060761D01*
X79702714Y-95965523D01*
X79607476Y-95870285D01*
X79512238Y-95679809D01*
X79512238Y-95298857D01*
X79607476Y-95108380D01*
X79607476Y-97679809D02*
X79512238Y-97489333D01*
X79512238Y-97108380D01*
X79607476Y-96917904D01*
X79797952Y-96822666D01*
X80559857Y-96822666D01*
X80750333Y-96917904D01*
X80845571Y-97108380D01*
X80845571Y-97489333D01*
X80750333Y-97679809D01*
X80559857Y-97775047D01*
X80369380Y-97775047D01*
X80178904Y-96822666D01*
X79512238Y-98632190D02*
X80845571Y-98632190D01*
X80464619Y-98632190D02*
X80655095Y-98727428D01*
X80750333Y-98822666D01*
X80845571Y-99013142D01*
X80845571Y-99203619D01*
X79512238Y-99870285D02*
X80845571Y-99870285D01*
X81512238Y-99870285D02*
X81417000Y-99775047D01*
X81321761Y-99870285D01*
X81417000Y-99965523D01*
X81512238Y-99870285D01*
X81321761Y-99870285D01*
X79512238Y-100822666D02*
X80845571Y-100822666D01*
X80655095Y-100822666D02*
X80750333Y-100917904D01*
X80845571Y-101108380D01*
X80845571Y-101394095D01*
X80750333Y-101584571D01*
X80559857Y-101679809D01*
X79512238Y-101679809D01*
X80559857Y-101679809D02*
X80750333Y-101775047D01*
X80845571Y-101965523D01*
X80845571Y-102251238D01*
X80750333Y-102441714D01*
X80559857Y-102536952D01*
X79512238Y-102536952D01*
X79607476Y-104251238D02*
X79512238Y-104060761D01*
X79512238Y-103679809D01*
X79607476Y-103489333D01*
X79797952Y-103394095D01*
X80559857Y-103394095D01*
X80750333Y-103489333D01*
X80845571Y-103679809D01*
X80845571Y-104060761D01*
X80750333Y-104251238D01*
X80559857Y-104346476D01*
X80369380Y-104346476D01*
X80178904Y-103394095D01*
X80845571Y-105203619D02*
X79512238Y-105203619D01*
X80655095Y-105203619D02*
X80750333Y-105298857D01*
X80845571Y-105489333D01*
X80845571Y-105775047D01*
X80750333Y-105965523D01*
X80559857Y-106060761D01*
X79512238Y-106060761D01*
X80845571Y-106727428D02*
X80845571Y-107489333D01*
X81512238Y-107013142D02*
X79797952Y-107013142D01*
X79607476Y-107108380D01*
X79512238Y-107298857D01*
X79512238Y-107489333D01*
X79512238Y-109013142D02*
X80559857Y-109013142D01*
X80750333Y-108917904D01*
X80845571Y-108727428D01*
X80845571Y-108346476D01*
X80750333Y-108156000D01*
X79607476Y-109013142D02*
X79512238Y-108822666D01*
X79512238Y-108346476D01*
X79607476Y-108156000D01*
X79797952Y-108060761D01*
X79988428Y-108060761D01*
X80178904Y-108156000D01*
X80274142Y-108346476D01*
X80274142Y-108822666D01*
X80369380Y-109013142D01*
X79702714Y-109965523D02*
X79607476Y-110060761D01*
X79512238Y-109965523D01*
X79607476Y-109870285D01*
X79702714Y-109965523D01*
X79512238Y-109965523D01*
X80750333Y-109965523D02*
X80655095Y-110060761D01*
X80559857Y-109965523D01*
X80655095Y-109870285D01*
X80750333Y-109965523D01*
X80559857Y-109965523D01*
X80083666Y-112346476D02*
X80083666Y-113298857D01*
X79512238Y-112156000D02*
X81512238Y-112822666D01*
X79512238Y-113489333D01*
X80845571Y-115013142D02*
X79226523Y-115013142D01*
X79036047Y-114917904D01*
X78940809Y-114822666D01*
X78845571Y-114632190D01*
X78845571Y-114346476D01*
X78940809Y-114156000D01*
X79607476Y-115013142D02*
X79512238Y-114822666D01*
X79512238Y-114441714D01*
X79607476Y-114251238D01*
X79702714Y-114156000D01*
X79893190Y-114060761D01*
X80464619Y-114060761D01*
X80655095Y-114156000D01*
X80750333Y-114251238D01*
X80845571Y-114441714D01*
X80845571Y-114822666D01*
X80750333Y-115013142D01*
X80845571Y-116822666D02*
X79512238Y-116822666D01*
X80845571Y-115965523D02*
X79797952Y-115965523D01*
X79607476Y-116060761D01*
X79512238Y-116251238D01*
X79512238Y-116536952D01*
X79607476Y-116727428D01*
X79702714Y-116822666D01*
X79512238Y-118632190D02*
X80559857Y-118632190D01*
X80750333Y-118536952D01*
X80845571Y-118346476D01*
X80845571Y-117965523D01*
X80750333Y-117775047D01*
X79607476Y-118632190D02*
X79512238Y-118441714D01*
X79512238Y-117965523D01*
X79607476Y-117775047D01*
X79797952Y-117679809D01*
X79988428Y-117679809D01*
X80178904Y-117775047D01*
X80274142Y-117965523D01*
X80274142Y-118441714D01*
X80369380Y-118632190D01*
X76552714Y-87584571D02*
X76457476Y-87489333D01*
X76362238Y-87203619D01*
X76362238Y-87013142D01*
X76457476Y-86727428D01*
X76647952Y-86536952D01*
X76838428Y-86441714D01*
X77219380Y-86346476D01*
X77505095Y-86346476D01*
X77886047Y-86441714D01*
X78076523Y-86536952D01*
X78267000Y-86727428D01*
X78362238Y-87013142D01*
X78362238Y-87203619D01*
X78267000Y-87489333D01*
X78171761Y-87584571D01*
X76457476Y-89203619D02*
X76362238Y-89013142D01*
X76362238Y-88632190D01*
X76457476Y-88441714D01*
X76647952Y-88346476D01*
X77409857Y-88346476D01*
X77600333Y-88441714D01*
X77695571Y-88632190D01*
X77695571Y-89013142D01*
X77600333Y-89203619D01*
X77409857Y-89298857D01*
X77219380Y-89298857D01*
X77028904Y-88346476D01*
X77695571Y-90156000D02*
X76362238Y-90156000D01*
X77505095Y-90156000D02*
X77600333Y-90251238D01*
X77695571Y-90441714D01*
X77695571Y-90727428D01*
X77600333Y-90917904D01*
X77409857Y-91013142D01*
X76362238Y-91013142D01*
X77695571Y-91679809D02*
X77695571Y-92441714D01*
X78362238Y-91965523D02*
X76647952Y-91965523D01*
X76457476Y-92060761D01*
X76362238Y-92251238D01*
X76362238Y-92441714D01*
X76362238Y-93108380D02*
X77695571Y-93108380D01*
X77314619Y-93108380D02*
X77505095Y-93203619D01*
X77600333Y-93298857D01*
X77695571Y-93489333D01*
X77695571Y-93679809D01*
X76362238Y-94632190D02*
X76457476Y-94441714D01*
X76552714Y-94346476D01*
X76743190Y-94251238D01*
X77314619Y-94251238D01*
X77505095Y-94346476D01*
X77600333Y-94441714D01*
X77695571Y-94632190D01*
X77695571Y-94917904D01*
X77600333Y-95108380D01*
X77505095Y-95203619D01*
X77314619Y-95298857D01*
X76743190Y-95298857D01*
X76552714Y-95203619D01*
X76457476Y-95108380D01*
X76362238Y-94917904D01*
X76362238Y-94632190D01*
X76362238Y-98536952D02*
X78362238Y-98536952D01*
X76457476Y-98536952D02*
X76362238Y-98346476D01*
X76362238Y-97965523D01*
X76457476Y-97775047D01*
X76552714Y-97679809D01*
X76743190Y-97584571D01*
X77314619Y-97584571D01*
X77505095Y-97679809D01*
X77600333Y-97775047D01*
X77695571Y-97965523D01*
X77695571Y-98346476D01*
X77600333Y-98536952D01*
X76457476Y-100251238D02*
X76362238Y-100060761D01*
X76362238Y-99679809D01*
X76457476Y-99489333D01*
X76647952Y-99394095D01*
X77409857Y-99394095D01*
X77600333Y-99489333D01*
X77695571Y-99679809D01*
X77695571Y-100060761D01*
X77600333Y-100251238D01*
X77409857Y-100346476D01*
X77219380Y-100346476D01*
X77028904Y-99394095D01*
X76552714Y-103870285D02*
X76457476Y-103775047D01*
X76362238Y-103489333D01*
X76362238Y-103298857D01*
X76457476Y-103013142D01*
X76647952Y-102822666D01*
X76838428Y-102727428D01*
X77219380Y-102632190D01*
X77505095Y-102632190D01*
X77886047Y-102727428D01*
X78076523Y-102822666D01*
X78267000Y-103013142D01*
X78362238Y-103298857D01*
X78362238Y-103489333D01*
X78267000Y-103775047D01*
X78171761Y-103870285D01*
X77695571Y-105584571D02*
X76362238Y-105584571D01*
X77695571Y-104727428D02*
X76647952Y-104727428D01*
X76457476Y-104822666D01*
X76362238Y-105013142D01*
X76362238Y-105298857D01*
X76457476Y-105489333D01*
X76552714Y-105584571D01*
X76362238Y-106822666D02*
X76457476Y-106632190D01*
X76647952Y-106536952D01*
X78362238Y-106536952D01*
X77695571Y-107298857D02*
X77695571Y-108060761D01*
X78362238Y-107584571D02*
X76647952Y-107584571D01*
X76457476Y-107679809D01*
X76362238Y-107870285D01*
X76362238Y-108060761D01*
X77695571Y-109584571D02*
X76362238Y-109584571D01*
X77695571Y-108727428D02*
X76647952Y-108727428D01*
X76457476Y-108822666D01*
X76362238Y-109013142D01*
X76362238Y-109298857D01*
X76457476Y-109489333D01*
X76552714Y-109584571D01*
X76362238Y-110536952D02*
X77695571Y-110536952D01*
X77314619Y-110536952D02*
X77505095Y-110632190D01*
X77600333Y-110727428D01*
X77695571Y-110917904D01*
X77695571Y-111108380D01*
X76362238Y-112632190D02*
X77409857Y-112632190D01*
X77600333Y-112536952D01*
X77695571Y-112346476D01*
X77695571Y-111965523D01*
X77600333Y-111775047D01*
X76457476Y-112632190D02*
X76362238Y-112441714D01*
X76362238Y-111965523D01*
X76457476Y-111775047D01*
X76647952Y-111679809D01*
X76838428Y-111679809D01*
X77028904Y-111775047D01*
X77124142Y-111965523D01*
X77124142Y-112441714D01*
X77219380Y-112632190D01*
X76362238Y-115108380D02*
X78362238Y-115108380D01*
X78362238Y-115584571D01*
X78267000Y-115870285D01*
X78076523Y-116060761D01*
X77886047Y-116156000D01*
X77505095Y-116251238D01*
X77219380Y-116251238D01*
X76838428Y-116156000D01*
X76647952Y-116060761D01*
X76457476Y-115870285D01*
X76362238Y-115584571D01*
X76362238Y-115108380D01*
X76362238Y-117108380D02*
X77695571Y-117108380D01*
X78362238Y-117108380D02*
X78267000Y-117013142D01*
X78171761Y-117108380D01*
X78267000Y-117203619D01*
X78362238Y-117108380D01*
X78171761Y-117108380D01*
X77695571Y-118917904D02*
X76076523Y-118917904D01*
X75886047Y-118822666D01*
X75790809Y-118727428D01*
X75695571Y-118536952D01*
X75695571Y-118251238D01*
X75790809Y-118060761D01*
X76457476Y-118917904D02*
X76362238Y-118727428D01*
X76362238Y-118346476D01*
X76457476Y-118156000D01*
X76552714Y-118060761D01*
X76743190Y-117965523D01*
X77314619Y-117965523D01*
X77505095Y-118060761D01*
X77600333Y-118156000D01*
X77695571Y-118346476D01*
X77695571Y-118727428D01*
X77600333Y-118917904D01*
X76362238Y-119870285D02*
X77695571Y-119870285D01*
X78362238Y-119870285D02*
X78267000Y-119775047D01*
X78171761Y-119870285D01*
X78267000Y-119965523D01*
X78362238Y-119870285D01*
X78171761Y-119870285D01*
X77695571Y-120536952D02*
X77695571Y-121298857D01*
X78362238Y-120822666D02*
X76647952Y-120822666D01*
X76457476Y-120917904D01*
X76362238Y-121108380D01*
X76362238Y-121298857D01*
X76362238Y-122822666D02*
X77409857Y-122822666D01*
X77600333Y-122727428D01*
X77695571Y-122536952D01*
X77695571Y-122156000D01*
X77600333Y-121965523D01*
X76457476Y-122822666D02*
X76362238Y-122632190D01*
X76362238Y-122156000D01*
X76457476Y-121965523D01*
X76647952Y-121870285D01*
X76838428Y-121870285D01*
X77028904Y-121965523D01*
X77124142Y-122156000D01*
X77124142Y-122632190D01*
X77219380Y-122822666D01*
X76362238Y-124060761D02*
X76457476Y-123870285D01*
X76647952Y-123775047D01*
X78362238Y-123775047D01*
X73402714Y-96108380D02*
X73307476Y-96013142D01*
X73212238Y-95727428D01*
X73212238Y-95536952D01*
X73307476Y-95251238D01*
X73497952Y-95060761D01*
X73688428Y-94965523D01*
X74069380Y-94870285D01*
X74355095Y-94870285D01*
X74736047Y-94965523D01*
X74926523Y-95060761D01*
X75117000Y-95251238D01*
X75212238Y-95536952D01*
X75212238Y-95727428D01*
X75117000Y-96013142D01*
X75021761Y-96108380D01*
X73212238Y-96965523D02*
X75212238Y-96965523D01*
X75212238Y-97441714D01*
X75117000Y-97727428D01*
X74926523Y-97917904D01*
X74736047Y-98013142D01*
X74355095Y-98108380D01*
X74069380Y-98108380D01*
X73688428Y-98013142D01*
X73497952Y-97917904D01*
X73307476Y-97727428D01*
X73212238Y-97441714D01*
X73212238Y-96965523D01*
X73212238Y-98965523D02*
X75212238Y-98965523D01*
X73783666Y-99632190D01*
X75212238Y-100298857D01*
X73212238Y-100298857D01*
X75212238Y-101060761D02*
X73212238Y-102394095D01*
X75212238Y-102394095D02*
X73212238Y-101060761D01*
X73974142Y-104679809D02*
X73974142Y-106203619D01*
X75021761Y-108584571D02*
X75117000Y-108679809D01*
X75212238Y-108870285D01*
X75212238Y-109346476D01*
X75117000Y-109536952D01*
X75021761Y-109632190D01*
X74831285Y-109727428D01*
X74640809Y-109727428D01*
X74355095Y-109632190D01*
X73212238Y-108489333D01*
X73212238Y-109727428D01*
X75212238Y-110965523D02*
X75212238Y-111156000D01*
X75117000Y-111346476D01*
X75021761Y-111441714D01*
X74831285Y-111536952D01*
X74450333Y-111632190D01*
X73974142Y-111632190D01*
X73593190Y-111536952D01*
X73402714Y-111441714D01*
X73307476Y-111346476D01*
X73212238Y-111156000D01*
X73212238Y-110965523D01*
X73307476Y-110775047D01*
X73402714Y-110679809D01*
X73593190Y-110584571D01*
X73974142Y-110489333D01*
X74450333Y-110489333D01*
X74831285Y-110584571D01*
X75021761Y-110679809D01*
X75117000Y-110775047D01*
X75212238Y-110965523D01*
X73212238Y-113536952D02*
X73212238Y-112394095D01*
X73212238Y-112965523D02*
X75212238Y-112965523D01*
X74926523Y-112775047D01*
X74736047Y-112584571D01*
X74640809Y-112394095D01*
X73212238Y-114489333D02*
X73212238Y-114870285D01*
X73307476Y-115060761D01*
X73402714Y-115156000D01*
X73688428Y-115346476D01*
X74069380Y-115441714D01*
X74831285Y-115441714D01*
X75021761Y-115346476D01*
X75117000Y-115251238D01*
X75212238Y-115060761D01*
X75212238Y-114679809D01*
X75117000Y-114489333D01*
X75021761Y-114394095D01*
X74831285Y-114298857D01*
X74355095Y-114298857D01*
X74164619Y-114394095D01*
X74069380Y-114489333D01*
X73974142Y-114679809D01*
X73974142Y-115060761D01*
X74069380Y-115251238D01*
X74164619Y-115346476D01*
X74355095Y-115441714D01*
X70062238Y-80870285D02*
X72062238Y-80870285D01*
X70062238Y-81727428D02*
X71109857Y-81727428D01*
X71300333Y-81632190D01*
X71395571Y-81441714D01*
X71395571Y-81156000D01*
X71300333Y-80965523D01*
X71205095Y-80870285D01*
X71395571Y-82394095D02*
X71395571Y-83156000D01*
X72062238Y-82679809D02*
X70347952Y-82679809D01*
X70157476Y-82775047D01*
X70062238Y-82965523D01*
X70062238Y-83156000D01*
X71395571Y-83536952D02*
X71395571Y-84298857D01*
X72062238Y-83822666D02*
X70347952Y-83822666D01*
X70157476Y-83917904D01*
X70062238Y-84108380D01*
X70062238Y-84298857D01*
X71395571Y-84965523D02*
X69395571Y-84965523D01*
X71300333Y-84965523D02*
X71395571Y-85156000D01*
X71395571Y-85536952D01*
X71300333Y-85727428D01*
X71205095Y-85822666D01*
X71014619Y-85917904D01*
X70443190Y-85917904D01*
X70252714Y-85822666D01*
X70157476Y-85727428D01*
X70062238Y-85536952D01*
X70062238Y-85156000D01*
X70157476Y-84965523D01*
X70157476Y-86679809D02*
X70062238Y-86870285D01*
X70062238Y-87251238D01*
X70157476Y-87441714D01*
X70347952Y-87536952D01*
X70443190Y-87536952D01*
X70633666Y-87441714D01*
X70728904Y-87251238D01*
X70728904Y-86965523D01*
X70824142Y-86775047D01*
X71014619Y-86679809D01*
X71109857Y-86679809D01*
X71300333Y-86775047D01*
X71395571Y-86965523D01*
X71395571Y-87251238D01*
X71300333Y-87441714D01*
X70252714Y-88394095D02*
X70157476Y-88489333D01*
X70062238Y-88394095D01*
X70157476Y-88298857D01*
X70252714Y-88394095D01*
X70062238Y-88394095D01*
X71300333Y-88394095D02*
X71205095Y-88489333D01*
X71109857Y-88394095D01*
X71205095Y-88298857D01*
X71300333Y-88394095D01*
X71109857Y-88394095D01*
X72157476Y-90775047D02*
X69586047Y-89060761D01*
X72157476Y-92870285D02*
X69586047Y-91156000D01*
X70157476Y-94394095D02*
X70062238Y-94203619D01*
X70062238Y-93822666D01*
X70157476Y-93632190D01*
X70252714Y-93536952D01*
X70443190Y-93441714D01*
X71014619Y-93441714D01*
X71205095Y-93536952D01*
X71300333Y-93632190D01*
X71395571Y-93822666D01*
X71395571Y-94203619D01*
X71300333Y-94394095D01*
X70157476Y-96013142D02*
X70062238Y-95822666D01*
X70062238Y-95441714D01*
X70157476Y-95251238D01*
X70347952Y-95156000D01*
X71109857Y-95156000D01*
X71300333Y-95251238D01*
X71395571Y-95441714D01*
X71395571Y-95822666D01*
X71300333Y-96013142D01*
X71109857Y-96108380D01*
X70919380Y-96108380D01*
X70728904Y-95156000D01*
X71395571Y-96965523D02*
X70062238Y-96965523D01*
X71205095Y-96965523D02*
X71300333Y-97060761D01*
X71395571Y-97251238D01*
X71395571Y-97536952D01*
X71300333Y-97727428D01*
X71109857Y-97822666D01*
X70062238Y-97822666D01*
X71395571Y-98489333D02*
X71395571Y-99251238D01*
X72062238Y-98775047D02*
X70347952Y-98775047D01*
X70157476Y-98870285D01*
X70062238Y-99060761D01*
X70062238Y-99251238D01*
X70062238Y-99917904D02*
X71395571Y-99917904D01*
X71014619Y-99917904D02*
X71205095Y-100013142D01*
X71300333Y-100108380D01*
X71395571Y-100298857D01*
X71395571Y-100489333D01*
X70062238Y-101441714D02*
X70157476Y-101251238D01*
X70252714Y-101156000D01*
X70443190Y-101060761D01*
X71014619Y-101060761D01*
X71205095Y-101156000D01*
X71300333Y-101251238D01*
X71395571Y-101441714D01*
X71395571Y-101727428D01*
X71300333Y-101917904D01*
X71205095Y-102013142D01*
X71014619Y-102108380D01*
X70443190Y-102108380D01*
X70252714Y-102013142D01*
X70157476Y-101917904D01*
X70062238Y-101727428D01*
X70062238Y-101441714D01*
X70157476Y-103822666D02*
X70062238Y-103632190D01*
X70062238Y-103251238D01*
X70157476Y-103060761D01*
X70252714Y-102965523D01*
X70443190Y-102870285D01*
X71014619Y-102870285D01*
X71205095Y-102965523D01*
X71300333Y-103060761D01*
X71395571Y-103251238D01*
X71395571Y-103632190D01*
X71300333Y-103822666D01*
X71395571Y-105536952D02*
X70062238Y-105536952D01*
X71395571Y-104679809D02*
X70347952Y-104679809D01*
X70157476Y-104775047D01*
X70062238Y-104965523D01*
X70062238Y-105251238D01*
X70157476Y-105441714D01*
X70252714Y-105536952D01*
X70062238Y-106775047D02*
X70157476Y-106584571D01*
X70347952Y-106489333D01*
X72062238Y-106489333D01*
X71395571Y-107251238D02*
X71395571Y-108013142D01*
X72062238Y-107536952D02*
X70347952Y-107536952D01*
X70157476Y-107632190D01*
X70062238Y-107822666D01*
X70062238Y-108013142D01*
X71395571Y-109536952D02*
X70062238Y-109536952D01*
X71395571Y-108679809D02*
X70347952Y-108679809D01*
X70157476Y-108775047D01*
X70062238Y-108965523D01*
X70062238Y-109251238D01*
X70157476Y-109441714D01*
X70252714Y-109536952D01*
X70062238Y-110489333D02*
X71395571Y-110489333D01*
X71014619Y-110489333D02*
X71205095Y-110584571D01*
X71300333Y-110679809D01*
X71395571Y-110870285D01*
X71395571Y-111060761D01*
X70062238Y-112584571D02*
X71109857Y-112584571D01*
X71300333Y-112489333D01*
X71395571Y-112298857D01*
X71395571Y-111917904D01*
X71300333Y-111727428D01*
X70157476Y-112584571D02*
X70062238Y-112394095D01*
X70062238Y-111917904D01*
X70157476Y-111727428D01*
X70347952Y-111632190D01*
X70538428Y-111632190D01*
X70728904Y-111727428D01*
X70824142Y-111917904D01*
X70824142Y-112394095D01*
X70919380Y-112584571D01*
X70062238Y-114394095D02*
X72062238Y-114394095D01*
X70157476Y-114394095D02*
X70062238Y-114203619D01*
X70062238Y-113822666D01*
X70157476Y-113632190D01*
X70252714Y-113536952D01*
X70443190Y-113441714D01*
X71014619Y-113441714D01*
X71205095Y-113536952D01*
X71300333Y-113632190D01*
X71395571Y-113822666D01*
X71395571Y-114203619D01*
X71300333Y-114394095D01*
X70062238Y-115346476D02*
X71395571Y-115346476D01*
X72062238Y-115346476D02*
X71967000Y-115251238D01*
X71871761Y-115346476D01*
X71967000Y-115441714D01*
X72062238Y-115346476D01*
X71871761Y-115346476D01*
X71395571Y-117156000D02*
X69776523Y-117156000D01*
X69586047Y-117060761D01*
X69490809Y-116965523D01*
X69395571Y-116775047D01*
X69395571Y-116489333D01*
X69490809Y-116298857D01*
X70157476Y-117156000D02*
X70062238Y-116965523D01*
X70062238Y-116584571D01*
X70157476Y-116394095D01*
X70252714Y-116298857D01*
X70443190Y-116203619D01*
X71014619Y-116203619D01*
X71205095Y-116298857D01*
X71300333Y-116394095D01*
X71395571Y-116584571D01*
X71395571Y-116965523D01*
X71300333Y-117156000D01*
X70062238Y-118108380D02*
X71395571Y-118108380D01*
X72062238Y-118108380D02*
X71967000Y-118013142D01*
X71871761Y-118108380D01*
X71967000Y-118203619D01*
X72062238Y-118108380D01*
X71871761Y-118108380D01*
X71395571Y-118775047D02*
X71395571Y-119536952D01*
X72062238Y-119060761D02*
X70347952Y-119060761D01*
X70157476Y-119156000D01*
X70062238Y-119346476D01*
X70062238Y-119536952D01*
X70062238Y-121060761D02*
X71109857Y-121060761D01*
X71300333Y-120965523D01*
X71395571Y-120775047D01*
X71395571Y-120394095D01*
X71300333Y-120203619D01*
X70157476Y-121060761D02*
X70062238Y-120870285D01*
X70062238Y-120394095D01*
X70157476Y-120203619D01*
X70347952Y-120108380D01*
X70538428Y-120108380D01*
X70728904Y-120203619D01*
X70824142Y-120394095D01*
X70824142Y-120870285D01*
X70919380Y-121060761D01*
X70062238Y-122298857D02*
X70157476Y-122108380D01*
X70347952Y-122013142D01*
X72062238Y-122013142D01*
X70252714Y-123060761D02*
X70157476Y-123156000D01*
X70062238Y-123060761D01*
X70157476Y-122965523D01*
X70252714Y-123060761D01*
X70062238Y-123060761D01*
X70062238Y-124013142D02*
X71395571Y-124013142D01*
X71205095Y-124013142D02*
X71300333Y-124108380D01*
X71395571Y-124298857D01*
X71395571Y-124584571D01*
X71300333Y-124775047D01*
X71109857Y-124870285D01*
X70062238Y-124870285D01*
X71109857Y-124870285D02*
X71300333Y-124965523D01*
X71395571Y-125156000D01*
X71395571Y-125441714D01*
X71300333Y-125632190D01*
X71109857Y-125727428D01*
X70062238Y-125727428D01*
X70062238Y-126489333D02*
X71395571Y-127536952D01*
X71395571Y-126489333D02*
X70062238Y-127536952D01*
X72157476Y-129727428D02*
X69586047Y-128013142D01*
M02*
