G04 #@! TF.GenerationSoftware,KiCad,Pcbnew,(5.1.4)-1*
G04 #@! TF.CreationDate,2019-11-04T13:23:32-06:00*
G04 #@! TF.ProjectId,Plataforma-nano,506c6174-6166-46f7-926d-612d6e616e6f,rev?*
G04 #@! TF.SameCoordinates,Original*
G04 #@! TF.FileFunction,Copper,L2,Bot*
G04 #@! TF.FilePolarity,Positive*
%FSLAX46Y46*%
G04 Gerber Fmt 4.6, Leading zero omitted, Abs format (unit mm)*
G04 Created by KiCad (PCBNEW (5.1.4)-1) date 2019-11-04 13:23:32*
%MOMM*%
%LPD*%
G04 APERTURE LIST*
%ADD10O,1.700000X1.700000*%
%ADD11R,1.700000X1.700000*%
%ADD12R,1.600000X1.600000*%
%ADD13O,1.600000X1.600000*%
%ADD14C,1.400000*%
%ADD15O,1.400000X1.400000*%
%ADD16C,2.340000*%
%ADD17C,0.800000*%
%ADD18C,0.800000*%
%ADD19C,0.254000*%
G04 APERTURE END LIST*
D10*
X111760000Y-98044000D03*
X111760000Y-95504000D03*
D11*
X111760000Y-92964000D03*
X95504000Y-76200000D03*
D10*
X98044000Y-76200000D03*
X100584000Y-76200000D03*
X103124000Y-76200000D03*
D12*
X84836000Y-94488000D03*
D13*
X100076000Y-127508000D03*
X84836000Y-97028000D03*
X100076000Y-124968000D03*
X84836000Y-99568000D03*
X100076000Y-122428000D03*
X84836000Y-102108000D03*
X100076000Y-119888000D03*
X84836000Y-104648000D03*
X100076000Y-117348000D03*
X84836000Y-107188000D03*
X100076000Y-114808000D03*
X84836000Y-109728000D03*
X100076000Y-112268000D03*
X84836000Y-112268000D03*
X100076000Y-109728000D03*
X84836000Y-114808000D03*
X100076000Y-107188000D03*
X84836000Y-117348000D03*
X100076000Y-104648000D03*
X84836000Y-119888000D03*
X100076000Y-102108000D03*
X84836000Y-122428000D03*
X100076000Y-99568000D03*
X84836000Y-124968000D03*
X100076000Y-97028000D03*
X84836000Y-127508000D03*
X100076000Y-94488000D03*
X84836000Y-130048000D03*
X100076000Y-130048000D03*
D11*
X69088000Y-133096000D03*
D10*
X66548000Y-133096000D03*
D11*
X111760000Y-107696000D03*
D10*
X111760000Y-110236000D03*
X111760000Y-112776000D03*
X112268000Y-86360000D03*
X112268000Y-83820000D03*
X112268000Y-81280000D03*
D11*
X112268000Y-78740000D03*
D10*
X111760000Y-127508000D03*
X111760000Y-124968000D03*
X111760000Y-122428000D03*
D11*
X111760000Y-119888000D03*
X66040000Y-76200000D03*
D10*
X66040000Y-78740000D03*
X66040000Y-81280000D03*
X66040000Y-83820000D03*
X66040000Y-86360000D03*
X66040000Y-88900000D03*
X66040000Y-91440000D03*
X66040000Y-93980000D03*
X66040000Y-96520000D03*
X66040000Y-99060000D03*
X66040000Y-101600000D03*
X66040000Y-104140000D03*
X66040000Y-106680000D03*
X66040000Y-109220000D03*
X66040000Y-111760000D03*
X66040000Y-114300000D03*
X66040000Y-116840000D03*
X66040000Y-119380000D03*
X66040000Y-121920000D03*
X66040000Y-124460000D03*
D14*
X105664000Y-103124000D03*
D15*
X113284000Y-103124000D03*
X105664000Y-116840000D03*
D14*
X105664000Y-124460000D03*
D15*
X87376000Y-81280000D03*
D14*
X94996000Y-81280000D03*
D16*
X75344000Y-76200000D03*
X80344000Y-76200000D03*
X85344000Y-76200000D03*
D11*
X74676000Y-133096000D03*
D10*
X77216000Y-133096000D03*
X79756000Y-133096000D03*
D17*
X90424000Y-87884000D03*
X93472000Y-87376000D03*
X97536000Y-100076000D03*
X94488000Y-93472000D03*
X88392000Y-99568000D03*
X91440000Y-109728000D03*
X108712000Y-107696000D03*
D18*
X100584000Y-76200000D02*
X100584000Y-83312000D01*
X100584000Y-83312000D02*
X93980000Y-89916000D01*
X93980000Y-89916000D02*
X92456000Y-89916000D01*
X92456000Y-89916000D02*
X90424000Y-87884000D01*
X90424000Y-87884000D02*
X90424000Y-87884000D01*
X98044000Y-76200000D02*
X98044000Y-82804000D01*
X98044000Y-82804000D02*
X93472000Y-87376000D01*
X93472000Y-87376000D02*
X93472000Y-87376000D01*
X64837919Y-111760000D02*
X61976000Y-114621919D01*
X66040000Y-111760000D02*
X64837919Y-111760000D01*
X61976000Y-114621919D02*
X61976000Y-135128000D01*
X61976000Y-135128000D02*
X64008000Y-137160000D01*
X85344000Y-137160000D02*
X100076000Y-122428000D01*
X64008000Y-137160000D02*
X85344000Y-137160000D01*
X66040000Y-74550000D02*
X66930000Y-73660000D01*
X66040000Y-76200000D02*
X66040000Y-74550000D01*
X66930000Y-73660000D02*
X67056000Y-73660000D01*
X67056000Y-73660000D02*
X67564000Y-73152000D01*
X113284000Y-73152000D02*
X117856000Y-77724000D01*
X103124000Y-73152000D02*
X113284000Y-73152000D01*
X112268000Y-81280000D02*
X117856000Y-81280000D01*
X117856000Y-77724000D02*
X117856000Y-81280000D01*
X111760000Y-95504000D02*
X117856000Y-95504000D01*
X117856000Y-81280000D02*
X117856000Y-95504000D01*
X111760000Y-112776000D02*
X117856000Y-112776000D01*
X117856000Y-95504000D02*
X117856000Y-112776000D01*
X111760000Y-127508000D02*
X117856000Y-127508000D01*
X117856000Y-112776000D02*
X117856000Y-127508000D01*
X117856000Y-127508000D02*
X117856000Y-135128000D01*
X66040000Y-124460000D02*
X74676000Y-133096000D01*
X85344000Y-74545371D02*
X85344000Y-73152000D01*
X85344000Y-76200000D02*
X85344000Y-74545371D01*
X67564000Y-73152000D02*
X85344000Y-73152000D01*
X85344000Y-73152000D02*
X103124000Y-73152000D01*
X103124000Y-76200000D02*
X103124000Y-73152000D01*
X84328000Y-135636000D02*
X100076000Y-119888000D01*
X64516000Y-135636000D02*
X84328000Y-135636000D01*
X63500000Y-134620000D02*
X64516000Y-135636000D01*
X63500000Y-115637919D02*
X63500000Y-134620000D01*
X66040000Y-114300000D02*
X64837919Y-114300000D01*
X64837919Y-114300000D02*
X63500000Y-115637919D01*
X105664000Y-93472000D02*
X105664000Y-103124000D01*
X104140000Y-91948000D02*
X105664000Y-93472000D01*
X98552000Y-91948000D02*
X104140000Y-91948000D01*
X97536000Y-100076000D02*
X97536000Y-92964000D01*
X97536000Y-92964000D02*
X98552000Y-91948000D01*
X105664000Y-103124000D02*
X105664000Y-109220000D01*
X106680000Y-110236000D02*
X111760000Y-110236000D01*
X105664000Y-109220000D02*
X106680000Y-110236000D01*
X97536000Y-117348000D02*
X100076000Y-117348000D01*
X93472000Y-113284000D02*
X97536000Y-117348000D01*
X93472000Y-97536000D02*
X93472000Y-113284000D01*
X66040000Y-86360000D02*
X82296000Y-86360000D01*
X82296000Y-86360000D02*
X93472000Y-97536000D01*
X112268000Y-83820000D02*
X104140000Y-83820000D01*
X104140000Y-83820000D02*
X94488000Y-93472000D01*
X94488000Y-93472000D02*
X94488000Y-93472000D01*
X86868000Y-107188000D02*
X84836000Y-107188000D01*
X88392000Y-99568000D02*
X88392000Y-105664000D01*
X88392000Y-105664000D02*
X86868000Y-107188000D01*
X66040000Y-83820000D02*
X82296000Y-83820000D01*
X82296000Y-83820000D02*
X95504000Y-97028000D01*
X95504000Y-97028000D02*
X95504000Y-112776000D01*
X97536000Y-114808000D02*
X100076000Y-114808000D01*
X95504000Y-112776000D02*
X97536000Y-114808000D01*
X66040000Y-88900000D02*
X82804000Y-88900000D01*
X82804000Y-88900000D02*
X85852000Y-91948000D01*
X85852000Y-91948000D02*
X91440000Y-97536000D01*
X91440000Y-97536000D02*
X91440000Y-107188000D01*
X91440000Y-107188000D02*
X91440000Y-109728000D01*
X91440000Y-109728000D02*
X91440000Y-109728000D01*
X112268000Y-86360000D02*
X110236000Y-86360000D01*
X110236000Y-86360000D02*
X108712000Y-87884000D01*
X108712000Y-87884000D02*
X108712000Y-106172000D01*
X108712000Y-106172000D02*
X108712000Y-107696000D01*
X108712000Y-107696000D02*
X108712000Y-107696000D01*
X79756000Y-119888000D02*
X84836000Y-119888000D01*
X76708000Y-116840000D02*
X79756000Y-119888000D01*
X76708000Y-93980000D02*
X76708000Y-116840000D01*
X66040000Y-91440000D02*
X74168000Y-91440000D01*
X74168000Y-91440000D02*
X76708000Y-93980000D01*
X66040000Y-93980000D02*
X72136000Y-93980000D01*
X72136000Y-93980000D02*
X75184000Y-97028000D01*
X75184000Y-97028000D02*
X75184000Y-117856000D01*
X79756000Y-122428000D02*
X84836000Y-122428000D01*
X75184000Y-117856000D02*
X79756000Y-122428000D01*
X79756000Y-124968000D02*
X84836000Y-124968000D01*
X73660000Y-118872000D02*
X79756000Y-124968000D01*
X73660000Y-100076000D02*
X73660000Y-118872000D01*
X66040000Y-96520000D02*
X70104000Y-96520000D01*
X70104000Y-96520000D02*
X73660000Y-100076000D01*
X79756000Y-127508000D02*
X84836000Y-127508000D01*
X72136000Y-119888000D02*
X79756000Y-127508000D01*
X72136000Y-101600000D02*
X72136000Y-119888000D01*
X66040000Y-99060000D02*
X69596000Y-99060000D01*
X69596000Y-99060000D02*
X72136000Y-101600000D01*
D19*
G36*
X130912001Y-140564000D02*
G01*
X53492000Y-140564000D01*
X53492000Y-136336385D01*
X54199505Y-136336385D01*
X54199505Y-136967615D01*
X54322652Y-137586717D01*
X54564214Y-138169897D01*
X54914906Y-138694746D01*
X55361254Y-139141094D01*
X55886103Y-139491786D01*
X56469283Y-139733348D01*
X57088385Y-139856495D01*
X57719615Y-139856495D01*
X58338717Y-139733348D01*
X58921897Y-139491786D01*
X59446746Y-139141094D01*
X59893094Y-138694746D01*
X60243786Y-138169897D01*
X60485348Y-137586717D01*
X60608495Y-136967615D01*
X60608495Y-136336385D01*
X60485348Y-135717283D01*
X60243786Y-135134103D01*
X59893094Y-134609254D01*
X59446746Y-134162906D01*
X58921897Y-133812214D01*
X58338717Y-133570652D01*
X57719615Y-133447505D01*
X57088385Y-133447505D01*
X56469283Y-133570652D01*
X55886103Y-133812214D01*
X55361254Y-134162906D01*
X54914906Y-134609254D01*
X54564214Y-135134103D01*
X54322652Y-135717283D01*
X54199505Y-136336385D01*
X53492000Y-136336385D01*
X53492000Y-114621919D01*
X60935994Y-114621919D01*
X60941000Y-114672747D01*
X60941001Y-135077162D01*
X60935994Y-135128000D01*
X60955977Y-135330895D01*
X61015160Y-135525993D01*
X61111266Y-135705797D01*
X61208197Y-135823907D01*
X61240605Y-135863396D01*
X61280092Y-135895802D01*
X63240197Y-137855908D01*
X63272604Y-137895396D01*
X63312092Y-137927803D01*
X63430202Y-138024734D01*
X63526309Y-138076104D01*
X63610007Y-138120841D01*
X63805105Y-138180024D01*
X63957162Y-138195000D01*
X63957164Y-138195000D01*
X64008000Y-138200007D01*
X64058835Y-138195000D01*
X85293172Y-138195000D01*
X85344000Y-138200006D01*
X85394828Y-138195000D01*
X85394838Y-138195000D01*
X85546895Y-138180024D01*
X85741993Y-138120841D01*
X85921797Y-138024734D01*
X86079396Y-137895396D01*
X86111807Y-137855903D01*
X87631325Y-136336385D01*
X123795505Y-136336385D01*
X123795505Y-136967615D01*
X123918652Y-137586717D01*
X124160214Y-138169897D01*
X124510906Y-138694746D01*
X124957254Y-139141094D01*
X125482103Y-139491786D01*
X126065283Y-139733348D01*
X126684385Y-139856495D01*
X127315615Y-139856495D01*
X127934717Y-139733348D01*
X128517897Y-139491786D01*
X129042746Y-139141094D01*
X129489094Y-138694746D01*
X129839786Y-138169897D01*
X130081348Y-137586717D01*
X130204495Y-136967615D01*
X130204495Y-136336385D01*
X130081348Y-135717283D01*
X129839786Y-135134103D01*
X129489094Y-134609254D01*
X129042746Y-134162906D01*
X128517897Y-133812214D01*
X127934717Y-133570652D01*
X127315615Y-133447505D01*
X126684385Y-133447505D01*
X126065283Y-133570652D01*
X125482103Y-133812214D01*
X124957254Y-134162906D01*
X124510906Y-134609254D01*
X124160214Y-135134103D01*
X123918652Y-135717283D01*
X123795505Y-136336385D01*
X87631325Y-136336385D01*
X98674946Y-125292765D01*
X98743818Y-125519808D01*
X98877068Y-125769101D01*
X99056392Y-125987608D01*
X99274899Y-126166932D01*
X99407858Y-126238000D01*
X99274899Y-126309068D01*
X99056392Y-126488392D01*
X98877068Y-126706899D01*
X98743818Y-126956192D01*
X98661764Y-127226691D01*
X98634057Y-127508000D01*
X98661764Y-127789309D01*
X98743818Y-128059808D01*
X98877068Y-128309101D01*
X99056392Y-128527608D01*
X99274899Y-128706932D01*
X99407858Y-128778000D01*
X99274899Y-128849068D01*
X99056392Y-129028392D01*
X98877068Y-129246899D01*
X98743818Y-129496192D01*
X98661764Y-129766691D01*
X98634057Y-130048000D01*
X98661764Y-130329309D01*
X98743818Y-130599808D01*
X98877068Y-130849101D01*
X99056392Y-131067608D01*
X99274899Y-131246932D01*
X99524192Y-131380182D01*
X99794691Y-131462236D01*
X100005508Y-131483000D01*
X100146492Y-131483000D01*
X100357309Y-131462236D01*
X100627808Y-131380182D01*
X100877101Y-131246932D01*
X101095608Y-131067608D01*
X101274932Y-130849101D01*
X101408182Y-130599808D01*
X101490236Y-130329309D01*
X101517943Y-130048000D01*
X101490236Y-129766691D01*
X101408182Y-129496192D01*
X101274932Y-129246899D01*
X101095608Y-129028392D01*
X100877101Y-128849068D01*
X100744142Y-128778000D01*
X100877101Y-128706932D01*
X101095608Y-128527608D01*
X101274932Y-128309101D01*
X101408182Y-128059808D01*
X101467309Y-127864890D01*
X110318524Y-127864890D01*
X110363175Y-128012099D01*
X110488359Y-128274920D01*
X110662412Y-128508269D01*
X110878645Y-128703178D01*
X111128748Y-128852157D01*
X111403109Y-128949481D01*
X111633000Y-128828814D01*
X111633000Y-127635000D01*
X111887000Y-127635000D01*
X111887000Y-128828814D01*
X112116891Y-128949481D01*
X112391252Y-128852157D01*
X112641355Y-128703178D01*
X112857588Y-128508269D01*
X113031641Y-128274920D01*
X113156825Y-128012099D01*
X113201476Y-127864890D01*
X113080155Y-127635000D01*
X111887000Y-127635000D01*
X111633000Y-127635000D01*
X110439845Y-127635000D01*
X110318524Y-127864890D01*
X101467309Y-127864890D01*
X101490236Y-127789309D01*
X101517943Y-127508000D01*
X101490236Y-127226691D01*
X101408182Y-126956192D01*
X101274932Y-126706899D01*
X101095608Y-126488392D01*
X100877101Y-126309068D01*
X100744142Y-126238000D01*
X100877101Y-126166932D01*
X101095608Y-125987608D01*
X101274932Y-125769101D01*
X101408182Y-125519808D01*
X101490236Y-125249309D01*
X101517943Y-124968000D01*
X101490236Y-124686691D01*
X101408182Y-124416192D01*
X101361318Y-124328514D01*
X104329000Y-124328514D01*
X104329000Y-124591486D01*
X104380304Y-124849405D01*
X104480939Y-125092359D01*
X104627038Y-125311013D01*
X104812987Y-125496962D01*
X105031641Y-125643061D01*
X105274595Y-125743696D01*
X105532514Y-125795000D01*
X105795486Y-125795000D01*
X106053405Y-125743696D01*
X106296359Y-125643061D01*
X106515013Y-125496962D01*
X106700962Y-125311013D01*
X106847061Y-125092359D01*
X106947696Y-124849405D01*
X106999000Y-124591486D01*
X106999000Y-124328514D01*
X106947696Y-124070595D01*
X106847061Y-123827641D01*
X106700962Y-123608987D01*
X106515013Y-123423038D01*
X106296359Y-123276939D01*
X106053405Y-123176304D01*
X105795486Y-123125000D01*
X105532514Y-123125000D01*
X105274595Y-123176304D01*
X105031641Y-123276939D01*
X104812987Y-123423038D01*
X104627038Y-123608987D01*
X104480939Y-123827641D01*
X104380304Y-124070595D01*
X104329000Y-124328514D01*
X101361318Y-124328514D01*
X101274932Y-124166899D01*
X101095608Y-123948392D01*
X100877101Y-123769068D01*
X100744142Y-123698000D01*
X100877101Y-123626932D01*
X101095608Y-123447608D01*
X101274932Y-123229101D01*
X101408182Y-122979808D01*
X101490236Y-122709309D01*
X101517943Y-122428000D01*
X110267815Y-122428000D01*
X110296487Y-122719111D01*
X110381401Y-122999034D01*
X110519294Y-123257014D01*
X110704866Y-123483134D01*
X110930986Y-123668706D01*
X110985791Y-123698000D01*
X110930986Y-123727294D01*
X110704866Y-123912866D01*
X110519294Y-124138986D01*
X110381401Y-124396966D01*
X110296487Y-124676889D01*
X110267815Y-124968000D01*
X110296487Y-125259111D01*
X110381401Y-125539034D01*
X110519294Y-125797014D01*
X110704866Y-126023134D01*
X110930986Y-126208706D01*
X110995523Y-126243201D01*
X110878645Y-126312822D01*
X110662412Y-126507731D01*
X110488359Y-126741080D01*
X110363175Y-127003901D01*
X110318524Y-127151110D01*
X110439845Y-127381000D01*
X111633000Y-127381000D01*
X111633000Y-127361000D01*
X111887000Y-127361000D01*
X111887000Y-127381000D01*
X113080155Y-127381000D01*
X113201476Y-127151110D01*
X113156825Y-127003901D01*
X113031641Y-126741080D01*
X112857588Y-126507731D01*
X112641355Y-126312822D01*
X112524477Y-126243201D01*
X112589014Y-126208706D01*
X112815134Y-126023134D01*
X113000706Y-125797014D01*
X113138599Y-125539034D01*
X113223513Y-125259111D01*
X113252185Y-124968000D01*
X113223513Y-124676889D01*
X113138599Y-124396966D01*
X113000706Y-124138986D01*
X112815134Y-123912866D01*
X112589014Y-123727294D01*
X112534209Y-123698000D01*
X112589014Y-123668706D01*
X112815134Y-123483134D01*
X113000706Y-123257014D01*
X113138599Y-122999034D01*
X113223513Y-122719111D01*
X113252185Y-122428000D01*
X113223513Y-122136889D01*
X113138599Y-121856966D01*
X113000706Y-121598986D01*
X112815134Y-121372866D01*
X112785313Y-121348393D01*
X112854180Y-121327502D01*
X112964494Y-121268537D01*
X113061185Y-121189185D01*
X113140537Y-121092494D01*
X113199502Y-120982180D01*
X113235812Y-120862482D01*
X113248072Y-120738000D01*
X113248072Y-119038000D01*
X113235812Y-118913518D01*
X113199502Y-118793820D01*
X113140537Y-118683506D01*
X113061185Y-118586815D01*
X112964494Y-118507463D01*
X112854180Y-118448498D01*
X112734482Y-118412188D01*
X112610000Y-118399928D01*
X110910000Y-118399928D01*
X110785518Y-118412188D01*
X110665820Y-118448498D01*
X110555506Y-118507463D01*
X110458815Y-118586815D01*
X110379463Y-118683506D01*
X110320498Y-118793820D01*
X110284188Y-118913518D01*
X110271928Y-119038000D01*
X110271928Y-120738000D01*
X110284188Y-120862482D01*
X110320498Y-120982180D01*
X110379463Y-121092494D01*
X110458815Y-121189185D01*
X110555506Y-121268537D01*
X110665820Y-121327502D01*
X110734687Y-121348393D01*
X110704866Y-121372866D01*
X110519294Y-121598986D01*
X110381401Y-121856966D01*
X110296487Y-122136889D01*
X110267815Y-122428000D01*
X101517943Y-122428000D01*
X101490236Y-122146691D01*
X101408182Y-121876192D01*
X101274932Y-121626899D01*
X101095608Y-121408392D01*
X100877101Y-121229068D01*
X100744142Y-121158000D01*
X100877101Y-121086932D01*
X101095608Y-120907608D01*
X101274932Y-120689101D01*
X101408182Y-120439808D01*
X101490236Y-120169309D01*
X101517943Y-119888000D01*
X101490236Y-119606691D01*
X101408182Y-119336192D01*
X101274932Y-119086899D01*
X101095608Y-118868392D01*
X100877101Y-118689068D01*
X100744142Y-118618000D01*
X100877101Y-118546932D01*
X101095608Y-118367608D01*
X101274932Y-118149101D01*
X101408182Y-117899808D01*
X101490236Y-117629309D01*
X101517943Y-117348000D01*
X101490236Y-117066691D01*
X101421471Y-116840000D01*
X104322541Y-116840000D01*
X104348317Y-117101706D01*
X104424653Y-117353354D01*
X104548618Y-117585275D01*
X104715445Y-117788555D01*
X104918725Y-117955382D01*
X105150646Y-118079347D01*
X105402294Y-118155683D01*
X105598421Y-118175000D01*
X105729579Y-118175000D01*
X105925706Y-118155683D01*
X106177354Y-118079347D01*
X106409275Y-117955382D01*
X106612555Y-117788555D01*
X106779382Y-117585275D01*
X106903347Y-117353354D01*
X106979683Y-117101706D01*
X107005459Y-116840000D01*
X106979683Y-116578294D01*
X106903347Y-116326646D01*
X106779382Y-116094725D01*
X106612555Y-115891445D01*
X106409275Y-115724618D01*
X106177354Y-115600653D01*
X105925706Y-115524317D01*
X105729579Y-115505000D01*
X105598421Y-115505000D01*
X105402294Y-115524317D01*
X105150646Y-115600653D01*
X104918725Y-115724618D01*
X104715445Y-115891445D01*
X104548618Y-116094725D01*
X104424653Y-116326646D01*
X104348317Y-116578294D01*
X104322541Y-116840000D01*
X101421471Y-116840000D01*
X101408182Y-116796192D01*
X101274932Y-116546899D01*
X101095608Y-116328392D01*
X100877101Y-116149068D01*
X100744142Y-116078000D01*
X100877101Y-116006932D01*
X101095608Y-115827608D01*
X101274932Y-115609101D01*
X101408182Y-115359808D01*
X101490236Y-115089309D01*
X101517943Y-114808000D01*
X101490236Y-114526691D01*
X101408182Y-114256192D01*
X101274932Y-114006899D01*
X101095608Y-113788392D01*
X100877101Y-113609068D01*
X100744142Y-113538000D01*
X100877101Y-113466932D01*
X101095608Y-113287608D01*
X101222581Y-113132890D01*
X110318524Y-113132890D01*
X110363175Y-113280099D01*
X110488359Y-113542920D01*
X110662412Y-113776269D01*
X110878645Y-113971178D01*
X111128748Y-114120157D01*
X111403109Y-114217481D01*
X111633000Y-114096814D01*
X111633000Y-112903000D01*
X111887000Y-112903000D01*
X111887000Y-114096814D01*
X112116891Y-114217481D01*
X112391252Y-114120157D01*
X112641355Y-113971178D01*
X112857588Y-113776269D01*
X113031641Y-113542920D01*
X113156825Y-113280099D01*
X113201476Y-113132890D01*
X113080155Y-112903000D01*
X111887000Y-112903000D01*
X111633000Y-112903000D01*
X110439845Y-112903000D01*
X110318524Y-113132890D01*
X101222581Y-113132890D01*
X101274932Y-113069101D01*
X101408182Y-112819808D01*
X101490236Y-112549309D01*
X101517943Y-112268000D01*
X101490236Y-111986691D01*
X101408182Y-111716192D01*
X101274932Y-111466899D01*
X101095608Y-111248392D01*
X100877101Y-111069068D01*
X100744142Y-110998000D01*
X100877101Y-110926932D01*
X101095608Y-110747608D01*
X101274932Y-110529101D01*
X101408182Y-110279808D01*
X101490236Y-110009309D01*
X101517943Y-109728000D01*
X101490236Y-109446691D01*
X101408182Y-109176192D01*
X101274932Y-108926899D01*
X101095608Y-108708392D01*
X100877101Y-108529068D01*
X100744142Y-108458000D01*
X100877101Y-108386932D01*
X101095608Y-108207608D01*
X101274932Y-107989101D01*
X101408182Y-107739808D01*
X101490236Y-107469309D01*
X101517943Y-107188000D01*
X101490236Y-106906691D01*
X101408182Y-106636192D01*
X101274932Y-106386899D01*
X101095608Y-106168392D01*
X100877101Y-105989068D01*
X100744142Y-105918000D01*
X100877101Y-105846932D01*
X101095608Y-105667608D01*
X101274932Y-105449101D01*
X101408182Y-105199808D01*
X101490236Y-104929309D01*
X101517943Y-104648000D01*
X101490236Y-104366691D01*
X101408182Y-104096192D01*
X101274932Y-103846899D01*
X101095608Y-103628392D01*
X100877101Y-103449068D01*
X100744142Y-103378000D01*
X100877101Y-103306932D01*
X101095608Y-103127608D01*
X101274932Y-102909101D01*
X101408182Y-102659808D01*
X101490236Y-102389309D01*
X101517943Y-102108000D01*
X101490236Y-101826691D01*
X101408182Y-101556192D01*
X101274932Y-101306899D01*
X101095608Y-101088392D01*
X100877101Y-100909068D01*
X100744142Y-100838000D01*
X100877101Y-100766932D01*
X101095608Y-100587608D01*
X101274932Y-100369101D01*
X101408182Y-100119808D01*
X101490236Y-99849309D01*
X101517943Y-99568000D01*
X101490236Y-99286691D01*
X101408182Y-99016192D01*
X101274932Y-98766899D01*
X101095608Y-98548392D01*
X100877101Y-98369068D01*
X100739318Y-98295421D01*
X100931131Y-98180385D01*
X101139519Y-97991414D01*
X101307037Y-97765420D01*
X101427246Y-97511087D01*
X101467904Y-97377039D01*
X101345915Y-97155000D01*
X100203000Y-97155000D01*
X100203000Y-97175000D01*
X99949000Y-97175000D01*
X99949000Y-97155000D01*
X98806085Y-97155000D01*
X98684096Y-97377039D01*
X98724754Y-97511087D01*
X98844963Y-97765420D01*
X99012481Y-97991414D01*
X99220869Y-98180385D01*
X99412682Y-98295421D01*
X99274899Y-98369068D01*
X99056392Y-98548392D01*
X98877068Y-98766899D01*
X98743818Y-99016192D01*
X98661764Y-99286691D01*
X98634057Y-99568000D01*
X98661764Y-99849309D01*
X98743818Y-100119808D01*
X98877068Y-100369101D01*
X99056392Y-100587608D01*
X99274899Y-100766932D01*
X99407858Y-100838000D01*
X99274899Y-100909068D01*
X99056392Y-101088392D01*
X98877068Y-101306899D01*
X98743818Y-101556192D01*
X98661764Y-101826691D01*
X98634057Y-102108000D01*
X98661764Y-102389309D01*
X98743818Y-102659808D01*
X98877068Y-102909101D01*
X99056392Y-103127608D01*
X99274899Y-103306932D01*
X99407858Y-103378000D01*
X99274899Y-103449068D01*
X99056392Y-103628392D01*
X98877068Y-103846899D01*
X98743818Y-104096192D01*
X98661764Y-104366691D01*
X98634057Y-104648000D01*
X98661764Y-104929309D01*
X98743818Y-105199808D01*
X98877068Y-105449101D01*
X99056392Y-105667608D01*
X99274899Y-105846932D01*
X99407858Y-105918000D01*
X99274899Y-105989068D01*
X99056392Y-106168392D01*
X98877068Y-106386899D01*
X98743818Y-106636192D01*
X98661764Y-106906691D01*
X98634057Y-107188000D01*
X98661764Y-107469309D01*
X98743818Y-107739808D01*
X98877068Y-107989101D01*
X99056392Y-108207608D01*
X99274899Y-108386932D01*
X99407858Y-108458000D01*
X99274899Y-108529068D01*
X99056392Y-108708392D01*
X98877068Y-108926899D01*
X98743818Y-109176192D01*
X98661764Y-109446691D01*
X98634057Y-109728000D01*
X98661764Y-110009309D01*
X98743818Y-110279808D01*
X98877068Y-110529101D01*
X99056392Y-110747608D01*
X99274899Y-110926932D01*
X99407858Y-110998000D01*
X99274899Y-111069068D01*
X99056392Y-111248392D01*
X98877068Y-111466899D01*
X98743818Y-111716192D01*
X98661764Y-111986691D01*
X98634057Y-112268000D01*
X98661764Y-112549309D01*
X98743818Y-112819808D01*
X98877068Y-113069101D01*
X99056392Y-113287608D01*
X99274899Y-113466932D01*
X99407858Y-113538000D01*
X99274899Y-113609068D01*
X99075147Y-113773000D01*
X97964711Y-113773000D01*
X96539000Y-112347290D01*
X96539000Y-100368979D01*
X96540774Y-100377898D01*
X96560332Y-100425116D01*
X96575159Y-100473992D01*
X96599237Y-100519039D01*
X96618795Y-100566256D01*
X96647186Y-100608747D01*
X96671266Y-100653797D01*
X96703672Y-100693284D01*
X96732063Y-100735774D01*
X96768197Y-100771908D01*
X96800604Y-100811396D01*
X96840092Y-100843803D01*
X96876226Y-100879937D01*
X96918716Y-100908328D01*
X96958203Y-100940734D01*
X97003254Y-100964814D01*
X97045744Y-100993205D01*
X97092958Y-101012762D01*
X97138007Y-101036841D01*
X97186887Y-101051669D01*
X97234102Y-101071226D01*
X97284223Y-101081196D01*
X97333105Y-101096024D01*
X97383943Y-101101031D01*
X97434061Y-101111000D01*
X97485162Y-101111000D01*
X97536000Y-101116007D01*
X97586838Y-101111000D01*
X97637939Y-101111000D01*
X97688058Y-101101031D01*
X97738894Y-101096024D01*
X97787774Y-101081196D01*
X97837898Y-101071226D01*
X97885116Y-101051668D01*
X97933992Y-101036841D01*
X97979039Y-101012763D01*
X98026256Y-100993205D01*
X98068747Y-100964814D01*
X98113797Y-100940734D01*
X98153284Y-100908328D01*
X98195774Y-100879937D01*
X98231908Y-100843803D01*
X98271396Y-100811396D01*
X98303803Y-100771908D01*
X98339937Y-100735774D01*
X98368328Y-100693284D01*
X98400734Y-100653797D01*
X98424814Y-100608746D01*
X98453205Y-100566256D01*
X98472762Y-100519042D01*
X98496841Y-100473993D01*
X98511669Y-100425113D01*
X98531226Y-100377898D01*
X98541196Y-100327777D01*
X98556024Y-100278895D01*
X98561031Y-100228057D01*
X98571000Y-100177939D01*
X98571000Y-94488000D01*
X98634057Y-94488000D01*
X98661764Y-94769309D01*
X98743818Y-95039808D01*
X98877068Y-95289101D01*
X99056392Y-95507608D01*
X99274899Y-95686932D01*
X99412682Y-95760579D01*
X99220869Y-95875615D01*
X99012481Y-96064586D01*
X98844963Y-96290580D01*
X98724754Y-96544913D01*
X98684096Y-96678961D01*
X98806085Y-96901000D01*
X99949000Y-96901000D01*
X99949000Y-96881000D01*
X100203000Y-96881000D01*
X100203000Y-96901000D01*
X101345915Y-96901000D01*
X101467904Y-96678961D01*
X101427246Y-96544913D01*
X101307037Y-96290580D01*
X101139519Y-96064586D01*
X100931131Y-95875615D01*
X100739318Y-95760579D01*
X100877101Y-95686932D01*
X101095608Y-95507608D01*
X101274932Y-95289101D01*
X101408182Y-95039808D01*
X101490236Y-94769309D01*
X101517943Y-94488000D01*
X101490236Y-94206691D01*
X101408182Y-93936192D01*
X101274932Y-93686899D01*
X101095608Y-93468392D01*
X100877101Y-93289068D01*
X100627808Y-93155818D01*
X100357309Y-93073764D01*
X100146492Y-93053000D01*
X100005508Y-93053000D01*
X99794691Y-93073764D01*
X99524192Y-93155818D01*
X99274899Y-93289068D01*
X99056392Y-93468392D01*
X98877068Y-93686899D01*
X98743818Y-93936192D01*
X98661764Y-94206691D01*
X98634057Y-94488000D01*
X98571000Y-94488000D01*
X98571000Y-93392710D01*
X98980711Y-92983000D01*
X103711290Y-92983000D01*
X104629000Y-93900711D01*
X104629001Y-102271024D01*
X104627038Y-102272987D01*
X104480939Y-102491641D01*
X104380304Y-102734595D01*
X104329000Y-102992514D01*
X104329000Y-103255486D01*
X104380304Y-103513405D01*
X104480939Y-103756359D01*
X104627038Y-103975013D01*
X104629000Y-103976975D01*
X104629001Y-109169162D01*
X104623994Y-109220000D01*
X104643977Y-109422895D01*
X104703160Y-109617993D01*
X104799266Y-109797797D01*
X104832266Y-109838007D01*
X104928605Y-109955396D01*
X104968092Y-109987802D01*
X105912197Y-110931908D01*
X105944604Y-110971396D01*
X105984092Y-111003803D01*
X106102202Y-111100734D01*
X106179848Y-111142236D01*
X106282007Y-111196841D01*
X106477105Y-111256024D01*
X106629162Y-111271000D01*
X106629164Y-111271000D01*
X106680000Y-111276007D01*
X106730835Y-111271000D01*
X110688342Y-111271000D01*
X110704866Y-111291134D01*
X110930986Y-111476706D01*
X110995523Y-111511201D01*
X110878645Y-111580822D01*
X110662412Y-111775731D01*
X110488359Y-112009080D01*
X110363175Y-112271901D01*
X110318524Y-112419110D01*
X110439845Y-112649000D01*
X111633000Y-112649000D01*
X111633000Y-112629000D01*
X111887000Y-112629000D01*
X111887000Y-112649000D01*
X113080155Y-112649000D01*
X113201476Y-112419110D01*
X113156825Y-112271901D01*
X113031641Y-112009080D01*
X112857588Y-111775731D01*
X112641355Y-111580822D01*
X112524477Y-111511201D01*
X112589014Y-111476706D01*
X112815134Y-111291134D01*
X113000706Y-111065014D01*
X113138599Y-110807034D01*
X113223513Y-110527111D01*
X113252185Y-110236000D01*
X113223513Y-109944889D01*
X113138599Y-109664966D01*
X113000706Y-109406986D01*
X112815134Y-109180866D01*
X112785313Y-109156393D01*
X112854180Y-109135502D01*
X112964494Y-109076537D01*
X113061185Y-108997185D01*
X113140537Y-108900494D01*
X113199502Y-108790180D01*
X113235812Y-108670482D01*
X113248072Y-108546000D01*
X113248072Y-106846000D01*
X113235812Y-106721518D01*
X113199502Y-106601820D01*
X113140537Y-106491506D01*
X113061185Y-106394815D01*
X112964494Y-106315463D01*
X112854180Y-106256498D01*
X112734482Y-106220188D01*
X112610000Y-106207928D01*
X110910000Y-106207928D01*
X110785518Y-106220188D01*
X110665820Y-106256498D01*
X110555506Y-106315463D01*
X110458815Y-106394815D01*
X110379463Y-106491506D01*
X110320498Y-106601820D01*
X110284188Y-106721518D01*
X110271928Y-106846000D01*
X110271928Y-108546000D01*
X110284188Y-108670482D01*
X110320498Y-108790180D01*
X110379463Y-108900494D01*
X110458815Y-108997185D01*
X110555506Y-109076537D01*
X110665820Y-109135502D01*
X110734687Y-109156393D01*
X110704866Y-109180866D01*
X110688342Y-109201000D01*
X107108711Y-109201000D01*
X106699000Y-108791290D01*
X106699000Y-103976975D01*
X106700962Y-103975013D01*
X106847061Y-103756359D01*
X106947696Y-103513405D01*
X106999000Y-103255486D01*
X106999000Y-102992514D01*
X106947696Y-102734595D01*
X106847061Y-102491641D01*
X106700962Y-102272987D01*
X106699000Y-102271025D01*
X106699000Y-93522827D01*
X106704006Y-93471999D01*
X106699000Y-93421171D01*
X106699000Y-93421162D01*
X106684024Y-93269105D01*
X106624841Y-93074007D01*
X106528734Y-92894203D01*
X106399396Y-92736604D01*
X106359908Y-92704197D01*
X104907807Y-91252097D01*
X104875396Y-91212604D01*
X104717797Y-91083266D01*
X104537993Y-90987159D01*
X104342895Y-90927976D01*
X104190838Y-90913000D01*
X104190828Y-90913000D01*
X104140000Y-90907994D01*
X104089172Y-90913000D01*
X98602835Y-90913000D01*
X98552000Y-90907993D01*
X98511753Y-90911957D01*
X104568711Y-84855000D01*
X111196342Y-84855000D01*
X111212866Y-84875134D01*
X111438986Y-85060706D01*
X111493791Y-85090000D01*
X111438986Y-85119294D01*
X111212866Y-85304866D01*
X111196342Y-85325000D01*
X110286827Y-85325000D01*
X110235999Y-85319994D01*
X110185171Y-85325000D01*
X110185162Y-85325000D01*
X110033105Y-85339976D01*
X109838007Y-85399159D01*
X109658203Y-85495266D01*
X109500604Y-85624604D01*
X109468197Y-85664092D01*
X108016097Y-87116193D01*
X107976604Y-87148604D01*
X107847266Y-87306203D01*
X107751159Y-87486008D01*
X107691976Y-87681106D01*
X107677000Y-87833163D01*
X107677000Y-87833172D01*
X107671994Y-87884000D01*
X107677000Y-87934828D01*
X107677001Y-106121153D01*
X107677000Y-106121163D01*
X107677001Y-107594056D01*
X107677000Y-107594061D01*
X107677000Y-107645162D01*
X107671993Y-107696000D01*
X107677000Y-107746838D01*
X107677000Y-107797939D01*
X107686969Y-107848057D01*
X107691976Y-107898895D01*
X107706804Y-107947777D01*
X107716774Y-107997898D01*
X107736331Y-108045113D01*
X107751159Y-108093993D01*
X107775238Y-108139042D01*
X107794795Y-108186256D01*
X107823186Y-108228746D01*
X107847266Y-108273797D01*
X107879672Y-108313284D01*
X107908063Y-108355774D01*
X107944197Y-108391908D01*
X107976604Y-108431396D01*
X108016092Y-108463803D01*
X108052226Y-108499937D01*
X108094716Y-108528328D01*
X108134203Y-108560734D01*
X108179254Y-108584814D01*
X108221744Y-108613205D01*
X108268958Y-108632762D01*
X108314007Y-108656841D01*
X108362887Y-108671669D01*
X108410102Y-108691226D01*
X108460223Y-108701196D01*
X108509105Y-108716024D01*
X108559943Y-108721031D01*
X108610061Y-108731000D01*
X108661162Y-108731000D01*
X108712000Y-108736007D01*
X108762838Y-108731000D01*
X108813939Y-108731000D01*
X108864057Y-108721031D01*
X108914895Y-108716024D01*
X108963777Y-108701196D01*
X109013898Y-108691226D01*
X109061113Y-108671669D01*
X109109993Y-108656841D01*
X109155042Y-108632762D01*
X109202256Y-108613205D01*
X109244746Y-108584814D01*
X109289797Y-108560734D01*
X109329284Y-108528328D01*
X109371774Y-108499937D01*
X109407908Y-108463803D01*
X109447396Y-108431396D01*
X109479803Y-108391908D01*
X109515937Y-108355774D01*
X109544328Y-108313284D01*
X109576734Y-108273797D01*
X109600814Y-108228746D01*
X109629205Y-108186256D01*
X109648762Y-108139042D01*
X109672841Y-108093993D01*
X109687669Y-108045113D01*
X109707226Y-107997898D01*
X109717196Y-107947777D01*
X109732024Y-107898895D01*
X109737031Y-107848057D01*
X109747000Y-107797939D01*
X109747000Y-107746838D01*
X109752007Y-107696000D01*
X109747000Y-107645162D01*
X109747000Y-103124000D01*
X111942541Y-103124000D01*
X111968317Y-103385706D01*
X112044653Y-103637354D01*
X112168618Y-103869275D01*
X112335445Y-104072555D01*
X112538725Y-104239382D01*
X112770646Y-104363347D01*
X113022294Y-104439683D01*
X113218421Y-104459000D01*
X113349579Y-104459000D01*
X113545706Y-104439683D01*
X113797354Y-104363347D01*
X114029275Y-104239382D01*
X114232555Y-104072555D01*
X114399382Y-103869275D01*
X114523347Y-103637354D01*
X114599683Y-103385706D01*
X114625459Y-103124000D01*
X114599683Y-102862294D01*
X114523347Y-102610646D01*
X114399382Y-102378725D01*
X114232555Y-102175445D01*
X114029275Y-102008618D01*
X113797354Y-101884653D01*
X113545706Y-101808317D01*
X113349579Y-101789000D01*
X113218421Y-101789000D01*
X113022294Y-101808317D01*
X112770646Y-101884653D01*
X112538725Y-102008618D01*
X112335445Y-102175445D01*
X112168618Y-102378725D01*
X112044653Y-102610646D01*
X111968317Y-102862294D01*
X111942541Y-103124000D01*
X109747000Y-103124000D01*
X109747000Y-98044000D01*
X110267815Y-98044000D01*
X110296487Y-98335111D01*
X110381401Y-98615034D01*
X110519294Y-98873014D01*
X110704866Y-99099134D01*
X110930986Y-99284706D01*
X111188966Y-99422599D01*
X111468889Y-99507513D01*
X111687050Y-99529000D01*
X111832950Y-99529000D01*
X112051111Y-99507513D01*
X112331034Y-99422599D01*
X112589014Y-99284706D01*
X112815134Y-99099134D01*
X113000706Y-98873014D01*
X113138599Y-98615034D01*
X113223513Y-98335111D01*
X113252185Y-98044000D01*
X113223513Y-97752889D01*
X113138599Y-97472966D01*
X113000706Y-97214986D01*
X112815134Y-96988866D01*
X112589014Y-96803294D01*
X112524477Y-96768799D01*
X112641355Y-96699178D01*
X112857588Y-96504269D01*
X113031641Y-96270920D01*
X113156825Y-96008099D01*
X113201476Y-95860890D01*
X113080155Y-95631000D01*
X111887000Y-95631000D01*
X111887000Y-95651000D01*
X111633000Y-95651000D01*
X111633000Y-95631000D01*
X110439845Y-95631000D01*
X110318524Y-95860890D01*
X110363175Y-96008099D01*
X110488359Y-96270920D01*
X110662412Y-96504269D01*
X110878645Y-96699178D01*
X110995523Y-96768799D01*
X110930986Y-96803294D01*
X110704866Y-96988866D01*
X110519294Y-97214986D01*
X110381401Y-97472966D01*
X110296487Y-97752889D01*
X110267815Y-98044000D01*
X109747000Y-98044000D01*
X109747000Y-92114000D01*
X110271928Y-92114000D01*
X110271928Y-93814000D01*
X110284188Y-93938482D01*
X110320498Y-94058180D01*
X110379463Y-94168494D01*
X110458815Y-94265185D01*
X110555506Y-94344537D01*
X110665820Y-94403502D01*
X110746466Y-94427966D01*
X110662412Y-94503731D01*
X110488359Y-94737080D01*
X110363175Y-94999901D01*
X110318524Y-95147110D01*
X110439845Y-95377000D01*
X111633000Y-95377000D01*
X111633000Y-95357000D01*
X111887000Y-95357000D01*
X111887000Y-95377000D01*
X113080155Y-95377000D01*
X113201476Y-95147110D01*
X113156825Y-94999901D01*
X113031641Y-94737080D01*
X112857588Y-94503731D01*
X112773534Y-94427966D01*
X112854180Y-94403502D01*
X112964494Y-94344537D01*
X113061185Y-94265185D01*
X113140537Y-94168494D01*
X113199502Y-94058180D01*
X113235812Y-93938482D01*
X113248072Y-93814000D01*
X113248072Y-92114000D01*
X113235812Y-91989518D01*
X113199502Y-91869820D01*
X113140537Y-91759506D01*
X113061185Y-91662815D01*
X112964494Y-91583463D01*
X112854180Y-91524498D01*
X112734482Y-91488188D01*
X112610000Y-91475928D01*
X110910000Y-91475928D01*
X110785518Y-91488188D01*
X110665820Y-91524498D01*
X110555506Y-91583463D01*
X110458815Y-91662815D01*
X110379463Y-91759506D01*
X110320498Y-91869820D01*
X110284188Y-91989518D01*
X110271928Y-92114000D01*
X109747000Y-92114000D01*
X109747000Y-88312710D01*
X110664711Y-87395000D01*
X111196342Y-87395000D01*
X111212866Y-87415134D01*
X111438986Y-87600706D01*
X111696966Y-87738599D01*
X111976889Y-87823513D01*
X112195050Y-87845000D01*
X112340950Y-87845000D01*
X112559111Y-87823513D01*
X112839034Y-87738599D01*
X113097014Y-87600706D01*
X113323134Y-87415134D01*
X113508706Y-87189014D01*
X113646599Y-86931034D01*
X113731513Y-86651111D01*
X113760185Y-86360000D01*
X113731513Y-86068889D01*
X113646599Y-85788966D01*
X113508706Y-85530986D01*
X113323134Y-85304866D01*
X113097014Y-85119294D01*
X113042209Y-85090000D01*
X113097014Y-85060706D01*
X113323134Y-84875134D01*
X113508706Y-84649014D01*
X113646599Y-84391034D01*
X113731513Y-84111111D01*
X113760185Y-83820000D01*
X113731513Y-83528889D01*
X113646599Y-83248966D01*
X113508706Y-82990986D01*
X113323134Y-82764866D01*
X113097014Y-82579294D01*
X113032477Y-82544799D01*
X113149355Y-82475178D01*
X113365588Y-82280269D01*
X113539641Y-82046920D01*
X113664825Y-81784099D01*
X113709476Y-81636890D01*
X113588155Y-81407000D01*
X112395000Y-81407000D01*
X112395000Y-81427000D01*
X112141000Y-81427000D01*
X112141000Y-81407000D01*
X110947845Y-81407000D01*
X110826524Y-81636890D01*
X110871175Y-81784099D01*
X110996359Y-82046920D01*
X111170412Y-82280269D01*
X111386645Y-82475178D01*
X111503523Y-82544799D01*
X111438986Y-82579294D01*
X111212866Y-82764866D01*
X111196342Y-82785000D01*
X104190827Y-82785000D01*
X104139999Y-82779994D01*
X104089171Y-82785000D01*
X104089162Y-82785000D01*
X103937105Y-82799976D01*
X103742007Y-82859159D01*
X103658309Y-82903896D01*
X103562202Y-82955266D01*
X103444092Y-83052197D01*
X103404604Y-83084604D01*
X103372197Y-83124092D01*
X93828229Y-92668061D01*
X93828226Y-92668063D01*
X93792092Y-92704197D01*
X93752604Y-92736604D01*
X93720197Y-92776092D01*
X93684063Y-92812226D01*
X93655672Y-92854716D01*
X93623266Y-92894203D01*
X93599186Y-92939254D01*
X93570795Y-92981744D01*
X93551238Y-93028958D01*
X93527159Y-93074007D01*
X93512331Y-93122887D01*
X93492774Y-93170102D01*
X93482804Y-93220223D01*
X93467976Y-93269105D01*
X93462969Y-93319943D01*
X93453000Y-93370061D01*
X93453000Y-93421162D01*
X93447993Y-93472000D01*
X93451957Y-93512246D01*
X87823711Y-87884000D01*
X89383993Y-87884000D01*
X89389000Y-87934838D01*
X89389000Y-87985939D01*
X89398969Y-88036057D01*
X89403976Y-88086895D01*
X89418804Y-88135777D01*
X89428774Y-88185898D01*
X89448331Y-88233113D01*
X89463159Y-88281993D01*
X89487238Y-88327042D01*
X89506795Y-88374256D01*
X89535186Y-88416746D01*
X89559266Y-88461797D01*
X89591672Y-88501284D01*
X89620063Y-88543774D01*
X89656196Y-88579907D01*
X89688604Y-88619396D01*
X89728092Y-88651803D01*
X89764226Y-88687937D01*
X89764229Y-88687939D01*
X91688197Y-90611908D01*
X91720604Y-90651396D01*
X91760092Y-90683803D01*
X91878202Y-90780734D01*
X91974309Y-90832104D01*
X92058007Y-90876841D01*
X92253105Y-90936024D01*
X92405162Y-90951000D01*
X92405164Y-90951000D01*
X92456000Y-90956007D01*
X92506835Y-90951000D01*
X93929172Y-90951000D01*
X93980000Y-90956006D01*
X94030828Y-90951000D01*
X94030838Y-90951000D01*
X94182895Y-90936024D01*
X94377993Y-90876841D01*
X94557797Y-90780734D01*
X94715396Y-90651396D01*
X94747807Y-90611903D01*
X101279908Y-84079803D01*
X101319396Y-84047396D01*
X101351803Y-84007908D01*
X101448734Y-83889798D01*
X101544840Y-83709994D01*
X101544841Y-83709993D01*
X101604024Y-83514895D01*
X101619000Y-83362838D01*
X101619000Y-83362829D01*
X101624006Y-83312001D01*
X101619000Y-83261173D01*
X101619000Y-77890000D01*
X110779928Y-77890000D01*
X110779928Y-79590000D01*
X110792188Y-79714482D01*
X110828498Y-79834180D01*
X110887463Y-79944494D01*
X110966815Y-80041185D01*
X111063506Y-80120537D01*
X111173820Y-80179502D01*
X111254466Y-80203966D01*
X111170412Y-80279731D01*
X110996359Y-80513080D01*
X110871175Y-80775901D01*
X110826524Y-80923110D01*
X110947845Y-81153000D01*
X112141000Y-81153000D01*
X112141000Y-81133000D01*
X112395000Y-81133000D01*
X112395000Y-81153000D01*
X113588155Y-81153000D01*
X113709476Y-80923110D01*
X113664825Y-80775901D01*
X113539641Y-80513080D01*
X113365588Y-80279731D01*
X113281534Y-80203966D01*
X113362180Y-80179502D01*
X113472494Y-80120537D01*
X113569185Y-80041185D01*
X113648537Y-79944494D01*
X113707502Y-79834180D01*
X113743812Y-79714482D01*
X113756072Y-79590000D01*
X113756072Y-77890000D01*
X113743812Y-77765518D01*
X113707502Y-77645820D01*
X113648537Y-77535506D01*
X113569185Y-77438815D01*
X113472494Y-77359463D01*
X113362180Y-77300498D01*
X113242482Y-77264188D01*
X113118000Y-77251928D01*
X111418000Y-77251928D01*
X111293518Y-77264188D01*
X111173820Y-77300498D01*
X111063506Y-77359463D01*
X110966815Y-77438815D01*
X110887463Y-77535506D01*
X110828498Y-77645820D01*
X110792188Y-77765518D01*
X110779928Y-77890000D01*
X101619000Y-77890000D01*
X101619000Y-77271658D01*
X101639134Y-77255134D01*
X101824706Y-77029014D01*
X101859201Y-76964477D01*
X101928822Y-77081355D01*
X102123731Y-77297588D01*
X102357080Y-77471641D01*
X102619901Y-77596825D01*
X102767110Y-77641476D01*
X102997000Y-77520155D01*
X102997000Y-76327000D01*
X103251000Y-76327000D01*
X103251000Y-77520155D01*
X103480890Y-77641476D01*
X103628099Y-77596825D01*
X103890920Y-77471641D01*
X104124269Y-77297588D01*
X104319178Y-77081355D01*
X104468157Y-76831252D01*
X104565481Y-76556891D01*
X104444814Y-76327000D01*
X103251000Y-76327000D01*
X102997000Y-76327000D01*
X102977000Y-76327000D01*
X102977000Y-76073000D01*
X102997000Y-76073000D01*
X102997000Y-74879845D01*
X103251000Y-74879845D01*
X103251000Y-76073000D01*
X104444814Y-76073000D01*
X104565481Y-75843109D01*
X104468157Y-75568748D01*
X104353573Y-75376385D01*
X123795505Y-75376385D01*
X123795505Y-76007615D01*
X123918652Y-76626717D01*
X124160214Y-77209897D01*
X124510906Y-77734746D01*
X124957254Y-78181094D01*
X125482103Y-78531786D01*
X126065283Y-78773348D01*
X126684385Y-78896495D01*
X127315615Y-78896495D01*
X127934717Y-78773348D01*
X128517897Y-78531786D01*
X129042746Y-78181094D01*
X129489094Y-77734746D01*
X129839786Y-77209897D01*
X130081348Y-76626717D01*
X130204495Y-76007615D01*
X130204495Y-75376385D01*
X130081348Y-74757283D01*
X129839786Y-74174103D01*
X129489094Y-73649254D01*
X129042746Y-73202906D01*
X128517897Y-72852214D01*
X127934717Y-72610652D01*
X127315615Y-72487505D01*
X126684385Y-72487505D01*
X126065283Y-72610652D01*
X125482103Y-72852214D01*
X124957254Y-73202906D01*
X124510906Y-73649254D01*
X124160214Y-74174103D01*
X123918652Y-74757283D01*
X123795505Y-75376385D01*
X104353573Y-75376385D01*
X104319178Y-75318645D01*
X104124269Y-75102412D01*
X103890920Y-74928359D01*
X103628099Y-74803175D01*
X103480890Y-74758524D01*
X103251000Y-74879845D01*
X102997000Y-74879845D01*
X102767110Y-74758524D01*
X102619901Y-74803175D01*
X102357080Y-74928359D01*
X102123731Y-75102412D01*
X101928822Y-75318645D01*
X101859201Y-75435523D01*
X101824706Y-75370986D01*
X101639134Y-75144866D01*
X101413014Y-74959294D01*
X101155034Y-74821401D01*
X100875111Y-74736487D01*
X100656950Y-74715000D01*
X100511050Y-74715000D01*
X100292889Y-74736487D01*
X100012966Y-74821401D01*
X99754986Y-74959294D01*
X99528866Y-75144866D01*
X99343294Y-75370986D01*
X99314000Y-75425791D01*
X99284706Y-75370986D01*
X99099134Y-75144866D01*
X98873014Y-74959294D01*
X98615034Y-74821401D01*
X98335111Y-74736487D01*
X98116950Y-74715000D01*
X97971050Y-74715000D01*
X97752889Y-74736487D01*
X97472966Y-74821401D01*
X97214986Y-74959294D01*
X96988866Y-75144866D01*
X96964393Y-75174687D01*
X96943502Y-75105820D01*
X96884537Y-74995506D01*
X96805185Y-74898815D01*
X96708494Y-74819463D01*
X96598180Y-74760498D01*
X96478482Y-74724188D01*
X96354000Y-74711928D01*
X94654000Y-74711928D01*
X94529518Y-74724188D01*
X94409820Y-74760498D01*
X94299506Y-74819463D01*
X94202815Y-74898815D01*
X94123463Y-74995506D01*
X94064498Y-75105820D01*
X94028188Y-75225518D01*
X94015928Y-75350000D01*
X94015928Y-77050000D01*
X94028188Y-77174482D01*
X94064498Y-77294180D01*
X94123463Y-77404494D01*
X94202815Y-77501185D01*
X94299506Y-77580537D01*
X94409820Y-77639502D01*
X94529518Y-77675812D01*
X94654000Y-77688072D01*
X96354000Y-77688072D01*
X96478482Y-77675812D01*
X96598180Y-77639502D01*
X96708494Y-77580537D01*
X96805185Y-77501185D01*
X96884537Y-77404494D01*
X96943502Y-77294180D01*
X96964393Y-77225313D01*
X96988866Y-77255134D01*
X97009000Y-77271658D01*
X97009001Y-82375288D01*
X92812229Y-86572061D01*
X92812226Y-86572063D01*
X92776092Y-86608197D01*
X92736604Y-86640604D01*
X92704197Y-86680092D01*
X92668063Y-86716226D01*
X92639672Y-86758716D01*
X92607266Y-86798203D01*
X92583186Y-86843254D01*
X92554795Y-86885744D01*
X92535238Y-86932958D01*
X92511159Y-86978007D01*
X92496331Y-87026887D01*
X92476774Y-87074102D01*
X92466804Y-87124223D01*
X92451976Y-87173105D01*
X92446969Y-87223943D01*
X92437000Y-87274061D01*
X92437000Y-87325162D01*
X92431993Y-87376000D01*
X92437000Y-87426838D01*
X92437000Y-87477939D01*
X92446969Y-87528057D01*
X92451976Y-87578895D01*
X92466804Y-87627777D01*
X92476774Y-87677898D01*
X92496331Y-87725113D01*
X92511159Y-87773993D01*
X92535238Y-87819042D01*
X92554795Y-87866256D01*
X92583186Y-87908746D01*
X92607266Y-87953797D01*
X92639672Y-87993284D01*
X92668063Y-88035774D01*
X92704197Y-88071908D01*
X92736604Y-88111396D01*
X92776092Y-88143803D01*
X92812226Y-88179937D01*
X92854716Y-88208328D01*
X92894203Y-88240734D01*
X92939254Y-88264814D01*
X92981744Y-88293205D01*
X93028958Y-88312762D01*
X93074007Y-88336841D01*
X93122887Y-88351669D01*
X93170102Y-88371226D01*
X93220223Y-88381196D01*
X93269105Y-88396024D01*
X93319943Y-88401031D01*
X93370061Y-88411000D01*
X93421172Y-88411000D01*
X93472000Y-88416006D01*
X93522828Y-88411000D01*
X93573939Y-88411000D01*
X93624057Y-88401031D01*
X93674895Y-88396024D01*
X93723777Y-88381196D01*
X93773898Y-88371226D01*
X93821113Y-88351669D01*
X93869993Y-88336841D01*
X93915042Y-88312762D01*
X93962256Y-88293205D01*
X94004746Y-88264814D01*
X94049797Y-88240734D01*
X94089284Y-88208328D01*
X94131774Y-88179937D01*
X94167908Y-88143803D01*
X94207396Y-88111396D01*
X94239803Y-88071908D01*
X94275937Y-88035774D01*
X94275939Y-88035771D01*
X98739908Y-83571803D01*
X98779396Y-83539396D01*
X98875735Y-83422007D01*
X98908734Y-83381798D01*
X99004840Y-83201994D01*
X99004841Y-83201993D01*
X99064024Y-83006895D01*
X99079000Y-82854838D01*
X99079000Y-82854829D01*
X99084006Y-82804001D01*
X99079000Y-82753173D01*
X99079000Y-77271658D01*
X99099134Y-77255134D01*
X99284706Y-77029014D01*
X99314000Y-76974209D01*
X99343294Y-77029014D01*
X99528866Y-77255134D01*
X99549000Y-77271658D01*
X99549001Y-82883288D01*
X93551290Y-88881000D01*
X92884711Y-88881000D01*
X91227939Y-87224229D01*
X91227937Y-87224226D01*
X91191803Y-87188092D01*
X91159396Y-87148604D01*
X91119908Y-87116197D01*
X91083774Y-87080063D01*
X91041284Y-87051672D01*
X91001797Y-87019266D01*
X90956746Y-86995186D01*
X90914256Y-86966795D01*
X90867042Y-86947238D01*
X90821993Y-86923159D01*
X90773113Y-86908331D01*
X90725898Y-86888774D01*
X90675777Y-86878804D01*
X90626895Y-86863976D01*
X90576057Y-86858969D01*
X90525939Y-86849000D01*
X90474828Y-86849000D01*
X90424000Y-86843994D01*
X90373172Y-86849000D01*
X90322061Y-86849000D01*
X90271943Y-86858969D01*
X90221105Y-86863976D01*
X90172223Y-86878804D01*
X90122102Y-86888774D01*
X90074887Y-86908331D01*
X90026007Y-86923159D01*
X89980958Y-86947238D01*
X89933744Y-86966795D01*
X89891254Y-86995186D01*
X89846203Y-87019266D01*
X89806716Y-87051672D01*
X89764226Y-87080063D01*
X89728092Y-87116197D01*
X89688604Y-87148604D01*
X89656197Y-87188092D01*
X89620063Y-87224226D01*
X89591672Y-87266716D01*
X89559266Y-87306203D01*
X89535186Y-87351254D01*
X89506795Y-87393744D01*
X89487238Y-87440958D01*
X89463159Y-87486007D01*
X89448331Y-87534887D01*
X89428774Y-87582102D01*
X89418804Y-87632223D01*
X89403976Y-87681105D01*
X89398969Y-87731943D01*
X89389000Y-87782061D01*
X89389000Y-87833162D01*
X89383993Y-87884000D01*
X87823711Y-87884000D01*
X83063807Y-83124097D01*
X83031396Y-83084604D01*
X82873797Y-82955266D01*
X82693993Y-82859159D01*
X82498895Y-82799976D01*
X82346838Y-82785000D01*
X82346828Y-82785000D01*
X82296000Y-82779994D01*
X82245172Y-82785000D01*
X67111658Y-82785000D01*
X67095134Y-82764866D01*
X66869014Y-82579294D01*
X66814209Y-82550000D01*
X66869014Y-82520706D01*
X67095134Y-82335134D01*
X67280706Y-82109014D01*
X67418599Y-81851034D01*
X67503513Y-81571111D01*
X67532185Y-81280000D01*
X86034541Y-81280000D01*
X86060317Y-81541706D01*
X86136653Y-81793354D01*
X86260618Y-82025275D01*
X86427445Y-82228555D01*
X86630725Y-82395382D01*
X86862646Y-82519347D01*
X87114294Y-82595683D01*
X87310421Y-82615000D01*
X87441579Y-82615000D01*
X87637706Y-82595683D01*
X87889354Y-82519347D01*
X88121275Y-82395382D01*
X88324555Y-82228555D01*
X88491382Y-82025275D01*
X88615347Y-81793354D01*
X88691683Y-81541706D01*
X88717459Y-81280000D01*
X88704509Y-81148514D01*
X93661000Y-81148514D01*
X93661000Y-81411486D01*
X93712304Y-81669405D01*
X93812939Y-81912359D01*
X93959038Y-82131013D01*
X94144987Y-82316962D01*
X94363641Y-82463061D01*
X94606595Y-82563696D01*
X94864514Y-82615000D01*
X95127486Y-82615000D01*
X95385405Y-82563696D01*
X95628359Y-82463061D01*
X95847013Y-82316962D01*
X96032962Y-82131013D01*
X96179061Y-81912359D01*
X96279696Y-81669405D01*
X96331000Y-81411486D01*
X96331000Y-81148514D01*
X96279696Y-80890595D01*
X96179061Y-80647641D01*
X96032962Y-80428987D01*
X95847013Y-80243038D01*
X95628359Y-80096939D01*
X95385405Y-79996304D01*
X95127486Y-79945000D01*
X94864514Y-79945000D01*
X94606595Y-79996304D01*
X94363641Y-80096939D01*
X94144987Y-80243038D01*
X93959038Y-80428987D01*
X93812939Y-80647641D01*
X93712304Y-80890595D01*
X93661000Y-81148514D01*
X88704509Y-81148514D01*
X88691683Y-81018294D01*
X88615347Y-80766646D01*
X88491382Y-80534725D01*
X88324555Y-80331445D01*
X88121275Y-80164618D01*
X87889354Y-80040653D01*
X87637706Y-79964317D01*
X87441579Y-79945000D01*
X87310421Y-79945000D01*
X87114294Y-79964317D01*
X86862646Y-80040653D01*
X86630725Y-80164618D01*
X86427445Y-80331445D01*
X86260618Y-80534725D01*
X86136653Y-80766646D01*
X86060317Y-81018294D01*
X86034541Y-81280000D01*
X67532185Y-81280000D01*
X67503513Y-80988889D01*
X67418599Y-80708966D01*
X67280706Y-80450986D01*
X67095134Y-80224866D01*
X66869014Y-80039294D01*
X66814209Y-80010000D01*
X66869014Y-79980706D01*
X67095134Y-79795134D01*
X67280706Y-79569014D01*
X67418599Y-79311034D01*
X67503513Y-79031111D01*
X67532185Y-78740000D01*
X67503513Y-78448889D01*
X67418599Y-78168966D01*
X67280706Y-77910986D01*
X67095134Y-77684866D01*
X67065313Y-77660393D01*
X67134180Y-77639502D01*
X67244494Y-77580537D01*
X67341185Y-77501185D01*
X67420537Y-77404494D01*
X67479502Y-77294180D01*
X67515812Y-77174482D01*
X67528072Y-77050000D01*
X67525000Y-76485750D01*
X67366250Y-76327000D01*
X66167000Y-76327000D01*
X66167000Y-76347000D01*
X65913000Y-76347000D01*
X65913000Y-76327000D01*
X64713750Y-76327000D01*
X64555000Y-76485750D01*
X64551928Y-77050000D01*
X64564188Y-77174482D01*
X64600498Y-77294180D01*
X64659463Y-77404494D01*
X64738815Y-77501185D01*
X64835506Y-77580537D01*
X64945820Y-77639502D01*
X65014687Y-77660393D01*
X64984866Y-77684866D01*
X64799294Y-77910986D01*
X64661401Y-78168966D01*
X64576487Y-78448889D01*
X64547815Y-78740000D01*
X64576487Y-79031111D01*
X64661401Y-79311034D01*
X64799294Y-79569014D01*
X64984866Y-79795134D01*
X65210986Y-79980706D01*
X65265791Y-80010000D01*
X65210986Y-80039294D01*
X64984866Y-80224866D01*
X64799294Y-80450986D01*
X64661401Y-80708966D01*
X64576487Y-80988889D01*
X64547815Y-81280000D01*
X64576487Y-81571111D01*
X64661401Y-81851034D01*
X64799294Y-82109014D01*
X64984866Y-82335134D01*
X65210986Y-82520706D01*
X65265791Y-82550000D01*
X65210986Y-82579294D01*
X64984866Y-82764866D01*
X64799294Y-82990986D01*
X64661401Y-83248966D01*
X64576487Y-83528889D01*
X64547815Y-83820000D01*
X64576487Y-84111111D01*
X64661401Y-84391034D01*
X64799294Y-84649014D01*
X64984866Y-84875134D01*
X65210986Y-85060706D01*
X65265791Y-85090000D01*
X65210986Y-85119294D01*
X64984866Y-85304866D01*
X64799294Y-85530986D01*
X64661401Y-85788966D01*
X64576487Y-86068889D01*
X64547815Y-86360000D01*
X64576487Y-86651111D01*
X64661401Y-86931034D01*
X64799294Y-87189014D01*
X64984866Y-87415134D01*
X65210986Y-87600706D01*
X65265791Y-87630000D01*
X65210986Y-87659294D01*
X64984866Y-87844866D01*
X64799294Y-88070986D01*
X64661401Y-88328966D01*
X64576487Y-88608889D01*
X64547815Y-88900000D01*
X64576487Y-89191111D01*
X64661401Y-89471034D01*
X64799294Y-89729014D01*
X64984866Y-89955134D01*
X65210986Y-90140706D01*
X65265791Y-90170000D01*
X65210986Y-90199294D01*
X64984866Y-90384866D01*
X64799294Y-90610986D01*
X64661401Y-90868966D01*
X64576487Y-91148889D01*
X64547815Y-91440000D01*
X64576487Y-91731111D01*
X64661401Y-92011034D01*
X64799294Y-92269014D01*
X64984866Y-92495134D01*
X65210986Y-92680706D01*
X65265791Y-92710000D01*
X65210986Y-92739294D01*
X64984866Y-92924866D01*
X64799294Y-93150986D01*
X64661401Y-93408966D01*
X64576487Y-93688889D01*
X64547815Y-93980000D01*
X64576487Y-94271111D01*
X64661401Y-94551034D01*
X64799294Y-94809014D01*
X64984866Y-95035134D01*
X65210986Y-95220706D01*
X65265791Y-95250000D01*
X65210986Y-95279294D01*
X64984866Y-95464866D01*
X64799294Y-95690986D01*
X64661401Y-95948966D01*
X64576487Y-96228889D01*
X64547815Y-96520000D01*
X64576487Y-96811111D01*
X64661401Y-97091034D01*
X64799294Y-97349014D01*
X64984866Y-97575134D01*
X65210986Y-97760706D01*
X65265791Y-97790000D01*
X65210986Y-97819294D01*
X64984866Y-98004866D01*
X64799294Y-98230986D01*
X64661401Y-98488966D01*
X64576487Y-98768889D01*
X64547815Y-99060000D01*
X64576487Y-99351111D01*
X64661401Y-99631034D01*
X64799294Y-99889014D01*
X64984866Y-100115134D01*
X65210986Y-100300706D01*
X65265791Y-100330000D01*
X65210986Y-100359294D01*
X64984866Y-100544866D01*
X64799294Y-100770986D01*
X64661401Y-101028966D01*
X64576487Y-101308889D01*
X64547815Y-101600000D01*
X64576487Y-101891111D01*
X64661401Y-102171034D01*
X64799294Y-102429014D01*
X64984866Y-102655134D01*
X65210986Y-102840706D01*
X65265791Y-102870000D01*
X65210986Y-102899294D01*
X64984866Y-103084866D01*
X64799294Y-103310986D01*
X64661401Y-103568966D01*
X64576487Y-103848889D01*
X64547815Y-104140000D01*
X64576487Y-104431111D01*
X64661401Y-104711034D01*
X64799294Y-104969014D01*
X64984866Y-105195134D01*
X65210986Y-105380706D01*
X65265791Y-105410000D01*
X65210986Y-105439294D01*
X64984866Y-105624866D01*
X64799294Y-105850986D01*
X64661401Y-106108966D01*
X64576487Y-106388889D01*
X64547815Y-106680000D01*
X64576487Y-106971111D01*
X64661401Y-107251034D01*
X64799294Y-107509014D01*
X64984866Y-107735134D01*
X65210986Y-107920706D01*
X65265791Y-107950000D01*
X65210986Y-107979294D01*
X64984866Y-108164866D01*
X64799294Y-108390986D01*
X64661401Y-108648966D01*
X64576487Y-108928889D01*
X64547815Y-109220000D01*
X64576487Y-109511111D01*
X64661401Y-109791034D01*
X64799294Y-110049014D01*
X64984866Y-110275134D01*
X65210986Y-110460706D01*
X65265791Y-110490000D01*
X65210986Y-110519294D01*
X64984866Y-110704866D01*
X64968342Y-110725000D01*
X64888754Y-110725000D01*
X64837919Y-110719993D01*
X64787084Y-110725000D01*
X64787081Y-110725000D01*
X64635024Y-110739976D01*
X64439926Y-110799159D01*
X64376614Y-110833000D01*
X64260121Y-110895266D01*
X64210709Y-110935818D01*
X64102523Y-111024604D01*
X64070116Y-111064092D01*
X61280097Y-113854112D01*
X61240604Y-113886523D01*
X61111266Y-114044122D01*
X61015159Y-114223927D01*
X60955976Y-114419025D01*
X60941000Y-114571082D01*
X60941000Y-114571091D01*
X60935994Y-114621919D01*
X53492000Y-114621919D01*
X53492000Y-75376385D01*
X54199505Y-75376385D01*
X54199505Y-76007615D01*
X54322652Y-76626717D01*
X54564214Y-77209897D01*
X54914906Y-77734746D01*
X55361254Y-78181094D01*
X55886103Y-78531786D01*
X56469283Y-78773348D01*
X57088385Y-78896495D01*
X57719615Y-78896495D01*
X58338717Y-78773348D01*
X58921897Y-78531786D01*
X59446746Y-78181094D01*
X59893094Y-77734746D01*
X60243786Y-77209897D01*
X60485348Y-76626717D01*
X60608495Y-76007615D01*
X60608495Y-75376385D01*
X60603247Y-75350000D01*
X64551928Y-75350000D01*
X64555000Y-75914250D01*
X64713750Y-76073000D01*
X65913000Y-76073000D01*
X65913000Y-74873750D01*
X66167000Y-74873750D01*
X66167000Y-76073000D01*
X67366250Y-76073000D01*
X67417027Y-76022223D01*
X73539000Y-76022223D01*
X73539000Y-76377777D01*
X73608365Y-76726499D01*
X73744429Y-77054988D01*
X73941965Y-77350621D01*
X74193379Y-77602035D01*
X74489012Y-77799571D01*
X74817501Y-77935635D01*
X75166223Y-78005000D01*
X75521777Y-78005000D01*
X75870499Y-77935635D01*
X76198988Y-77799571D01*
X76494621Y-77602035D01*
X76746035Y-77350621D01*
X76943571Y-77054988D01*
X77079635Y-76726499D01*
X77149000Y-76377777D01*
X77149000Y-76022223D01*
X78539000Y-76022223D01*
X78539000Y-76377777D01*
X78608365Y-76726499D01*
X78744429Y-77054988D01*
X78941965Y-77350621D01*
X79193379Y-77602035D01*
X79489012Y-77799571D01*
X79817501Y-77935635D01*
X80166223Y-78005000D01*
X80521777Y-78005000D01*
X80870499Y-77935635D01*
X81198988Y-77799571D01*
X81494621Y-77602035D01*
X81640054Y-77456602D01*
X84267003Y-77456602D01*
X84383275Y-77738389D01*
X84701860Y-77896257D01*
X85045122Y-77988938D01*
X85399869Y-78012873D01*
X85752470Y-77967139D01*
X86089373Y-77853495D01*
X86304725Y-77738389D01*
X86420997Y-77456602D01*
X85344000Y-76379605D01*
X84267003Y-77456602D01*
X81640054Y-77456602D01*
X81746035Y-77350621D01*
X81943571Y-77054988D01*
X82079635Y-76726499D01*
X82149000Y-76377777D01*
X82149000Y-76255869D01*
X83531127Y-76255869D01*
X83576861Y-76608470D01*
X83690505Y-76945373D01*
X83805611Y-77160725D01*
X84087398Y-77276997D01*
X85164395Y-76200000D01*
X85523605Y-76200000D01*
X86600602Y-77276997D01*
X86882389Y-77160725D01*
X87040257Y-76842140D01*
X87132938Y-76498878D01*
X87156873Y-76144131D01*
X87111139Y-75791530D01*
X86997495Y-75454627D01*
X86882389Y-75239275D01*
X86600602Y-75123003D01*
X85523605Y-76200000D01*
X85164395Y-76200000D01*
X84087398Y-75123003D01*
X83805611Y-75239275D01*
X83647743Y-75557860D01*
X83555062Y-75901122D01*
X83531127Y-76255869D01*
X82149000Y-76255869D01*
X82149000Y-76022223D01*
X82079635Y-75673501D01*
X81943571Y-75345012D01*
X81746035Y-75049379D01*
X81640054Y-74943398D01*
X84267003Y-74943398D01*
X85344000Y-76020395D01*
X86420997Y-74943398D01*
X86304725Y-74661611D01*
X85986140Y-74503743D01*
X85642878Y-74411062D01*
X85288131Y-74387127D01*
X84935530Y-74432861D01*
X84598627Y-74546505D01*
X84383275Y-74661611D01*
X84267003Y-74943398D01*
X81640054Y-74943398D01*
X81494621Y-74797965D01*
X81198988Y-74600429D01*
X80870499Y-74464365D01*
X80521777Y-74395000D01*
X80166223Y-74395000D01*
X79817501Y-74464365D01*
X79489012Y-74600429D01*
X79193379Y-74797965D01*
X78941965Y-75049379D01*
X78744429Y-75345012D01*
X78608365Y-75673501D01*
X78539000Y-76022223D01*
X77149000Y-76022223D01*
X77079635Y-75673501D01*
X76943571Y-75345012D01*
X76746035Y-75049379D01*
X76494621Y-74797965D01*
X76198988Y-74600429D01*
X75870499Y-74464365D01*
X75521777Y-74395000D01*
X75166223Y-74395000D01*
X74817501Y-74464365D01*
X74489012Y-74600429D01*
X74193379Y-74797965D01*
X73941965Y-75049379D01*
X73744429Y-75345012D01*
X73608365Y-75673501D01*
X73539000Y-76022223D01*
X67417027Y-76022223D01*
X67525000Y-75914250D01*
X67528072Y-75350000D01*
X67515812Y-75225518D01*
X67479502Y-75105820D01*
X67420537Y-74995506D01*
X67341185Y-74898815D01*
X67244494Y-74819463D01*
X67134180Y-74760498D01*
X67014482Y-74724188D01*
X66890000Y-74711928D01*
X66325750Y-74715000D01*
X66167000Y-74873750D01*
X65913000Y-74873750D01*
X65754250Y-74715000D01*
X65190000Y-74711928D01*
X65065518Y-74724188D01*
X64945820Y-74760498D01*
X64835506Y-74819463D01*
X64738815Y-74898815D01*
X64659463Y-74995506D01*
X64600498Y-75105820D01*
X64564188Y-75225518D01*
X64551928Y-75350000D01*
X60603247Y-75350000D01*
X60485348Y-74757283D01*
X60243786Y-74174103D01*
X59893094Y-73649254D01*
X59446746Y-73202906D01*
X58921897Y-72852214D01*
X58338717Y-72610652D01*
X57719615Y-72487505D01*
X57088385Y-72487505D01*
X56469283Y-72610652D01*
X55886103Y-72852214D01*
X55361254Y-73202906D01*
X54914906Y-73649254D01*
X54564214Y-74174103D01*
X54322652Y-74757283D01*
X54199505Y-75376385D01*
X53492000Y-75376385D01*
X53492000Y-71780000D01*
X130912000Y-71780000D01*
X130912001Y-140564000D01*
X130912001Y-140564000D01*
G37*
X130912001Y-140564000D02*
X53492000Y-140564000D01*
X53492000Y-136336385D01*
X54199505Y-136336385D01*
X54199505Y-136967615D01*
X54322652Y-137586717D01*
X54564214Y-138169897D01*
X54914906Y-138694746D01*
X55361254Y-139141094D01*
X55886103Y-139491786D01*
X56469283Y-139733348D01*
X57088385Y-139856495D01*
X57719615Y-139856495D01*
X58338717Y-139733348D01*
X58921897Y-139491786D01*
X59446746Y-139141094D01*
X59893094Y-138694746D01*
X60243786Y-138169897D01*
X60485348Y-137586717D01*
X60608495Y-136967615D01*
X60608495Y-136336385D01*
X60485348Y-135717283D01*
X60243786Y-135134103D01*
X59893094Y-134609254D01*
X59446746Y-134162906D01*
X58921897Y-133812214D01*
X58338717Y-133570652D01*
X57719615Y-133447505D01*
X57088385Y-133447505D01*
X56469283Y-133570652D01*
X55886103Y-133812214D01*
X55361254Y-134162906D01*
X54914906Y-134609254D01*
X54564214Y-135134103D01*
X54322652Y-135717283D01*
X54199505Y-136336385D01*
X53492000Y-136336385D01*
X53492000Y-114621919D01*
X60935994Y-114621919D01*
X60941000Y-114672747D01*
X60941001Y-135077162D01*
X60935994Y-135128000D01*
X60955977Y-135330895D01*
X61015160Y-135525993D01*
X61111266Y-135705797D01*
X61208197Y-135823907D01*
X61240605Y-135863396D01*
X61280092Y-135895802D01*
X63240197Y-137855908D01*
X63272604Y-137895396D01*
X63312092Y-137927803D01*
X63430202Y-138024734D01*
X63526309Y-138076104D01*
X63610007Y-138120841D01*
X63805105Y-138180024D01*
X63957162Y-138195000D01*
X63957164Y-138195000D01*
X64008000Y-138200007D01*
X64058835Y-138195000D01*
X85293172Y-138195000D01*
X85344000Y-138200006D01*
X85394828Y-138195000D01*
X85394838Y-138195000D01*
X85546895Y-138180024D01*
X85741993Y-138120841D01*
X85921797Y-138024734D01*
X86079396Y-137895396D01*
X86111807Y-137855903D01*
X87631325Y-136336385D01*
X123795505Y-136336385D01*
X123795505Y-136967615D01*
X123918652Y-137586717D01*
X124160214Y-138169897D01*
X124510906Y-138694746D01*
X124957254Y-139141094D01*
X125482103Y-139491786D01*
X126065283Y-139733348D01*
X126684385Y-139856495D01*
X127315615Y-139856495D01*
X127934717Y-139733348D01*
X128517897Y-139491786D01*
X129042746Y-139141094D01*
X129489094Y-138694746D01*
X129839786Y-138169897D01*
X130081348Y-137586717D01*
X130204495Y-136967615D01*
X130204495Y-136336385D01*
X130081348Y-135717283D01*
X129839786Y-135134103D01*
X129489094Y-134609254D01*
X129042746Y-134162906D01*
X128517897Y-133812214D01*
X127934717Y-133570652D01*
X127315615Y-133447505D01*
X126684385Y-133447505D01*
X126065283Y-133570652D01*
X125482103Y-133812214D01*
X124957254Y-134162906D01*
X124510906Y-134609254D01*
X124160214Y-135134103D01*
X123918652Y-135717283D01*
X123795505Y-136336385D01*
X87631325Y-136336385D01*
X98674946Y-125292765D01*
X98743818Y-125519808D01*
X98877068Y-125769101D01*
X99056392Y-125987608D01*
X99274899Y-126166932D01*
X99407858Y-126238000D01*
X99274899Y-126309068D01*
X99056392Y-126488392D01*
X98877068Y-126706899D01*
X98743818Y-126956192D01*
X98661764Y-127226691D01*
X98634057Y-127508000D01*
X98661764Y-127789309D01*
X98743818Y-128059808D01*
X98877068Y-128309101D01*
X99056392Y-128527608D01*
X99274899Y-128706932D01*
X99407858Y-128778000D01*
X99274899Y-128849068D01*
X99056392Y-129028392D01*
X98877068Y-129246899D01*
X98743818Y-129496192D01*
X98661764Y-129766691D01*
X98634057Y-130048000D01*
X98661764Y-130329309D01*
X98743818Y-130599808D01*
X98877068Y-130849101D01*
X99056392Y-131067608D01*
X99274899Y-131246932D01*
X99524192Y-131380182D01*
X99794691Y-131462236D01*
X100005508Y-131483000D01*
X100146492Y-131483000D01*
X100357309Y-131462236D01*
X100627808Y-131380182D01*
X100877101Y-131246932D01*
X101095608Y-131067608D01*
X101274932Y-130849101D01*
X101408182Y-130599808D01*
X101490236Y-130329309D01*
X101517943Y-130048000D01*
X101490236Y-129766691D01*
X101408182Y-129496192D01*
X101274932Y-129246899D01*
X101095608Y-129028392D01*
X100877101Y-128849068D01*
X100744142Y-128778000D01*
X100877101Y-128706932D01*
X101095608Y-128527608D01*
X101274932Y-128309101D01*
X101408182Y-128059808D01*
X101467309Y-127864890D01*
X110318524Y-127864890D01*
X110363175Y-128012099D01*
X110488359Y-128274920D01*
X110662412Y-128508269D01*
X110878645Y-128703178D01*
X111128748Y-128852157D01*
X111403109Y-128949481D01*
X111633000Y-128828814D01*
X111633000Y-127635000D01*
X111887000Y-127635000D01*
X111887000Y-128828814D01*
X112116891Y-128949481D01*
X112391252Y-128852157D01*
X112641355Y-128703178D01*
X112857588Y-128508269D01*
X113031641Y-128274920D01*
X113156825Y-128012099D01*
X113201476Y-127864890D01*
X113080155Y-127635000D01*
X111887000Y-127635000D01*
X111633000Y-127635000D01*
X110439845Y-127635000D01*
X110318524Y-127864890D01*
X101467309Y-127864890D01*
X101490236Y-127789309D01*
X101517943Y-127508000D01*
X101490236Y-127226691D01*
X101408182Y-126956192D01*
X101274932Y-126706899D01*
X101095608Y-126488392D01*
X100877101Y-126309068D01*
X100744142Y-126238000D01*
X100877101Y-126166932D01*
X101095608Y-125987608D01*
X101274932Y-125769101D01*
X101408182Y-125519808D01*
X101490236Y-125249309D01*
X101517943Y-124968000D01*
X101490236Y-124686691D01*
X101408182Y-124416192D01*
X101361318Y-124328514D01*
X104329000Y-124328514D01*
X104329000Y-124591486D01*
X104380304Y-124849405D01*
X104480939Y-125092359D01*
X104627038Y-125311013D01*
X104812987Y-125496962D01*
X105031641Y-125643061D01*
X105274595Y-125743696D01*
X105532514Y-125795000D01*
X105795486Y-125795000D01*
X106053405Y-125743696D01*
X106296359Y-125643061D01*
X106515013Y-125496962D01*
X106700962Y-125311013D01*
X106847061Y-125092359D01*
X106947696Y-124849405D01*
X106999000Y-124591486D01*
X106999000Y-124328514D01*
X106947696Y-124070595D01*
X106847061Y-123827641D01*
X106700962Y-123608987D01*
X106515013Y-123423038D01*
X106296359Y-123276939D01*
X106053405Y-123176304D01*
X105795486Y-123125000D01*
X105532514Y-123125000D01*
X105274595Y-123176304D01*
X105031641Y-123276939D01*
X104812987Y-123423038D01*
X104627038Y-123608987D01*
X104480939Y-123827641D01*
X104380304Y-124070595D01*
X104329000Y-124328514D01*
X101361318Y-124328514D01*
X101274932Y-124166899D01*
X101095608Y-123948392D01*
X100877101Y-123769068D01*
X100744142Y-123698000D01*
X100877101Y-123626932D01*
X101095608Y-123447608D01*
X101274932Y-123229101D01*
X101408182Y-122979808D01*
X101490236Y-122709309D01*
X101517943Y-122428000D01*
X110267815Y-122428000D01*
X110296487Y-122719111D01*
X110381401Y-122999034D01*
X110519294Y-123257014D01*
X110704866Y-123483134D01*
X110930986Y-123668706D01*
X110985791Y-123698000D01*
X110930986Y-123727294D01*
X110704866Y-123912866D01*
X110519294Y-124138986D01*
X110381401Y-124396966D01*
X110296487Y-124676889D01*
X110267815Y-124968000D01*
X110296487Y-125259111D01*
X110381401Y-125539034D01*
X110519294Y-125797014D01*
X110704866Y-126023134D01*
X110930986Y-126208706D01*
X110995523Y-126243201D01*
X110878645Y-126312822D01*
X110662412Y-126507731D01*
X110488359Y-126741080D01*
X110363175Y-127003901D01*
X110318524Y-127151110D01*
X110439845Y-127381000D01*
X111633000Y-127381000D01*
X111633000Y-127361000D01*
X111887000Y-127361000D01*
X111887000Y-127381000D01*
X113080155Y-127381000D01*
X113201476Y-127151110D01*
X113156825Y-127003901D01*
X113031641Y-126741080D01*
X112857588Y-126507731D01*
X112641355Y-126312822D01*
X112524477Y-126243201D01*
X112589014Y-126208706D01*
X112815134Y-126023134D01*
X113000706Y-125797014D01*
X113138599Y-125539034D01*
X113223513Y-125259111D01*
X113252185Y-124968000D01*
X113223513Y-124676889D01*
X113138599Y-124396966D01*
X113000706Y-124138986D01*
X112815134Y-123912866D01*
X112589014Y-123727294D01*
X112534209Y-123698000D01*
X112589014Y-123668706D01*
X112815134Y-123483134D01*
X113000706Y-123257014D01*
X113138599Y-122999034D01*
X113223513Y-122719111D01*
X113252185Y-122428000D01*
X113223513Y-122136889D01*
X113138599Y-121856966D01*
X113000706Y-121598986D01*
X112815134Y-121372866D01*
X112785313Y-121348393D01*
X112854180Y-121327502D01*
X112964494Y-121268537D01*
X113061185Y-121189185D01*
X113140537Y-121092494D01*
X113199502Y-120982180D01*
X113235812Y-120862482D01*
X113248072Y-120738000D01*
X113248072Y-119038000D01*
X113235812Y-118913518D01*
X113199502Y-118793820D01*
X113140537Y-118683506D01*
X113061185Y-118586815D01*
X112964494Y-118507463D01*
X112854180Y-118448498D01*
X112734482Y-118412188D01*
X112610000Y-118399928D01*
X110910000Y-118399928D01*
X110785518Y-118412188D01*
X110665820Y-118448498D01*
X110555506Y-118507463D01*
X110458815Y-118586815D01*
X110379463Y-118683506D01*
X110320498Y-118793820D01*
X110284188Y-118913518D01*
X110271928Y-119038000D01*
X110271928Y-120738000D01*
X110284188Y-120862482D01*
X110320498Y-120982180D01*
X110379463Y-121092494D01*
X110458815Y-121189185D01*
X110555506Y-121268537D01*
X110665820Y-121327502D01*
X110734687Y-121348393D01*
X110704866Y-121372866D01*
X110519294Y-121598986D01*
X110381401Y-121856966D01*
X110296487Y-122136889D01*
X110267815Y-122428000D01*
X101517943Y-122428000D01*
X101490236Y-122146691D01*
X101408182Y-121876192D01*
X101274932Y-121626899D01*
X101095608Y-121408392D01*
X100877101Y-121229068D01*
X100744142Y-121158000D01*
X100877101Y-121086932D01*
X101095608Y-120907608D01*
X101274932Y-120689101D01*
X101408182Y-120439808D01*
X101490236Y-120169309D01*
X101517943Y-119888000D01*
X101490236Y-119606691D01*
X101408182Y-119336192D01*
X101274932Y-119086899D01*
X101095608Y-118868392D01*
X100877101Y-118689068D01*
X100744142Y-118618000D01*
X100877101Y-118546932D01*
X101095608Y-118367608D01*
X101274932Y-118149101D01*
X101408182Y-117899808D01*
X101490236Y-117629309D01*
X101517943Y-117348000D01*
X101490236Y-117066691D01*
X101421471Y-116840000D01*
X104322541Y-116840000D01*
X104348317Y-117101706D01*
X104424653Y-117353354D01*
X104548618Y-117585275D01*
X104715445Y-117788555D01*
X104918725Y-117955382D01*
X105150646Y-118079347D01*
X105402294Y-118155683D01*
X105598421Y-118175000D01*
X105729579Y-118175000D01*
X105925706Y-118155683D01*
X106177354Y-118079347D01*
X106409275Y-117955382D01*
X106612555Y-117788555D01*
X106779382Y-117585275D01*
X106903347Y-117353354D01*
X106979683Y-117101706D01*
X107005459Y-116840000D01*
X106979683Y-116578294D01*
X106903347Y-116326646D01*
X106779382Y-116094725D01*
X106612555Y-115891445D01*
X106409275Y-115724618D01*
X106177354Y-115600653D01*
X105925706Y-115524317D01*
X105729579Y-115505000D01*
X105598421Y-115505000D01*
X105402294Y-115524317D01*
X105150646Y-115600653D01*
X104918725Y-115724618D01*
X104715445Y-115891445D01*
X104548618Y-116094725D01*
X104424653Y-116326646D01*
X104348317Y-116578294D01*
X104322541Y-116840000D01*
X101421471Y-116840000D01*
X101408182Y-116796192D01*
X101274932Y-116546899D01*
X101095608Y-116328392D01*
X100877101Y-116149068D01*
X100744142Y-116078000D01*
X100877101Y-116006932D01*
X101095608Y-115827608D01*
X101274932Y-115609101D01*
X101408182Y-115359808D01*
X101490236Y-115089309D01*
X101517943Y-114808000D01*
X101490236Y-114526691D01*
X101408182Y-114256192D01*
X101274932Y-114006899D01*
X101095608Y-113788392D01*
X100877101Y-113609068D01*
X100744142Y-113538000D01*
X100877101Y-113466932D01*
X101095608Y-113287608D01*
X101222581Y-113132890D01*
X110318524Y-113132890D01*
X110363175Y-113280099D01*
X110488359Y-113542920D01*
X110662412Y-113776269D01*
X110878645Y-113971178D01*
X111128748Y-114120157D01*
X111403109Y-114217481D01*
X111633000Y-114096814D01*
X111633000Y-112903000D01*
X111887000Y-112903000D01*
X111887000Y-114096814D01*
X112116891Y-114217481D01*
X112391252Y-114120157D01*
X112641355Y-113971178D01*
X112857588Y-113776269D01*
X113031641Y-113542920D01*
X113156825Y-113280099D01*
X113201476Y-113132890D01*
X113080155Y-112903000D01*
X111887000Y-112903000D01*
X111633000Y-112903000D01*
X110439845Y-112903000D01*
X110318524Y-113132890D01*
X101222581Y-113132890D01*
X101274932Y-113069101D01*
X101408182Y-112819808D01*
X101490236Y-112549309D01*
X101517943Y-112268000D01*
X101490236Y-111986691D01*
X101408182Y-111716192D01*
X101274932Y-111466899D01*
X101095608Y-111248392D01*
X100877101Y-111069068D01*
X100744142Y-110998000D01*
X100877101Y-110926932D01*
X101095608Y-110747608D01*
X101274932Y-110529101D01*
X101408182Y-110279808D01*
X101490236Y-110009309D01*
X101517943Y-109728000D01*
X101490236Y-109446691D01*
X101408182Y-109176192D01*
X101274932Y-108926899D01*
X101095608Y-108708392D01*
X100877101Y-108529068D01*
X100744142Y-108458000D01*
X100877101Y-108386932D01*
X101095608Y-108207608D01*
X101274932Y-107989101D01*
X101408182Y-107739808D01*
X101490236Y-107469309D01*
X101517943Y-107188000D01*
X101490236Y-106906691D01*
X101408182Y-106636192D01*
X101274932Y-106386899D01*
X101095608Y-106168392D01*
X100877101Y-105989068D01*
X100744142Y-105918000D01*
X100877101Y-105846932D01*
X101095608Y-105667608D01*
X101274932Y-105449101D01*
X101408182Y-105199808D01*
X101490236Y-104929309D01*
X101517943Y-104648000D01*
X101490236Y-104366691D01*
X101408182Y-104096192D01*
X101274932Y-103846899D01*
X101095608Y-103628392D01*
X100877101Y-103449068D01*
X100744142Y-103378000D01*
X100877101Y-103306932D01*
X101095608Y-103127608D01*
X101274932Y-102909101D01*
X101408182Y-102659808D01*
X101490236Y-102389309D01*
X101517943Y-102108000D01*
X101490236Y-101826691D01*
X101408182Y-101556192D01*
X101274932Y-101306899D01*
X101095608Y-101088392D01*
X100877101Y-100909068D01*
X100744142Y-100838000D01*
X100877101Y-100766932D01*
X101095608Y-100587608D01*
X101274932Y-100369101D01*
X101408182Y-100119808D01*
X101490236Y-99849309D01*
X101517943Y-99568000D01*
X101490236Y-99286691D01*
X101408182Y-99016192D01*
X101274932Y-98766899D01*
X101095608Y-98548392D01*
X100877101Y-98369068D01*
X100739318Y-98295421D01*
X100931131Y-98180385D01*
X101139519Y-97991414D01*
X101307037Y-97765420D01*
X101427246Y-97511087D01*
X101467904Y-97377039D01*
X101345915Y-97155000D01*
X100203000Y-97155000D01*
X100203000Y-97175000D01*
X99949000Y-97175000D01*
X99949000Y-97155000D01*
X98806085Y-97155000D01*
X98684096Y-97377039D01*
X98724754Y-97511087D01*
X98844963Y-97765420D01*
X99012481Y-97991414D01*
X99220869Y-98180385D01*
X99412682Y-98295421D01*
X99274899Y-98369068D01*
X99056392Y-98548392D01*
X98877068Y-98766899D01*
X98743818Y-99016192D01*
X98661764Y-99286691D01*
X98634057Y-99568000D01*
X98661764Y-99849309D01*
X98743818Y-100119808D01*
X98877068Y-100369101D01*
X99056392Y-100587608D01*
X99274899Y-100766932D01*
X99407858Y-100838000D01*
X99274899Y-100909068D01*
X99056392Y-101088392D01*
X98877068Y-101306899D01*
X98743818Y-101556192D01*
X98661764Y-101826691D01*
X98634057Y-102108000D01*
X98661764Y-102389309D01*
X98743818Y-102659808D01*
X98877068Y-102909101D01*
X99056392Y-103127608D01*
X99274899Y-103306932D01*
X99407858Y-103378000D01*
X99274899Y-103449068D01*
X99056392Y-103628392D01*
X98877068Y-103846899D01*
X98743818Y-104096192D01*
X98661764Y-104366691D01*
X98634057Y-104648000D01*
X98661764Y-104929309D01*
X98743818Y-105199808D01*
X98877068Y-105449101D01*
X99056392Y-105667608D01*
X99274899Y-105846932D01*
X99407858Y-105918000D01*
X99274899Y-105989068D01*
X99056392Y-106168392D01*
X98877068Y-106386899D01*
X98743818Y-106636192D01*
X98661764Y-106906691D01*
X98634057Y-107188000D01*
X98661764Y-107469309D01*
X98743818Y-107739808D01*
X98877068Y-107989101D01*
X99056392Y-108207608D01*
X99274899Y-108386932D01*
X99407858Y-108458000D01*
X99274899Y-108529068D01*
X99056392Y-108708392D01*
X98877068Y-108926899D01*
X98743818Y-109176192D01*
X98661764Y-109446691D01*
X98634057Y-109728000D01*
X98661764Y-110009309D01*
X98743818Y-110279808D01*
X98877068Y-110529101D01*
X99056392Y-110747608D01*
X99274899Y-110926932D01*
X99407858Y-110998000D01*
X99274899Y-111069068D01*
X99056392Y-111248392D01*
X98877068Y-111466899D01*
X98743818Y-111716192D01*
X98661764Y-111986691D01*
X98634057Y-112268000D01*
X98661764Y-112549309D01*
X98743818Y-112819808D01*
X98877068Y-113069101D01*
X99056392Y-113287608D01*
X99274899Y-113466932D01*
X99407858Y-113538000D01*
X99274899Y-113609068D01*
X99075147Y-113773000D01*
X97964711Y-113773000D01*
X96539000Y-112347290D01*
X96539000Y-100368979D01*
X96540774Y-100377898D01*
X96560332Y-100425116D01*
X96575159Y-100473992D01*
X96599237Y-100519039D01*
X96618795Y-100566256D01*
X96647186Y-100608747D01*
X96671266Y-100653797D01*
X96703672Y-100693284D01*
X96732063Y-100735774D01*
X96768197Y-100771908D01*
X96800604Y-100811396D01*
X96840092Y-100843803D01*
X96876226Y-100879937D01*
X96918716Y-100908328D01*
X96958203Y-100940734D01*
X97003254Y-100964814D01*
X97045744Y-100993205D01*
X97092958Y-101012762D01*
X97138007Y-101036841D01*
X97186887Y-101051669D01*
X97234102Y-101071226D01*
X97284223Y-101081196D01*
X97333105Y-101096024D01*
X97383943Y-101101031D01*
X97434061Y-101111000D01*
X97485162Y-101111000D01*
X97536000Y-101116007D01*
X97586838Y-101111000D01*
X97637939Y-101111000D01*
X97688058Y-101101031D01*
X97738894Y-101096024D01*
X97787774Y-101081196D01*
X97837898Y-101071226D01*
X97885116Y-101051668D01*
X97933992Y-101036841D01*
X97979039Y-101012763D01*
X98026256Y-100993205D01*
X98068747Y-100964814D01*
X98113797Y-100940734D01*
X98153284Y-100908328D01*
X98195774Y-100879937D01*
X98231908Y-100843803D01*
X98271396Y-100811396D01*
X98303803Y-100771908D01*
X98339937Y-100735774D01*
X98368328Y-100693284D01*
X98400734Y-100653797D01*
X98424814Y-100608746D01*
X98453205Y-100566256D01*
X98472762Y-100519042D01*
X98496841Y-100473993D01*
X98511669Y-100425113D01*
X98531226Y-100377898D01*
X98541196Y-100327777D01*
X98556024Y-100278895D01*
X98561031Y-100228057D01*
X98571000Y-100177939D01*
X98571000Y-94488000D01*
X98634057Y-94488000D01*
X98661764Y-94769309D01*
X98743818Y-95039808D01*
X98877068Y-95289101D01*
X99056392Y-95507608D01*
X99274899Y-95686932D01*
X99412682Y-95760579D01*
X99220869Y-95875615D01*
X99012481Y-96064586D01*
X98844963Y-96290580D01*
X98724754Y-96544913D01*
X98684096Y-96678961D01*
X98806085Y-96901000D01*
X99949000Y-96901000D01*
X99949000Y-96881000D01*
X100203000Y-96881000D01*
X100203000Y-96901000D01*
X101345915Y-96901000D01*
X101467904Y-96678961D01*
X101427246Y-96544913D01*
X101307037Y-96290580D01*
X101139519Y-96064586D01*
X100931131Y-95875615D01*
X100739318Y-95760579D01*
X100877101Y-95686932D01*
X101095608Y-95507608D01*
X101274932Y-95289101D01*
X101408182Y-95039808D01*
X101490236Y-94769309D01*
X101517943Y-94488000D01*
X101490236Y-94206691D01*
X101408182Y-93936192D01*
X101274932Y-93686899D01*
X101095608Y-93468392D01*
X100877101Y-93289068D01*
X100627808Y-93155818D01*
X100357309Y-93073764D01*
X100146492Y-93053000D01*
X100005508Y-93053000D01*
X99794691Y-93073764D01*
X99524192Y-93155818D01*
X99274899Y-93289068D01*
X99056392Y-93468392D01*
X98877068Y-93686899D01*
X98743818Y-93936192D01*
X98661764Y-94206691D01*
X98634057Y-94488000D01*
X98571000Y-94488000D01*
X98571000Y-93392710D01*
X98980711Y-92983000D01*
X103711290Y-92983000D01*
X104629000Y-93900711D01*
X104629001Y-102271024D01*
X104627038Y-102272987D01*
X104480939Y-102491641D01*
X104380304Y-102734595D01*
X104329000Y-102992514D01*
X104329000Y-103255486D01*
X104380304Y-103513405D01*
X104480939Y-103756359D01*
X104627038Y-103975013D01*
X104629000Y-103976975D01*
X104629001Y-109169162D01*
X104623994Y-109220000D01*
X104643977Y-109422895D01*
X104703160Y-109617993D01*
X104799266Y-109797797D01*
X104832266Y-109838007D01*
X104928605Y-109955396D01*
X104968092Y-109987802D01*
X105912197Y-110931908D01*
X105944604Y-110971396D01*
X105984092Y-111003803D01*
X106102202Y-111100734D01*
X106179848Y-111142236D01*
X106282007Y-111196841D01*
X106477105Y-111256024D01*
X106629162Y-111271000D01*
X106629164Y-111271000D01*
X106680000Y-111276007D01*
X106730835Y-111271000D01*
X110688342Y-111271000D01*
X110704866Y-111291134D01*
X110930986Y-111476706D01*
X110995523Y-111511201D01*
X110878645Y-111580822D01*
X110662412Y-111775731D01*
X110488359Y-112009080D01*
X110363175Y-112271901D01*
X110318524Y-112419110D01*
X110439845Y-112649000D01*
X111633000Y-112649000D01*
X111633000Y-112629000D01*
X111887000Y-112629000D01*
X111887000Y-112649000D01*
X113080155Y-112649000D01*
X113201476Y-112419110D01*
X113156825Y-112271901D01*
X113031641Y-112009080D01*
X112857588Y-111775731D01*
X112641355Y-111580822D01*
X112524477Y-111511201D01*
X112589014Y-111476706D01*
X112815134Y-111291134D01*
X113000706Y-111065014D01*
X113138599Y-110807034D01*
X113223513Y-110527111D01*
X113252185Y-110236000D01*
X113223513Y-109944889D01*
X113138599Y-109664966D01*
X113000706Y-109406986D01*
X112815134Y-109180866D01*
X112785313Y-109156393D01*
X112854180Y-109135502D01*
X112964494Y-109076537D01*
X113061185Y-108997185D01*
X113140537Y-108900494D01*
X113199502Y-108790180D01*
X113235812Y-108670482D01*
X113248072Y-108546000D01*
X113248072Y-106846000D01*
X113235812Y-106721518D01*
X113199502Y-106601820D01*
X113140537Y-106491506D01*
X113061185Y-106394815D01*
X112964494Y-106315463D01*
X112854180Y-106256498D01*
X112734482Y-106220188D01*
X112610000Y-106207928D01*
X110910000Y-106207928D01*
X110785518Y-106220188D01*
X110665820Y-106256498D01*
X110555506Y-106315463D01*
X110458815Y-106394815D01*
X110379463Y-106491506D01*
X110320498Y-106601820D01*
X110284188Y-106721518D01*
X110271928Y-106846000D01*
X110271928Y-108546000D01*
X110284188Y-108670482D01*
X110320498Y-108790180D01*
X110379463Y-108900494D01*
X110458815Y-108997185D01*
X110555506Y-109076537D01*
X110665820Y-109135502D01*
X110734687Y-109156393D01*
X110704866Y-109180866D01*
X110688342Y-109201000D01*
X107108711Y-109201000D01*
X106699000Y-108791290D01*
X106699000Y-103976975D01*
X106700962Y-103975013D01*
X106847061Y-103756359D01*
X106947696Y-103513405D01*
X106999000Y-103255486D01*
X106999000Y-102992514D01*
X106947696Y-102734595D01*
X106847061Y-102491641D01*
X106700962Y-102272987D01*
X106699000Y-102271025D01*
X106699000Y-93522827D01*
X106704006Y-93471999D01*
X106699000Y-93421171D01*
X106699000Y-93421162D01*
X106684024Y-93269105D01*
X106624841Y-93074007D01*
X106528734Y-92894203D01*
X106399396Y-92736604D01*
X106359908Y-92704197D01*
X104907807Y-91252097D01*
X104875396Y-91212604D01*
X104717797Y-91083266D01*
X104537993Y-90987159D01*
X104342895Y-90927976D01*
X104190838Y-90913000D01*
X104190828Y-90913000D01*
X104140000Y-90907994D01*
X104089172Y-90913000D01*
X98602835Y-90913000D01*
X98552000Y-90907993D01*
X98511753Y-90911957D01*
X104568711Y-84855000D01*
X111196342Y-84855000D01*
X111212866Y-84875134D01*
X111438986Y-85060706D01*
X111493791Y-85090000D01*
X111438986Y-85119294D01*
X111212866Y-85304866D01*
X111196342Y-85325000D01*
X110286827Y-85325000D01*
X110235999Y-85319994D01*
X110185171Y-85325000D01*
X110185162Y-85325000D01*
X110033105Y-85339976D01*
X109838007Y-85399159D01*
X109658203Y-85495266D01*
X109500604Y-85624604D01*
X109468197Y-85664092D01*
X108016097Y-87116193D01*
X107976604Y-87148604D01*
X107847266Y-87306203D01*
X107751159Y-87486008D01*
X107691976Y-87681106D01*
X107677000Y-87833163D01*
X107677000Y-87833172D01*
X107671994Y-87884000D01*
X107677000Y-87934828D01*
X107677001Y-106121153D01*
X107677000Y-106121163D01*
X107677001Y-107594056D01*
X107677000Y-107594061D01*
X107677000Y-107645162D01*
X107671993Y-107696000D01*
X107677000Y-107746838D01*
X107677000Y-107797939D01*
X107686969Y-107848057D01*
X107691976Y-107898895D01*
X107706804Y-107947777D01*
X107716774Y-107997898D01*
X107736331Y-108045113D01*
X107751159Y-108093993D01*
X107775238Y-108139042D01*
X107794795Y-108186256D01*
X107823186Y-108228746D01*
X107847266Y-108273797D01*
X107879672Y-108313284D01*
X107908063Y-108355774D01*
X107944197Y-108391908D01*
X107976604Y-108431396D01*
X108016092Y-108463803D01*
X108052226Y-108499937D01*
X108094716Y-108528328D01*
X108134203Y-108560734D01*
X108179254Y-108584814D01*
X108221744Y-108613205D01*
X108268958Y-108632762D01*
X108314007Y-108656841D01*
X108362887Y-108671669D01*
X108410102Y-108691226D01*
X108460223Y-108701196D01*
X108509105Y-108716024D01*
X108559943Y-108721031D01*
X108610061Y-108731000D01*
X108661162Y-108731000D01*
X108712000Y-108736007D01*
X108762838Y-108731000D01*
X108813939Y-108731000D01*
X108864057Y-108721031D01*
X108914895Y-108716024D01*
X108963777Y-108701196D01*
X109013898Y-108691226D01*
X109061113Y-108671669D01*
X109109993Y-108656841D01*
X109155042Y-108632762D01*
X109202256Y-108613205D01*
X109244746Y-108584814D01*
X109289797Y-108560734D01*
X109329284Y-108528328D01*
X109371774Y-108499937D01*
X109407908Y-108463803D01*
X109447396Y-108431396D01*
X109479803Y-108391908D01*
X109515937Y-108355774D01*
X109544328Y-108313284D01*
X109576734Y-108273797D01*
X109600814Y-108228746D01*
X109629205Y-108186256D01*
X109648762Y-108139042D01*
X109672841Y-108093993D01*
X109687669Y-108045113D01*
X109707226Y-107997898D01*
X109717196Y-107947777D01*
X109732024Y-107898895D01*
X109737031Y-107848057D01*
X109747000Y-107797939D01*
X109747000Y-107746838D01*
X109752007Y-107696000D01*
X109747000Y-107645162D01*
X109747000Y-103124000D01*
X111942541Y-103124000D01*
X111968317Y-103385706D01*
X112044653Y-103637354D01*
X112168618Y-103869275D01*
X112335445Y-104072555D01*
X112538725Y-104239382D01*
X112770646Y-104363347D01*
X113022294Y-104439683D01*
X113218421Y-104459000D01*
X113349579Y-104459000D01*
X113545706Y-104439683D01*
X113797354Y-104363347D01*
X114029275Y-104239382D01*
X114232555Y-104072555D01*
X114399382Y-103869275D01*
X114523347Y-103637354D01*
X114599683Y-103385706D01*
X114625459Y-103124000D01*
X114599683Y-102862294D01*
X114523347Y-102610646D01*
X114399382Y-102378725D01*
X114232555Y-102175445D01*
X114029275Y-102008618D01*
X113797354Y-101884653D01*
X113545706Y-101808317D01*
X113349579Y-101789000D01*
X113218421Y-101789000D01*
X113022294Y-101808317D01*
X112770646Y-101884653D01*
X112538725Y-102008618D01*
X112335445Y-102175445D01*
X112168618Y-102378725D01*
X112044653Y-102610646D01*
X111968317Y-102862294D01*
X111942541Y-103124000D01*
X109747000Y-103124000D01*
X109747000Y-98044000D01*
X110267815Y-98044000D01*
X110296487Y-98335111D01*
X110381401Y-98615034D01*
X110519294Y-98873014D01*
X110704866Y-99099134D01*
X110930986Y-99284706D01*
X111188966Y-99422599D01*
X111468889Y-99507513D01*
X111687050Y-99529000D01*
X111832950Y-99529000D01*
X112051111Y-99507513D01*
X112331034Y-99422599D01*
X112589014Y-99284706D01*
X112815134Y-99099134D01*
X113000706Y-98873014D01*
X113138599Y-98615034D01*
X113223513Y-98335111D01*
X113252185Y-98044000D01*
X113223513Y-97752889D01*
X113138599Y-97472966D01*
X113000706Y-97214986D01*
X112815134Y-96988866D01*
X112589014Y-96803294D01*
X112524477Y-96768799D01*
X112641355Y-96699178D01*
X112857588Y-96504269D01*
X113031641Y-96270920D01*
X113156825Y-96008099D01*
X113201476Y-95860890D01*
X113080155Y-95631000D01*
X111887000Y-95631000D01*
X111887000Y-95651000D01*
X111633000Y-95651000D01*
X111633000Y-95631000D01*
X110439845Y-95631000D01*
X110318524Y-95860890D01*
X110363175Y-96008099D01*
X110488359Y-96270920D01*
X110662412Y-96504269D01*
X110878645Y-96699178D01*
X110995523Y-96768799D01*
X110930986Y-96803294D01*
X110704866Y-96988866D01*
X110519294Y-97214986D01*
X110381401Y-97472966D01*
X110296487Y-97752889D01*
X110267815Y-98044000D01*
X109747000Y-98044000D01*
X109747000Y-92114000D01*
X110271928Y-92114000D01*
X110271928Y-93814000D01*
X110284188Y-93938482D01*
X110320498Y-94058180D01*
X110379463Y-94168494D01*
X110458815Y-94265185D01*
X110555506Y-94344537D01*
X110665820Y-94403502D01*
X110746466Y-94427966D01*
X110662412Y-94503731D01*
X110488359Y-94737080D01*
X110363175Y-94999901D01*
X110318524Y-95147110D01*
X110439845Y-95377000D01*
X111633000Y-95377000D01*
X111633000Y-95357000D01*
X111887000Y-95357000D01*
X111887000Y-95377000D01*
X113080155Y-95377000D01*
X113201476Y-95147110D01*
X113156825Y-94999901D01*
X113031641Y-94737080D01*
X112857588Y-94503731D01*
X112773534Y-94427966D01*
X112854180Y-94403502D01*
X112964494Y-94344537D01*
X113061185Y-94265185D01*
X113140537Y-94168494D01*
X113199502Y-94058180D01*
X113235812Y-93938482D01*
X113248072Y-93814000D01*
X113248072Y-92114000D01*
X113235812Y-91989518D01*
X113199502Y-91869820D01*
X113140537Y-91759506D01*
X113061185Y-91662815D01*
X112964494Y-91583463D01*
X112854180Y-91524498D01*
X112734482Y-91488188D01*
X112610000Y-91475928D01*
X110910000Y-91475928D01*
X110785518Y-91488188D01*
X110665820Y-91524498D01*
X110555506Y-91583463D01*
X110458815Y-91662815D01*
X110379463Y-91759506D01*
X110320498Y-91869820D01*
X110284188Y-91989518D01*
X110271928Y-92114000D01*
X109747000Y-92114000D01*
X109747000Y-88312710D01*
X110664711Y-87395000D01*
X111196342Y-87395000D01*
X111212866Y-87415134D01*
X111438986Y-87600706D01*
X111696966Y-87738599D01*
X111976889Y-87823513D01*
X112195050Y-87845000D01*
X112340950Y-87845000D01*
X112559111Y-87823513D01*
X112839034Y-87738599D01*
X113097014Y-87600706D01*
X113323134Y-87415134D01*
X113508706Y-87189014D01*
X113646599Y-86931034D01*
X113731513Y-86651111D01*
X113760185Y-86360000D01*
X113731513Y-86068889D01*
X113646599Y-85788966D01*
X113508706Y-85530986D01*
X113323134Y-85304866D01*
X113097014Y-85119294D01*
X113042209Y-85090000D01*
X113097014Y-85060706D01*
X113323134Y-84875134D01*
X113508706Y-84649014D01*
X113646599Y-84391034D01*
X113731513Y-84111111D01*
X113760185Y-83820000D01*
X113731513Y-83528889D01*
X113646599Y-83248966D01*
X113508706Y-82990986D01*
X113323134Y-82764866D01*
X113097014Y-82579294D01*
X113032477Y-82544799D01*
X113149355Y-82475178D01*
X113365588Y-82280269D01*
X113539641Y-82046920D01*
X113664825Y-81784099D01*
X113709476Y-81636890D01*
X113588155Y-81407000D01*
X112395000Y-81407000D01*
X112395000Y-81427000D01*
X112141000Y-81427000D01*
X112141000Y-81407000D01*
X110947845Y-81407000D01*
X110826524Y-81636890D01*
X110871175Y-81784099D01*
X110996359Y-82046920D01*
X111170412Y-82280269D01*
X111386645Y-82475178D01*
X111503523Y-82544799D01*
X111438986Y-82579294D01*
X111212866Y-82764866D01*
X111196342Y-82785000D01*
X104190827Y-82785000D01*
X104139999Y-82779994D01*
X104089171Y-82785000D01*
X104089162Y-82785000D01*
X103937105Y-82799976D01*
X103742007Y-82859159D01*
X103658309Y-82903896D01*
X103562202Y-82955266D01*
X103444092Y-83052197D01*
X103404604Y-83084604D01*
X103372197Y-83124092D01*
X93828229Y-92668061D01*
X93828226Y-92668063D01*
X93792092Y-92704197D01*
X93752604Y-92736604D01*
X93720197Y-92776092D01*
X93684063Y-92812226D01*
X93655672Y-92854716D01*
X93623266Y-92894203D01*
X93599186Y-92939254D01*
X93570795Y-92981744D01*
X93551238Y-93028958D01*
X93527159Y-93074007D01*
X93512331Y-93122887D01*
X93492774Y-93170102D01*
X93482804Y-93220223D01*
X93467976Y-93269105D01*
X93462969Y-93319943D01*
X93453000Y-93370061D01*
X93453000Y-93421162D01*
X93447993Y-93472000D01*
X93451957Y-93512246D01*
X87823711Y-87884000D01*
X89383993Y-87884000D01*
X89389000Y-87934838D01*
X89389000Y-87985939D01*
X89398969Y-88036057D01*
X89403976Y-88086895D01*
X89418804Y-88135777D01*
X89428774Y-88185898D01*
X89448331Y-88233113D01*
X89463159Y-88281993D01*
X89487238Y-88327042D01*
X89506795Y-88374256D01*
X89535186Y-88416746D01*
X89559266Y-88461797D01*
X89591672Y-88501284D01*
X89620063Y-88543774D01*
X89656196Y-88579907D01*
X89688604Y-88619396D01*
X89728092Y-88651803D01*
X89764226Y-88687937D01*
X89764229Y-88687939D01*
X91688197Y-90611908D01*
X91720604Y-90651396D01*
X91760092Y-90683803D01*
X91878202Y-90780734D01*
X91974309Y-90832104D01*
X92058007Y-90876841D01*
X92253105Y-90936024D01*
X92405162Y-90951000D01*
X92405164Y-90951000D01*
X92456000Y-90956007D01*
X92506835Y-90951000D01*
X93929172Y-90951000D01*
X93980000Y-90956006D01*
X94030828Y-90951000D01*
X94030838Y-90951000D01*
X94182895Y-90936024D01*
X94377993Y-90876841D01*
X94557797Y-90780734D01*
X94715396Y-90651396D01*
X94747807Y-90611903D01*
X101279908Y-84079803D01*
X101319396Y-84047396D01*
X101351803Y-84007908D01*
X101448734Y-83889798D01*
X101544840Y-83709994D01*
X101544841Y-83709993D01*
X101604024Y-83514895D01*
X101619000Y-83362838D01*
X101619000Y-83362829D01*
X101624006Y-83312001D01*
X101619000Y-83261173D01*
X101619000Y-77890000D01*
X110779928Y-77890000D01*
X110779928Y-79590000D01*
X110792188Y-79714482D01*
X110828498Y-79834180D01*
X110887463Y-79944494D01*
X110966815Y-80041185D01*
X111063506Y-80120537D01*
X111173820Y-80179502D01*
X111254466Y-80203966D01*
X111170412Y-80279731D01*
X110996359Y-80513080D01*
X110871175Y-80775901D01*
X110826524Y-80923110D01*
X110947845Y-81153000D01*
X112141000Y-81153000D01*
X112141000Y-81133000D01*
X112395000Y-81133000D01*
X112395000Y-81153000D01*
X113588155Y-81153000D01*
X113709476Y-80923110D01*
X113664825Y-80775901D01*
X113539641Y-80513080D01*
X113365588Y-80279731D01*
X113281534Y-80203966D01*
X113362180Y-80179502D01*
X113472494Y-80120537D01*
X113569185Y-80041185D01*
X113648537Y-79944494D01*
X113707502Y-79834180D01*
X113743812Y-79714482D01*
X113756072Y-79590000D01*
X113756072Y-77890000D01*
X113743812Y-77765518D01*
X113707502Y-77645820D01*
X113648537Y-77535506D01*
X113569185Y-77438815D01*
X113472494Y-77359463D01*
X113362180Y-77300498D01*
X113242482Y-77264188D01*
X113118000Y-77251928D01*
X111418000Y-77251928D01*
X111293518Y-77264188D01*
X111173820Y-77300498D01*
X111063506Y-77359463D01*
X110966815Y-77438815D01*
X110887463Y-77535506D01*
X110828498Y-77645820D01*
X110792188Y-77765518D01*
X110779928Y-77890000D01*
X101619000Y-77890000D01*
X101619000Y-77271658D01*
X101639134Y-77255134D01*
X101824706Y-77029014D01*
X101859201Y-76964477D01*
X101928822Y-77081355D01*
X102123731Y-77297588D01*
X102357080Y-77471641D01*
X102619901Y-77596825D01*
X102767110Y-77641476D01*
X102997000Y-77520155D01*
X102997000Y-76327000D01*
X103251000Y-76327000D01*
X103251000Y-77520155D01*
X103480890Y-77641476D01*
X103628099Y-77596825D01*
X103890920Y-77471641D01*
X104124269Y-77297588D01*
X104319178Y-77081355D01*
X104468157Y-76831252D01*
X104565481Y-76556891D01*
X104444814Y-76327000D01*
X103251000Y-76327000D01*
X102997000Y-76327000D01*
X102977000Y-76327000D01*
X102977000Y-76073000D01*
X102997000Y-76073000D01*
X102997000Y-74879845D01*
X103251000Y-74879845D01*
X103251000Y-76073000D01*
X104444814Y-76073000D01*
X104565481Y-75843109D01*
X104468157Y-75568748D01*
X104353573Y-75376385D01*
X123795505Y-75376385D01*
X123795505Y-76007615D01*
X123918652Y-76626717D01*
X124160214Y-77209897D01*
X124510906Y-77734746D01*
X124957254Y-78181094D01*
X125482103Y-78531786D01*
X126065283Y-78773348D01*
X126684385Y-78896495D01*
X127315615Y-78896495D01*
X127934717Y-78773348D01*
X128517897Y-78531786D01*
X129042746Y-78181094D01*
X129489094Y-77734746D01*
X129839786Y-77209897D01*
X130081348Y-76626717D01*
X130204495Y-76007615D01*
X130204495Y-75376385D01*
X130081348Y-74757283D01*
X129839786Y-74174103D01*
X129489094Y-73649254D01*
X129042746Y-73202906D01*
X128517897Y-72852214D01*
X127934717Y-72610652D01*
X127315615Y-72487505D01*
X126684385Y-72487505D01*
X126065283Y-72610652D01*
X125482103Y-72852214D01*
X124957254Y-73202906D01*
X124510906Y-73649254D01*
X124160214Y-74174103D01*
X123918652Y-74757283D01*
X123795505Y-75376385D01*
X104353573Y-75376385D01*
X104319178Y-75318645D01*
X104124269Y-75102412D01*
X103890920Y-74928359D01*
X103628099Y-74803175D01*
X103480890Y-74758524D01*
X103251000Y-74879845D01*
X102997000Y-74879845D01*
X102767110Y-74758524D01*
X102619901Y-74803175D01*
X102357080Y-74928359D01*
X102123731Y-75102412D01*
X101928822Y-75318645D01*
X101859201Y-75435523D01*
X101824706Y-75370986D01*
X101639134Y-75144866D01*
X101413014Y-74959294D01*
X101155034Y-74821401D01*
X100875111Y-74736487D01*
X100656950Y-74715000D01*
X100511050Y-74715000D01*
X100292889Y-74736487D01*
X100012966Y-74821401D01*
X99754986Y-74959294D01*
X99528866Y-75144866D01*
X99343294Y-75370986D01*
X99314000Y-75425791D01*
X99284706Y-75370986D01*
X99099134Y-75144866D01*
X98873014Y-74959294D01*
X98615034Y-74821401D01*
X98335111Y-74736487D01*
X98116950Y-74715000D01*
X97971050Y-74715000D01*
X97752889Y-74736487D01*
X97472966Y-74821401D01*
X97214986Y-74959294D01*
X96988866Y-75144866D01*
X96964393Y-75174687D01*
X96943502Y-75105820D01*
X96884537Y-74995506D01*
X96805185Y-74898815D01*
X96708494Y-74819463D01*
X96598180Y-74760498D01*
X96478482Y-74724188D01*
X96354000Y-74711928D01*
X94654000Y-74711928D01*
X94529518Y-74724188D01*
X94409820Y-74760498D01*
X94299506Y-74819463D01*
X94202815Y-74898815D01*
X94123463Y-74995506D01*
X94064498Y-75105820D01*
X94028188Y-75225518D01*
X94015928Y-75350000D01*
X94015928Y-77050000D01*
X94028188Y-77174482D01*
X94064498Y-77294180D01*
X94123463Y-77404494D01*
X94202815Y-77501185D01*
X94299506Y-77580537D01*
X94409820Y-77639502D01*
X94529518Y-77675812D01*
X94654000Y-77688072D01*
X96354000Y-77688072D01*
X96478482Y-77675812D01*
X96598180Y-77639502D01*
X96708494Y-77580537D01*
X96805185Y-77501185D01*
X96884537Y-77404494D01*
X96943502Y-77294180D01*
X96964393Y-77225313D01*
X96988866Y-77255134D01*
X97009000Y-77271658D01*
X97009001Y-82375288D01*
X92812229Y-86572061D01*
X92812226Y-86572063D01*
X92776092Y-86608197D01*
X92736604Y-86640604D01*
X92704197Y-86680092D01*
X92668063Y-86716226D01*
X92639672Y-86758716D01*
X92607266Y-86798203D01*
X92583186Y-86843254D01*
X92554795Y-86885744D01*
X92535238Y-86932958D01*
X92511159Y-86978007D01*
X92496331Y-87026887D01*
X92476774Y-87074102D01*
X92466804Y-87124223D01*
X92451976Y-87173105D01*
X92446969Y-87223943D01*
X92437000Y-87274061D01*
X92437000Y-87325162D01*
X92431993Y-87376000D01*
X92437000Y-87426838D01*
X92437000Y-87477939D01*
X92446969Y-87528057D01*
X92451976Y-87578895D01*
X92466804Y-87627777D01*
X92476774Y-87677898D01*
X92496331Y-87725113D01*
X92511159Y-87773993D01*
X92535238Y-87819042D01*
X92554795Y-87866256D01*
X92583186Y-87908746D01*
X92607266Y-87953797D01*
X92639672Y-87993284D01*
X92668063Y-88035774D01*
X92704197Y-88071908D01*
X92736604Y-88111396D01*
X92776092Y-88143803D01*
X92812226Y-88179937D01*
X92854716Y-88208328D01*
X92894203Y-88240734D01*
X92939254Y-88264814D01*
X92981744Y-88293205D01*
X93028958Y-88312762D01*
X93074007Y-88336841D01*
X93122887Y-88351669D01*
X93170102Y-88371226D01*
X93220223Y-88381196D01*
X93269105Y-88396024D01*
X93319943Y-88401031D01*
X93370061Y-88411000D01*
X93421172Y-88411000D01*
X93472000Y-88416006D01*
X93522828Y-88411000D01*
X93573939Y-88411000D01*
X93624057Y-88401031D01*
X93674895Y-88396024D01*
X93723777Y-88381196D01*
X93773898Y-88371226D01*
X93821113Y-88351669D01*
X93869993Y-88336841D01*
X93915042Y-88312762D01*
X93962256Y-88293205D01*
X94004746Y-88264814D01*
X94049797Y-88240734D01*
X94089284Y-88208328D01*
X94131774Y-88179937D01*
X94167908Y-88143803D01*
X94207396Y-88111396D01*
X94239803Y-88071908D01*
X94275937Y-88035774D01*
X94275939Y-88035771D01*
X98739908Y-83571803D01*
X98779396Y-83539396D01*
X98875735Y-83422007D01*
X98908734Y-83381798D01*
X99004840Y-83201994D01*
X99004841Y-83201993D01*
X99064024Y-83006895D01*
X99079000Y-82854838D01*
X99079000Y-82854829D01*
X99084006Y-82804001D01*
X99079000Y-82753173D01*
X99079000Y-77271658D01*
X99099134Y-77255134D01*
X99284706Y-77029014D01*
X99314000Y-76974209D01*
X99343294Y-77029014D01*
X99528866Y-77255134D01*
X99549000Y-77271658D01*
X99549001Y-82883288D01*
X93551290Y-88881000D01*
X92884711Y-88881000D01*
X91227939Y-87224229D01*
X91227937Y-87224226D01*
X91191803Y-87188092D01*
X91159396Y-87148604D01*
X91119908Y-87116197D01*
X91083774Y-87080063D01*
X91041284Y-87051672D01*
X91001797Y-87019266D01*
X90956746Y-86995186D01*
X90914256Y-86966795D01*
X90867042Y-86947238D01*
X90821993Y-86923159D01*
X90773113Y-86908331D01*
X90725898Y-86888774D01*
X90675777Y-86878804D01*
X90626895Y-86863976D01*
X90576057Y-86858969D01*
X90525939Y-86849000D01*
X90474828Y-86849000D01*
X90424000Y-86843994D01*
X90373172Y-86849000D01*
X90322061Y-86849000D01*
X90271943Y-86858969D01*
X90221105Y-86863976D01*
X90172223Y-86878804D01*
X90122102Y-86888774D01*
X90074887Y-86908331D01*
X90026007Y-86923159D01*
X89980958Y-86947238D01*
X89933744Y-86966795D01*
X89891254Y-86995186D01*
X89846203Y-87019266D01*
X89806716Y-87051672D01*
X89764226Y-87080063D01*
X89728092Y-87116197D01*
X89688604Y-87148604D01*
X89656197Y-87188092D01*
X89620063Y-87224226D01*
X89591672Y-87266716D01*
X89559266Y-87306203D01*
X89535186Y-87351254D01*
X89506795Y-87393744D01*
X89487238Y-87440958D01*
X89463159Y-87486007D01*
X89448331Y-87534887D01*
X89428774Y-87582102D01*
X89418804Y-87632223D01*
X89403976Y-87681105D01*
X89398969Y-87731943D01*
X89389000Y-87782061D01*
X89389000Y-87833162D01*
X89383993Y-87884000D01*
X87823711Y-87884000D01*
X83063807Y-83124097D01*
X83031396Y-83084604D01*
X82873797Y-82955266D01*
X82693993Y-82859159D01*
X82498895Y-82799976D01*
X82346838Y-82785000D01*
X82346828Y-82785000D01*
X82296000Y-82779994D01*
X82245172Y-82785000D01*
X67111658Y-82785000D01*
X67095134Y-82764866D01*
X66869014Y-82579294D01*
X66814209Y-82550000D01*
X66869014Y-82520706D01*
X67095134Y-82335134D01*
X67280706Y-82109014D01*
X67418599Y-81851034D01*
X67503513Y-81571111D01*
X67532185Y-81280000D01*
X86034541Y-81280000D01*
X86060317Y-81541706D01*
X86136653Y-81793354D01*
X86260618Y-82025275D01*
X86427445Y-82228555D01*
X86630725Y-82395382D01*
X86862646Y-82519347D01*
X87114294Y-82595683D01*
X87310421Y-82615000D01*
X87441579Y-82615000D01*
X87637706Y-82595683D01*
X87889354Y-82519347D01*
X88121275Y-82395382D01*
X88324555Y-82228555D01*
X88491382Y-82025275D01*
X88615347Y-81793354D01*
X88691683Y-81541706D01*
X88717459Y-81280000D01*
X88704509Y-81148514D01*
X93661000Y-81148514D01*
X93661000Y-81411486D01*
X93712304Y-81669405D01*
X93812939Y-81912359D01*
X93959038Y-82131013D01*
X94144987Y-82316962D01*
X94363641Y-82463061D01*
X94606595Y-82563696D01*
X94864514Y-82615000D01*
X95127486Y-82615000D01*
X95385405Y-82563696D01*
X95628359Y-82463061D01*
X95847013Y-82316962D01*
X96032962Y-82131013D01*
X96179061Y-81912359D01*
X96279696Y-81669405D01*
X96331000Y-81411486D01*
X96331000Y-81148514D01*
X96279696Y-80890595D01*
X96179061Y-80647641D01*
X96032962Y-80428987D01*
X95847013Y-80243038D01*
X95628359Y-80096939D01*
X95385405Y-79996304D01*
X95127486Y-79945000D01*
X94864514Y-79945000D01*
X94606595Y-79996304D01*
X94363641Y-80096939D01*
X94144987Y-80243038D01*
X93959038Y-80428987D01*
X93812939Y-80647641D01*
X93712304Y-80890595D01*
X93661000Y-81148514D01*
X88704509Y-81148514D01*
X88691683Y-81018294D01*
X88615347Y-80766646D01*
X88491382Y-80534725D01*
X88324555Y-80331445D01*
X88121275Y-80164618D01*
X87889354Y-80040653D01*
X87637706Y-79964317D01*
X87441579Y-79945000D01*
X87310421Y-79945000D01*
X87114294Y-79964317D01*
X86862646Y-80040653D01*
X86630725Y-80164618D01*
X86427445Y-80331445D01*
X86260618Y-80534725D01*
X86136653Y-80766646D01*
X86060317Y-81018294D01*
X86034541Y-81280000D01*
X67532185Y-81280000D01*
X67503513Y-80988889D01*
X67418599Y-80708966D01*
X67280706Y-80450986D01*
X67095134Y-80224866D01*
X66869014Y-80039294D01*
X66814209Y-80010000D01*
X66869014Y-79980706D01*
X67095134Y-79795134D01*
X67280706Y-79569014D01*
X67418599Y-79311034D01*
X67503513Y-79031111D01*
X67532185Y-78740000D01*
X67503513Y-78448889D01*
X67418599Y-78168966D01*
X67280706Y-77910986D01*
X67095134Y-77684866D01*
X67065313Y-77660393D01*
X67134180Y-77639502D01*
X67244494Y-77580537D01*
X67341185Y-77501185D01*
X67420537Y-77404494D01*
X67479502Y-77294180D01*
X67515812Y-77174482D01*
X67528072Y-77050000D01*
X67525000Y-76485750D01*
X67366250Y-76327000D01*
X66167000Y-76327000D01*
X66167000Y-76347000D01*
X65913000Y-76347000D01*
X65913000Y-76327000D01*
X64713750Y-76327000D01*
X64555000Y-76485750D01*
X64551928Y-77050000D01*
X64564188Y-77174482D01*
X64600498Y-77294180D01*
X64659463Y-77404494D01*
X64738815Y-77501185D01*
X64835506Y-77580537D01*
X64945820Y-77639502D01*
X65014687Y-77660393D01*
X64984866Y-77684866D01*
X64799294Y-77910986D01*
X64661401Y-78168966D01*
X64576487Y-78448889D01*
X64547815Y-78740000D01*
X64576487Y-79031111D01*
X64661401Y-79311034D01*
X64799294Y-79569014D01*
X64984866Y-79795134D01*
X65210986Y-79980706D01*
X65265791Y-80010000D01*
X65210986Y-80039294D01*
X64984866Y-80224866D01*
X64799294Y-80450986D01*
X64661401Y-80708966D01*
X64576487Y-80988889D01*
X64547815Y-81280000D01*
X64576487Y-81571111D01*
X64661401Y-81851034D01*
X64799294Y-82109014D01*
X64984866Y-82335134D01*
X65210986Y-82520706D01*
X65265791Y-82550000D01*
X65210986Y-82579294D01*
X64984866Y-82764866D01*
X64799294Y-82990986D01*
X64661401Y-83248966D01*
X64576487Y-83528889D01*
X64547815Y-83820000D01*
X64576487Y-84111111D01*
X64661401Y-84391034D01*
X64799294Y-84649014D01*
X64984866Y-84875134D01*
X65210986Y-85060706D01*
X65265791Y-85090000D01*
X65210986Y-85119294D01*
X64984866Y-85304866D01*
X64799294Y-85530986D01*
X64661401Y-85788966D01*
X64576487Y-86068889D01*
X64547815Y-86360000D01*
X64576487Y-86651111D01*
X64661401Y-86931034D01*
X64799294Y-87189014D01*
X64984866Y-87415134D01*
X65210986Y-87600706D01*
X65265791Y-87630000D01*
X65210986Y-87659294D01*
X64984866Y-87844866D01*
X64799294Y-88070986D01*
X64661401Y-88328966D01*
X64576487Y-88608889D01*
X64547815Y-88900000D01*
X64576487Y-89191111D01*
X64661401Y-89471034D01*
X64799294Y-89729014D01*
X64984866Y-89955134D01*
X65210986Y-90140706D01*
X65265791Y-90170000D01*
X65210986Y-90199294D01*
X64984866Y-90384866D01*
X64799294Y-90610986D01*
X64661401Y-90868966D01*
X64576487Y-91148889D01*
X64547815Y-91440000D01*
X64576487Y-91731111D01*
X64661401Y-92011034D01*
X64799294Y-92269014D01*
X64984866Y-92495134D01*
X65210986Y-92680706D01*
X65265791Y-92710000D01*
X65210986Y-92739294D01*
X64984866Y-92924866D01*
X64799294Y-93150986D01*
X64661401Y-93408966D01*
X64576487Y-93688889D01*
X64547815Y-93980000D01*
X64576487Y-94271111D01*
X64661401Y-94551034D01*
X64799294Y-94809014D01*
X64984866Y-95035134D01*
X65210986Y-95220706D01*
X65265791Y-95250000D01*
X65210986Y-95279294D01*
X64984866Y-95464866D01*
X64799294Y-95690986D01*
X64661401Y-95948966D01*
X64576487Y-96228889D01*
X64547815Y-96520000D01*
X64576487Y-96811111D01*
X64661401Y-97091034D01*
X64799294Y-97349014D01*
X64984866Y-97575134D01*
X65210986Y-97760706D01*
X65265791Y-97790000D01*
X65210986Y-97819294D01*
X64984866Y-98004866D01*
X64799294Y-98230986D01*
X64661401Y-98488966D01*
X64576487Y-98768889D01*
X64547815Y-99060000D01*
X64576487Y-99351111D01*
X64661401Y-99631034D01*
X64799294Y-99889014D01*
X64984866Y-100115134D01*
X65210986Y-100300706D01*
X65265791Y-100330000D01*
X65210986Y-100359294D01*
X64984866Y-100544866D01*
X64799294Y-100770986D01*
X64661401Y-101028966D01*
X64576487Y-101308889D01*
X64547815Y-101600000D01*
X64576487Y-101891111D01*
X64661401Y-102171034D01*
X64799294Y-102429014D01*
X64984866Y-102655134D01*
X65210986Y-102840706D01*
X65265791Y-102870000D01*
X65210986Y-102899294D01*
X64984866Y-103084866D01*
X64799294Y-103310986D01*
X64661401Y-103568966D01*
X64576487Y-103848889D01*
X64547815Y-104140000D01*
X64576487Y-104431111D01*
X64661401Y-104711034D01*
X64799294Y-104969014D01*
X64984866Y-105195134D01*
X65210986Y-105380706D01*
X65265791Y-105410000D01*
X65210986Y-105439294D01*
X64984866Y-105624866D01*
X64799294Y-105850986D01*
X64661401Y-106108966D01*
X64576487Y-106388889D01*
X64547815Y-106680000D01*
X64576487Y-106971111D01*
X64661401Y-107251034D01*
X64799294Y-107509014D01*
X64984866Y-107735134D01*
X65210986Y-107920706D01*
X65265791Y-107950000D01*
X65210986Y-107979294D01*
X64984866Y-108164866D01*
X64799294Y-108390986D01*
X64661401Y-108648966D01*
X64576487Y-108928889D01*
X64547815Y-109220000D01*
X64576487Y-109511111D01*
X64661401Y-109791034D01*
X64799294Y-110049014D01*
X64984866Y-110275134D01*
X65210986Y-110460706D01*
X65265791Y-110490000D01*
X65210986Y-110519294D01*
X64984866Y-110704866D01*
X64968342Y-110725000D01*
X64888754Y-110725000D01*
X64837919Y-110719993D01*
X64787084Y-110725000D01*
X64787081Y-110725000D01*
X64635024Y-110739976D01*
X64439926Y-110799159D01*
X64376614Y-110833000D01*
X64260121Y-110895266D01*
X64210709Y-110935818D01*
X64102523Y-111024604D01*
X64070116Y-111064092D01*
X61280097Y-113854112D01*
X61240604Y-113886523D01*
X61111266Y-114044122D01*
X61015159Y-114223927D01*
X60955976Y-114419025D01*
X60941000Y-114571082D01*
X60941000Y-114571091D01*
X60935994Y-114621919D01*
X53492000Y-114621919D01*
X53492000Y-75376385D01*
X54199505Y-75376385D01*
X54199505Y-76007615D01*
X54322652Y-76626717D01*
X54564214Y-77209897D01*
X54914906Y-77734746D01*
X55361254Y-78181094D01*
X55886103Y-78531786D01*
X56469283Y-78773348D01*
X57088385Y-78896495D01*
X57719615Y-78896495D01*
X58338717Y-78773348D01*
X58921897Y-78531786D01*
X59446746Y-78181094D01*
X59893094Y-77734746D01*
X60243786Y-77209897D01*
X60485348Y-76626717D01*
X60608495Y-76007615D01*
X60608495Y-75376385D01*
X60603247Y-75350000D01*
X64551928Y-75350000D01*
X64555000Y-75914250D01*
X64713750Y-76073000D01*
X65913000Y-76073000D01*
X65913000Y-74873750D01*
X66167000Y-74873750D01*
X66167000Y-76073000D01*
X67366250Y-76073000D01*
X67417027Y-76022223D01*
X73539000Y-76022223D01*
X73539000Y-76377777D01*
X73608365Y-76726499D01*
X73744429Y-77054988D01*
X73941965Y-77350621D01*
X74193379Y-77602035D01*
X74489012Y-77799571D01*
X74817501Y-77935635D01*
X75166223Y-78005000D01*
X75521777Y-78005000D01*
X75870499Y-77935635D01*
X76198988Y-77799571D01*
X76494621Y-77602035D01*
X76746035Y-77350621D01*
X76943571Y-77054988D01*
X77079635Y-76726499D01*
X77149000Y-76377777D01*
X77149000Y-76022223D01*
X78539000Y-76022223D01*
X78539000Y-76377777D01*
X78608365Y-76726499D01*
X78744429Y-77054988D01*
X78941965Y-77350621D01*
X79193379Y-77602035D01*
X79489012Y-77799571D01*
X79817501Y-77935635D01*
X80166223Y-78005000D01*
X80521777Y-78005000D01*
X80870499Y-77935635D01*
X81198988Y-77799571D01*
X81494621Y-77602035D01*
X81640054Y-77456602D01*
X84267003Y-77456602D01*
X84383275Y-77738389D01*
X84701860Y-77896257D01*
X85045122Y-77988938D01*
X85399869Y-78012873D01*
X85752470Y-77967139D01*
X86089373Y-77853495D01*
X86304725Y-77738389D01*
X86420997Y-77456602D01*
X85344000Y-76379605D01*
X84267003Y-77456602D01*
X81640054Y-77456602D01*
X81746035Y-77350621D01*
X81943571Y-77054988D01*
X82079635Y-76726499D01*
X82149000Y-76377777D01*
X82149000Y-76255869D01*
X83531127Y-76255869D01*
X83576861Y-76608470D01*
X83690505Y-76945373D01*
X83805611Y-77160725D01*
X84087398Y-77276997D01*
X85164395Y-76200000D01*
X85523605Y-76200000D01*
X86600602Y-77276997D01*
X86882389Y-77160725D01*
X87040257Y-76842140D01*
X87132938Y-76498878D01*
X87156873Y-76144131D01*
X87111139Y-75791530D01*
X86997495Y-75454627D01*
X86882389Y-75239275D01*
X86600602Y-75123003D01*
X85523605Y-76200000D01*
X85164395Y-76200000D01*
X84087398Y-75123003D01*
X83805611Y-75239275D01*
X83647743Y-75557860D01*
X83555062Y-75901122D01*
X83531127Y-76255869D01*
X82149000Y-76255869D01*
X82149000Y-76022223D01*
X82079635Y-75673501D01*
X81943571Y-75345012D01*
X81746035Y-75049379D01*
X81640054Y-74943398D01*
X84267003Y-74943398D01*
X85344000Y-76020395D01*
X86420997Y-74943398D01*
X86304725Y-74661611D01*
X85986140Y-74503743D01*
X85642878Y-74411062D01*
X85288131Y-74387127D01*
X84935530Y-74432861D01*
X84598627Y-74546505D01*
X84383275Y-74661611D01*
X84267003Y-74943398D01*
X81640054Y-74943398D01*
X81494621Y-74797965D01*
X81198988Y-74600429D01*
X80870499Y-74464365D01*
X80521777Y-74395000D01*
X80166223Y-74395000D01*
X79817501Y-74464365D01*
X79489012Y-74600429D01*
X79193379Y-74797965D01*
X78941965Y-75049379D01*
X78744429Y-75345012D01*
X78608365Y-75673501D01*
X78539000Y-76022223D01*
X77149000Y-76022223D01*
X77079635Y-75673501D01*
X76943571Y-75345012D01*
X76746035Y-75049379D01*
X76494621Y-74797965D01*
X76198988Y-74600429D01*
X75870499Y-74464365D01*
X75521777Y-74395000D01*
X75166223Y-74395000D01*
X74817501Y-74464365D01*
X74489012Y-74600429D01*
X74193379Y-74797965D01*
X73941965Y-75049379D01*
X73744429Y-75345012D01*
X73608365Y-75673501D01*
X73539000Y-76022223D01*
X67417027Y-76022223D01*
X67525000Y-75914250D01*
X67528072Y-75350000D01*
X67515812Y-75225518D01*
X67479502Y-75105820D01*
X67420537Y-74995506D01*
X67341185Y-74898815D01*
X67244494Y-74819463D01*
X67134180Y-74760498D01*
X67014482Y-74724188D01*
X66890000Y-74711928D01*
X66325750Y-74715000D01*
X66167000Y-74873750D01*
X65913000Y-74873750D01*
X65754250Y-74715000D01*
X65190000Y-74711928D01*
X65065518Y-74724188D01*
X64945820Y-74760498D01*
X64835506Y-74819463D01*
X64738815Y-74898815D01*
X64659463Y-74995506D01*
X64600498Y-75105820D01*
X64564188Y-75225518D01*
X64551928Y-75350000D01*
X60603247Y-75350000D01*
X60485348Y-74757283D01*
X60243786Y-74174103D01*
X59893094Y-73649254D01*
X59446746Y-73202906D01*
X58921897Y-72852214D01*
X58338717Y-72610652D01*
X57719615Y-72487505D01*
X57088385Y-72487505D01*
X56469283Y-72610652D01*
X55886103Y-72852214D01*
X55361254Y-73202906D01*
X54914906Y-73649254D01*
X54564214Y-74174103D01*
X54322652Y-74757283D01*
X54199505Y-75376385D01*
X53492000Y-75376385D01*
X53492000Y-71780000D01*
X130912000Y-71780000D01*
X130912001Y-140564000D01*
G36*
X85156092Y-92715803D02*
G01*
X85156098Y-92715808D01*
X85490218Y-93049928D01*
X84036000Y-93049928D01*
X83911518Y-93062188D01*
X83791820Y-93098498D01*
X83681506Y-93157463D01*
X83584815Y-93236815D01*
X83505463Y-93333506D01*
X83446498Y-93443820D01*
X83410188Y-93563518D01*
X83397928Y-93688000D01*
X83397928Y-95288000D01*
X83410188Y-95412482D01*
X83446498Y-95532180D01*
X83505463Y-95642494D01*
X83584815Y-95739185D01*
X83681506Y-95818537D01*
X83791820Y-95877502D01*
X83911518Y-95913812D01*
X83929482Y-95915581D01*
X83816392Y-96008392D01*
X83637068Y-96226899D01*
X83503818Y-96476192D01*
X83421764Y-96746691D01*
X83394057Y-97028000D01*
X83421764Y-97309309D01*
X83503818Y-97579808D01*
X83637068Y-97829101D01*
X83816392Y-98047608D01*
X84034899Y-98226932D01*
X84167858Y-98298000D01*
X84034899Y-98369068D01*
X83816392Y-98548392D01*
X83637068Y-98766899D01*
X83503818Y-99016192D01*
X83421764Y-99286691D01*
X83394057Y-99568000D01*
X83421764Y-99849309D01*
X83503818Y-100119808D01*
X83637068Y-100369101D01*
X83816392Y-100587608D01*
X84034899Y-100766932D01*
X84172682Y-100840579D01*
X83980869Y-100955615D01*
X83772481Y-101144586D01*
X83604963Y-101370580D01*
X83484754Y-101624913D01*
X83444096Y-101758961D01*
X83566085Y-101981000D01*
X84709000Y-101981000D01*
X84709000Y-101961000D01*
X84963000Y-101961000D01*
X84963000Y-101981000D01*
X86105915Y-101981000D01*
X86227904Y-101758961D01*
X86187246Y-101624913D01*
X86067037Y-101370580D01*
X85899519Y-101144586D01*
X85691131Y-100955615D01*
X85499318Y-100840579D01*
X85637101Y-100766932D01*
X85855608Y-100587608D01*
X86034932Y-100369101D01*
X86168182Y-100119808D01*
X86250236Y-99849309D01*
X86277943Y-99568000D01*
X86250236Y-99286691D01*
X86168182Y-99016192D01*
X86034932Y-98766899D01*
X85855608Y-98548392D01*
X85637101Y-98369068D01*
X85504142Y-98298000D01*
X85637101Y-98226932D01*
X85855608Y-98047608D01*
X86034932Y-97829101D01*
X86168182Y-97579808D01*
X86250236Y-97309309D01*
X86277943Y-97028000D01*
X86250236Y-96746691D01*
X86168182Y-96476192D01*
X86034932Y-96226899D01*
X85855608Y-96008392D01*
X85742518Y-95915581D01*
X85760482Y-95913812D01*
X85880180Y-95877502D01*
X85990494Y-95818537D01*
X86087185Y-95739185D01*
X86166537Y-95642494D01*
X86225502Y-95532180D01*
X86261812Y-95412482D01*
X86274072Y-95288000D01*
X86274072Y-93833782D01*
X90405000Y-97964711D01*
X90405001Y-107137153D01*
X90405000Y-107137163D01*
X90405001Y-109626056D01*
X90405000Y-109626061D01*
X90405000Y-109677162D01*
X90399993Y-109728000D01*
X90405000Y-109778838D01*
X90405000Y-109829939D01*
X90414969Y-109880057D01*
X90419976Y-109930895D01*
X90434804Y-109979777D01*
X90444774Y-110029898D01*
X90464331Y-110077113D01*
X90479159Y-110125993D01*
X90503238Y-110171042D01*
X90522795Y-110218256D01*
X90551186Y-110260746D01*
X90575266Y-110305797D01*
X90607672Y-110345284D01*
X90636063Y-110387774D01*
X90672197Y-110423908D01*
X90704604Y-110463396D01*
X90744092Y-110495803D01*
X90780226Y-110531937D01*
X90822716Y-110560328D01*
X90862203Y-110592734D01*
X90907254Y-110616814D01*
X90949744Y-110645205D01*
X90996958Y-110664762D01*
X91042007Y-110688841D01*
X91090887Y-110703669D01*
X91138102Y-110723226D01*
X91188223Y-110733196D01*
X91237105Y-110748024D01*
X91287943Y-110753031D01*
X91338061Y-110763000D01*
X91389162Y-110763000D01*
X91440000Y-110768007D01*
X91490838Y-110763000D01*
X91541939Y-110763000D01*
X91592057Y-110753031D01*
X91642895Y-110748024D01*
X91691777Y-110733196D01*
X91741898Y-110723226D01*
X91789113Y-110703669D01*
X91837993Y-110688841D01*
X91883042Y-110664762D01*
X91930256Y-110645205D01*
X91972746Y-110616814D01*
X92017797Y-110592734D01*
X92057284Y-110560328D01*
X92099774Y-110531937D01*
X92135908Y-110495803D01*
X92175396Y-110463396D01*
X92207803Y-110423908D01*
X92243937Y-110387774D01*
X92272328Y-110345284D01*
X92304734Y-110305797D01*
X92328814Y-110260746D01*
X92357205Y-110218256D01*
X92376762Y-110171042D01*
X92400841Y-110125993D01*
X92415669Y-110077113D01*
X92435226Y-110029898D01*
X92437001Y-110020975D01*
X92437001Y-113233162D01*
X92431994Y-113284000D01*
X92451977Y-113486895D01*
X92511160Y-113681993D01*
X92607266Y-113861797D01*
X92704197Y-113979907D01*
X92736605Y-114019396D01*
X92776092Y-114051803D01*
X96768197Y-118043908D01*
X96800604Y-118083396D01*
X96840092Y-118115803D01*
X96958202Y-118212734D01*
X97035393Y-118253993D01*
X97138007Y-118308841D01*
X97333105Y-118368024D01*
X97485162Y-118383000D01*
X97485164Y-118383000D01*
X97536000Y-118388007D01*
X97586835Y-118383000D01*
X99075147Y-118383000D01*
X99274899Y-118546932D01*
X99407858Y-118618000D01*
X99274899Y-118689068D01*
X99056392Y-118868392D01*
X98877068Y-119086899D01*
X98743818Y-119336192D01*
X98661764Y-119606691D01*
X98636435Y-119863854D01*
X83899290Y-134601000D01*
X64944711Y-134601000D01*
X64535000Y-134191290D01*
X64535000Y-133096000D01*
X65055815Y-133096000D01*
X65084487Y-133387111D01*
X65169401Y-133667034D01*
X65307294Y-133925014D01*
X65492866Y-134151134D01*
X65718986Y-134336706D01*
X65976966Y-134474599D01*
X66256889Y-134559513D01*
X66475050Y-134581000D01*
X66620950Y-134581000D01*
X66839111Y-134559513D01*
X67119034Y-134474599D01*
X67377014Y-134336706D01*
X67603134Y-134151134D01*
X67627607Y-134121313D01*
X67648498Y-134190180D01*
X67707463Y-134300494D01*
X67786815Y-134397185D01*
X67883506Y-134476537D01*
X67993820Y-134535502D01*
X68113518Y-134571812D01*
X68238000Y-134584072D01*
X69938000Y-134584072D01*
X70062482Y-134571812D01*
X70182180Y-134535502D01*
X70292494Y-134476537D01*
X70389185Y-134397185D01*
X70468537Y-134300494D01*
X70527502Y-134190180D01*
X70563812Y-134070482D01*
X70576072Y-133946000D01*
X73187928Y-133946000D01*
X73200188Y-134070482D01*
X73236498Y-134190180D01*
X73295463Y-134300494D01*
X73374815Y-134397185D01*
X73471506Y-134476537D01*
X73581820Y-134535502D01*
X73701518Y-134571812D01*
X73826000Y-134584072D01*
X74390250Y-134581000D01*
X74549000Y-134422250D01*
X74549000Y-133223000D01*
X73349750Y-133223000D01*
X73191000Y-133381750D01*
X73187928Y-133946000D01*
X70576072Y-133946000D01*
X70576072Y-132246000D01*
X73187928Y-132246000D01*
X73191000Y-132810250D01*
X73349750Y-132969000D01*
X74549000Y-132969000D01*
X74549000Y-131769750D01*
X74803000Y-131769750D01*
X74803000Y-132969000D01*
X74823000Y-132969000D01*
X74823000Y-133223000D01*
X74803000Y-133223000D01*
X74803000Y-134422250D01*
X74961750Y-134581000D01*
X75526000Y-134584072D01*
X75650482Y-134571812D01*
X75770180Y-134535502D01*
X75880494Y-134476537D01*
X75977185Y-134397185D01*
X76056537Y-134300494D01*
X76115502Y-134190180D01*
X76136393Y-134121313D01*
X76160866Y-134151134D01*
X76386986Y-134336706D01*
X76644966Y-134474599D01*
X76924889Y-134559513D01*
X77143050Y-134581000D01*
X77288950Y-134581000D01*
X77507111Y-134559513D01*
X77787034Y-134474599D01*
X78045014Y-134336706D01*
X78271134Y-134151134D01*
X78456706Y-133925014D01*
X78486000Y-133870209D01*
X78515294Y-133925014D01*
X78700866Y-134151134D01*
X78926986Y-134336706D01*
X79184966Y-134474599D01*
X79464889Y-134559513D01*
X79683050Y-134581000D01*
X79828950Y-134581000D01*
X80047111Y-134559513D01*
X80327034Y-134474599D01*
X80585014Y-134336706D01*
X80811134Y-134151134D01*
X80996706Y-133925014D01*
X81134599Y-133667034D01*
X81219513Y-133387111D01*
X81248185Y-133096000D01*
X81219513Y-132804889D01*
X81134599Y-132524966D01*
X80996706Y-132266986D01*
X80811134Y-132040866D01*
X80585014Y-131855294D01*
X80327034Y-131717401D01*
X80047111Y-131632487D01*
X79828950Y-131611000D01*
X79683050Y-131611000D01*
X79464889Y-131632487D01*
X79184966Y-131717401D01*
X78926986Y-131855294D01*
X78700866Y-132040866D01*
X78515294Y-132266986D01*
X78486000Y-132321791D01*
X78456706Y-132266986D01*
X78271134Y-132040866D01*
X78045014Y-131855294D01*
X77787034Y-131717401D01*
X77507111Y-131632487D01*
X77288950Y-131611000D01*
X77143050Y-131611000D01*
X76924889Y-131632487D01*
X76644966Y-131717401D01*
X76386986Y-131855294D01*
X76160866Y-132040866D01*
X76136393Y-132070687D01*
X76115502Y-132001820D01*
X76056537Y-131891506D01*
X75977185Y-131794815D01*
X75880494Y-131715463D01*
X75770180Y-131656498D01*
X75650482Y-131620188D01*
X75526000Y-131607928D01*
X74961750Y-131611000D01*
X74803000Y-131769750D01*
X74549000Y-131769750D01*
X74390250Y-131611000D01*
X73826000Y-131607928D01*
X73701518Y-131620188D01*
X73581820Y-131656498D01*
X73471506Y-131715463D01*
X73374815Y-131794815D01*
X73295463Y-131891506D01*
X73236498Y-132001820D01*
X73200188Y-132121518D01*
X73187928Y-132246000D01*
X70576072Y-132246000D01*
X70563812Y-132121518D01*
X70527502Y-132001820D01*
X70468537Y-131891506D01*
X70389185Y-131794815D01*
X70292494Y-131715463D01*
X70182180Y-131656498D01*
X70062482Y-131620188D01*
X69938000Y-131607928D01*
X68238000Y-131607928D01*
X68113518Y-131620188D01*
X67993820Y-131656498D01*
X67883506Y-131715463D01*
X67786815Y-131794815D01*
X67707463Y-131891506D01*
X67648498Y-132001820D01*
X67627607Y-132070687D01*
X67603134Y-132040866D01*
X67377014Y-131855294D01*
X67119034Y-131717401D01*
X66839111Y-131632487D01*
X66620950Y-131611000D01*
X66475050Y-131611000D01*
X66256889Y-131632487D01*
X65976966Y-131717401D01*
X65718986Y-131855294D01*
X65492866Y-132040866D01*
X65307294Y-132266986D01*
X65169401Y-132524966D01*
X65084487Y-132804889D01*
X65055815Y-133096000D01*
X64535000Y-133096000D01*
X64535000Y-124816890D01*
X64598524Y-124816890D01*
X64643175Y-124964099D01*
X64768359Y-125226920D01*
X64942412Y-125460269D01*
X65158645Y-125655178D01*
X65408748Y-125804157D01*
X65683109Y-125901481D01*
X65913000Y-125780814D01*
X65913000Y-124587000D01*
X66167000Y-124587000D01*
X66167000Y-125780814D01*
X66396891Y-125901481D01*
X66671252Y-125804157D01*
X66921355Y-125655178D01*
X67137588Y-125460269D01*
X67311641Y-125226920D01*
X67436825Y-124964099D01*
X67481476Y-124816890D01*
X67360155Y-124587000D01*
X66167000Y-124587000D01*
X65913000Y-124587000D01*
X64719845Y-124587000D01*
X64598524Y-124816890D01*
X64535000Y-124816890D01*
X64535000Y-116066629D01*
X65128565Y-115473065D01*
X65210986Y-115540706D01*
X65265791Y-115570000D01*
X65210986Y-115599294D01*
X64984866Y-115784866D01*
X64799294Y-116010986D01*
X64661401Y-116268966D01*
X64576487Y-116548889D01*
X64547815Y-116840000D01*
X64576487Y-117131111D01*
X64661401Y-117411034D01*
X64799294Y-117669014D01*
X64984866Y-117895134D01*
X65210986Y-118080706D01*
X65265791Y-118110000D01*
X65210986Y-118139294D01*
X64984866Y-118324866D01*
X64799294Y-118550986D01*
X64661401Y-118808966D01*
X64576487Y-119088889D01*
X64547815Y-119380000D01*
X64576487Y-119671111D01*
X64661401Y-119951034D01*
X64799294Y-120209014D01*
X64984866Y-120435134D01*
X65210986Y-120620706D01*
X65265791Y-120650000D01*
X65210986Y-120679294D01*
X64984866Y-120864866D01*
X64799294Y-121090986D01*
X64661401Y-121348966D01*
X64576487Y-121628889D01*
X64547815Y-121920000D01*
X64576487Y-122211111D01*
X64661401Y-122491034D01*
X64799294Y-122749014D01*
X64984866Y-122975134D01*
X65210986Y-123160706D01*
X65275523Y-123195201D01*
X65158645Y-123264822D01*
X64942412Y-123459731D01*
X64768359Y-123693080D01*
X64643175Y-123955901D01*
X64598524Y-124103110D01*
X64719845Y-124333000D01*
X65913000Y-124333000D01*
X65913000Y-124313000D01*
X66167000Y-124313000D01*
X66167000Y-124333000D01*
X67360155Y-124333000D01*
X67481476Y-124103110D01*
X67436825Y-123955901D01*
X67311641Y-123693080D01*
X67137588Y-123459731D01*
X66921355Y-123264822D01*
X66804477Y-123195201D01*
X66869014Y-123160706D01*
X67095134Y-122975134D01*
X67280706Y-122749014D01*
X67418599Y-122491034D01*
X67503513Y-122211111D01*
X67532185Y-121920000D01*
X67503513Y-121628889D01*
X67418599Y-121348966D01*
X67280706Y-121090986D01*
X67095134Y-120864866D01*
X66869014Y-120679294D01*
X66814209Y-120650000D01*
X66869014Y-120620706D01*
X67095134Y-120435134D01*
X67280706Y-120209014D01*
X67418599Y-119951034D01*
X67503513Y-119671111D01*
X67532185Y-119380000D01*
X67503513Y-119088889D01*
X67418599Y-118808966D01*
X67280706Y-118550986D01*
X67095134Y-118324866D01*
X66869014Y-118139294D01*
X66814209Y-118110000D01*
X66869014Y-118080706D01*
X67095134Y-117895134D01*
X67280706Y-117669014D01*
X67418599Y-117411034D01*
X67503513Y-117131111D01*
X67532185Y-116840000D01*
X67503513Y-116548889D01*
X67418599Y-116268966D01*
X67280706Y-116010986D01*
X67095134Y-115784866D01*
X66869014Y-115599294D01*
X66814209Y-115570000D01*
X66869014Y-115540706D01*
X67095134Y-115355134D01*
X67280706Y-115129014D01*
X67418599Y-114871034D01*
X67503513Y-114591111D01*
X67532185Y-114300000D01*
X67503513Y-114008889D01*
X67418599Y-113728966D01*
X67280706Y-113470986D01*
X67095134Y-113244866D01*
X66869014Y-113059294D01*
X66814209Y-113030000D01*
X66869014Y-113000706D01*
X67095134Y-112815134D01*
X67280706Y-112589014D01*
X67418599Y-112331034D01*
X67503513Y-112051111D01*
X67532185Y-111760000D01*
X67503513Y-111468889D01*
X67418599Y-111188966D01*
X67280706Y-110930986D01*
X67095134Y-110704866D01*
X66869014Y-110519294D01*
X66814209Y-110490000D01*
X66869014Y-110460706D01*
X67095134Y-110275134D01*
X67280706Y-110049014D01*
X67418599Y-109791034D01*
X67503513Y-109511111D01*
X67532185Y-109220000D01*
X67503513Y-108928889D01*
X67418599Y-108648966D01*
X67280706Y-108390986D01*
X67095134Y-108164866D01*
X66869014Y-107979294D01*
X66814209Y-107950000D01*
X66869014Y-107920706D01*
X67095134Y-107735134D01*
X67280706Y-107509014D01*
X67418599Y-107251034D01*
X67503513Y-106971111D01*
X67532185Y-106680000D01*
X67503513Y-106388889D01*
X67418599Y-106108966D01*
X67280706Y-105850986D01*
X67095134Y-105624866D01*
X66869014Y-105439294D01*
X66814209Y-105410000D01*
X66869014Y-105380706D01*
X67095134Y-105195134D01*
X67280706Y-104969014D01*
X67418599Y-104711034D01*
X67503513Y-104431111D01*
X67532185Y-104140000D01*
X67503513Y-103848889D01*
X67418599Y-103568966D01*
X67280706Y-103310986D01*
X67095134Y-103084866D01*
X66869014Y-102899294D01*
X66814209Y-102870000D01*
X66869014Y-102840706D01*
X67095134Y-102655134D01*
X67280706Y-102429014D01*
X67418599Y-102171034D01*
X67503513Y-101891111D01*
X67532185Y-101600000D01*
X67503513Y-101308889D01*
X67418599Y-101028966D01*
X67280706Y-100770986D01*
X67095134Y-100544866D01*
X66869014Y-100359294D01*
X66814209Y-100330000D01*
X66869014Y-100300706D01*
X67095134Y-100115134D01*
X67111658Y-100095000D01*
X69167290Y-100095000D01*
X71101000Y-102028711D01*
X71101001Y-119837162D01*
X71095994Y-119888000D01*
X71115977Y-120090895D01*
X71175160Y-120285993D01*
X71271266Y-120465797D01*
X71368197Y-120583907D01*
X71400605Y-120623396D01*
X71440093Y-120655803D01*
X78988197Y-128203908D01*
X79020604Y-128243396D01*
X79060092Y-128275803D01*
X79178202Y-128372734D01*
X79274309Y-128424104D01*
X79358007Y-128468841D01*
X79553105Y-128528024D01*
X79705162Y-128543000D01*
X79705171Y-128543000D01*
X79755999Y-128548006D01*
X79806827Y-128543000D01*
X83835147Y-128543000D01*
X84034899Y-128706932D01*
X84167858Y-128778000D01*
X84034899Y-128849068D01*
X83816392Y-129028392D01*
X83637068Y-129246899D01*
X83503818Y-129496192D01*
X83421764Y-129766691D01*
X83394057Y-130048000D01*
X83421764Y-130329309D01*
X83503818Y-130599808D01*
X83637068Y-130849101D01*
X83816392Y-131067608D01*
X84034899Y-131246932D01*
X84284192Y-131380182D01*
X84554691Y-131462236D01*
X84765508Y-131483000D01*
X84906492Y-131483000D01*
X85117309Y-131462236D01*
X85387808Y-131380182D01*
X85637101Y-131246932D01*
X85855608Y-131067608D01*
X86034932Y-130849101D01*
X86168182Y-130599808D01*
X86250236Y-130329309D01*
X86277943Y-130048000D01*
X86250236Y-129766691D01*
X86168182Y-129496192D01*
X86034932Y-129246899D01*
X85855608Y-129028392D01*
X85637101Y-128849068D01*
X85504142Y-128778000D01*
X85637101Y-128706932D01*
X85855608Y-128527608D01*
X86034932Y-128309101D01*
X86168182Y-128059808D01*
X86250236Y-127789309D01*
X86277943Y-127508000D01*
X86250236Y-127226691D01*
X86168182Y-126956192D01*
X86034932Y-126706899D01*
X85855608Y-126488392D01*
X85637101Y-126309068D01*
X85504142Y-126238000D01*
X85637101Y-126166932D01*
X85855608Y-125987608D01*
X86034932Y-125769101D01*
X86168182Y-125519808D01*
X86250236Y-125249309D01*
X86277943Y-124968000D01*
X86250236Y-124686691D01*
X86168182Y-124416192D01*
X86034932Y-124166899D01*
X85855608Y-123948392D01*
X85637101Y-123769068D01*
X85504142Y-123698000D01*
X85637101Y-123626932D01*
X85855608Y-123447608D01*
X86034932Y-123229101D01*
X86168182Y-122979808D01*
X86250236Y-122709309D01*
X86277943Y-122428000D01*
X86250236Y-122146691D01*
X86168182Y-121876192D01*
X86034932Y-121626899D01*
X85855608Y-121408392D01*
X85637101Y-121229068D01*
X85504142Y-121158000D01*
X85637101Y-121086932D01*
X85855608Y-120907608D01*
X86034932Y-120689101D01*
X86168182Y-120439808D01*
X86250236Y-120169309D01*
X86277943Y-119888000D01*
X86250236Y-119606691D01*
X86168182Y-119336192D01*
X86034932Y-119086899D01*
X85855608Y-118868392D01*
X85637101Y-118689068D01*
X85504142Y-118618000D01*
X85637101Y-118546932D01*
X85855608Y-118367608D01*
X86034932Y-118149101D01*
X86168182Y-117899808D01*
X86250236Y-117629309D01*
X86277943Y-117348000D01*
X86250236Y-117066691D01*
X86168182Y-116796192D01*
X86034932Y-116546899D01*
X85855608Y-116328392D01*
X85637101Y-116149068D01*
X85504142Y-116078000D01*
X85637101Y-116006932D01*
X85855608Y-115827608D01*
X86034932Y-115609101D01*
X86168182Y-115359808D01*
X86250236Y-115089309D01*
X86277943Y-114808000D01*
X86250236Y-114526691D01*
X86168182Y-114256192D01*
X86034932Y-114006899D01*
X85855608Y-113788392D01*
X85637101Y-113609068D01*
X85504142Y-113538000D01*
X85637101Y-113466932D01*
X85855608Y-113287608D01*
X86034932Y-113069101D01*
X86168182Y-112819808D01*
X86250236Y-112549309D01*
X86277943Y-112268000D01*
X86250236Y-111986691D01*
X86168182Y-111716192D01*
X86034932Y-111466899D01*
X85855608Y-111248392D01*
X85637101Y-111069068D01*
X85504142Y-110998000D01*
X85637101Y-110926932D01*
X85855608Y-110747608D01*
X86034932Y-110529101D01*
X86168182Y-110279808D01*
X86250236Y-110009309D01*
X86277943Y-109728000D01*
X86250236Y-109446691D01*
X86168182Y-109176192D01*
X86034932Y-108926899D01*
X85855608Y-108708392D01*
X85637101Y-108529068D01*
X85504142Y-108458000D01*
X85637101Y-108386932D01*
X85836853Y-108223000D01*
X86817172Y-108223000D01*
X86868000Y-108228006D01*
X86918828Y-108223000D01*
X86918838Y-108223000D01*
X87070895Y-108208024D01*
X87265993Y-108148841D01*
X87445797Y-108052734D01*
X87603396Y-107923396D01*
X87635807Y-107883903D01*
X89087908Y-106431803D01*
X89127396Y-106399396D01*
X89256734Y-106241797D01*
X89352841Y-106061993D01*
X89412024Y-105866895D01*
X89427000Y-105714838D01*
X89427000Y-105714829D01*
X89432006Y-105664001D01*
X89427000Y-105613173D01*
X89427000Y-99466061D01*
X89417031Y-99415943D01*
X89412024Y-99365105D01*
X89397196Y-99316223D01*
X89387226Y-99266102D01*
X89367669Y-99218887D01*
X89352841Y-99170007D01*
X89328762Y-99124958D01*
X89309205Y-99077744D01*
X89280814Y-99035254D01*
X89256734Y-98990203D01*
X89224328Y-98950716D01*
X89195937Y-98908226D01*
X89159803Y-98872092D01*
X89127396Y-98832604D01*
X89087908Y-98800197D01*
X89051774Y-98764063D01*
X89009284Y-98735672D01*
X88969797Y-98703266D01*
X88924747Y-98679186D01*
X88882256Y-98650795D01*
X88835039Y-98631237D01*
X88789992Y-98607159D01*
X88741116Y-98592332D01*
X88693898Y-98572774D01*
X88643774Y-98562804D01*
X88594894Y-98547976D01*
X88544058Y-98542969D01*
X88493939Y-98533000D01*
X88442838Y-98533000D01*
X88392000Y-98527993D01*
X88341162Y-98533000D01*
X88290061Y-98533000D01*
X88239943Y-98542969D01*
X88189105Y-98547976D01*
X88140223Y-98562804D01*
X88090102Y-98572774D01*
X88042887Y-98592331D01*
X87994007Y-98607159D01*
X87948958Y-98631238D01*
X87901744Y-98650795D01*
X87859254Y-98679186D01*
X87814203Y-98703266D01*
X87774716Y-98735672D01*
X87732226Y-98764063D01*
X87696092Y-98800197D01*
X87656604Y-98832604D01*
X87624197Y-98872092D01*
X87588063Y-98908226D01*
X87559672Y-98950716D01*
X87527266Y-98990203D01*
X87503186Y-99035253D01*
X87474795Y-99077744D01*
X87455237Y-99124961D01*
X87431159Y-99170008D01*
X87416332Y-99218884D01*
X87396774Y-99266102D01*
X87386804Y-99316226D01*
X87371976Y-99365106D01*
X87366969Y-99415942D01*
X87357000Y-99466061D01*
X87357000Y-99517163D01*
X87357001Y-105235288D01*
X86439290Y-106153000D01*
X85836853Y-106153000D01*
X85637101Y-105989068D01*
X85504142Y-105918000D01*
X85637101Y-105846932D01*
X85855608Y-105667608D01*
X86034932Y-105449101D01*
X86168182Y-105199808D01*
X86250236Y-104929309D01*
X86277943Y-104648000D01*
X86250236Y-104366691D01*
X86168182Y-104096192D01*
X86034932Y-103846899D01*
X85855608Y-103628392D01*
X85637101Y-103449068D01*
X85499318Y-103375421D01*
X85691131Y-103260385D01*
X85899519Y-103071414D01*
X86067037Y-102845420D01*
X86187246Y-102591087D01*
X86227904Y-102457039D01*
X86105915Y-102235000D01*
X84963000Y-102235000D01*
X84963000Y-102255000D01*
X84709000Y-102255000D01*
X84709000Y-102235000D01*
X83566085Y-102235000D01*
X83444096Y-102457039D01*
X83484754Y-102591087D01*
X83604963Y-102845420D01*
X83772481Y-103071414D01*
X83980869Y-103260385D01*
X84172682Y-103375421D01*
X84034899Y-103449068D01*
X83816392Y-103628392D01*
X83637068Y-103846899D01*
X83503818Y-104096192D01*
X83421764Y-104366691D01*
X83394057Y-104648000D01*
X83421764Y-104929309D01*
X83503818Y-105199808D01*
X83637068Y-105449101D01*
X83816392Y-105667608D01*
X84034899Y-105846932D01*
X84167858Y-105918000D01*
X84034899Y-105989068D01*
X83816392Y-106168392D01*
X83637068Y-106386899D01*
X83503818Y-106636192D01*
X83421764Y-106906691D01*
X83394057Y-107188000D01*
X83421764Y-107469309D01*
X83503818Y-107739808D01*
X83637068Y-107989101D01*
X83816392Y-108207608D01*
X84034899Y-108386932D01*
X84167858Y-108458000D01*
X84034899Y-108529068D01*
X83816392Y-108708392D01*
X83637068Y-108926899D01*
X83503818Y-109176192D01*
X83421764Y-109446691D01*
X83394057Y-109728000D01*
X83421764Y-110009309D01*
X83503818Y-110279808D01*
X83637068Y-110529101D01*
X83816392Y-110747608D01*
X84034899Y-110926932D01*
X84167858Y-110998000D01*
X84034899Y-111069068D01*
X83816392Y-111248392D01*
X83637068Y-111466899D01*
X83503818Y-111716192D01*
X83421764Y-111986691D01*
X83394057Y-112268000D01*
X83421764Y-112549309D01*
X83503818Y-112819808D01*
X83637068Y-113069101D01*
X83816392Y-113287608D01*
X84034899Y-113466932D01*
X84167858Y-113538000D01*
X84034899Y-113609068D01*
X83816392Y-113788392D01*
X83637068Y-114006899D01*
X83503818Y-114256192D01*
X83421764Y-114526691D01*
X83394057Y-114808000D01*
X83421764Y-115089309D01*
X83503818Y-115359808D01*
X83637068Y-115609101D01*
X83816392Y-115827608D01*
X84034899Y-116006932D01*
X84167858Y-116078000D01*
X84034899Y-116149068D01*
X83816392Y-116328392D01*
X83637068Y-116546899D01*
X83503818Y-116796192D01*
X83421764Y-117066691D01*
X83394057Y-117348000D01*
X83421764Y-117629309D01*
X83503818Y-117899808D01*
X83637068Y-118149101D01*
X83816392Y-118367608D01*
X84034899Y-118546932D01*
X84167858Y-118618000D01*
X84034899Y-118689068D01*
X83835147Y-118853000D01*
X80184711Y-118853000D01*
X77743000Y-116411290D01*
X77743000Y-94030827D01*
X77748006Y-93979999D01*
X77743000Y-93929171D01*
X77743000Y-93929162D01*
X77728024Y-93777105D01*
X77668841Y-93582007D01*
X77594979Y-93443820D01*
X77572734Y-93402202D01*
X77475803Y-93284092D01*
X77443396Y-93244604D01*
X77403908Y-93212197D01*
X74935807Y-90744097D01*
X74903396Y-90704604D01*
X74745797Y-90575266D01*
X74565993Y-90479159D01*
X74370895Y-90419976D01*
X74218838Y-90405000D01*
X74218828Y-90405000D01*
X74168000Y-90399994D01*
X74117172Y-90405000D01*
X67111658Y-90405000D01*
X67095134Y-90384866D01*
X66869014Y-90199294D01*
X66814209Y-90170000D01*
X66869014Y-90140706D01*
X67095134Y-89955134D01*
X67111658Y-89935000D01*
X82375290Y-89935000D01*
X85156092Y-92715803D01*
X85156092Y-92715803D01*
G37*
X85156092Y-92715803D02*
X85156098Y-92715808D01*
X85490218Y-93049928D01*
X84036000Y-93049928D01*
X83911518Y-93062188D01*
X83791820Y-93098498D01*
X83681506Y-93157463D01*
X83584815Y-93236815D01*
X83505463Y-93333506D01*
X83446498Y-93443820D01*
X83410188Y-93563518D01*
X83397928Y-93688000D01*
X83397928Y-95288000D01*
X83410188Y-95412482D01*
X83446498Y-95532180D01*
X83505463Y-95642494D01*
X83584815Y-95739185D01*
X83681506Y-95818537D01*
X83791820Y-95877502D01*
X83911518Y-95913812D01*
X83929482Y-95915581D01*
X83816392Y-96008392D01*
X83637068Y-96226899D01*
X83503818Y-96476192D01*
X83421764Y-96746691D01*
X83394057Y-97028000D01*
X83421764Y-97309309D01*
X83503818Y-97579808D01*
X83637068Y-97829101D01*
X83816392Y-98047608D01*
X84034899Y-98226932D01*
X84167858Y-98298000D01*
X84034899Y-98369068D01*
X83816392Y-98548392D01*
X83637068Y-98766899D01*
X83503818Y-99016192D01*
X83421764Y-99286691D01*
X83394057Y-99568000D01*
X83421764Y-99849309D01*
X83503818Y-100119808D01*
X83637068Y-100369101D01*
X83816392Y-100587608D01*
X84034899Y-100766932D01*
X84172682Y-100840579D01*
X83980869Y-100955615D01*
X83772481Y-101144586D01*
X83604963Y-101370580D01*
X83484754Y-101624913D01*
X83444096Y-101758961D01*
X83566085Y-101981000D01*
X84709000Y-101981000D01*
X84709000Y-101961000D01*
X84963000Y-101961000D01*
X84963000Y-101981000D01*
X86105915Y-101981000D01*
X86227904Y-101758961D01*
X86187246Y-101624913D01*
X86067037Y-101370580D01*
X85899519Y-101144586D01*
X85691131Y-100955615D01*
X85499318Y-100840579D01*
X85637101Y-100766932D01*
X85855608Y-100587608D01*
X86034932Y-100369101D01*
X86168182Y-100119808D01*
X86250236Y-99849309D01*
X86277943Y-99568000D01*
X86250236Y-99286691D01*
X86168182Y-99016192D01*
X86034932Y-98766899D01*
X85855608Y-98548392D01*
X85637101Y-98369068D01*
X85504142Y-98298000D01*
X85637101Y-98226932D01*
X85855608Y-98047608D01*
X86034932Y-97829101D01*
X86168182Y-97579808D01*
X86250236Y-97309309D01*
X86277943Y-97028000D01*
X86250236Y-96746691D01*
X86168182Y-96476192D01*
X86034932Y-96226899D01*
X85855608Y-96008392D01*
X85742518Y-95915581D01*
X85760482Y-95913812D01*
X85880180Y-95877502D01*
X85990494Y-95818537D01*
X86087185Y-95739185D01*
X86166537Y-95642494D01*
X86225502Y-95532180D01*
X86261812Y-95412482D01*
X86274072Y-95288000D01*
X86274072Y-93833782D01*
X90405000Y-97964711D01*
X90405001Y-107137153D01*
X90405000Y-107137163D01*
X90405001Y-109626056D01*
X90405000Y-109626061D01*
X90405000Y-109677162D01*
X90399993Y-109728000D01*
X90405000Y-109778838D01*
X90405000Y-109829939D01*
X90414969Y-109880057D01*
X90419976Y-109930895D01*
X90434804Y-109979777D01*
X90444774Y-110029898D01*
X90464331Y-110077113D01*
X90479159Y-110125993D01*
X90503238Y-110171042D01*
X90522795Y-110218256D01*
X90551186Y-110260746D01*
X90575266Y-110305797D01*
X90607672Y-110345284D01*
X90636063Y-110387774D01*
X90672197Y-110423908D01*
X90704604Y-110463396D01*
X90744092Y-110495803D01*
X90780226Y-110531937D01*
X90822716Y-110560328D01*
X90862203Y-110592734D01*
X90907254Y-110616814D01*
X90949744Y-110645205D01*
X90996958Y-110664762D01*
X91042007Y-110688841D01*
X91090887Y-110703669D01*
X91138102Y-110723226D01*
X91188223Y-110733196D01*
X91237105Y-110748024D01*
X91287943Y-110753031D01*
X91338061Y-110763000D01*
X91389162Y-110763000D01*
X91440000Y-110768007D01*
X91490838Y-110763000D01*
X91541939Y-110763000D01*
X91592057Y-110753031D01*
X91642895Y-110748024D01*
X91691777Y-110733196D01*
X91741898Y-110723226D01*
X91789113Y-110703669D01*
X91837993Y-110688841D01*
X91883042Y-110664762D01*
X91930256Y-110645205D01*
X91972746Y-110616814D01*
X92017797Y-110592734D01*
X92057284Y-110560328D01*
X92099774Y-110531937D01*
X92135908Y-110495803D01*
X92175396Y-110463396D01*
X92207803Y-110423908D01*
X92243937Y-110387774D01*
X92272328Y-110345284D01*
X92304734Y-110305797D01*
X92328814Y-110260746D01*
X92357205Y-110218256D01*
X92376762Y-110171042D01*
X92400841Y-110125993D01*
X92415669Y-110077113D01*
X92435226Y-110029898D01*
X92437001Y-110020975D01*
X92437001Y-113233162D01*
X92431994Y-113284000D01*
X92451977Y-113486895D01*
X92511160Y-113681993D01*
X92607266Y-113861797D01*
X92704197Y-113979907D01*
X92736605Y-114019396D01*
X92776092Y-114051803D01*
X96768197Y-118043908D01*
X96800604Y-118083396D01*
X96840092Y-118115803D01*
X96958202Y-118212734D01*
X97035393Y-118253993D01*
X97138007Y-118308841D01*
X97333105Y-118368024D01*
X97485162Y-118383000D01*
X97485164Y-118383000D01*
X97536000Y-118388007D01*
X97586835Y-118383000D01*
X99075147Y-118383000D01*
X99274899Y-118546932D01*
X99407858Y-118618000D01*
X99274899Y-118689068D01*
X99056392Y-118868392D01*
X98877068Y-119086899D01*
X98743818Y-119336192D01*
X98661764Y-119606691D01*
X98636435Y-119863854D01*
X83899290Y-134601000D01*
X64944711Y-134601000D01*
X64535000Y-134191290D01*
X64535000Y-133096000D01*
X65055815Y-133096000D01*
X65084487Y-133387111D01*
X65169401Y-133667034D01*
X65307294Y-133925014D01*
X65492866Y-134151134D01*
X65718986Y-134336706D01*
X65976966Y-134474599D01*
X66256889Y-134559513D01*
X66475050Y-134581000D01*
X66620950Y-134581000D01*
X66839111Y-134559513D01*
X67119034Y-134474599D01*
X67377014Y-134336706D01*
X67603134Y-134151134D01*
X67627607Y-134121313D01*
X67648498Y-134190180D01*
X67707463Y-134300494D01*
X67786815Y-134397185D01*
X67883506Y-134476537D01*
X67993820Y-134535502D01*
X68113518Y-134571812D01*
X68238000Y-134584072D01*
X69938000Y-134584072D01*
X70062482Y-134571812D01*
X70182180Y-134535502D01*
X70292494Y-134476537D01*
X70389185Y-134397185D01*
X70468537Y-134300494D01*
X70527502Y-134190180D01*
X70563812Y-134070482D01*
X70576072Y-133946000D01*
X73187928Y-133946000D01*
X73200188Y-134070482D01*
X73236498Y-134190180D01*
X73295463Y-134300494D01*
X73374815Y-134397185D01*
X73471506Y-134476537D01*
X73581820Y-134535502D01*
X73701518Y-134571812D01*
X73826000Y-134584072D01*
X74390250Y-134581000D01*
X74549000Y-134422250D01*
X74549000Y-133223000D01*
X73349750Y-133223000D01*
X73191000Y-133381750D01*
X73187928Y-133946000D01*
X70576072Y-133946000D01*
X70576072Y-132246000D01*
X73187928Y-132246000D01*
X73191000Y-132810250D01*
X73349750Y-132969000D01*
X74549000Y-132969000D01*
X74549000Y-131769750D01*
X74803000Y-131769750D01*
X74803000Y-132969000D01*
X74823000Y-132969000D01*
X74823000Y-133223000D01*
X74803000Y-133223000D01*
X74803000Y-134422250D01*
X74961750Y-134581000D01*
X75526000Y-134584072D01*
X75650482Y-134571812D01*
X75770180Y-134535502D01*
X75880494Y-134476537D01*
X75977185Y-134397185D01*
X76056537Y-134300494D01*
X76115502Y-134190180D01*
X76136393Y-134121313D01*
X76160866Y-134151134D01*
X76386986Y-134336706D01*
X76644966Y-134474599D01*
X76924889Y-134559513D01*
X77143050Y-134581000D01*
X77288950Y-134581000D01*
X77507111Y-134559513D01*
X77787034Y-134474599D01*
X78045014Y-134336706D01*
X78271134Y-134151134D01*
X78456706Y-133925014D01*
X78486000Y-133870209D01*
X78515294Y-133925014D01*
X78700866Y-134151134D01*
X78926986Y-134336706D01*
X79184966Y-134474599D01*
X79464889Y-134559513D01*
X79683050Y-134581000D01*
X79828950Y-134581000D01*
X80047111Y-134559513D01*
X80327034Y-134474599D01*
X80585014Y-134336706D01*
X80811134Y-134151134D01*
X80996706Y-133925014D01*
X81134599Y-133667034D01*
X81219513Y-133387111D01*
X81248185Y-133096000D01*
X81219513Y-132804889D01*
X81134599Y-132524966D01*
X80996706Y-132266986D01*
X80811134Y-132040866D01*
X80585014Y-131855294D01*
X80327034Y-131717401D01*
X80047111Y-131632487D01*
X79828950Y-131611000D01*
X79683050Y-131611000D01*
X79464889Y-131632487D01*
X79184966Y-131717401D01*
X78926986Y-131855294D01*
X78700866Y-132040866D01*
X78515294Y-132266986D01*
X78486000Y-132321791D01*
X78456706Y-132266986D01*
X78271134Y-132040866D01*
X78045014Y-131855294D01*
X77787034Y-131717401D01*
X77507111Y-131632487D01*
X77288950Y-131611000D01*
X77143050Y-131611000D01*
X76924889Y-131632487D01*
X76644966Y-131717401D01*
X76386986Y-131855294D01*
X76160866Y-132040866D01*
X76136393Y-132070687D01*
X76115502Y-132001820D01*
X76056537Y-131891506D01*
X75977185Y-131794815D01*
X75880494Y-131715463D01*
X75770180Y-131656498D01*
X75650482Y-131620188D01*
X75526000Y-131607928D01*
X74961750Y-131611000D01*
X74803000Y-131769750D01*
X74549000Y-131769750D01*
X74390250Y-131611000D01*
X73826000Y-131607928D01*
X73701518Y-131620188D01*
X73581820Y-131656498D01*
X73471506Y-131715463D01*
X73374815Y-131794815D01*
X73295463Y-131891506D01*
X73236498Y-132001820D01*
X73200188Y-132121518D01*
X73187928Y-132246000D01*
X70576072Y-132246000D01*
X70563812Y-132121518D01*
X70527502Y-132001820D01*
X70468537Y-131891506D01*
X70389185Y-131794815D01*
X70292494Y-131715463D01*
X70182180Y-131656498D01*
X70062482Y-131620188D01*
X69938000Y-131607928D01*
X68238000Y-131607928D01*
X68113518Y-131620188D01*
X67993820Y-131656498D01*
X67883506Y-131715463D01*
X67786815Y-131794815D01*
X67707463Y-131891506D01*
X67648498Y-132001820D01*
X67627607Y-132070687D01*
X67603134Y-132040866D01*
X67377014Y-131855294D01*
X67119034Y-131717401D01*
X66839111Y-131632487D01*
X66620950Y-131611000D01*
X66475050Y-131611000D01*
X66256889Y-131632487D01*
X65976966Y-131717401D01*
X65718986Y-131855294D01*
X65492866Y-132040866D01*
X65307294Y-132266986D01*
X65169401Y-132524966D01*
X65084487Y-132804889D01*
X65055815Y-133096000D01*
X64535000Y-133096000D01*
X64535000Y-124816890D01*
X64598524Y-124816890D01*
X64643175Y-124964099D01*
X64768359Y-125226920D01*
X64942412Y-125460269D01*
X65158645Y-125655178D01*
X65408748Y-125804157D01*
X65683109Y-125901481D01*
X65913000Y-125780814D01*
X65913000Y-124587000D01*
X66167000Y-124587000D01*
X66167000Y-125780814D01*
X66396891Y-125901481D01*
X66671252Y-125804157D01*
X66921355Y-125655178D01*
X67137588Y-125460269D01*
X67311641Y-125226920D01*
X67436825Y-124964099D01*
X67481476Y-124816890D01*
X67360155Y-124587000D01*
X66167000Y-124587000D01*
X65913000Y-124587000D01*
X64719845Y-124587000D01*
X64598524Y-124816890D01*
X64535000Y-124816890D01*
X64535000Y-116066629D01*
X65128565Y-115473065D01*
X65210986Y-115540706D01*
X65265791Y-115570000D01*
X65210986Y-115599294D01*
X64984866Y-115784866D01*
X64799294Y-116010986D01*
X64661401Y-116268966D01*
X64576487Y-116548889D01*
X64547815Y-116840000D01*
X64576487Y-117131111D01*
X64661401Y-117411034D01*
X64799294Y-117669014D01*
X64984866Y-117895134D01*
X65210986Y-118080706D01*
X65265791Y-118110000D01*
X65210986Y-118139294D01*
X64984866Y-118324866D01*
X64799294Y-118550986D01*
X64661401Y-118808966D01*
X64576487Y-119088889D01*
X64547815Y-119380000D01*
X64576487Y-119671111D01*
X64661401Y-119951034D01*
X64799294Y-120209014D01*
X64984866Y-120435134D01*
X65210986Y-120620706D01*
X65265791Y-120650000D01*
X65210986Y-120679294D01*
X64984866Y-120864866D01*
X64799294Y-121090986D01*
X64661401Y-121348966D01*
X64576487Y-121628889D01*
X64547815Y-121920000D01*
X64576487Y-122211111D01*
X64661401Y-122491034D01*
X64799294Y-122749014D01*
X64984866Y-122975134D01*
X65210986Y-123160706D01*
X65275523Y-123195201D01*
X65158645Y-123264822D01*
X64942412Y-123459731D01*
X64768359Y-123693080D01*
X64643175Y-123955901D01*
X64598524Y-124103110D01*
X64719845Y-124333000D01*
X65913000Y-124333000D01*
X65913000Y-124313000D01*
X66167000Y-124313000D01*
X66167000Y-124333000D01*
X67360155Y-124333000D01*
X67481476Y-124103110D01*
X67436825Y-123955901D01*
X67311641Y-123693080D01*
X67137588Y-123459731D01*
X66921355Y-123264822D01*
X66804477Y-123195201D01*
X66869014Y-123160706D01*
X67095134Y-122975134D01*
X67280706Y-122749014D01*
X67418599Y-122491034D01*
X67503513Y-122211111D01*
X67532185Y-121920000D01*
X67503513Y-121628889D01*
X67418599Y-121348966D01*
X67280706Y-121090986D01*
X67095134Y-120864866D01*
X66869014Y-120679294D01*
X66814209Y-120650000D01*
X66869014Y-120620706D01*
X67095134Y-120435134D01*
X67280706Y-120209014D01*
X67418599Y-119951034D01*
X67503513Y-119671111D01*
X67532185Y-119380000D01*
X67503513Y-119088889D01*
X67418599Y-118808966D01*
X67280706Y-118550986D01*
X67095134Y-118324866D01*
X66869014Y-118139294D01*
X66814209Y-118110000D01*
X66869014Y-118080706D01*
X67095134Y-117895134D01*
X67280706Y-117669014D01*
X67418599Y-117411034D01*
X67503513Y-117131111D01*
X67532185Y-116840000D01*
X67503513Y-116548889D01*
X67418599Y-116268966D01*
X67280706Y-116010986D01*
X67095134Y-115784866D01*
X66869014Y-115599294D01*
X66814209Y-115570000D01*
X66869014Y-115540706D01*
X67095134Y-115355134D01*
X67280706Y-115129014D01*
X67418599Y-114871034D01*
X67503513Y-114591111D01*
X67532185Y-114300000D01*
X67503513Y-114008889D01*
X67418599Y-113728966D01*
X67280706Y-113470986D01*
X67095134Y-113244866D01*
X66869014Y-113059294D01*
X66814209Y-113030000D01*
X66869014Y-113000706D01*
X67095134Y-112815134D01*
X67280706Y-112589014D01*
X67418599Y-112331034D01*
X67503513Y-112051111D01*
X67532185Y-111760000D01*
X67503513Y-111468889D01*
X67418599Y-111188966D01*
X67280706Y-110930986D01*
X67095134Y-110704866D01*
X66869014Y-110519294D01*
X66814209Y-110490000D01*
X66869014Y-110460706D01*
X67095134Y-110275134D01*
X67280706Y-110049014D01*
X67418599Y-109791034D01*
X67503513Y-109511111D01*
X67532185Y-109220000D01*
X67503513Y-108928889D01*
X67418599Y-108648966D01*
X67280706Y-108390986D01*
X67095134Y-108164866D01*
X66869014Y-107979294D01*
X66814209Y-107950000D01*
X66869014Y-107920706D01*
X67095134Y-107735134D01*
X67280706Y-107509014D01*
X67418599Y-107251034D01*
X67503513Y-106971111D01*
X67532185Y-106680000D01*
X67503513Y-106388889D01*
X67418599Y-106108966D01*
X67280706Y-105850986D01*
X67095134Y-105624866D01*
X66869014Y-105439294D01*
X66814209Y-105410000D01*
X66869014Y-105380706D01*
X67095134Y-105195134D01*
X67280706Y-104969014D01*
X67418599Y-104711034D01*
X67503513Y-104431111D01*
X67532185Y-104140000D01*
X67503513Y-103848889D01*
X67418599Y-103568966D01*
X67280706Y-103310986D01*
X67095134Y-103084866D01*
X66869014Y-102899294D01*
X66814209Y-102870000D01*
X66869014Y-102840706D01*
X67095134Y-102655134D01*
X67280706Y-102429014D01*
X67418599Y-102171034D01*
X67503513Y-101891111D01*
X67532185Y-101600000D01*
X67503513Y-101308889D01*
X67418599Y-101028966D01*
X67280706Y-100770986D01*
X67095134Y-100544866D01*
X66869014Y-100359294D01*
X66814209Y-100330000D01*
X66869014Y-100300706D01*
X67095134Y-100115134D01*
X67111658Y-100095000D01*
X69167290Y-100095000D01*
X71101000Y-102028711D01*
X71101001Y-119837162D01*
X71095994Y-119888000D01*
X71115977Y-120090895D01*
X71175160Y-120285993D01*
X71271266Y-120465797D01*
X71368197Y-120583907D01*
X71400605Y-120623396D01*
X71440093Y-120655803D01*
X78988197Y-128203908D01*
X79020604Y-128243396D01*
X79060092Y-128275803D01*
X79178202Y-128372734D01*
X79274309Y-128424104D01*
X79358007Y-128468841D01*
X79553105Y-128528024D01*
X79705162Y-128543000D01*
X79705171Y-128543000D01*
X79755999Y-128548006D01*
X79806827Y-128543000D01*
X83835147Y-128543000D01*
X84034899Y-128706932D01*
X84167858Y-128778000D01*
X84034899Y-128849068D01*
X83816392Y-129028392D01*
X83637068Y-129246899D01*
X83503818Y-129496192D01*
X83421764Y-129766691D01*
X83394057Y-130048000D01*
X83421764Y-130329309D01*
X83503818Y-130599808D01*
X83637068Y-130849101D01*
X83816392Y-131067608D01*
X84034899Y-131246932D01*
X84284192Y-131380182D01*
X84554691Y-131462236D01*
X84765508Y-131483000D01*
X84906492Y-131483000D01*
X85117309Y-131462236D01*
X85387808Y-131380182D01*
X85637101Y-131246932D01*
X85855608Y-131067608D01*
X86034932Y-130849101D01*
X86168182Y-130599808D01*
X86250236Y-130329309D01*
X86277943Y-130048000D01*
X86250236Y-129766691D01*
X86168182Y-129496192D01*
X86034932Y-129246899D01*
X85855608Y-129028392D01*
X85637101Y-128849068D01*
X85504142Y-128778000D01*
X85637101Y-128706932D01*
X85855608Y-128527608D01*
X86034932Y-128309101D01*
X86168182Y-128059808D01*
X86250236Y-127789309D01*
X86277943Y-127508000D01*
X86250236Y-127226691D01*
X86168182Y-126956192D01*
X86034932Y-126706899D01*
X85855608Y-126488392D01*
X85637101Y-126309068D01*
X85504142Y-126238000D01*
X85637101Y-126166932D01*
X85855608Y-125987608D01*
X86034932Y-125769101D01*
X86168182Y-125519808D01*
X86250236Y-125249309D01*
X86277943Y-124968000D01*
X86250236Y-124686691D01*
X86168182Y-124416192D01*
X86034932Y-124166899D01*
X85855608Y-123948392D01*
X85637101Y-123769068D01*
X85504142Y-123698000D01*
X85637101Y-123626932D01*
X85855608Y-123447608D01*
X86034932Y-123229101D01*
X86168182Y-122979808D01*
X86250236Y-122709309D01*
X86277943Y-122428000D01*
X86250236Y-122146691D01*
X86168182Y-121876192D01*
X86034932Y-121626899D01*
X85855608Y-121408392D01*
X85637101Y-121229068D01*
X85504142Y-121158000D01*
X85637101Y-121086932D01*
X85855608Y-120907608D01*
X86034932Y-120689101D01*
X86168182Y-120439808D01*
X86250236Y-120169309D01*
X86277943Y-119888000D01*
X86250236Y-119606691D01*
X86168182Y-119336192D01*
X86034932Y-119086899D01*
X85855608Y-118868392D01*
X85637101Y-118689068D01*
X85504142Y-118618000D01*
X85637101Y-118546932D01*
X85855608Y-118367608D01*
X86034932Y-118149101D01*
X86168182Y-117899808D01*
X86250236Y-117629309D01*
X86277943Y-117348000D01*
X86250236Y-117066691D01*
X86168182Y-116796192D01*
X86034932Y-116546899D01*
X85855608Y-116328392D01*
X85637101Y-116149068D01*
X85504142Y-116078000D01*
X85637101Y-116006932D01*
X85855608Y-115827608D01*
X86034932Y-115609101D01*
X86168182Y-115359808D01*
X86250236Y-115089309D01*
X86277943Y-114808000D01*
X86250236Y-114526691D01*
X86168182Y-114256192D01*
X86034932Y-114006899D01*
X85855608Y-113788392D01*
X85637101Y-113609068D01*
X85504142Y-113538000D01*
X85637101Y-113466932D01*
X85855608Y-113287608D01*
X86034932Y-113069101D01*
X86168182Y-112819808D01*
X86250236Y-112549309D01*
X86277943Y-112268000D01*
X86250236Y-111986691D01*
X86168182Y-111716192D01*
X86034932Y-111466899D01*
X85855608Y-111248392D01*
X85637101Y-111069068D01*
X85504142Y-110998000D01*
X85637101Y-110926932D01*
X85855608Y-110747608D01*
X86034932Y-110529101D01*
X86168182Y-110279808D01*
X86250236Y-110009309D01*
X86277943Y-109728000D01*
X86250236Y-109446691D01*
X86168182Y-109176192D01*
X86034932Y-108926899D01*
X85855608Y-108708392D01*
X85637101Y-108529068D01*
X85504142Y-108458000D01*
X85637101Y-108386932D01*
X85836853Y-108223000D01*
X86817172Y-108223000D01*
X86868000Y-108228006D01*
X86918828Y-108223000D01*
X86918838Y-108223000D01*
X87070895Y-108208024D01*
X87265993Y-108148841D01*
X87445797Y-108052734D01*
X87603396Y-107923396D01*
X87635807Y-107883903D01*
X89087908Y-106431803D01*
X89127396Y-106399396D01*
X89256734Y-106241797D01*
X89352841Y-106061993D01*
X89412024Y-105866895D01*
X89427000Y-105714838D01*
X89427000Y-105714829D01*
X89432006Y-105664001D01*
X89427000Y-105613173D01*
X89427000Y-99466061D01*
X89417031Y-99415943D01*
X89412024Y-99365105D01*
X89397196Y-99316223D01*
X89387226Y-99266102D01*
X89367669Y-99218887D01*
X89352841Y-99170007D01*
X89328762Y-99124958D01*
X89309205Y-99077744D01*
X89280814Y-99035254D01*
X89256734Y-98990203D01*
X89224328Y-98950716D01*
X89195937Y-98908226D01*
X89159803Y-98872092D01*
X89127396Y-98832604D01*
X89087908Y-98800197D01*
X89051774Y-98764063D01*
X89009284Y-98735672D01*
X88969797Y-98703266D01*
X88924747Y-98679186D01*
X88882256Y-98650795D01*
X88835039Y-98631237D01*
X88789992Y-98607159D01*
X88741116Y-98592332D01*
X88693898Y-98572774D01*
X88643774Y-98562804D01*
X88594894Y-98547976D01*
X88544058Y-98542969D01*
X88493939Y-98533000D01*
X88442838Y-98533000D01*
X88392000Y-98527993D01*
X88341162Y-98533000D01*
X88290061Y-98533000D01*
X88239943Y-98542969D01*
X88189105Y-98547976D01*
X88140223Y-98562804D01*
X88090102Y-98572774D01*
X88042887Y-98592331D01*
X87994007Y-98607159D01*
X87948958Y-98631238D01*
X87901744Y-98650795D01*
X87859254Y-98679186D01*
X87814203Y-98703266D01*
X87774716Y-98735672D01*
X87732226Y-98764063D01*
X87696092Y-98800197D01*
X87656604Y-98832604D01*
X87624197Y-98872092D01*
X87588063Y-98908226D01*
X87559672Y-98950716D01*
X87527266Y-98990203D01*
X87503186Y-99035253D01*
X87474795Y-99077744D01*
X87455237Y-99124961D01*
X87431159Y-99170008D01*
X87416332Y-99218884D01*
X87396774Y-99266102D01*
X87386804Y-99316226D01*
X87371976Y-99365106D01*
X87366969Y-99415942D01*
X87357000Y-99466061D01*
X87357000Y-99517163D01*
X87357001Y-105235288D01*
X86439290Y-106153000D01*
X85836853Y-106153000D01*
X85637101Y-105989068D01*
X85504142Y-105918000D01*
X85637101Y-105846932D01*
X85855608Y-105667608D01*
X86034932Y-105449101D01*
X86168182Y-105199808D01*
X86250236Y-104929309D01*
X86277943Y-104648000D01*
X86250236Y-104366691D01*
X86168182Y-104096192D01*
X86034932Y-103846899D01*
X85855608Y-103628392D01*
X85637101Y-103449068D01*
X85499318Y-103375421D01*
X85691131Y-103260385D01*
X85899519Y-103071414D01*
X86067037Y-102845420D01*
X86187246Y-102591087D01*
X86227904Y-102457039D01*
X86105915Y-102235000D01*
X84963000Y-102235000D01*
X84963000Y-102255000D01*
X84709000Y-102255000D01*
X84709000Y-102235000D01*
X83566085Y-102235000D01*
X83444096Y-102457039D01*
X83484754Y-102591087D01*
X83604963Y-102845420D01*
X83772481Y-103071414D01*
X83980869Y-103260385D01*
X84172682Y-103375421D01*
X84034899Y-103449068D01*
X83816392Y-103628392D01*
X83637068Y-103846899D01*
X83503818Y-104096192D01*
X83421764Y-104366691D01*
X83394057Y-104648000D01*
X83421764Y-104929309D01*
X83503818Y-105199808D01*
X83637068Y-105449101D01*
X83816392Y-105667608D01*
X84034899Y-105846932D01*
X84167858Y-105918000D01*
X84034899Y-105989068D01*
X83816392Y-106168392D01*
X83637068Y-106386899D01*
X83503818Y-106636192D01*
X83421764Y-106906691D01*
X83394057Y-107188000D01*
X83421764Y-107469309D01*
X83503818Y-107739808D01*
X83637068Y-107989101D01*
X83816392Y-108207608D01*
X84034899Y-108386932D01*
X84167858Y-108458000D01*
X84034899Y-108529068D01*
X83816392Y-108708392D01*
X83637068Y-108926899D01*
X83503818Y-109176192D01*
X83421764Y-109446691D01*
X83394057Y-109728000D01*
X83421764Y-110009309D01*
X83503818Y-110279808D01*
X83637068Y-110529101D01*
X83816392Y-110747608D01*
X84034899Y-110926932D01*
X84167858Y-110998000D01*
X84034899Y-111069068D01*
X83816392Y-111248392D01*
X83637068Y-111466899D01*
X83503818Y-111716192D01*
X83421764Y-111986691D01*
X83394057Y-112268000D01*
X83421764Y-112549309D01*
X83503818Y-112819808D01*
X83637068Y-113069101D01*
X83816392Y-113287608D01*
X84034899Y-113466932D01*
X84167858Y-113538000D01*
X84034899Y-113609068D01*
X83816392Y-113788392D01*
X83637068Y-114006899D01*
X83503818Y-114256192D01*
X83421764Y-114526691D01*
X83394057Y-114808000D01*
X83421764Y-115089309D01*
X83503818Y-115359808D01*
X83637068Y-115609101D01*
X83816392Y-115827608D01*
X84034899Y-116006932D01*
X84167858Y-116078000D01*
X84034899Y-116149068D01*
X83816392Y-116328392D01*
X83637068Y-116546899D01*
X83503818Y-116796192D01*
X83421764Y-117066691D01*
X83394057Y-117348000D01*
X83421764Y-117629309D01*
X83503818Y-117899808D01*
X83637068Y-118149101D01*
X83816392Y-118367608D01*
X84034899Y-118546932D01*
X84167858Y-118618000D01*
X84034899Y-118689068D01*
X83835147Y-118853000D01*
X80184711Y-118853000D01*
X77743000Y-116411290D01*
X77743000Y-94030827D01*
X77748006Y-93979999D01*
X77743000Y-93929171D01*
X77743000Y-93929162D01*
X77728024Y-93777105D01*
X77668841Y-93582007D01*
X77594979Y-93443820D01*
X77572734Y-93402202D01*
X77475803Y-93284092D01*
X77443396Y-93244604D01*
X77403908Y-93212197D01*
X74935807Y-90744097D01*
X74903396Y-90704604D01*
X74745797Y-90575266D01*
X74565993Y-90479159D01*
X74370895Y-90419976D01*
X74218838Y-90405000D01*
X74218828Y-90405000D01*
X74168000Y-90399994D01*
X74117172Y-90405000D01*
X67111658Y-90405000D01*
X67095134Y-90384866D01*
X66869014Y-90199294D01*
X66814209Y-90170000D01*
X66869014Y-90140706D01*
X67095134Y-89955134D01*
X67111658Y-89935000D01*
X82375290Y-89935000D01*
X85156092Y-92715803D01*
M02*
