G04 #@! TF.GenerationSoftware,KiCad,Pcbnew,(5.1.4)-1*
G04 #@! TF.CreationDate,2019-11-04T13:23:32-06:00*
G04 #@! TF.ProjectId,Plataforma-nano,506c6174-6166-46f7-926d-612d6e616e6f,rev?*
G04 #@! TF.SameCoordinates,Original*
G04 #@! TF.FileFunction,Copper,L1,Top*
G04 #@! TF.FilePolarity,Positive*
%FSLAX46Y46*%
G04 Gerber Fmt 4.6, Leading zero omitted, Abs format (unit mm)*
G04 Created by KiCad (PCBNEW (5.1.4)-1) date 2019-11-04 13:23:32*
%MOMM*%
%LPD*%
G04 APERTURE LIST*
%ADD10O,1.700000X1.700000*%
%ADD11R,1.700000X1.700000*%
%ADD12R,1.600000X1.600000*%
%ADD13O,1.600000X1.600000*%
%ADD14C,1.400000*%
%ADD15O,1.400000X1.400000*%
%ADD16C,2.340000*%
%ADD17C,0.800000*%
%ADD18C,0.800000*%
%ADD19C,0.254000*%
G04 APERTURE END LIST*
D10*
X111760000Y-98044000D03*
X111760000Y-95504000D03*
D11*
X111760000Y-92964000D03*
X95504000Y-76200000D03*
D10*
X98044000Y-76200000D03*
X100584000Y-76200000D03*
X103124000Y-76200000D03*
D12*
X84836000Y-94488000D03*
D13*
X100076000Y-127508000D03*
X84836000Y-97028000D03*
X100076000Y-124968000D03*
X84836000Y-99568000D03*
X100076000Y-122428000D03*
X84836000Y-102108000D03*
X100076000Y-119888000D03*
X84836000Y-104648000D03*
X100076000Y-117348000D03*
X84836000Y-107188000D03*
X100076000Y-114808000D03*
X84836000Y-109728000D03*
X100076000Y-112268000D03*
X84836000Y-112268000D03*
X100076000Y-109728000D03*
X84836000Y-114808000D03*
X100076000Y-107188000D03*
X84836000Y-117348000D03*
X100076000Y-104648000D03*
X84836000Y-119888000D03*
X100076000Y-102108000D03*
X84836000Y-122428000D03*
X100076000Y-99568000D03*
X84836000Y-124968000D03*
X100076000Y-97028000D03*
X84836000Y-127508000D03*
X100076000Y-94488000D03*
X84836000Y-130048000D03*
X100076000Y-130048000D03*
D11*
X69088000Y-133096000D03*
D10*
X66548000Y-133096000D03*
D11*
X111760000Y-107696000D03*
D10*
X111760000Y-110236000D03*
X111760000Y-112776000D03*
X112268000Y-86360000D03*
X112268000Y-83820000D03*
X112268000Y-81280000D03*
D11*
X112268000Y-78740000D03*
D10*
X111760000Y-127508000D03*
X111760000Y-124968000D03*
X111760000Y-122428000D03*
D11*
X111760000Y-119888000D03*
X66040000Y-76200000D03*
D10*
X66040000Y-78740000D03*
X66040000Y-81280000D03*
X66040000Y-83820000D03*
X66040000Y-86360000D03*
X66040000Y-88900000D03*
X66040000Y-91440000D03*
X66040000Y-93980000D03*
X66040000Y-96520000D03*
X66040000Y-99060000D03*
X66040000Y-101600000D03*
X66040000Y-104140000D03*
X66040000Y-106680000D03*
X66040000Y-109220000D03*
X66040000Y-111760000D03*
X66040000Y-114300000D03*
X66040000Y-116840000D03*
X66040000Y-119380000D03*
X66040000Y-121920000D03*
X66040000Y-124460000D03*
D14*
X105664000Y-103124000D03*
D15*
X113284000Y-103124000D03*
X105664000Y-116840000D03*
D14*
X105664000Y-124460000D03*
D15*
X87376000Y-81280000D03*
D14*
X94996000Y-81280000D03*
D16*
X75344000Y-76200000D03*
X80344000Y-76200000D03*
X85344000Y-76200000D03*
D11*
X74676000Y-133096000D03*
D10*
X77216000Y-133096000D03*
X79756000Y-133096000D03*
D17*
X90424000Y-87884000D03*
X93472000Y-87376000D03*
X97536000Y-100076000D03*
X94488000Y-93472000D03*
X88392000Y-99568000D03*
X91440000Y-109728000D03*
X108712000Y-107696000D03*
D18*
X90424000Y-87884000D02*
X88392000Y-87884000D01*
X84836000Y-91440000D02*
X84836000Y-94488000D01*
X88392000Y-87884000D02*
X84836000Y-91440000D01*
X84836000Y-97028000D02*
X88392000Y-97028000D01*
X93472000Y-91948000D02*
X93472000Y-87376000D01*
X88392000Y-97028000D02*
X93472000Y-91948000D01*
X84836000Y-102108000D02*
X92456000Y-102108000D01*
X97536000Y-97028000D02*
X100076000Y-97028000D01*
X92456000Y-102108000D02*
X97536000Y-97028000D01*
X100076000Y-97028000D02*
X108204000Y-97028000D01*
X109728000Y-95504000D02*
X111760000Y-95504000D01*
X108204000Y-97028000D02*
X109728000Y-95504000D01*
X74676000Y-131446000D02*
X75566000Y-130556000D01*
X74676000Y-133096000D02*
X74676000Y-131446000D01*
X75566000Y-130556000D02*
X80264000Y-130556000D01*
X80264000Y-130556000D02*
X89408000Y-139700000D01*
X89408000Y-139700000D02*
X115824000Y-139700000D01*
X117856000Y-137668000D02*
X117856000Y-135128000D01*
X115824000Y-139700000D02*
X117856000Y-137668000D01*
X84836000Y-104648000D02*
X94996000Y-104648000D01*
X94996000Y-104648000D02*
X97536000Y-102108000D01*
X97536000Y-102108000D02*
X97536000Y-100076000D01*
X97536000Y-100076000D02*
X97536000Y-100076000D01*
X94488000Y-93472000D02*
X88392000Y-99568000D01*
X88392000Y-99568000D02*
X88392000Y-99568000D01*
X66040000Y-101600000D02*
X75184000Y-101600000D01*
X83312000Y-109728000D02*
X84836000Y-109728000D01*
X75184000Y-101600000D02*
X83312000Y-109728000D01*
X91440000Y-109728000D02*
X93980000Y-112268000D01*
X93980000Y-112268000D02*
X100076000Y-112268000D01*
X66040000Y-104140000D02*
X74676000Y-104140000D01*
X82804000Y-112268000D02*
X84836000Y-112268000D01*
X74676000Y-104140000D02*
X82804000Y-112268000D01*
X106680000Y-109728000D02*
X108712000Y-107696000D01*
X100076000Y-109728000D02*
X106680000Y-109728000D01*
X66040000Y-106680000D02*
X74168000Y-106680000D01*
X82296000Y-114808000D02*
X84836000Y-114808000D01*
X74168000Y-106680000D02*
X82296000Y-114808000D01*
X111760000Y-98044000D02*
X111760000Y-100584000D01*
X105156000Y-107188000D02*
X100076000Y-107188000D01*
X111760000Y-100584000D02*
X105156000Y-107188000D01*
X66040000Y-109220000D02*
X73660000Y-109220000D01*
X81788000Y-117348000D02*
X84836000Y-117348000D01*
X73660000Y-109220000D02*
X81788000Y-117348000D01*
X66040000Y-121920000D02*
X68072000Y-121920000D01*
X68072000Y-121920000D02*
X69088000Y-122936000D01*
X66040000Y-119380000D02*
X66040000Y-121920000D01*
X115316000Y-121794000D02*
X115316000Y-135128000D01*
X113410000Y-119888000D02*
X115316000Y-121794000D01*
X111760000Y-119888000D02*
X113410000Y-119888000D01*
X108712000Y-119888000D02*
X105664000Y-116840000D01*
X111760000Y-119888000D02*
X108712000Y-119888000D01*
X111760000Y-104648000D02*
X113284000Y-103124000D01*
X111760000Y-107696000D02*
X111760000Y-104648000D01*
X113284000Y-103124000D02*
X114808000Y-101600000D01*
X113410000Y-92964000D02*
X111760000Y-92964000D01*
X114808000Y-94362000D02*
X113410000Y-92964000D01*
X114808000Y-101600000D02*
X114808000Y-94362000D01*
X94996000Y-89408000D02*
X100076000Y-94488000D01*
X94996000Y-81280000D02*
X94996000Y-89408000D01*
X100875999Y-93688001D02*
X107987999Y-93688001D01*
X100076000Y-94488000D02*
X100875999Y-93688001D01*
X108712000Y-92964000D02*
X111760000Y-92964000D01*
X107987999Y-93688001D02*
X108712000Y-92964000D01*
X94996000Y-81280000D02*
X94996000Y-78740000D01*
X95504000Y-78232000D02*
X95504000Y-76200000D01*
X94996000Y-78740000D02*
X95504000Y-78232000D01*
X75344000Y-76200000D02*
X75344000Y-77884000D01*
X76200000Y-78740000D02*
X94996000Y-78740000D01*
X75344000Y-77884000D02*
X76200000Y-78740000D01*
X111760000Y-107696000D02*
X111252000Y-107696000D01*
X105664000Y-113284000D02*
X105664000Y-116840000D01*
X111252000Y-107696000D02*
X105664000Y-113284000D01*
X69088000Y-127000000D02*
X69088000Y-133096000D01*
X112268000Y-78740000D02*
X108712000Y-78740000D01*
X108712000Y-78740000D02*
X106172000Y-81280000D01*
X106172000Y-81280000D02*
X94996000Y-81280000D01*
X69088000Y-123444000D02*
X69088000Y-127000000D01*
X69088000Y-122936000D02*
X69088000Y-123444000D01*
X115316000Y-136652000D02*
X115316000Y-135128000D01*
X76708000Y-123444000D02*
X82804000Y-129540000D01*
X69088000Y-123444000D02*
X76708000Y-123444000D01*
X82804000Y-129540000D02*
X82804000Y-131064000D01*
X82804000Y-131064000D02*
X89408000Y-137668000D01*
X89408000Y-137668000D02*
X114300000Y-137668000D01*
X114300000Y-137668000D02*
X115316000Y-136652000D01*
X89916000Y-135128000D02*
X112776000Y-135128000D01*
X84836000Y-130048000D02*
X89916000Y-135128000D01*
X107696000Y-122428000D02*
X105664000Y-124460000D01*
X111760000Y-122428000D02*
X107696000Y-122428000D01*
X105664000Y-129032000D02*
X105664000Y-124460000D01*
X100076000Y-130048000D02*
X104648000Y-130048000D01*
X104648000Y-130048000D02*
X105664000Y-129032000D01*
X66548000Y-134298081D02*
X68393919Y-136144000D01*
X66548000Y-133096000D02*
X66548000Y-134298081D01*
X68393919Y-136144000D02*
X75370081Y-136144000D01*
X77216000Y-134298081D02*
X77216000Y-133096000D01*
X75370081Y-136144000D02*
X77216000Y-134298081D01*
X87376000Y-81280000D02*
X72644000Y-81280000D01*
X70104000Y-78740000D02*
X66040000Y-78740000D01*
X72644000Y-81280000D02*
X70104000Y-78740000D01*
X80344000Y-74756000D02*
X80344000Y-76200000D01*
X64008000Y-81280000D02*
X62992000Y-80264000D01*
X66040000Y-81280000D02*
X64008000Y-81280000D01*
X62992000Y-74676000D02*
X64516000Y-73152000D01*
X64516000Y-73152000D02*
X78740000Y-73152000D01*
X62992000Y-80264000D02*
X62992000Y-74676000D01*
X78740000Y-73152000D02*
X80344000Y-74756000D01*
D19*
G36*
X130912001Y-140564000D02*
G01*
X53492000Y-140564000D01*
X53492000Y-136336385D01*
X54199505Y-136336385D01*
X54199505Y-136967615D01*
X54322652Y-137586717D01*
X54564214Y-138169897D01*
X54914906Y-138694746D01*
X55361254Y-139141094D01*
X55886103Y-139491786D01*
X56469283Y-139733348D01*
X57088385Y-139856495D01*
X57719615Y-139856495D01*
X58338717Y-139733348D01*
X58921897Y-139491786D01*
X59446746Y-139141094D01*
X59893094Y-138694746D01*
X60243786Y-138169897D01*
X60485348Y-137586717D01*
X60608495Y-136967615D01*
X60608495Y-136336385D01*
X60485348Y-135717283D01*
X60243786Y-135134103D01*
X59893094Y-134609254D01*
X59446746Y-134162906D01*
X58921897Y-133812214D01*
X58338717Y-133570652D01*
X57719615Y-133447505D01*
X57088385Y-133447505D01*
X56469283Y-133570652D01*
X55886103Y-133812214D01*
X55361254Y-134162906D01*
X54914906Y-134609254D01*
X54564214Y-135134103D01*
X54322652Y-135717283D01*
X54199505Y-136336385D01*
X53492000Y-136336385D01*
X53492000Y-124816890D01*
X64598524Y-124816890D01*
X64643175Y-124964099D01*
X64768359Y-125226920D01*
X64942412Y-125460269D01*
X65158645Y-125655178D01*
X65408748Y-125804157D01*
X65683109Y-125901481D01*
X65913000Y-125780814D01*
X65913000Y-124587000D01*
X66167000Y-124587000D01*
X66167000Y-125780814D01*
X66396891Y-125901481D01*
X66671252Y-125804157D01*
X66921355Y-125655178D01*
X67137588Y-125460269D01*
X67311641Y-125226920D01*
X67436825Y-124964099D01*
X67481476Y-124816890D01*
X67360155Y-124587000D01*
X66167000Y-124587000D01*
X65913000Y-124587000D01*
X64719845Y-124587000D01*
X64598524Y-124816890D01*
X53492000Y-124816890D01*
X53492000Y-75376385D01*
X54199505Y-75376385D01*
X54199505Y-76007615D01*
X54322652Y-76626717D01*
X54564214Y-77209897D01*
X54914906Y-77734746D01*
X55361254Y-78181094D01*
X55886103Y-78531786D01*
X56469283Y-78773348D01*
X57088385Y-78896495D01*
X57719615Y-78896495D01*
X58338717Y-78773348D01*
X58921897Y-78531786D01*
X59446746Y-78181094D01*
X59893094Y-77734746D01*
X60243786Y-77209897D01*
X60485348Y-76626717D01*
X60608495Y-76007615D01*
X60608495Y-75376385D01*
X60485348Y-74757283D01*
X60451680Y-74676000D01*
X61951994Y-74676000D01*
X61957001Y-74726838D01*
X61957000Y-80213172D01*
X61951994Y-80264000D01*
X61957000Y-80314828D01*
X61957000Y-80314837D01*
X61971976Y-80466894D01*
X62031159Y-80661992D01*
X62127266Y-80841797D01*
X62256604Y-80999396D01*
X62296097Y-81031807D01*
X63240197Y-81975908D01*
X63272604Y-82015396D01*
X63312092Y-82047803D01*
X63430202Y-82144734D01*
X63526309Y-82196104D01*
X63610007Y-82240841D01*
X63805105Y-82300024D01*
X63957162Y-82315000D01*
X63957164Y-82315000D01*
X64008000Y-82320007D01*
X64058835Y-82315000D01*
X64968342Y-82315000D01*
X64984866Y-82335134D01*
X65210986Y-82520706D01*
X65265791Y-82550000D01*
X65210986Y-82579294D01*
X64984866Y-82764866D01*
X64799294Y-82990986D01*
X64661401Y-83248966D01*
X64576487Y-83528889D01*
X64547815Y-83820000D01*
X64576487Y-84111111D01*
X64661401Y-84391034D01*
X64799294Y-84649014D01*
X64984866Y-84875134D01*
X65210986Y-85060706D01*
X65265791Y-85090000D01*
X65210986Y-85119294D01*
X64984866Y-85304866D01*
X64799294Y-85530986D01*
X64661401Y-85788966D01*
X64576487Y-86068889D01*
X64547815Y-86360000D01*
X64576487Y-86651111D01*
X64661401Y-86931034D01*
X64799294Y-87189014D01*
X64984866Y-87415134D01*
X65210986Y-87600706D01*
X65265791Y-87630000D01*
X65210986Y-87659294D01*
X64984866Y-87844866D01*
X64799294Y-88070986D01*
X64661401Y-88328966D01*
X64576487Y-88608889D01*
X64547815Y-88900000D01*
X64576487Y-89191111D01*
X64661401Y-89471034D01*
X64799294Y-89729014D01*
X64984866Y-89955134D01*
X65210986Y-90140706D01*
X65265791Y-90170000D01*
X65210986Y-90199294D01*
X64984866Y-90384866D01*
X64799294Y-90610986D01*
X64661401Y-90868966D01*
X64576487Y-91148889D01*
X64547815Y-91440000D01*
X64576487Y-91731111D01*
X64661401Y-92011034D01*
X64799294Y-92269014D01*
X64984866Y-92495134D01*
X65210986Y-92680706D01*
X65265791Y-92710000D01*
X65210986Y-92739294D01*
X64984866Y-92924866D01*
X64799294Y-93150986D01*
X64661401Y-93408966D01*
X64576487Y-93688889D01*
X64547815Y-93980000D01*
X64576487Y-94271111D01*
X64661401Y-94551034D01*
X64799294Y-94809014D01*
X64984866Y-95035134D01*
X65210986Y-95220706D01*
X65265791Y-95250000D01*
X65210986Y-95279294D01*
X64984866Y-95464866D01*
X64799294Y-95690986D01*
X64661401Y-95948966D01*
X64576487Y-96228889D01*
X64547815Y-96520000D01*
X64576487Y-96811111D01*
X64661401Y-97091034D01*
X64799294Y-97349014D01*
X64984866Y-97575134D01*
X65210986Y-97760706D01*
X65265791Y-97790000D01*
X65210986Y-97819294D01*
X64984866Y-98004866D01*
X64799294Y-98230986D01*
X64661401Y-98488966D01*
X64576487Y-98768889D01*
X64547815Y-99060000D01*
X64576487Y-99351111D01*
X64661401Y-99631034D01*
X64799294Y-99889014D01*
X64984866Y-100115134D01*
X65210986Y-100300706D01*
X65265791Y-100330000D01*
X65210986Y-100359294D01*
X64984866Y-100544866D01*
X64799294Y-100770986D01*
X64661401Y-101028966D01*
X64576487Y-101308889D01*
X64547815Y-101600000D01*
X64576487Y-101891111D01*
X64661401Y-102171034D01*
X64799294Y-102429014D01*
X64984866Y-102655134D01*
X65210986Y-102840706D01*
X65265791Y-102870000D01*
X65210986Y-102899294D01*
X64984866Y-103084866D01*
X64799294Y-103310986D01*
X64661401Y-103568966D01*
X64576487Y-103848889D01*
X64547815Y-104140000D01*
X64576487Y-104431111D01*
X64661401Y-104711034D01*
X64799294Y-104969014D01*
X64984866Y-105195134D01*
X65210986Y-105380706D01*
X65265791Y-105410000D01*
X65210986Y-105439294D01*
X64984866Y-105624866D01*
X64799294Y-105850986D01*
X64661401Y-106108966D01*
X64576487Y-106388889D01*
X64547815Y-106680000D01*
X64576487Y-106971111D01*
X64661401Y-107251034D01*
X64799294Y-107509014D01*
X64984866Y-107735134D01*
X65210986Y-107920706D01*
X65265791Y-107950000D01*
X65210986Y-107979294D01*
X64984866Y-108164866D01*
X64799294Y-108390986D01*
X64661401Y-108648966D01*
X64576487Y-108928889D01*
X64547815Y-109220000D01*
X64576487Y-109511111D01*
X64661401Y-109791034D01*
X64799294Y-110049014D01*
X64984866Y-110275134D01*
X65210986Y-110460706D01*
X65265791Y-110490000D01*
X65210986Y-110519294D01*
X64984866Y-110704866D01*
X64799294Y-110930986D01*
X64661401Y-111188966D01*
X64576487Y-111468889D01*
X64547815Y-111760000D01*
X64576487Y-112051111D01*
X64661401Y-112331034D01*
X64799294Y-112589014D01*
X64984866Y-112815134D01*
X65210986Y-113000706D01*
X65265791Y-113030000D01*
X65210986Y-113059294D01*
X64984866Y-113244866D01*
X64799294Y-113470986D01*
X64661401Y-113728966D01*
X64576487Y-114008889D01*
X64547815Y-114300000D01*
X64576487Y-114591111D01*
X64661401Y-114871034D01*
X64799294Y-115129014D01*
X64984866Y-115355134D01*
X65210986Y-115540706D01*
X65265791Y-115570000D01*
X65210986Y-115599294D01*
X64984866Y-115784866D01*
X64799294Y-116010986D01*
X64661401Y-116268966D01*
X64576487Y-116548889D01*
X64547815Y-116840000D01*
X64576487Y-117131111D01*
X64661401Y-117411034D01*
X64799294Y-117669014D01*
X64984866Y-117895134D01*
X65210986Y-118080706D01*
X65265791Y-118110000D01*
X65210986Y-118139294D01*
X64984866Y-118324866D01*
X64799294Y-118550986D01*
X64661401Y-118808966D01*
X64576487Y-119088889D01*
X64547815Y-119380000D01*
X64576487Y-119671111D01*
X64661401Y-119951034D01*
X64799294Y-120209014D01*
X64984866Y-120435134D01*
X65005000Y-120451658D01*
X65005001Y-120848342D01*
X64984866Y-120864866D01*
X64799294Y-121090986D01*
X64661401Y-121348966D01*
X64576487Y-121628889D01*
X64547815Y-121920000D01*
X64576487Y-122211111D01*
X64661401Y-122491034D01*
X64799294Y-122749014D01*
X64984866Y-122975134D01*
X65210986Y-123160706D01*
X65275523Y-123195201D01*
X65158645Y-123264822D01*
X64942412Y-123459731D01*
X64768359Y-123693080D01*
X64643175Y-123955901D01*
X64598524Y-124103110D01*
X64719845Y-124333000D01*
X65913000Y-124333000D01*
X65913000Y-124313000D01*
X66167000Y-124313000D01*
X66167000Y-124333000D01*
X67360155Y-124333000D01*
X67481476Y-124103110D01*
X67436825Y-123955901D01*
X67311641Y-123693080D01*
X67137588Y-123459731D01*
X66921355Y-123264822D01*
X66804477Y-123195201D01*
X66869014Y-123160706D01*
X67095134Y-122975134D01*
X67111658Y-122955000D01*
X67643290Y-122955000D01*
X68053000Y-123364711D01*
X68053000Y-123393162D01*
X68047993Y-123444000D01*
X68053000Y-123494837D01*
X68053001Y-126949153D01*
X68053000Y-126949163D01*
X68053001Y-131638546D01*
X67993820Y-131656498D01*
X67883506Y-131715463D01*
X67786815Y-131794815D01*
X67707463Y-131891506D01*
X67648498Y-132001820D01*
X67627607Y-132070687D01*
X67603134Y-132040866D01*
X67377014Y-131855294D01*
X67119034Y-131717401D01*
X66839111Y-131632487D01*
X66620950Y-131611000D01*
X66475050Y-131611000D01*
X66256889Y-131632487D01*
X65976966Y-131717401D01*
X65718986Y-131855294D01*
X65492866Y-132040866D01*
X65307294Y-132266986D01*
X65169401Y-132524966D01*
X65084487Y-132804889D01*
X65055815Y-133096000D01*
X65084487Y-133387111D01*
X65169401Y-133667034D01*
X65307294Y-133925014D01*
X65492866Y-134151134D01*
X65513001Y-134167658D01*
X65513001Y-134247244D01*
X65507994Y-134298081D01*
X65527977Y-134500976D01*
X65587160Y-134696074D01*
X65683266Y-134875878D01*
X65780197Y-134993988D01*
X65812605Y-135033477D01*
X65852092Y-135065883D01*
X67626116Y-136839908D01*
X67658523Y-136879396D01*
X67698011Y-136911803D01*
X67816121Y-137008734D01*
X67893310Y-137049992D01*
X67995926Y-137104841D01*
X68191024Y-137164024D01*
X68343081Y-137179000D01*
X68343084Y-137179000D01*
X68393919Y-137184007D01*
X68444754Y-137179000D01*
X75319253Y-137179000D01*
X75370081Y-137184006D01*
X75420909Y-137179000D01*
X75420919Y-137179000D01*
X75572976Y-137164024D01*
X75768074Y-137104841D01*
X75947878Y-137008734D01*
X76105477Y-136879396D01*
X76137888Y-136839903D01*
X77911908Y-135065884D01*
X77951396Y-135033477D01*
X77983804Y-134993988D01*
X78080734Y-134875879D01*
X78176840Y-134696075D01*
X78176841Y-134696074D01*
X78236024Y-134500976D01*
X78251000Y-134348919D01*
X78251000Y-134348916D01*
X78256007Y-134298081D01*
X78251000Y-134247246D01*
X78251000Y-134167658D01*
X78271134Y-134151134D01*
X78456706Y-133925014D01*
X78486000Y-133870209D01*
X78515294Y-133925014D01*
X78700866Y-134151134D01*
X78926986Y-134336706D01*
X79184966Y-134474599D01*
X79464889Y-134559513D01*
X79683050Y-134581000D01*
X79828950Y-134581000D01*
X80047111Y-134559513D01*
X80327034Y-134474599D01*
X80585014Y-134336706D01*
X80811134Y-134151134D01*
X80996706Y-133925014D01*
X81134599Y-133667034D01*
X81219513Y-133387111D01*
X81248185Y-133096000D01*
X81219513Y-132804889D01*
X81134599Y-132524966D01*
X80996706Y-132266986D01*
X80811134Y-132040866D01*
X80585014Y-131855294D01*
X80327034Y-131717401D01*
X80047111Y-131632487D01*
X79828950Y-131611000D01*
X79683050Y-131611000D01*
X79464889Y-131632487D01*
X79184966Y-131717401D01*
X78926986Y-131855294D01*
X78700866Y-132040866D01*
X78515294Y-132266986D01*
X78486000Y-132321791D01*
X78456706Y-132266986D01*
X78271134Y-132040866D01*
X78045014Y-131855294D01*
X77787034Y-131717401D01*
X77507111Y-131632487D01*
X77288950Y-131611000D01*
X77143050Y-131611000D01*
X76924889Y-131632487D01*
X76644966Y-131717401D01*
X76386986Y-131855294D01*
X76160866Y-132040866D01*
X76136393Y-132070687D01*
X76115502Y-132001820D01*
X76056537Y-131891506D01*
X75977185Y-131794815D01*
X75880494Y-131715463D01*
X75770180Y-131656498D01*
X75650482Y-131620188D01*
X75526000Y-131607928D01*
X74961750Y-131611000D01*
X74803000Y-131769750D01*
X74803000Y-132969000D01*
X74823000Y-132969000D01*
X74823000Y-133223000D01*
X74803000Y-133223000D01*
X74803000Y-134422250D01*
X74961750Y-134581000D01*
X75466622Y-134583749D01*
X74941371Y-135109000D01*
X68822630Y-135109000D01*
X68297702Y-134584072D01*
X69938000Y-134584072D01*
X70062482Y-134571812D01*
X70182180Y-134535502D01*
X70292494Y-134476537D01*
X70389185Y-134397185D01*
X70468537Y-134300494D01*
X70527502Y-134190180D01*
X70563812Y-134070482D01*
X70576072Y-133946000D01*
X73187928Y-133946000D01*
X73200188Y-134070482D01*
X73236498Y-134190180D01*
X73295463Y-134300494D01*
X73374815Y-134397185D01*
X73471506Y-134476537D01*
X73581820Y-134535502D01*
X73701518Y-134571812D01*
X73826000Y-134584072D01*
X74390250Y-134581000D01*
X74549000Y-134422250D01*
X74549000Y-133223000D01*
X73349750Y-133223000D01*
X73191000Y-133381750D01*
X73187928Y-133946000D01*
X70576072Y-133946000D01*
X70576072Y-132246000D01*
X73187928Y-132246000D01*
X73191000Y-132810250D01*
X73349750Y-132969000D01*
X74549000Y-132969000D01*
X74549000Y-131769750D01*
X74390250Y-131611000D01*
X73826000Y-131607928D01*
X73701518Y-131620188D01*
X73581820Y-131656498D01*
X73471506Y-131715463D01*
X73374815Y-131794815D01*
X73295463Y-131891506D01*
X73236498Y-132001820D01*
X73200188Y-132121518D01*
X73187928Y-132246000D01*
X70576072Y-132246000D01*
X70563812Y-132121518D01*
X70527502Y-132001820D01*
X70468537Y-131891506D01*
X70389185Y-131794815D01*
X70292494Y-131715463D01*
X70182180Y-131656498D01*
X70123000Y-131638546D01*
X70123000Y-124479000D01*
X76279290Y-124479000D01*
X81769000Y-129968711D01*
X81769001Y-131013163D01*
X81763994Y-131064000D01*
X81783977Y-131266895D01*
X81843160Y-131461993D01*
X81939266Y-131641797D01*
X82036197Y-131759907D01*
X82068605Y-131799396D01*
X82108093Y-131831803D01*
X88640197Y-138363908D01*
X88672604Y-138403396D01*
X88712092Y-138435803D01*
X88830202Y-138532734D01*
X88926309Y-138584104D01*
X89010007Y-138628841D01*
X89205105Y-138688024D01*
X89357162Y-138703000D01*
X89357171Y-138703000D01*
X89407999Y-138708006D01*
X89458827Y-138703000D01*
X114249172Y-138703000D01*
X114300000Y-138708006D01*
X114350828Y-138703000D01*
X114350838Y-138703000D01*
X114502895Y-138688024D01*
X114697993Y-138628841D01*
X114877797Y-138532734D01*
X115035396Y-138403396D01*
X115067807Y-138363903D01*
X116011908Y-137419803D01*
X116051396Y-137387396D01*
X116147735Y-137270007D01*
X116180734Y-137229798D01*
X116276840Y-137049994D01*
X116276841Y-137049993D01*
X116336024Y-136854895D01*
X116351000Y-136702838D01*
X116351000Y-136702836D01*
X116356007Y-136652000D01*
X116351000Y-136601165D01*
X116351000Y-136336385D01*
X123795505Y-136336385D01*
X123795505Y-136967615D01*
X123918652Y-137586717D01*
X124160214Y-138169897D01*
X124510906Y-138694746D01*
X124957254Y-139141094D01*
X125482103Y-139491786D01*
X126065283Y-139733348D01*
X126684385Y-139856495D01*
X127315615Y-139856495D01*
X127934717Y-139733348D01*
X128517897Y-139491786D01*
X129042746Y-139141094D01*
X129489094Y-138694746D01*
X129839786Y-138169897D01*
X130081348Y-137586717D01*
X130204495Y-136967615D01*
X130204495Y-136336385D01*
X130081348Y-135717283D01*
X129839786Y-135134103D01*
X129489094Y-134609254D01*
X129042746Y-134162906D01*
X128517897Y-133812214D01*
X127934717Y-133570652D01*
X127315615Y-133447505D01*
X126684385Y-133447505D01*
X126065283Y-133570652D01*
X125482103Y-133812214D01*
X124957254Y-134162906D01*
X124510906Y-134609254D01*
X124160214Y-135134103D01*
X123918652Y-135717283D01*
X123795505Y-136336385D01*
X116351000Y-136336385D01*
X116351000Y-121844827D01*
X116356006Y-121793999D01*
X116351000Y-121743171D01*
X116351000Y-121743162D01*
X116336024Y-121591105D01*
X116276841Y-121396007D01*
X116232104Y-121312309D01*
X116180734Y-121216202D01*
X116083803Y-121098092D01*
X116051396Y-121058604D01*
X116011908Y-121026197D01*
X114177807Y-119192097D01*
X114145396Y-119152604D01*
X113987797Y-119023266D01*
X113807993Y-118927159D01*
X113612895Y-118867976D01*
X113460838Y-118853000D01*
X113460828Y-118853000D01*
X113410000Y-118847994D01*
X113359172Y-118853000D01*
X113217454Y-118853000D01*
X113199502Y-118793820D01*
X113140537Y-118683506D01*
X113061185Y-118586815D01*
X112964494Y-118507463D01*
X112854180Y-118448498D01*
X112734482Y-118412188D01*
X112610000Y-118399928D01*
X110910000Y-118399928D01*
X110785518Y-118412188D01*
X110665820Y-118448498D01*
X110555506Y-118507463D01*
X110458815Y-118586815D01*
X110379463Y-118683506D01*
X110320498Y-118793820D01*
X110302546Y-118853000D01*
X109140711Y-118853000D01*
X106992103Y-116704393D01*
X106979683Y-116578294D01*
X106903347Y-116326646D01*
X106779382Y-116094725D01*
X106699000Y-115996779D01*
X106699000Y-113712710D01*
X107278820Y-113132890D01*
X110318524Y-113132890D01*
X110363175Y-113280099D01*
X110488359Y-113542920D01*
X110662412Y-113776269D01*
X110878645Y-113971178D01*
X111128748Y-114120157D01*
X111403109Y-114217481D01*
X111633000Y-114096814D01*
X111633000Y-112903000D01*
X111887000Y-112903000D01*
X111887000Y-114096814D01*
X112116891Y-114217481D01*
X112391252Y-114120157D01*
X112641355Y-113971178D01*
X112857588Y-113776269D01*
X113031641Y-113542920D01*
X113156825Y-113280099D01*
X113201476Y-113132890D01*
X113080155Y-112903000D01*
X111887000Y-112903000D01*
X111633000Y-112903000D01*
X110439845Y-112903000D01*
X110318524Y-113132890D01*
X107278820Y-113132890D01*
X110277878Y-110133833D01*
X110267815Y-110236000D01*
X110296487Y-110527111D01*
X110381401Y-110807034D01*
X110519294Y-111065014D01*
X110704866Y-111291134D01*
X110930986Y-111476706D01*
X110995523Y-111511201D01*
X110878645Y-111580822D01*
X110662412Y-111775731D01*
X110488359Y-112009080D01*
X110363175Y-112271901D01*
X110318524Y-112419110D01*
X110439845Y-112649000D01*
X111633000Y-112649000D01*
X111633000Y-112629000D01*
X111887000Y-112629000D01*
X111887000Y-112649000D01*
X113080155Y-112649000D01*
X113201476Y-112419110D01*
X113156825Y-112271901D01*
X113031641Y-112009080D01*
X112857588Y-111775731D01*
X112641355Y-111580822D01*
X112524477Y-111511201D01*
X112589014Y-111476706D01*
X112815134Y-111291134D01*
X113000706Y-111065014D01*
X113138599Y-110807034D01*
X113223513Y-110527111D01*
X113252185Y-110236000D01*
X113223513Y-109944889D01*
X113138599Y-109664966D01*
X113000706Y-109406986D01*
X112815134Y-109180866D01*
X112785313Y-109156393D01*
X112854180Y-109135502D01*
X112964494Y-109076537D01*
X113061185Y-108997185D01*
X113140537Y-108900494D01*
X113199502Y-108790180D01*
X113235812Y-108670482D01*
X113248072Y-108546000D01*
X113248072Y-106846000D01*
X113235812Y-106721518D01*
X113199502Y-106601820D01*
X113140537Y-106491506D01*
X113061185Y-106394815D01*
X112964494Y-106315463D01*
X112854180Y-106256498D01*
X112795000Y-106238546D01*
X112795000Y-105076710D01*
X113419608Y-104452103D01*
X113545706Y-104439683D01*
X113797354Y-104363347D01*
X114029275Y-104239382D01*
X114232555Y-104072555D01*
X114399382Y-103869275D01*
X114523347Y-103637354D01*
X114599683Y-103385706D01*
X114612103Y-103259608D01*
X115503908Y-102367803D01*
X115543396Y-102335396D01*
X115672734Y-102177797D01*
X115768841Y-101997993D01*
X115828024Y-101802895D01*
X115843000Y-101650838D01*
X115843000Y-101650829D01*
X115848006Y-101600001D01*
X115843000Y-101549173D01*
X115843000Y-94412835D01*
X115848007Y-94362000D01*
X115843000Y-94311162D01*
X115828024Y-94159105D01*
X115774913Y-93984024D01*
X115768841Y-93964006D01*
X115672734Y-93784202D01*
X115575803Y-93666092D01*
X115543396Y-93626604D01*
X115503908Y-93594197D01*
X114177807Y-92268097D01*
X114145396Y-92228604D01*
X113987797Y-92099266D01*
X113807993Y-92003159D01*
X113612895Y-91943976D01*
X113460838Y-91929000D01*
X113460828Y-91929000D01*
X113410000Y-91923994D01*
X113359172Y-91929000D01*
X113217454Y-91929000D01*
X113199502Y-91869820D01*
X113140537Y-91759506D01*
X113061185Y-91662815D01*
X112964494Y-91583463D01*
X112854180Y-91524498D01*
X112734482Y-91488188D01*
X112610000Y-91475928D01*
X110910000Y-91475928D01*
X110785518Y-91488188D01*
X110665820Y-91524498D01*
X110555506Y-91583463D01*
X110458815Y-91662815D01*
X110379463Y-91759506D01*
X110320498Y-91869820D01*
X110302546Y-91929000D01*
X108762827Y-91929000D01*
X108711999Y-91923994D01*
X108661171Y-91929000D01*
X108661162Y-91929000D01*
X108509105Y-91943976D01*
X108314007Y-92003159D01*
X108230309Y-92047896D01*
X108134202Y-92099266D01*
X108041438Y-92175396D01*
X107976604Y-92228604D01*
X107944197Y-92268092D01*
X107559289Y-92653001D01*
X100926826Y-92653001D01*
X100875998Y-92647995D01*
X100825170Y-92653001D01*
X100825161Y-92653001D01*
X100673104Y-92667977D01*
X100478006Y-92727160D01*
X100455305Y-92739294D01*
X100298201Y-92823267D01*
X100180091Y-92920198D01*
X100140603Y-92952605D01*
X100108196Y-92992093D01*
X100076000Y-93024289D01*
X96031000Y-88979290D01*
X96031000Y-83820000D01*
X110775815Y-83820000D01*
X110804487Y-84111111D01*
X110889401Y-84391034D01*
X111027294Y-84649014D01*
X111212866Y-84875134D01*
X111438986Y-85060706D01*
X111493791Y-85090000D01*
X111438986Y-85119294D01*
X111212866Y-85304866D01*
X111027294Y-85530986D01*
X110889401Y-85788966D01*
X110804487Y-86068889D01*
X110775815Y-86360000D01*
X110804487Y-86651111D01*
X110889401Y-86931034D01*
X111027294Y-87189014D01*
X111212866Y-87415134D01*
X111438986Y-87600706D01*
X111696966Y-87738599D01*
X111976889Y-87823513D01*
X112195050Y-87845000D01*
X112340950Y-87845000D01*
X112559111Y-87823513D01*
X112839034Y-87738599D01*
X113097014Y-87600706D01*
X113323134Y-87415134D01*
X113508706Y-87189014D01*
X113646599Y-86931034D01*
X113731513Y-86651111D01*
X113760185Y-86360000D01*
X113731513Y-86068889D01*
X113646599Y-85788966D01*
X113508706Y-85530986D01*
X113323134Y-85304866D01*
X113097014Y-85119294D01*
X113042209Y-85090000D01*
X113097014Y-85060706D01*
X113323134Y-84875134D01*
X113508706Y-84649014D01*
X113646599Y-84391034D01*
X113731513Y-84111111D01*
X113760185Y-83820000D01*
X113731513Y-83528889D01*
X113646599Y-83248966D01*
X113508706Y-82990986D01*
X113323134Y-82764866D01*
X113097014Y-82579294D01*
X113032477Y-82544799D01*
X113149355Y-82475178D01*
X113365588Y-82280269D01*
X113539641Y-82046920D01*
X113664825Y-81784099D01*
X113709476Y-81636890D01*
X113588155Y-81407000D01*
X112395000Y-81407000D01*
X112395000Y-81427000D01*
X112141000Y-81427000D01*
X112141000Y-81407000D01*
X110947845Y-81407000D01*
X110826524Y-81636890D01*
X110871175Y-81784099D01*
X110996359Y-82046920D01*
X111170412Y-82280269D01*
X111386645Y-82475178D01*
X111503523Y-82544799D01*
X111438986Y-82579294D01*
X111212866Y-82764866D01*
X111027294Y-82990986D01*
X110889401Y-83248966D01*
X110804487Y-83528889D01*
X110775815Y-83820000D01*
X96031000Y-83820000D01*
X96031000Y-82315000D01*
X106121172Y-82315000D01*
X106172000Y-82320006D01*
X106222828Y-82315000D01*
X106222838Y-82315000D01*
X106374895Y-82300024D01*
X106569993Y-82240841D01*
X106749797Y-82144734D01*
X106907396Y-82015396D01*
X106939807Y-81975903D01*
X109140711Y-79775000D01*
X110810546Y-79775000D01*
X110828498Y-79834180D01*
X110887463Y-79944494D01*
X110966815Y-80041185D01*
X111063506Y-80120537D01*
X111173820Y-80179502D01*
X111254466Y-80203966D01*
X111170412Y-80279731D01*
X110996359Y-80513080D01*
X110871175Y-80775901D01*
X110826524Y-80923110D01*
X110947845Y-81153000D01*
X112141000Y-81153000D01*
X112141000Y-81133000D01*
X112395000Y-81133000D01*
X112395000Y-81153000D01*
X113588155Y-81153000D01*
X113709476Y-80923110D01*
X113664825Y-80775901D01*
X113539641Y-80513080D01*
X113365588Y-80279731D01*
X113281534Y-80203966D01*
X113362180Y-80179502D01*
X113472494Y-80120537D01*
X113569185Y-80041185D01*
X113648537Y-79944494D01*
X113707502Y-79834180D01*
X113743812Y-79714482D01*
X113756072Y-79590000D01*
X113756072Y-77890000D01*
X113743812Y-77765518D01*
X113707502Y-77645820D01*
X113648537Y-77535506D01*
X113569185Y-77438815D01*
X113472494Y-77359463D01*
X113362180Y-77300498D01*
X113242482Y-77264188D01*
X113118000Y-77251928D01*
X111418000Y-77251928D01*
X111293518Y-77264188D01*
X111173820Y-77300498D01*
X111063506Y-77359463D01*
X110966815Y-77438815D01*
X110887463Y-77535506D01*
X110828498Y-77645820D01*
X110810546Y-77705000D01*
X108762827Y-77705000D01*
X108711999Y-77699994D01*
X108661171Y-77705000D01*
X108661162Y-77705000D01*
X108509105Y-77719976D01*
X108314007Y-77779159D01*
X108275819Y-77799571D01*
X108134202Y-77875266D01*
X108061614Y-77934838D01*
X107976604Y-78004604D01*
X107944197Y-78044092D01*
X105743290Y-80245000D01*
X96031000Y-80245000D01*
X96031000Y-79168710D01*
X96199903Y-78999807D01*
X96239396Y-78967396D01*
X96368734Y-78809797D01*
X96464841Y-78629993D01*
X96524024Y-78434895D01*
X96539000Y-78282838D01*
X96539000Y-78282829D01*
X96544006Y-78232001D01*
X96539000Y-78181173D01*
X96539000Y-77657454D01*
X96598180Y-77639502D01*
X96708494Y-77580537D01*
X96805185Y-77501185D01*
X96884537Y-77404494D01*
X96943502Y-77294180D01*
X96964393Y-77225313D01*
X96988866Y-77255134D01*
X97214986Y-77440706D01*
X97472966Y-77578599D01*
X97752889Y-77663513D01*
X97971050Y-77685000D01*
X98116950Y-77685000D01*
X98335111Y-77663513D01*
X98615034Y-77578599D01*
X98873014Y-77440706D01*
X99099134Y-77255134D01*
X99284706Y-77029014D01*
X99314000Y-76974209D01*
X99343294Y-77029014D01*
X99528866Y-77255134D01*
X99754986Y-77440706D01*
X100012966Y-77578599D01*
X100292889Y-77663513D01*
X100511050Y-77685000D01*
X100656950Y-77685000D01*
X100875111Y-77663513D01*
X101155034Y-77578599D01*
X101413014Y-77440706D01*
X101639134Y-77255134D01*
X101824706Y-77029014D01*
X101859201Y-76964477D01*
X101928822Y-77081355D01*
X102123731Y-77297588D01*
X102357080Y-77471641D01*
X102619901Y-77596825D01*
X102767110Y-77641476D01*
X102997000Y-77520155D01*
X102997000Y-76327000D01*
X103251000Y-76327000D01*
X103251000Y-77520155D01*
X103480890Y-77641476D01*
X103628099Y-77596825D01*
X103890920Y-77471641D01*
X104124269Y-77297588D01*
X104319178Y-77081355D01*
X104468157Y-76831252D01*
X104565481Y-76556891D01*
X104444814Y-76327000D01*
X103251000Y-76327000D01*
X102997000Y-76327000D01*
X102977000Y-76327000D01*
X102977000Y-76073000D01*
X102997000Y-76073000D01*
X102997000Y-74879845D01*
X103251000Y-74879845D01*
X103251000Y-76073000D01*
X104444814Y-76073000D01*
X104565481Y-75843109D01*
X104468157Y-75568748D01*
X104353573Y-75376385D01*
X123795505Y-75376385D01*
X123795505Y-76007615D01*
X123918652Y-76626717D01*
X124160214Y-77209897D01*
X124510906Y-77734746D01*
X124957254Y-78181094D01*
X125482103Y-78531786D01*
X126065283Y-78773348D01*
X126684385Y-78896495D01*
X127315615Y-78896495D01*
X127934717Y-78773348D01*
X128517897Y-78531786D01*
X129042746Y-78181094D01*
X129489094Y-77734746D01*
X129839786Y-77209897D01*
X130081348Y-76626717D01*
X130204495Y-76007615D01*
X130204495Y-75376385D01*
X130081348Y-74757283D01*
X129839786Y-74174103D01*
X129489094Y-73649254D01*
X129042746Y-73202906D01*
X128517897Y-72852214D01*
X127934717Y-72610652D01*
X127315615Y-72487505D01*
X126684385Y-72487505D01*
X126065283Y-72610652D01*
X125482103Y-72852214D01*
X124957254Y-73202906D01*
X124510906Y-73649254D01*
X124160214Y-74174103D01*
X123918652Y-74757283D01*
X123795505Y-75376385D01*
X104353573Y-75376385D01*
X104319178Y-75318645D01*
X104124269Y-75102412D01*
X103890920Y-74928359D01*
X103628099Y-74803175D01*
X103480890Y-74758524D01*
X103251000Y-74879845D01*
X102997000Y-74879845D01*
X102767110Y-74758524D01*
X102619901Y-74803175D01*
X102357080Y-74928359D01*
X102123731Y-75102412D01*
X101928822Y-75318645D01*
X101859201Y-75435523D01*
X101824706Y-75370986D01*
X101639134Y-75144866D01*
X101413014Y-74959294D01*
X101155034Y-74821401D01*
X100875111Y-74736487D01*
X100656950Y-74715000D01*
X100511050Y-74715000D01*
X100292889Y-74736487D01*
X100012966Y-74821401D01*
X99754986Y-74959294D01*
X99528866Y-75144866D01*
X99343294Y-75370986D01*
X99314000Y-75425791D01*
X99284706Y-75370986D01*
X99099134Y-75144866D01*
X98873014Y-74959294D01*
X98615034Y-74821401D01*
X98335111Y-74736487D01*
X98116950Y-74715000D01*
X97971050Y-74715000D01*
X97752889Y-74736487D01*
X97472966Y-74821401D01*
X97214986Y-74959294D01*
X96988866Y-75144866D01*
X96964393Y-75174687D01*
X96943502Y-75105820D01*
X96884537Y-74995506D01*
X96805185Y-74898815D01*
X96708494Y-74819463D01*
X96598180Y-74760498D01*
X96478482Y-74724188D01*
X96354000Y-74711928D01*
X94654000Y-74711928D01*
X94529518Y-74724188D01*
X94409820Y-74760498D01*
X94299506Y-74819463D01*
X94202815Y-74898815D01*
X94123463Y-74995506D01*
X94064498Y-75105820D01*
X94028188Y-75225518D01*
X94015928Y-75350000D01*
X94015928Y-77050000D01*
X94028188Y-77174482D01*
X94064498Y-77294180D01*
X94123463Y-77404494D01*
X94202815Y-77501185D01*
X94299506Y-77580537D01*
X94409820Y-77639502D01*
X94469000Y-77657454D01*
X94469000Y-77705000D01*
X86318502Y-77705000D01*
X86420997Y-77456602D01*
X85344000Y-76379605D01*
X84267003Y-77456602D01*
X84369498Y-77705000D01*
X81340523Y-77705000D01*
X81494621Y-77602035D01*
X81746035Y-77350621D01*
X81943571Y-77054988D01*
X82079635Y-76726499D01*
X82149000Y-76377777D01*
X82149000Y-76255869D01*
X83531127Y-76255869D01*
X83576861Y-76608470D01*
X83690505Y-76945373D01*
X83805611Y-77160725D01*
X84087398Y-77276997D01*
X85164395Y-76200000D01*
X85523605Y-76200000D01*
X86600602Y-77276997D01*
X86882389Y-77160725D01*
X87040257Y-76842140D01*
X87132938Y-76498878D01*
X87156873Y-76144131D01*
X87111139Y-75791530D01*
X86997495Y-75454627D01*
X86882389Y-75239275D01*
X86600602Y-75123003D01*
X85523605Y-76200000D01*
X85164395Y-76200000D01*
X84087398Y-75123003D01*
X83805611Y-75239275D01*
X83647743Y-75557860D01*
X83555062Y-75901122D01*
X83531127Y-76255869D01*
X82149000Y-76255869D01*
X82149000Y-76022223D01*
X82079635Y-75673501D01*
X81943571Y-75345012D01*
X81746035Y-75049379D01*
X81640054Y-74943398D01*
X84267003Y-74943398D01*
X85344000Y-76020395D01*
X86420997Y-74943398D01*
X86304725Y-74661611D01*
X85986140Y-74503743D01*
X85642878Y-74411062D01*
X85288131Y-74387127D01*
X84935530Y-74432861D01*
X84598627Y-74546505D01*
X84383275Y-74661611D01*
X84267003Y-74943398D01*
X81640054Y-74943398D01*
X81494621Y-74797965D01*
X81380639Y-74721804D01*
X81379000Y-74705162D01*
X81364024Y-74553105D01*
X81313675Y-74387127D01*
X81304841Y-74358006D01*
X81208734Y-74178202D01*
X81111803Y-74060092D01*
X81079396Y-74020604D01*
X81039908Y-73988197D01*
X79507807Y-72456097D01*
X79475396Y-72416604D01*
X79317797Y-72287266D01*
X79137993Y-72191159D01*
X78942895Y-72131976D01*
X78790838Y-72117000D01*
X78790828Y-72117000D01*
X78740000Y-72111994D01*
X78689172Y-72117000D01*
X64566827Y-72117000D01*
X64515999Y-72111994D01*
X64465171Y-72117000D01*
X64465162Y-72117000D01*
X64313105Y-72131976D01*
X64118007Y-72191159D01*
X63938203Y-72287266D01*
X63780604Y-72416604D01*
X63748197Y-72456092D01*
X62296092Y-73908198D01*
X62256605Y-73940604D01*
X62224198Y-73980092D01*
X62224197Y-73980093D01*
X62127266Y-74098203D01*
X62031160Y-74278007D01*
X61971977Y-74473105D01*
X61951994Y-74676000D01*
X60451680Y-74676000D01*
X60243786Y-74174103D01*
X59893094Y-73649254D01*
X59446746Y-73202906D01*
X58921897Y-72852214D01*
X58338717Y-72610652D01*
X57719615Y-72487505D01*
X57088385Y-72487505D01*
X56469283Y-72610652D01*
X55886103Y-72852214D01*
X55361254Y-73202906D01*
X54914906Y-73649254D01*
X54564214Y-74174103D01*
X54322652Y-74757283D01*
X54199505Y-75376385D01*
X53492000Y-75376385D01*
X53492000Y-71780000D01*
X130912000Y-71780000D01*
X130912001Y-140564000D01*
X130912001Y-140564000D01*
G37*
X130912001Y-140564000D02*
X53492000Y-140564000D01*
X53492000Y-136336385D01*
X54199505Y-136336385D01*
X54199505Y-136967615D01*
X54322652Y-137586717D01*
X54564214Y-138169897D01*
X54914906Y-138694746D01*
X55361254Y-139141094D01*
X55886103Y-139491786D01*
X56469283Y-139733348D01*
X57088385Y-139856495D01*
X57719615Y-139856495D01*
X58338717Y-139733348D01*
X58921897Y-139491786D01*
X59446746Y-139141094D01*
X59893094Y-138694746D01*
X60243786Y-138169897D01*
X60485348Y-137586717D01*
X60608495Y-136967615D01*
X60608495Y-136336385D01*
X60485348Y-135717283D01*
X60243786Y-135134103D01*
X59893094Y-134609254D01*
X59446746Y-134162906D01*
X58921897Y-133812214D01*
X58338717Y-133570652D01*
X57719615Y-133447505D01*
X57088385Y-133447505D01*
X56469283Y-133570652D01*
X55886103Y-133812214D01*
X55361254Y-134162906D01*
X54914906Y-134609254D01*
X54564214Y-135134103D01*
X54322652Y-135717283D01*
X54199505Y-136336385D01*
X53492000Y-136336385D01*
X53492000Y-124816890D01*
X64598524Y-124816890D01*
X64643175Y-124964099D01*
X64768359Y-125226920D01*
X64942412Y-125460269D01*
X65158645Y-125655178D01*
X65408748Y-125804157D01*
X65683109Y-125901481D01*
X65913000Y-125780814D01*
X65913000Y-124587000D01*
X66167000Y-124587000D01*
X66167000Y-125780814D01*
X66396891Y-125901481D01*
X66671252Y-125804157D01*
X66921355Y-125655178D01*
X67137588Y-125460269D01*
X67311641Y-125226920D01*
X67436825Y-124964099D01*
X67481476Y-124816890D01*
X67360155Y-124587000D01*
X66167000Y-124587000D01*
X65913000Y-124587000D01*
X64719845Y-124587000D01*
X64598524Y-124816890D01*
X53492000Y-124816890D01*
X53492000Y-75376385D01*
X54199505Y-75376385D01*
X54199505Y-76007615D01*
X54322652Y-76626717D01*
X54564214Y-77209897D01*
X54914906Y-77734746D01*
X55361254Y-78181094D01*
X55886103Y-78531786D01*
X56469283Y-78773348D01*
X57088385Y-78896495D01*
X57719615Y-78896495D01*
X58338717Y-78773348D01*
X58921897Y-78531786D01*
X59446746Y-78181094D01*
X59893094Y-77734746D01*
X60243786Y-77209897D01*
X60485348Y-76626717D01*
X60608495Y-76007615D01*
X60608495Y-75376385D01*
X60485348Y-74757283D01*
X60451680Y-74676000D01*
X61951994Y-74676000D01*
X61957001Y-74726838D01*
X61957000Y-80213172D01*
X61951994Y-80264000D01*
X61957000Y-80314828D01*
X61957000Y-80314837D01*
X61971976Y-80466894D01*
X62031159Y-80661992D01*
X62127266Y-80841797D01*
X62256604Y-80999396D01*
X62296097Y-81031807D01*
X63240197Y-81975908D01*
X63272604Y-82015396D01*
X63312092Y-82047803D01*
X63430202Y-82144734D01*
X63526309Y-82196104D01*
X63610007Y-82240841D01*
X63805105Y-82300024D01*
X63957162Y-82315000D01*
X63957164Y-82315000D01*
X64008000Y-82320007D01*
X64058835Y-82315000D01*
X64968342Y-82315000D01*
X64984866Y-82335134D01*
X65210986Y-82520706D01*
X65265791Y-82550000D01*
X65210986Y-82579294D01*
X64984866Y-82764866D01*
X64799294Y-82990986D01*
X64661401Y-83248966D01*
X64576487Y-83528889D01*
X64547815Y-83820000D01*
X64576487Y-84111111D01*
X64661401Y-84391034D01*
X64799294Y-84649014D01*
X64984866Y-84875134D01*
X65210986Y-85060706D01*
X65265791Y-85090000D01*
X65210986Y-85119294D01*
X64984866Y-85304866D01*
X64799294Y-85530986D01*
X64661401Y-85788966D01*
X64576487Y-86068889D01*
X64547815Y-86360000D01*
X64576487Y-86651111D01*
X64661401Y-86931034D01*
X64799294Y-87189014D01*
X64984866Y-87415134D01*
X65210986Y-87600706D01*
X65265791Y-87630000D01*
X65210986Y-87659294D01*
X64984866Y-87844866D01*
X64799294Y-88070986D01*
X64661401Y-88328966D01*
X64576487Y-88608889D01*
X64547815Y-88900000D01*
X64576487Y-89191111D01*
X64661401Y-89471034D01*
X64799294Y-89729014D01*
X64984866Y-89955134D01*
X65210986Y-90140706D01*
X65265791Y-90170000D01*
X65210986Y-90199294D01*
X64984866Y-90384866D01*
X64799294Y-90610986D01*
X64661401Y-90868966D01*
X64576487Y-91148889D01*
X64547815Y-91440000D01*
X64576487Y-91731111D01*
X64661401Y-92011034D01*
X64799294Y-92269014D01*
X64984866Y-92495134D01*
X65210986Y-92680706D01*
X65265791Y-92710000D01*
X65210986Y-92739294D01*
X64984866Y-92924866D01*
X64799294Y-93150986D01*
X64661401Y-93408966D01*
X64576487Y-93688889D01*
X64547815Y-93980000D01*
X64576487Y-94271111D01*
X64661401Y-94551034D01*
X64799294Y-94809014D01*
X64984866Y-95035134D01*
X65210986Y-95220706D01*
X65265791Y-95250000D01*
X65210986Y-95279294D01*
X64984866Y-95464866D01*
X64799294Y-95690986D01*
X64661401Y-95948966D01*
X64576487Y-96228889D01*
X64547815Y-96520000D01*
X64576487Y-96811111D01*
X64661401Y-97091034D01*
X64799294Y-97349014D01*
X64984866Y-97575134D01*
X65210986Y-97760706D01*
X65265791Y-97790000D01*
X65210986Y-97819294D01*
X64984866Y-98004866D01*
X64799294Y-98230986D01*
X64661401Y-98488966D01*
X64576487Y-98768889D01*
X64547815Y-99060000D01*
X64576487Y-99351111D01*
X64661401Y-99631034D01*
X64799294Y-99889014D01*
X64984866Y-100115134D01*
X65210986Y-100300706D01*
X65265791Y-100330000D01*
X65210986Y-100359294D01*
X64984866Y-100544866D01*
X64799294Y-100770986D01*
X64661401Y-101028966D01*
X64576487Y-101308889D01*
X64547815Y-101600000D01*
X64576487Y-101891111D01*
X64661401Y-102171034D01*
X64799294Y-102429014D01*
X64984866Y-102655134D01*
X65210986Y-102840706D01*
X65265791Y-102870000D01*
X65210986Y-102899294D01*
X64984866Y-103084866D01*
X64799294Y-103310986D01*
X64661401Y-103568966D01*
X64576487Y-103848889D01*
X64547815Y-104140000D01*
X64576487Y-104431111D01*
X64661401Y-104711034D01*
X64799294Y-104969014D01*
X64984866Y-105195134D01*
X65210986Y-105380706D01*
X65265791Y-105410000D01*
X65210986Y-105439294D01*
X64984866Y-105624866D01*
X64799294Y-105850986D01*
X64661401Y-106108966D01*
X64576487Y-106388889D01*
X64547815Y-106680000D01*
X64576487Y-106971111D01*
X64661401Y-107251034D01*
X64799294Y-107509014D01*
X64984866Y-107735134D01*
X65210986Y-107920706D01*
X65265791Y-107950000D01*
X65210986Y-107979294D01*
X64984866Y-108164866D01*
X64799294Y-108390986D01*
X64661401Y-108648966D01*
X64576487Y-108928889D01*
X64547815Y-109220000D01*
X64576487Y-109511111D01*
X64661401Y-109791034D01*
X64799294Y-110049014D01*
X64984866Y-110275134D01*
X65210986Y-110460706D01*
X65265791Y-110490000D01*
X65210986Y-110519294D01*
X64984866Y-110704866D01*
X64799294Y-110930986D01*
X64661401Y-111188966D01*
X64576487Y-111468889D01*
X64547815Y-111760000D01*
X64576487Y-112051111D01*
X64661401Y-112331034D01*
X64799294Y-112589014D01*
X64984866Y-112815134D01*
X65210986Y-113000706D01*
X65265791Y-113030000D01*
X65210986Y-113059294D01*
X64984866Y-113244866D01*
X64799294Y-113470986D01*
X64661401Y-113728966D01*
X64576487Y-114008889D01*
X64547815Y-114300000D01*
X64576487Y-114591111D01*
X64661401Y-114871034D01*
X64799294Y-115129014D01*
X64984866Y-115355134D01*
X65210986Y-115540706D01*
X65265791Y-115570000D01*
X65210986Y-115599294D01*
X64984866Y-115784866D01*
X64799294Y-116010986D01*
X64661401Y-116268966D01*
X64576487Y-116548889D01*
X64547815Y-116840000D01*
X64576487Y-117131111D01*
X64661401Y-117411034D01*
X64799294Y-117669014D01*
X64984866Y-117895134D01*
X65210986Y-118080706D01*
X65265791Y-118110000D01*
X65210986Y-118139294D01*
X64984866Y-118324866D01*
X64799294Y-118550986D01*
X64661401Y-118808966D01*
X64576487Y-119088889D01*
X64547815Y-119380000D01*
X64576487Y-119671111D01*
X64661401Y-119951034D01*
X64799294Y-120209014D01*
X64984866Y-120435134D01*
X65005000Y-120451658D01*
X65005001Y-120848342D01*
X64984866Y-120864866D01*
X64799294Y-121090986D01*
X64661401Y-121348966D01*
X64576487Y-121628889D01*
X64547815Y-121920000D01*
X64576487Y-122211111D01*
X64661401Y-122491034D01*
X64799294Y-122749014D01*
X64984866Y-122975134D01*
X65210986Y-123160706D01*
X65275523Y-123195201D01*
X65158645Y-123264822D01*
X64942412Y-123459731D01*
X64768359Y-123693080D01*
X64643175Y-123955901D01*
X64598524Y-124103110D01*
X64719845Y-124333000D01*
X65913000Y-124333000D01*
X65913000Y-124313000D01*
X66167000Y-124313000D01*
X66167000Y-124333000D01*
X67360155Y-124333000D01*
X67481476Y-124103110D01*
X67436825Y-123955901D01*
X67311641Y-123693080D01*
X67137588Y-123459731D01*
X66921355Y-123264822D01*
X66804477Y-123195201D01*
X66869014Y-123160706D01*
X67095134Y-122975134D01*
X67111658Y-122955000D01*
X67643290Y-122955000D01*
X68053000Y-123364711D01*
X68053000Y-123393162D01*
X68047993Y-123444000D01*
X68053000Y-123494837D01*
X68053001Y-126949153D01*
X68053000Y-126949163D01*
X68053001Y-131638546D01*
X67993820Y-131656498D01*
X67883506Y-131715463D01*
X67786815Y-131794815D01*
X67707463Y-131891506D01*
X67648498Y-132001820D01*
X67627607Y-132070687D01*
X67603134Y-132040866D01*
X67377014Y-131855294D01*
X67119034Y-131717401D01*
X66839111Y-131632487D01*
X66620950Y-131611000D01*
X66475050Y-131611000D01*
X66256889Y-131632487D01*
X65976966Y-131717401D01*
X65718986Y-131855294D01*
X65492866Y-132040866D01*
X65307294Y-132266986D01*
X65169401Y-132524966D01*
X65084487Y-132804889D01*
X65055815Y-133096000D01*
X65084487Y-133387111D01*
X65169401Y-133667034D01*
X65307294Y-133925014D01*
X65492866Y-134151134D01*
X65513001Y-134167658D01*
X65513001Y-134247244D01*
X65507994Y-134298081D01*
X65527977Y-134500976D01*
X65587160Y-134696074D01*
X65683266Y-134875878D01*
X65780197Y-134993988D01*
X65812605Y-135033477D01*
X65852092Y-135065883D01*
X67626116Y-136839908D01*
X67658523Y-136879396D01*
X67698011Y-136911803D01*
X67816121Y-137008734D01*
X67893310Y-137049992D01*
X67995926Y-137104841D01*
X68191024Y-137164024D01*
X68343081Y-137179000D01*
X68343084Y-137179000D01*
X68393919Y-137184007D01*
X68444754Y-137179000D01*
X75319253Y-137179000D01*
X75370081Y-137184006D01*
X75420909Y-137179000D01*
X75420919Y-137179000D01*
X75572976Y-137164024D01*
X75768074Y-137104841D01*
X75947878Y-137008734D01*
X76105477Y-136879396D01*
X76137888Y-136839903D01*
X77911908Y-135065884D01*
X77951396Y-135033477D01*
X77983804Y-134993988D01*
X78080734Y-134875879D01*
X78176840Y-134696075D01*
X78176841Y-134696074D01*
X78236024Y-134500976D01*
X78251000Y-134348919D01*
X78251000Y-134348916D01*
X78256007Y-134298081D01*
X78251000Y-134247246D01*
X78251000Y-134167658D01*
X78271134Y-134151134D01*
X78456706Y-133925014D01*
X78486000Y-133870209D01*
X78515294Y-133925014D01*
X78700866Y-134151134D01*
X78926986Y-134336706D01*
X79184966Y-134474599D01*
X79464889Y-134559513D01*
X79683050Y-134581000D01*
X79828950Y-134581000D01*
X80047111Y-134559513D01*
X80327034Y-134474599D01*
X80585014Y-134336706D01*
X80811134Y-134151134D01*
X80996706Y-133925014D01*
X81134599Y-133667034D01*
X81219513Y-133387111D01*
X81248185Y-133096000D01*
X81219513Y-132804889D01*
X81134599Y-132524966D01*
X80996706Y-132266986D01*
X80811134Y-132040866D01*
X80585014Y-131855294D01*
X80327034Y-131717401D01*
X80047111Y-131632487D01*
X79828950Y-131611000D01*
X79683050Y-131611000D01*
X79464889Y-131632487D01*
X79184966Y-131717401D01*
X78926986Y-131855294D01*
X78700866Y-132040866D01*
X78515294Y-132266986D01*
X78486000Y-132321791D01*
X78456706Y-132266986D01*
X78271134Y-132040866D01*
X78045014Y-131855294D01*
X77787034Y-131717401D01*
X77507111Y-131632487D01*
X77288950Y-131611000D01*
X77143050Y-131611000D01*
X76924889Y-131632487D01*
X76644966Y-131717401D01*
X76386986Y-131855294D01*
X76160866Y-132040866D01*
X76136393Y-132070687D01*
X76115502Y-132001820D01*
X76056537Y-131891506D01*
X75977185Y-131794815D01*
X75880494Y-131715463D01*
X75770180Y-131656498D01*
X75650482Y-131620188D01*
X75526000Y-131607928D01*
X74961750Y-131611000D01*
X74803000Y-131769750D01*
X74803000Y-132969000D01*
X74823000Y-132969000D01*
X74823000Y-133223000D01*
X74803000Y-133223000D01*
X74803000Y-134422250D01*
X74961750Y-134581000D01*
X75466622Y-134583749D01*
X74941371Y-135109000D01*
X68822630Y-135109000D01*
X68297702Y-134584072D01*
X69938000Y-134584072D01*
X70062482Y-134571812D01*
X70182180Y-134535502D01*
X70292494Y-134476537D01*
X70389185Y-134397185D01*
X70468537Y-134300494D01*
X70527502Y-134190180D01*
X70563812Y-134070482D01*
X70576072Y-133946000D01*
X73187928Y-133946000D01*
X73200188Y-134070482D01*
X73236498Y-134190180D01*
X73295463Y-134300494D01*
X73374815Y-134397185D01*
X73471506Y-134476537D01*
X73581820Y-134535502D01*
X73701518Y-134571812D01*
X73826000Y-134584072D01*
X74390250Y-134581000D01*
X74549000Y-134422250D01*
X74549000Y-133223000D01*
X73349750Y-133223000D01*
X73191000Y-133381750D01*
X73187928Y-133946000D01*
X70576072Y-133946000D01*
X70576072Y-132246000D01*
X73187928Y-132246000D01*
X73191000Y-132810250D01*
X73349750Y-132969000D01*
X74549000Y-132969000D01*
X74549000Y-131769750D01*
X74390250Y-131611000D01*
X73826000Y-131607928D01*
X73701518Y-131620188D01*
X73581820Y-131656498D01*
X73471506Y-131715463D01*
X73374815Y-131794815D01*
X73295463Y-131891506D01*
X73236498Y-132001820D01*
X73200188Y-132121518D01*
X73187928Y-132246000D01*
X70576072Y-132246000D01*
X70563812Y-132121518D01*
X70527502Y-132001820D01*
X70468537Y-131891506D01*
X70389185Y-131794815D01*
X70292494Y-131715463D01*
X70182180Y-131656498D01*
X70123000Y-131638546D01*
X70123000Y-124479000D01*
X76279290Y-124479000D01*
X81769000Y-129968711D01*
X81769001Y-131013163D01*
X81763994Y-131064000D01*
X81783977Y-131266895D01*
X81843160Y-131461993D01*
X81939266Y-131641797D01*
X82036197Y-131759907D01*
X82068605Y-131799396D01*
X82108093Y-131831803D01*
X88640197Y-138363908D01*
X88672604Y-138403396D01*
X88712092Y-138435803D01*
X88830202Y-138532734D01*
X88926309Y-138584104D01*
X89010007Y-138628841D01*
X89205105Y-138688024D01*
X89357162Y-138703000D01*
X89357171Y-138703000D01*
X89407999Y-138708006D01*
X89458827Y-138703000D01*
X114249172Y-138703000D01*
X114300000Y-138708006D01*
X114350828Y-138703000D01*
X114350838Y-138703000D01*
X114502895Y-138688024D01*
X114697993Y-138628841D01*
X114877797Y-138532734D01*
X115035396Y-138403396D01*
X115067807Y-138363903D01*
X116011908Y-137419803D01*
X116051396Y-137387396D01*
X116147735Y-137270007D01*
X116180734Y-137229798D01*
X116276840Y-137049994D01*
X116276841Y-137049993D01*
X116336024Y-136854895D01*
X116351000Y-136702838D01*
X116351000Y-136702836D01*
X116356007Y-136652000D01*
X116351000Y-136601165D01*
X116351000Y-136336385D01*
X123795505Y-136336385D01*
X123795505Y-136967615D01*
X123918652Y-137586717D01*
X124160214Y-138169897D01*
X124510906Y-138694746D01*
X124957254Y-139141094D01*
X125482103Y-139491786D01*
X126065283Y-139733348D01*
X126684385Y-139856495D01*
X127315615Y-139856495D01*
X127934717Y-139733348D01*
X128517897Y-139491786D01*
X129042746Y-139141094D01*
X129489094Y-138694746D01*
X129839786Y-138169897D01*
X130081348Y-137586717D01*
X130204495Y-136967615D01*
X130204495Y-136336385D01*
X130081348Y-135717283D01*
X129839786Y-135134103D01*
X129489094Y-134609254D01*
X129042746Y-134162906D01*
X128517897Y-133812214D01*
X127934717Y-133570652D01*
X127315615Y-133447505D01*
X126684385Y-133447505D01*
X126065283Y-133570652D01*
X125482103Y-133812214D01*
X124957254Y-134162906D01*
X124510906Y-134609254D01*
X124160214Y-135134103D01*
X123918652Y-135717283D01*
X123795505Y-136336385D01*
X116351000Y-136336385D01*
X116351000Y-121844827D01*
X116356006Y-121793999D01*
X116351000Y-121743171D01*
X116351000Y-121743162D01*
X116336024Y-121591105D01*
X116276841Y-121396007D01*
X116232104Y-121312309D01*
X116180734Y-121216202D01*
X116083803Y-121098092D01*
X116051396Y-121058604D01*
X116011908Y-121026197D01*
X114177807Y-119192097D01*
X114145396Y-119152604D01*
X113987797Y-119023266D01*
X113807993Y-118927159D01*
X113612895Y-118867976D01*
X113460838Y-118853000D01*
X113460828Y-118853000D01*
X113410000Y-118847994D01*
X113359172Y-118853000D01*
X113217454Y-118853000D01*
X113199502Y-118793820D01*
X113140537Y-118683506D01*
X113061185Y-118586815D01*
X112964494Y-118507463D01*
X112854180Y-118448498D01*
X112734482Y-118412188D01*
X112610000Y-118399928D01*
X110910000Y-118399928D01*
X110785518Y-118412188D01*
X110665820Y-118448498D01*
X110555506Y-118507463D01*
X110458815Y-118586815D01*
X110379463Y-118683506D01*
X110320498Y-118793820D01*
X110302546Y-118853000D01*
X109140711Y-118853000D01*
X106992103Y-116704393D01*
X106979683Y-116578294D01*
X106903347Y-116326646D01*
X106779382Y-116094725D01*
X106699000Y-115996779D01*
X106699000Y-113712710D01*
X107278820Y-113132890D01*
X110318524Y-113132890D01*
X110363175Y-113280099D01*
X110488359Y-113542920D01*
X110662412Y-113776269D01*
X110878645Y-113971178D01*
X111128748Y-114120157D01*
X111403109Y-114217481D01*
X111633000Y-114096814D01*
X111633000Y-112903000D01*
X111887000Y-112903000D01*
X111887000Y-114096814D01*
X112116891Y-114217481D01*
X112391252Y-114120157D01*
X112641355Y-113971178D01*
X112857588Y-113776269D01*
X113031641Y-113542920D01*
X113156825Y-113280099D01*
X113201476Y-113132890D01*
X113080155Y-112903000D01*
X111887000Y-112903000D01*
X111633000Y-112903000D01*
X110439845Y-112903000D01*
X110318524Y-113132890D01*
X107278820Y-113132890D01*
X110277878Y-110133833D01*
X110267815Y-110236000D01*
X110296487Y-110527111D01*
X110381401Y-110807034D01*
X110519294Y-111065014D01*
X110704866Y-111291134D01*
X110930986Y-111476706D01*
X110995523Y-111511201D01*
X110878645Y-111580822D01*
X110662412Y-111775731D01*
X110488359Y-112009080D01*
X110363175Y-112271901D01*
X110318524Y-112419110D01*
X110439845Y-112649000D01*
X111633000Y-112649000D01*
X111633000Y-112629000D01*
X111887000Y-112629000D01*
X111887000Y-112649000D01*
X113080155Y-112649000D01*
X113201476Y-112419110D01*
X113156825Y-112271901D01*
X113031641Y-112009080D01*
X112857588Y-111775731D01*
X112641355Y-111580822D01*
X112524477Y-111511201D01*
X112589014Y-111476706D01*
X112815134Y-111291134D01*
X113000706Y-111065014D01*
X113138599Y-110807034D01*
X113223513Y-110527111D01*
X113252185Y-110236000D01*
X113223513Y-109944889D01*
X113138599Y-109664966D01*
X113000706Y-109406986D01*
X112815134Y-109180866D01*
X112785313Y-109156393D01*
X112854180Y-109135502D01*
X112964494Y-109076537D01*
X113061185Y-108997185D01*
X113140537Y-108900494D01*
X113199502Y-108790180D01*
X113235812Y-108670482D01*
X113248072Y-108546000D01*
X113248072Y-106846000D01*
X113235812Y-106721518D01*
X113199502Y-106601820D01*
X113140537Y-106491506D01*
X113061185Y-106394815D01*
X112964494Y-106315463D01*
X112854180Y-106256498D01*
X112795000Y-106238546D01*
X112795000Y-105076710D01*
X113419608Y-104452103D01*
X113545706Y-104439683D01*
X113797354Y-104363347D01*
X114029275Y-104239382D01*
X114232555Y-104072555D01*
X114399382Y-103869275D01*
X114523347Y-103637354D01*
X114599683Y-103385706D01*
X114612103Y-103259608D01*
X115503908Y-102367803D01*
X115543396Y-102335396D01*
X115672734Y-102177797D01*
X115768841Y-101997993D01*
X115828024Y-101802895D01*
X115843000Y-101650838D01*
X115843000Y-101650829D01*
X115848006Y-101600001D01*
X115843000Y-101549173D01*
X115843000Y-94412835D01*
X115848007Y-94362000D01*
X115843000Y-94311162D01*
X115828024Y-94159105D01*
X115774913Y-93984024D01*
X115768841Y-93964006D01*
X115672734Y-93784202D01*
X115575803Y-93666092D01*
X115543396Y-93626604D01*
X115503908Y-93594197D01*
X114177807Y-92268097D01*
X114145396Y-92228604D01*
X113987797Y-92099266D01*
X113807993Y-92003159D01*
X113612895Y-91943976D01*
X113460838Y-91929000D01*
X113460828Y-91929000D01*
X113410000Y-91923994D01*
X113359172Y-91929000D01*
X113217454Y-91929000D01*
X113199502Y-91869820D01*
X113140537Y-91759506D01*
X113061185Y-91662815D01*
X112964494Y-91583463D01*
X112854180Y-91524498D01*
X112734482Y-91488188D01*
X112610000Y-91475928D01*
X110910000Y-91475928D01*
X110785518Y-91488188D01*
X110665820Y-91524498D01*
X110555506Y-91583463D01*
X110458815Y-91662815D01*
X110379463Y-91759506D01*
X110320498Y-91869820D01*
X110302546Y-91929000D01*
X108762827Y-91929000D01*
X108711999Y-91923994D01*
X108661171Y-91929000D01*
X108661162Y-91929000D01*
X108509105Y-91943976D01*
X108314007Y-92003159D01*
X108230309Y-92047896D01*
X108134202Y-92099266D01*
X108041438Y-92175396D01*
X107976604Y-92228604D01*
X107944197Y-92268092D01*
X107559289Y-92653001D01*
X100926826Y-92653001D01*
X100875998Y-92647995D01*
X100825170Y-92653001D01*
X100825161Y-92653001D01*
X100673104Y-92667977D01*
X100478006Y-92727160D01*
X100455305Y-92739294D01*
X100298201Y-92823267D01*
X100180091Y-92920198D01*
X100140603Y-92952605D01*
X100108196Y-92992093D01*
X100076000Y-93024289D01*
X96031000Y-88979290D01*
X96031000Y-83820000D01*
X110775815Y-83820000D01*
X110804487Y-84111111D01*
X110889401Y-84391034D01*
X111027294Y-84649014D01*
X111212866Y-84875134D01*
X111438986Y-85060706D01*
X111493791Y-85090000D01*
X111438986Y-85119294D01*
X111212866Y-85304866D01*
X111027294Y-85530986D01*
X110889401Y-85788966D01*
X110804487Y-86068889D01*
X110775815Y-86360000D01*
X110804487Y-86651111D01*
X110889401Y-86931034D01*
X111027294Y-87189014D01*
X111212866Y-87415134D01*
X111438986Y-87600706D01*
X111696966Y-87738599D01*
X111976889Y-87823513D01*
X112195050Y-87845000D01*
X112340950Y-87845000D01*
X112559111Y-87823513D01*
X112839034Y-87738599D01*
X113097014Y-87600706D01*
X113323134Y-87415134D01*
X113508706Y-87189014D01*
X113646599Y-86931034D01*
X113731513Y-86651111D01*
X113760185Y-86360000D01*
X113731513Y-86068889D01*
X113646599Y-85788966D01*
X113508706Y-85530986D01*
X113323134Y-85304866D01*
X113097014Y-85119294D01*
X113042209Y-85090000D01*
X113097014Y-85060706D01*
X113323134Y-84875134D01*
X113508706Y-84649014D01*
X113646599Y-84391034D01*
X113731513Y-84111111D01*
X113760185Y-83820000D01*
X113731513Y-83528889D01*
X113646599Y-83248966D01*
X113508706Y-82990986D01*
X113323134Y-82764866D01*
X113097014Y-82579294D01*
X113032477Y-82544799D01*
X113149355Y-82475178D01*
X113365588Y-82280269D01*
X113539641Y-82046920D01*
X113664825Y-81784099D01*
X113709476Y-81636890D01*
X113588155Y-81407000D01*
X112395000Y-81407000D01*
X112395000Y-81427000D01*
X112141000Y-81427000D01*
X112141000Y-81407000D01*
X110947845Y-81407000D01*
X110826524Y-81636890D01*
X110871175Y-81784099D01*
X110996359Y-82046920D01*
X111170412Y-82280269D01*
X111386645Y-82475178D01*
X111503523Y-82544799D01*
X111438986Y-82579294D01*
X111212866Y-82764866D01*
X111027294Y-82990986D01*
X110889401Y-83248966D01*
X110804487Y-83528889D01*
X110775815Y-83820000D01*
X96031000Y-83820000D01*
X96031000Y-82315000D01*
X106121172Y-82315000D01*
X106172000Y-82320006D01*
X106222828Y-82315000D01*
X106222838Y-82315000D01*
X106374895Y-82300024D01*
X106569993Y-82240841D01*
X106749797Y-82144734D01*
X106907396Y-82015396D01*
X106939807Y-81975903D01*
X109140711Y-79775000D01*
X110810546Y-79775000D01*
X110828498Y-79834180D01*
X110887463Y-79944494D01*
X110966815Y-80041185D01*
X111063506Y-80120537D01*
X111173820Y-80179502D01*
X111254466Y-80203966D01*
X111170412Y-80279731D01*
X110996359Y-80513080D01*
X110871175Y-80775901D01*
X110826524Y-80923110D01*
X110947845Y-81153000D01*
X112141000Y-81153000D01*
X112141000Y-81133000D01*
X112395000Y-81133000D01*
X112395000Y-81153000D01*
X113588155Y-81153000D01*
X113709476Y-80923110D01*
X113664825Y-80775901D01*
X113539641Y-80513080D01*
X113365588Y-80279731D01*
X113281534Y-80203966D01*
X113362180Y-80179502D01*
X113472494Y-80120537D01*
X113569185Y-80041185D01*
X113648537Y-79944494D01*
X113707502Y-79834180D01*
X113743812Y-79714482D01*
X113756072Y-79590000D01*
X113756072Y-77890000D01*
X113743812Y-77765518D01*
X113707502Y-77645820D01*
X113648537Y-77535506D01*
X113569185Y-77438815D01*
X113472494Y-77359463D01*
X113362180Y-77300498D01*
X113242482Y-77264188D01*
X113118000Y-77251928D01*
X111418000Y-77251928D01*
X111293518Y-77264188D01*
X111173820Y-77300498D01*
X111063506Y-77359463D01*
X110966815Y-77438815D01*
X110887463Y-77535506D01*
X110828498Y-77645820D01*
X110810546Y-77705000D01*
X108762827Y-77705000D01*
X108711999Y-77699994D01*
X108661171Y-77705000D01*
X108661162Y-77705000D01*
X108509105Y-77719976D01*
X108314007Y-77779159D01*
X108275819Y-77799571D01*
X108134202Y-77875266D01*
X108061614Y-77934838D01*
X107976604Y-78004604D01*
X107944197Y-78044092D01*
X105743290Y-80245000D01*
X96031000Y-80245000D01*
X96031000Y-79168710D01*
X96199903Y-78999807D01*
X96239396Y-78967396D01*
X96368734Y-78809797D01*
X96464841Y-78629993D01*
X96524024Y-78434895D01*
X96539000Y-78282838D01*
X96539000Y-78282829D01*
X96544006Y-78232001D01*
X96539000Y-78181173D01*
X96539000Y-77657454D01*
X96598180Y-77639502D01*
X96708494Y-77580537D01*
X96805185Y-77501185D01*
X96884537Y-77404494D01*
X96943502Y-77294180D01*
X96964393Y-77225313D01*
X96988866Y-77255134D01*
X97214986Y-77440706D01*
X97472966Y-77578599D01*
X97752889Y-77663513D01*
X97971050Y-77685000D01*
X98116950Y-77685000D01*
X98335111Y-77663513D01*
X98615034Y-77578599D01*
X98873014Y-77440706D01*
X99099134Y-77255134D01*
X99284706Y-77029014D01*
X99314000Y-76974209D01*
X99343294Y-77029014D01*
X99528866Y-77255134D01*
X99754986Y-77440706D01*
X100012966Y-77578599D01*
X100292889Y-77663513D01*
X100511050Y-77685000D01*
X100656950Y-77685000D01*
X100875111Y-77663513D01*
X101155034Y-77578599D01*
X101413014Y-77440706D01*
X101639134Y-77255134D01*
X101824706Y-77029014D01*
X101859201Y-76964477D01*
X101928822Y-77081355D01*
X102123731Y-77297588D01*
X102357080Y-77471641D01*
X102619901Y-77596825D01*
X102767110Y-77641476D01*
X102997000Y-77520155D01*
X102997000Y-76327000D01*
X103251000Y-76327000D01*
X103251000Y-77520155D01*
X103480890Y-77641476D01*
X103628099Y-77596825D01*
X103890920Y-77471641D01*
X104124269Y-77297588D01*
X104319178Y-77081355D01*
X104468157Y-76831252D01*
X104565481Y-76556891D01*
X104444814Y-76327000D01*
X103251000Y-76327000D01*
X102997000Y-76327000D01*
X102977000Y-76327000D01*
X102977000Y-76073000D01*
X102997000Y-76073000D01*
X102997000Y-74879845D01*
X103251000Y-74879845D01*
X103251000Y-76073000D01*
X104444814Y-76073000D01*
X104565481Y-75843109D01*
X104468157Y-75568748D01*
X104353573Y-75376385D01*
X123795505Y-75376385D01*
X123795505Y-76007615D01*
X123918652Y-76626717D01*
X124160214Y-77209897D01*
X124510906Y-77734746D01*
X124957254Y-78181094D01*
X125482103Y-78531786D01*
X126065283Y-78773348D01*
X126684385Y-78896495D01*
X127315615Y-78896495D01*
X127934717Y-78773348D01*
X128517897Y-78531786D01*
X129042746Y-78181094D01*
X129489094Y-77734746D01*
X129839786Y-77209897D01*
X130081348Y-76626717D01*
X130204495Y-76007615D01*
X130204495Y-75376385D01*
X130081348Y-74757283D01*
X129839786Y-74174103D01*
X129489094Y-73649254D01*
X129042746Y-73202906D01*
X128517897Y-72852214D01*
X127934717Y-72610652D01*
X127315615Y-72487505D01*
X126684385Y-72487505D01*
X126065283Y-72610652D01*
X125482103Y-72852214D01*
X124957254Y-73202906D01*
X124510906Y-73649254D01*
X124160214Y-74174103D01*
X123918652Y-74757283D01*
X123795505Y-75376385D01*
X104353573Y-75376385D01*
X104319178Y-75318645D01*
X104124269Y-75102412D01*
X103890920Y-74928359D01*
X103628099Y-74803175D01*
X103480890Y-74758524D01*
X103251000Y-74879845D01*
X102997000Y-74879845D01*
X102767110Y-74758524D01*
X102619901Y-74803175D01*
X102357080Y-74928359D01*
X102123731Y-75102412D01*
X101928822Y-75318645D01*
X101859201Y-75435523D01*
X101824706Y-75370986D01*
X101639134Y-75144866D01*
X101413014Y-74959294D01*
X101155034Y-74821401D01*
X100875111Y-74736487D01*
X100656950Y-74715000D01*
X100511050Y-74715000D01*
X100292889Y-74736487D01*
X100012966Y-74821401D01*
X99754986Y-74959294D01*
X99528866Y-75144866D01*
X99343294Y-75370986D01*
X99314000Y-75425791D01*
X99284706Y-75370986D01*
X99099134Y-75144866D01*
X98873014Y-74959294D01*
X98615034Y-74821401D01*
X98335111Y-74736487D01*
X98116950Y-74715000D01*
X97971050Y-74715000D01*
X97752889Y-74736487D01*
X97472966Y-74821401D01*
X97214986Y-74959294D01*
X96988866Y-75144866D01*
X96964393Y-75174687D01*
X96943502Y-75105820D01*
X96884537Y-74995506D01*
X96805185Y-74898815D01*
X96708494Y-74819463D01*
X96598180Y-74760498D01*
X96478482Y-74724188D01*
X96354000Y-74711928D01*
X94654000Y-74711928D01*
X94529518Y-74724188D01*
X94409820Y-74760498D01*
X94299506Y-74819463D01*
X94202815Y-74898815D01*
X94123463Y-74995506D01*
X94064498Y-75105820D01*
X94028188Y-75225518D01*
X94015928Y-75350000D01*
X94015928Y-77050000D01*
X94028188Y-77174482D01*
X94064498Y-77294180D01*
X94123463Y-77404494D01*
X94202815Y-77501185D01*
X94299506Y-77580537D01*
X94409820Y-77639502D01*
X94469000Y-77657454D01*
X94469000Y-77705000D01*
X86318502Y-77705000D01*
X86420997Y-77456602D01*
X85344000Y-76379605D01*
X84267003Y-77456602D01*
X84369498Y-77705000D01*
X81340523Y-77705000D01*
X81494621Y-77602035D01*
X81746035Y-77350621D01*
X81943571Y-77054988D01*
X82079635Y-76726499D01*
X82149000Y-76377777D01*
X82149000Y-76255869D01*
X83531127Y-76255869D01*
X83576861Y-76608470D01*
X83690505Y-76945373D01*
X83805611Y-77160725D01*
X84087398Y-77276997D01*
X85164395Y-76200000D01*
X85523605Y-76200000D01*
X86600602Y-77276997D01*
X86882389Y-77160725D01*
X87040257Y-76842140D01*
X87132938Y-76498878D01*
X87156873Y-76144131D01*
X87111139Y-75791530D01*
X86997495Y-75454627D01*
X86882389Y-75239275D01*
X86600602Y-75123003D01*
X85523605Y-76200000D01*
X85164395Y-76200000D01*
X84087398Y-75123003D01*
X83805611Y-75239275D01*
X83647743Y-75557860D01*
X83555062Y-75901122D01*
X83531127Y-76255869D01*
X82149000Y-76255869D01*
X82149000Y-76022223D01*
X82079635Y-75673501D01*
X81943571Y-75345012D01*
X81746035Y-75049379D01*
X81640054Y-74943398D01*
X84267003Y-74943398D01*
X85344000Y-76020395D01*
X86420997Y-74943398D01*
X86304725Y-74661611D01*
X85986140Y-74503743D01*
X85642878Y-74411062D01*
X85288131Y-74387127D01*
X84935530Y-74432861D01*
X84598627Y-74546505D01*
X84383275Y-74661611D01*
X84267003Y-74943398D01*
X81640054Y-74943398D01*
X81494621Y-74797965D01*
X81380639Y-74721804D01*
X81379000Y-74705162D01*
X81364024Y-74553105D01*
X81313675Y-74387127D01*
X81304841Y-74358006D01*
X81208734Y-74178202D01*
X81111803Y-74060092D01*
X81079396Y-74020604D01*
X81039908Y-73988197D01*
X79507807Y-72456097D01*
X79475396Y-72416604D01*
X79317797Y-72287266D01*
X79137993Y-72191159D01*
X78942895Y-72131976D01*
X78790838Y-72117000D01*
X78790828Y-72117000D01*
X78740000Y-72111994D01*
X78689172Y-72117000D01*
X64566827Y-72117000D01*
X64515999Y-72111994D01*
X64465171Y-72117000D01*
X64465162Y-72117000D01*
X64313105Y-72131976D01*
X64118007Y-72191159D01*
X63938203Y-72287266D01*
X63780604Y-72416604D01*
X63748197Y-72456092D01*
X62296092Y-73908198D01*
X62256605Y-73940604D01*
X62224198Y-73980092D01*
X62224197Y-73980093D01*
X62127266Y-74098203D01*
X62031160Y-74278007D01*
X61971977Y-74473105D01*
X61951994Y-74676000D01*
X60451680Y-74676000D01*
X60243786Y-74174103D01*
X59893094Y-73649254D01*
X59446746Y-73202906D01*
X58921897Y-72852214D01*
X58338717Y-72610652D01*
X57719615Y-72487505D01*
X57088385Y-72487505D01*
X56469283Y-72610652D01*
X55886103Y-72852214D01*
X55361254Y-73202906D01*
X54914906Y-73649254D01*
X54564214Y-74174103D01*
X54322652Y-74757283D01*
X54199505Y-75376385D01*
X53492000Y-75376385D01*
X53492000Y-71780000D01*
X130912000Y-71780000D01*
X130912001Y-140564000D01*
G36*
X79057817Y-74933527D02*
G01*
X78941965Y-75049379D01*
X78744429Y-75345012D01*
X78608365Y-75673501D01*
X78539000Y-76022223D01*
X78539000Y-76377777D01*
X78608365Y-76726499D01*
X78744429Y-77054988D01*
X78941965Y-77350621D01*
X79193379Y-77602035D01*
X79347477Y-77705000D01*
X76628711Y-77705000D01*
X76510183Y-77586473D01*
X76746035Y-77350621D01*
X76943571Y-77054988D01*
X77079635Y-76726499D01*
X77149000Y-76377777D01*
X77149000Y-76022223D01*
X77079635Y-75673501D01*
X76943571Y-75345012D01*
X76746035Y-75049379D01*
X76494621Y-74797965D01*
X76198988Y-74600429D01*
X75870499Y-74464365D01*
X75521777Y-74395000D01*
X75166223Y-74395000D01*
X74817501Y-74464365D01*
X74489012Y-74600429D01*
X74193379Y-74797965D01*
X73941965Y-75049379D01*
X73744429Y-75345012D01*
X73608365Y-75673501D01*
X73539000Y-76022223D01*
X73539000Y-76377777D01*
X73608365Y-76726499D01*
X73744429Y-77054988D01*
X73941965Y-77350621D01*
X74193379Y-77602035D01*
X74309001Y-77679291D01*
X74309001Y-77833163D01*
X74303994Y-77884000D01*
X74323977Y-78086895D01*
X74383160Y-78281993D01*
X74479266Y-78461797D01*
X74541071Y-78537106D01*
X74608605Y-78619396D01*
X74648092Y-78651802D01*
X75432196Y-79435907D01*
X75464604Y-79475396D01*
X75504092Y-79507803D01*
X75622202Y-79604734D01*
X75718309Y-79656104D01*
X75802007Y-79700841D01*
X75997105Y-79760024D01*
X76149162Y-79775000D01*
X76149165Y-79775000D01*
X76200000Y-79780007D01*
X76250835Y-79775000D01*
X93961001Y-79775000D01*
X93961000Y-80427025D01*
X93959038Y-80428987D01*
X93812939Y-80647641D01*
X93712304Y-80890595D01*
X93661000Y-81148514D01*
X93661000Y-81411486D01*
X93712304Y-81669405D01*
X93812939Y-81912359D01*
X93959038Y-82131013D01*
X93961000Y-82132975D01*
X93961001Y-86458275D01*
X93915042Y-86439238D01*
X93869993Y-86415159D01*
X93821113Y-86400331D01*
X93773898Y-86380774D01*
X93723777Y-86370804D01*
X93674895Y-86355976D01*
X93624057Y-86350969D01*
X93573939Y-86341000D01*
X93522838Y-86341000D01*
X93472000Y-86335993D01*
X93421162Y-86341000D01*
X93370061Y-86341000D01*
X93319942Y-86350969D01*
X93269106Y-86355976D01*
X93220226Y-86370804D01*
X93170102Y-86380774D01*
X93122884Y-86400332D01*
X93074008Y-86415159D01*
X93028962Y-86439237D01*
X92981744Y-86458795D01*
X92939250Y-86487188D01*
X92894204Y-86511266D01*
X92854721Y-86543669D01*
X92812226Y-86572063D01*
X92776087Y-86608202D01*
X92736605Y-86640604D01*
X92704203Y-86680086D01*
X92668063Y-86716226D01*
X92639668Y-86758722D01*
X92607267Y-86798203D01*
X92583191Y-86843247D01*
X92554795Y-86885744D01*
X92535235Y-86932966D01*
X92511160Y-86978007D01*
X92496335Y-87026878D01*
X92476774Y-87074102D01*
X92466803Y-87124232D01*
X92451977Y-87173105D01*
X92446971Y-87223933D01*
X92437000Y-87274061D01*
X92437000Y-87477939D01*
X92437001Y-87477944D01*
X92437000Y-91519289D01*
X87963290Y-95993000D01*
X85836853Y-95993000D01*
X85742518Y-95915581D01*
X85760482Y-95913812D01*
X85880180Y-95877502D01*
X85990494Y-95818537D01*
X86087185Y-95739185D01*
X86166537Y-95642494D01*
X86225502Y-95532180D01*
X86261812Y-95412482D01*
X86274072Y-95288000D01*
X86274072Y-93688000D01*
X86261812Y-93563518D01*
X86225502Y-93443820D01*
X86166537Y-93333506D01*
X86087185Y-93236815D01*
X85990494Y-93157463D01*
X85880180Y-93098498D01*
X85871000Y-93095713D01*
X85871000Y-91868710D01*
X88820711Y-88919000D01*
X90525939Y-88919000D01*
X90576057Y-88909031D01*
X90626895Y-88904024D01*
X90675777Y-88889196D01*
X90725898Y-88879226D01*
X90773113Y-88859669D01*
X90821993Y-88844841D01*
X90867042Y-88820762D01*
X90914256Y-88801205D01*
X90956746Y-88772814D01*
X91001797Y-88748734D01*
X91041284Y-88716328D01*
X91083774Y-88687937D01*
X91119908Y-88651803D01*
X91159396Y-88619396D01*
X91191803Y-88579908D01*
X91227937Y-88543774D01*
X91256328Y-88501284D01*
X91288734Y-88461797D01*
X91312814Y-88416746D01*
X91341205Y-88374256D01*
X91360762Y-88327042D01*
X91384841Y-88281993D01*
X91399669Y-88233113D01*
X91419226Y-88185898D01*
X91429196Y-88135777D01*
X91444024Y-88086895D01*
X91449031Y-88036057D01*
X91459000Y-87985939D01*
X91459000Y-87934838D01*
X91464007Y-87884000D01*
X91459000Y-87833162D01*
X91459000Y-87782061D01*
X91449031Y-87731943D01*
X91444024Y-87681105D01*
X91429196Y-87632223D01*
X91419226Y-87582102D01*
X91399669Y-87534887D01*
X91384841Y-87486007D01*
X91360762Y-87440958D01*
X91341205Y-87393744D01*
X91312814Y-87351254D01*
X91288734Y-87306203D01*
X91256328Y-87266716D01*
X91227937Y-87224226D01*
X91191803Y-87188092D01*
X91159396Y-87148604D01*
X91119908Y-87116197D01*
X91083774Y-87080063D01*
X91041284Y-87051672D01*
X91001797Y-87019266D01*
X90956746Y-86995186D01*
X90914256Y-86966795D01*
X90867042Y-86947238D01*
X90821993Y-86923159D01*
X90773113Y-86908331D01*
X90725898Y-86888774D01*
X90675777Y-86878804D01*
X90626895Y-86863976D01*
X90576057Y-86858969D01*
X90525939Y-86849000D01*
X88442827Y-86849000D01*
X88391999Y-86843994D01*
X88341171Y-86849000D01*
X88341162Y-86849000D01*
X88189105Y-86863976D01*
X87994007Y-86923159D01*
X87912370Y-86966795D01*
X87814202Y-87019266D01*
X87696092Y-87116197D01*
X87656604Y-87148604D01*
X87624197Y-87188092D01*
X84140097Y-90672193D01*
X84100604Y-90704604D01*
X83971266Y-90862203D01*
X83875159Y-91042008D01*
X83815976Y-91237106D01*
X83801000Y-91389163D01*
X83801000Y-91389172D01*
X83795994Y-91440000D01*
X83801000Y-91490828D01*
X83801001Y-93095713D01*
X83791820Y-93098498D01*
X83681506Y-93157463D01*
X83584815Y-93236815D01*
X83505463Y-93333506D01*
X83446498Y-93443820D01*
X83410188Y-93563518D01*
X83397928Y-93688000D01*
X83397928Y-95288000D01*
X83410188Y-95412482D01*
X83446498Y-95532180D01*
X83505463Y-95642494D01*
X83584815Y-95739185D01*
X83681506Y-95818537D01*
X83791820Y-95877502D01*
X83911518Y-95913812D01*
X83929482Y-95915581D01*
X83816392Y-96008392D01*
X83637068Y-96226899D01*
X83503818Y-96476192D01*
X83421764Y-96746691D01*
X83394057Y-97028000D01*
X83421764Y-97309309D01*
X83503818Y-97579808D01*
X83637068Y-97829101D01*
X83816392Y-98047608D01*
X84034899Y-98226932D01*
X84167858Y-98298000D01*
X84034899Y-98369068D01*
X83816392Y-98548392D01*
X83637068Y-98766899D01*
X83503818Y-99016192D01*
X83421764Y-99286691D01*
X83394057Y-99568000D01*
X83421764Y-99849309D01*
X83503818Y-100119808D01*
X83637068Y-100369101D01*
X83816392Y-100587608D01*
X84034899Y-100766932D01*
X84172682Y-100840579D01*
X83980869Y-100955615D01*
X83772481Y-101144586D01*
X83604963Y-101370580D01*
X83484754Y-101624913D01*
X83444096Y-101758961D01*
X83566085Y-101981000D01*
X84709000Y-101981000D01*
X84709000Y-101961000D01*
X84963000Y-101961000D01*
X84963000Y-101981000D01*
X86105915Y-101981000D01*
X86227904Y-101758961D01*
X86187246Y-101624913D01*
X86067037Y-101370580D01*
X85899519Y-101144586D01*
X85691131Y-100955615D01*
X85499318Y-100840579D01*
X85637101Y-100766932D01*
X85855608Y-100587608D01*
X86034932Y-100369101D01*
X86168182Y-100119808D01*
X86250236Y-99849309D01*
X86277943Y-99568000D01*
X86250236Y-99286691D01*
X86168182Y-99016192D01*
X86034932Y-98766899D01*
X85855608Y-98548392D01*
X85637101Y-98369068D01*
X85504142Y-98298000D01*
X85637101Y-98226932D01*
X85836853Y-98063000D01*
X88341172Y-98063000D01*
X88392000Y-98068006D01*
X88432248Y-98064042D01*
X87732229Y-98764061D01*
X87732226Y-98764063D01*
X87696092Y-98800197D01*
X87656604Y-98832604D01*
X87624197Y-98872092D01*
X87588063Y-98908226D01*
X87559672Y-98950716D01*
X87527266Y-98990203D01*
X87503186Y-99035254D01*
X87474795Y-99077744D01*
X87455238Y-99124958D01*
X87431159Y-99170007D01*
X87416331Y-99218887D01*
X87396774Y-99266102D01*
X87386804Y-99316223D01*
X87371976Y-99365105D01*
X87366969Y-99415943D01*
X87357000Y-99466061D01*
X87357000Y-99517162D01*
X87351993Y-99568000D01*
X87357000Y-99618838D01*
X87357000Y-99669939D01*
X87366969Y-99720057D01*
X87371976Y-99770895D01*
X87386804Y-99819777D01*
X87396774Y-99869898D01*
X87416331Y-99917113D01*
X87431159Y-99965993D01*
X87455238Y-100011042D01*
X87474795Y-100058256D01*
X87503186Y-100100746D01*
X87527266Y-100145797D01*
X87559672Y-100185284D01*
X87588063Y-100227774D01*
X87624197Y-100263908D01*
X87656604Y-100303396D01*
X87696092Y-100335803D01*
X87732226Y-100371937D01*
X87774716Y-100400328D01*
X87814203Y-100432734D01*
X87859254Y-100456814D01*
X87901744Y-100485205D01*
X87948958Y-100504762D01*
X87994007Y-100528841D01*
X88042887Y-100543669D01*
X88090102Y-100563226D01*
X88140223Y-100573196D01*
X88189105Y-100588024D01*
X88239943Y-100593031D01*
X88290061Y-100603000D01*
X88341172Y-100603000D01*
X88392000Y-100608006D01*
X88442828Y-100603000D01*
X88493939Y-100603000D01*
X88544057Y-100593031D01*
X88594895Y-100588024D01*
X88643777Y-100573196D01*
X88693898Y-100563226D01*
X88741113Y-100543669D01*
X88789993Y-100528841D01*
X88835042Y-100504762D01*
X88882256Y-100485205D01*
X88924746Y-100456814D01*
X88969797Y-100432734D01*
X89009284Y-100400328D01*
X89051774Y-100371937D01*
X89087908Y-100335803D01*
X89127396Y-100303396D01*
X89159803Y-100263908D01*
X89195937Y-100227774D01*
X89195939Y-100227771D01*
X95255803Y-94167908D01*
X95291937Y-94131774D01*
X95320325Y-94089288D01*
X95352734Y-94049798D01*
X95376816Y-94004744D01*
X95405205Y-93962256D01*
X95424762Y-93915041D01*
X95448840Y-93869994D01*
X95463666Y-93821119D01*
X95483226Y-93773898D01*
X95493197Y-93723771D01*
X95508023Y-93674896D01*
X95513030Y-93624064D01*
X95523000Y-93573939D01*
X95523000Y-93522836D01*
X95528007Y-93472000D01*
X95523000Y-93421165D01*
X95523000Y-93370061D01*
X95513030Y-93319936D01*
X95508023Y-93269105D01*
X95493197Y-93220232D01*
X95483226Y-93170102D01*
X95463665Y-93122878D01*
X95448840Y-93074007D01*
X95424764Y-93028964D01*
X95405205Y-92981744D01*
X95376813Y-92939252D01*
X95352734Y-92894203D01*
X95320328Y-92854716D01*
X95291937Y-92812226D01*
X95255803Y-92776092D01*
X95223396Y-92736604D01*
X95183908Y-92704197D01*
X95147774Y-92668063D01*
X95105284Y-92639672D01*
X95065797Y-92607266D01*
X95020748Y-92583187D01*
X94978256Y-92554795D01*
X94931036Y-92535236D01*
X94885993Y-92511160D01*
X94837122Y-92496335D01*
X94789898Y-92476774D01*
X94739768Y-92466803D01*
X94690895Y-92451977D01*
X94640064Y-92446970D01*
X94589939Y-92437000D01*
X94538835Y-92437000D01*
X94488000Y-92431993D01*
X94437164Y-92437000D01*
X94386061Y-92437000D01*
X94383975Y-92437415D01*
X94432840Y-92345994D01*
X94432841Y-92345993D01*
X94492024Y-92150895D01*
X94507000Y-91998838D01*
X94507000Y-91998836D01*
X94512007Y-91948000D01*
X94507000Y-91897165D01*
X94507000Y-90382710D01*
X98636435Y-94512146D01*
X98661764Y-94769309D01*
X98743818Y-95039808D01*
X98877068Y-95289101D01*
X99056392Y-95507608D01*
X99274899Y-95686932D01*
X99412682Y-95760579D01*
X99220869Y-95875615D01*
X99012481Y-96064586D01*
X98844963Y-96290580D01*
X98724754Y-96544913D01*
X98684096Y-96678961D01*
X98806085Y-96901000D01*
X99949000Y-96901000D01*
X99949000Y-96881000D01*
X100203000Y-96881000D01*
X100203000Y-96901000D01*
X101345915Y-96901000D01*
X101467904Y-96678961D01*
X101427246Y-96544913D01*
X101307037Y-96290580D01*
X101139519Y-96064586D01*
X100931131Y-95875615D01*
X100739318Y-95760579D01*
X100877101Y-95686932D01*
X101095608Y-95507608D01*
X101274932Y-95289101D01*
X101408182Y-95039808D01*
X101490236Y-94769309D01*
X101494797Y-94723001D01*
X107937171Y-94723001D01*
X107987999Y-94728007D01*
X108038827Y-94723001D01*
X108038837Y-94723001D01*
X108190894Y-94708025D01*
X108385992Y-94648842D01*
X108565796Y-94552735D01*
X108723395Y-94423397D01*
X108755806Y-94383904D01*
X109140711Y-93999000D01*
X110302546Y-93999000D01*
X110320498Y-94058180D01*
X110379463Y-94168494D01*
X110458815Y-94265185D01*
X110555506Y-94344537D01*
X110665820Y-94403502D01*
X110746466Y-94427966D01*
X110662412Y-94503731D01*
X110488359Y-94737080D01*
X110363175Y-94999901D01*
X110318524Y-95147110D01*
X110439845Y-95377000D01*
X111633000Y-95377000D01*
X111633000Y-95357000D01*
X111887000Y-95357000D01*
X111887000Y-95377000D01*
X113080155Y-95377000D01*
X113201476Y-95147110D01*
X113156825Y-94999901D01*
X113031641Y-94737080D01*
X112857588Y-94503731D01*
X112773534Y-94427966D01*
X112854180Y-94403502D01*
X112964494Y-94344537D01*
X113061185Y-94265185D01*
X113140537Y-94168494D01*
X113144106Y-94161817D01*
X113773001Y-94790712D01*
X113773000Y-101171289D01*
X113148392Y-101795897D01*
X113022294Y-101808317D01*
X112770646Y-101884653D01*
X112538725Y-102008618D01*
X112335445Y-102175445D01*
X112168618Y-102378725D01*
X112044653Y-102610646D01*
X111968317Y-102862294D01*
X111955897Y-102988392D01*
X111064092Y-103880198D01*
X111024605Y-103912604D01*
X110992198Y-103952092D01*
X110992197Y-103952093D01*
X110895266Y-104070203D01*
X110799160Y-104250007D01*
X110739977Y-104445105D01*
X110719994Y-104648000D01*
X110725001Y-104698838D01*
X110725000Y-106238546D01*
X110665820Y-106256498D01*
X110555506Y-106315463D01*
X110458815Y-106394815D01*
X110379463Y-106491506D01*
X110320498Y-106601820D01*
X110284188Y-106721518D01*
X110271928Y-106846000D01*
X110271928Y-107212361D01*
X109748043Y-107736246D01*
X109752007Y-107696000D01*
X109747000Y-107645165D01*
X109747000Y-107594061D01*
X109737030Y-107543936D01*
X109732023Y-107493105D01*
X109717197Y-107444232D01*
X109707226Y-107394102D01*
X109687665Y-107346878D01*
X109672840Y-107298007D01*
X109648764Y-107252964D01*
X109629205Y-107205744D01*
X109600813Y-107163252D01*
X109576734Y-107118203D01*
X109544328Y-107078716D01*
X109515937Y-107036226D01*
X109479803Y-107000092D01*
X109447396Y-106960604D01*
X109407908Y-106928197D01*
X109371774Y-106892063D01*
X109329284Y-106863672D01*
X109289797Y-106831266D01*
X109244748Y-106807187D01*
X109202256Y-106778795D01*
X109155036Y-106759236D01*
X109109993Y-106735160D01*
X109061122Y-106720335D01*
X109013898Y-106700774D01*
X108963768Y-106690803D01*
X108914895Y-106675977D01*
X108864064Y-106670970D01*
X108813939Y-106661000D01*
X108762835Y-106661000D01*
X108712000Y-106655993D01*
X108661164Y-106661000D01*
X108610061Y-106661000D01*
X108559936Y-106670970D01*
X108509104Y-106675977D01*
X108460229Y-106690803D01*
X108410102Y-106700774D01*
X108362881Y-106720334D01*
X108314006Y-106735160D01*
X108268959Y-106759238D01*
X108221744Y-106778795D01*
X108179256Y-106807184D01*
X108134202Y-106831266D01*
X108094712Y-106863675D01*
X108052226Y-106892063D01*
X108016092Y-106928197D01*
X106251290Y-108693000D01*
X101076853Y-108693000D01*
X100877101Y-108529068D01*
X100744142Y-108458000D01*
X100877101Y-108386932D01*
X101076853Y-108223000D01*
X105105172Y-108223000D01*
X105156000Y-108228006D01*
X105206828Y-108223000D01*
X105206838Y-108223000D01*
X105358895Y-108208024D01*
X105553993Y-108148841D01*
X105733797Y-108052734D01*
X105891396Y-107923396D01*
X105923807Y-107883903D01*
X112455908Y-101351803D01*
X112495396Y-101319396D01*
X112527803Y-101279908D01*
X112624734Y-101161798D01*
X112699348Y-101022203D01*
X112720841Y-100981993D01*
X112780024Y-100786895D01*
X112795000Y-100634838D01*
X112795000Y-100634829D01*
X112800006Y-100584001D01*
X112795000Y-100533173D01*
X112795000Y-99115658D01*
X112815134Y-99099134D01*
X113000706Y-98873014D01*
X113138599Y-98615034D01*
X113223513Y-98335111D01*
X113252185Y-98044000D01*
X113223513Y-97752889D01*
X113138599Y-97472966D01*
X113000706Y-97214986D01*
X112815134Y-96988866D01*
X112589014Y-96803294D01*
X112524477Y-96768799D01*
X112641355Y-96699178D01*
X112857588Y-96504269D01*
X113031641Y-96270920D01*
X113156825Y-96008099D01*
X113201476Y-95860890D01*
X113080155Y-95631000D01*
X111887000Y-95631000D01*
X111887000Y-95651000D01*
X111633000Y-95651000D01*
X111633000Y-95631000D01*
X110439845Y-95631000D01*
X110318524Y-95860890D01*
X110363175Y-96008099D01*
X110488359Y-96270920D01*
X110662412Y-96504269D01*
X110878645Y-96699178D01*
X110995523Y-96768799D01*
X110930986Y-96803294D01*
X110704866Y-96988866D01*
X110519294Y-97214986D01*
X110381401Y-97472966D01*
X110296487Y-97752889D01*
X110267815Y-98044000D01*
X110296487Y-98335111D01*
X110381401Y-98615034D01*
X110519294Y-98873014D01*
X110704866Y-99099134D01*
X110725000Y-99115658D01*
X110725001Y-100155288D01*
X104727290Y-106153000D01*
X101076853Y-106153000D01*
X100877101Y-105989068D01*
X100744142Y-105918000D01*
X100877101Y-105846932D01*
X101095608Y-105667608D01*
X101274932Y-105449101D01*
X101408182Y-105199808D01*
X101490236Y-104929309D01*
X101517943Y-104648000D01*
X101490236Y-104366691D01*
X101408182Y-104096192D01*
X101274932Y-103846899D01*
X101095608Y-103628392D01*
X100877101Y-103449068D01*
X100744142Y-103378000D01*
X100877101Y-103306932D01*
X101095608Y-103127608D01*
X101206476Y-102992514D01*
X104329000Y-102992514D01*
X104329000Y-103255486D01*
X104380304Y-103513405D01*
X104480939Y-103756359D01*
X104627038Y-103975013D01*
X104812987Y-104160962D01*
X105031641Y-104307061D01*
X105274595Y-104407696D01*
X105532514Y-104459000D01*
X105795486Y-104459000D01*
X106053405Y-104407696D01*
X106296359Y-104307061D01*
X106515013Y-104160962D01*
X106700962Y-103975013D01*
X106847061Y-103756359D01*
X106947696Y-103513405D01*
X106999000Y-103255486D01*
X106999000Y-102992514D01*
X106947696Y-102734595D01*
X106847061Y-102491641D01*
X106700962Y-102272987D01*
X106515013Y-102087038D01*
X106296359Y-101940939D01*
X106053405Y-101840304D01*
X105795486Y-101789000D01*
X105532514Y-101789000D01*
X105274595Y-101840304D01*
X105031641Y-101940939D01*
X104812987Y-102087038D01*
X104627038Y-102272987D01*
X104480939Y-102491641D01*
X104380304Y-102734595D01*
X104329000Y-102992514D01*
X101206476Y-102992514D01*
X101274932Y-102909101D01*
X101408182Y-102659808D01*
X101490236Y-102389309D01*
X101517943Y-102108000D01*
X101490236Y-101826691D01*
X101408182Y-101556192D01*
X101274932Y-101306899D01*
X101095608Y-101088392D01*
X100877101Y-100909068D01*
X100744142Y-100838000D01*
X100877101Y-100766932D01*
X101095608Y-100587608D01*
X101274932Y-100369101D01*
X101408182Y-100119808D01*
X101490236Y-99849309D01*
X101517943Y-99568000D01*
X101490236Y-99286691D01*
X101408182Y-99016192D01*
X101274932Y-98766899D01*
X101095608Y-98548392D01*
X100877101Y-98369068D01*
X100739318Y-98295421D01*
X100931131Y-98180385D01*
X101139519Y-97991414D01*
X101307037Y-97765420D01*
X101427246Y-97511087D01*
X101467904Y-97377039D01*
X101345915Y-97155000D01*
X100203000Y-97155000D01*
X100203000Y-97175000D01*
X99949000Y-97175000D01*
X99949000Y-97155000D01*
X98806085Y-97155000D01*
X98684096Y-97377039D01*
X98724754Y-97511087D01*
X98844963Y-97765420D01*
X99012481Y-97991414D01*
X99220869Y-98180385D01*
X99412682Y-98295421D01*
X99274899Y-98369068D01*
X99056392Y-98548392D01*
X98877068Y-98766899D01*
X98743818Y-99016192D01*
X98661764Y-99286691D01*
X98634057Y-99568000D01*
X98661764Y-99849309D01*
X98743818Y-100119808D01*
X98877068Y-100369101D01*
X99056392Y-100587608D01*
X99274899Y-100766932D01*
X99407858Y-100838000D01*
X99274899Y-100909068D01*
X99056392Y-101088392D01*
X98877068Y-101306899D01*
X98743818Y-101556192D01*
X98661764Y-101826691D01*
X98634057Y-102108000D01*
X98661764Y-102389309D01*
X98743818Y-102659808D01*
X98877068Y-102909101D01*
X99056392Y-103127608D01*
X99274899Y-103306932D01*
X99407858Y-103378000D01*
X99274899Y-103449068D01*
X99056392Y-103628392D01*
X98877068Y-103846899D01*
X98743818Y-104096192D01*
X98661764Y-104366691D01*
X98634057Y-104648000D01*
X98661764Y-104929309D01*
X98743818Y-105199808D01*
X98877068Y-105449101D01*
X99056392Y-105667608D01*
X99274899Y-105846932D01*
X99407858Y-105918000D01*
X99274899Y-105989068D01*
X99056392Y-106168392D01*
X98877068Y-106386899D01*
X98743818Y-106636192D01*
X98661764Y-106906691D01*
X98634057Y-107188000D01*
X98661764Y-107469309D01*
X98743818Y-107739808D01*
X98877068Y-107989101D01*
X99056392Y-108207608D01*
X99274899Y-108386932D01*
X99407858Y-108458000D01*
X99274899Y-108529068D01*
X99056392Y-108708392D01*
X98877068Y-108926899D01*
X98743818Y-109176192D01*
X98661764Y-109446691D01*
X98634057Y-109728000D01*
X98661764Y-110009309D01*
X98743818Y-110279808D01*
X98877068Y-110529101D01*
X99056392Y-110747608D01*
X99274899Y-110926932D01*
X99407858Y-110998000D01*
X99274899Y-111069068D01*
X99075147Y-111233000D01*
X94408711Y-111233000D01*
X92243939Y-109068229D01*
X92243937Y-109068226D01*
X92099774Y-108924063D01*
X92057283Y-108895671D01*
X92017797Y-108863266D01*
X91972748Y-108839187D01*
X91930256Y-108810795D01*
X91883036Y-108791236D01*
X91837993Y-108767160D01*
X91789122Y-108752335D01*
X91741898Y-108732774D01*
X91691768Y-108722803D01*
X91642895Y-108707977D01*
X91592067Y-108702971D01*
X91541939Y-108693000D01*
X91490828Y-108693000D01*
X91440000Y-108687994D01*
X91389172Y-108693000D01*
X91338061Y-108693000D01*
X91287933Y-108702971D01*
X91237105Y-108707977D01*
X91188232Y-108722803D01*
X91138102Y-108732774D01*
X91090878Y-108752335D01*
X91042007Y-108767160D01*
X90996964Y-108791236D01*
X90949744Y-108810795D01*
X90907252Y-108839187D01*
X90862203Y-108863266D01*
X90822716Y-108895672D01*
X90780226Y-108924063D01*
X90744092Y-108960197D01*
X90704604Y-108992604D01*
X90672197Y-109032092D01*
X90636063Y-109068226D01*
X90607672Y-109110716D01*
X90575266Y-109150203D01*
X90551187Y-109195252D01*
X90522795Y-109237744D01*
X90503236Y-109284964D01*
X90479160Y-109330007D01*
X90464335Y-109378878D01*
X90444774Y-109426102D01*
X90434803Y-109476232D01*
X90419977Y-109525105D01*
X90414971Y-109575933D01*
X90405000Y-109626061D01*
X90405000Y-109677172D01*
X90399994Y-109728000D01*
X90405000Y-109778828D01*
X90405000Y-109829939D01*
X90414971Y-109880067D01*
X90419977Y-109930895D01*
X90434803Y-109979768D01*
X90444774Y-110029898D01*
X90464335Y-110077122D01*
X90479160Y-110125993D01*
X90503236Y-110171036D01*
X90522795Y-110218256D01*
X90551187Y-110260748D01*
X90575266Y-110305797D01*
X90607671Y-110345283D01*
X90636063Y-110387774D01*
X90780226Y-110531937D01*
X90780229Y-110531939D01*
X93212197Y-112963908D01*
X93244604Y-113003396D01*
X93284092Y-113035803D01*
X93402202Y-113132734D01*
X93498309Y-113184104D01*
X93582007Y-113228841D01*
X93777105Y-113288024D01*
X93929162Y-113303000D01*
X93929171Y-113303000D01*
X93979999Y-113308006D01*
X94030827Y-113303000D01*
X99075147Y-113303000D01*
X99274899Y-113466932D01*
X99407858Y-113538000D01*
X99274899Y-113609068D01*
X99056392Y-113788392D01*
X98877068Y-114006899D01*
X98743818Y-114256192D01*
X98661764Y-114526691D01*
X98634057Y-114808000D01*
X98661764Y-115089309D01*
X98743818Y-115359808D01*
X98877068Y-115609101D01*
X99056392Y-115827608D01*
X99274899Y-116006932D01*
X99407858Y-116078000D01*
X99274899Y-116149068D01*
X99056392Y-116328392D01*
X98877068Y-116546899D01*
X98743818Y-116796192D01*
X98661764Y-117066691D01*
X98634057Y-117348000D01*
X98661764Y-117629309D01*
X98743818Y-117899808D01*
X98877068Y-118149101D01*
X99056392Y-118367608D01*
X99274899Y-118546932D01*
X99407858Y-118618000D01*
X99274899Y-118689068D01*
X99056392Y-118868392D01*
X98877068Y-119086899D01*
X98743818Y-119336192D01*
X98661764Y-119606691D01*
X98634057Y-119888000D01*
X98661764Y-120169309D01*
X98743818Y-120439808D01*
X98877068Y-120689101D01*
X99056392Y-120907608D01*
X99274899Y-121086932D01*
X99407858Y-121158000D01*
X99274899Y-121229068D01*
X99056392Y-121408392D01*
X98877068Y-121626899D01*
X98743818Y-121876192D01*
X98661764Y-122146691D01*
X98634057Y-122428000D01*
X98661764Y-122709309D01*
X98743818Y-122979808D01*
X98877068Y-123229101D01*
X99056392Y-123447608D01*
X99274899Y-123626932D01*
X99407858Y-123698000D01*
X99274899Y-123769068D01*
X99056392Y-123948392D01*
X98877068Y-124166899D01*
X98743818Y-124416192D01*
X98661764Y-124686691D01*
X98634057Y-124968000D01*
X98661764Y-125249309D01*
X98743818Y-125519808D01*
X98877068Y-125769101D01*
X99056392Y-125987608D01*
X99274899Y-126166932D01*
X99407858Y-126238000D01*
X99274899Y-126309068D01*
X99056392Y-126488392D01*
X98877068Y-126706899D01*
X98743818Y-126956192D01*
X98661764Y-127226691D01*
X98634057Y-127508000D01*
X98661764Y-127789309D01*
X98743818Y-128059808D01*
X98877068Y-128309101D01*
X99056392Y-128527608D01*
X99274899Y-128706932D01*
X99407858Y-128778000D01*
X99274899Y-128849068D01*
X99056392Y-129028392D01*
X98877068Y-129246899D01*
X98743818Y-129496192D01*
X98661764Y-129766691D01*
X98634057Y-130048000D01*
X98661764Y-130329309D01*
X98743818Y-130599808D01*
X98877068Y-130849101D01*
X99056392Y-131067608D01*
X99274899Y-131246932D01*
X99524192Y-131380182D01*
X99794691Y-131462236D01*
X100005508Y-131483000D01*
X100146492Y-131483000D01*
X100357309Y-131462236D01*
X100627808Y-131380182D01*
X100877101Y-131246932D01*
X101076853Y-131083000D01*
X104597172Y-131083000D01*
X104648000Y-131088006D01*
X104698828Y-131083000D01*
X104698838Y-131083000D01*
X104850895Y-131068024D01*
X105045993Y-131008841D01*
X105225797Y-130912734D01*
X105383396Y-130783396D01*
X105415807Y-130743903D01*
X106359908Y-129799803D01*
X106399396Y-129767396D01*
X106495735Y-129650007D01*
X106528734Y-129609798D01*
X106593214Y-129489163D01*
X106624841Y-129429993D01*
X106684024Y-129234895D01*
X106699000Y-129082838D01*
X106699000Y-129082836D01*
X106704007Y-129032000D01*
X106699000Y-128981165D01*
X106699000Y-127864890D01*
X110318524Y-127864890D01*
X110363175Y-128012099D01*
X110488359Y-128274920D01*
X110662412Y-128508269D01*
X110878645Y-128703178D01*
X111128748Y-128852157D01*
X111403109Y-128949481D01*
X111633000Y-128828814D01*
X111633000Y-127635000D01*
X111887000Y-127635000D01*
X111887000Y-128828814D01*
X112116891Y-128949481D01*
X112391252Y-128852157D01*
X112641355Y-128703178D01*
X112857588Y-128508269D01*
X113031641Y-128274920D01*
X113156825Y-128012099D01*
X113201476Y-127864890D01*
X113080155Y-127635000D01*
X111887000Y-127635000D01*
X111633000Y-127635000D01*
X110439845Y-127635000D01*
X110318524Y-127864890D01*
X106699000Y-127864890D01*
X106699000Y-125312975D01*
X106700962Y-125311013D01*
X106847061Y-125092359D01*
X106947696Y-124849405D01*
X106999000Y-124591486D01*
X106999000Y-124588710D01*
X108124711Y-123463000D01*
X110688342Y-123463000D01*
X110704866Y-123483134D01*
X110930986Y-123668706D01*
X110985791Y-123698000D01*
X110930986Y-123727294D01*
X110704866Y-123912866D01*
X110519294Y-124138986D01*
X110381401Y-124396966D01*
X110296487Y-124676889D01*
X110267815Y-124968000D01*
X110296487Y-125259111D01*
X110381401Y-125539034D01*
X110519294Y-125797014D01*
X110704866Y-126023134D01*
X110930986Y-126208706D01*
X110995523Y-126243201D01*
X110878645Y-126312822D01*
X110662412Y-126507731D01*
X110488359Y-126741080D01*
X110363175Y-127003901D01*
X110318524Y-127151110D01*
X110439845Y-127381000D01*
X111633000Y-127381000D01*
X111633000Y-127361000D01*
X111887000Y-127361000D01*
X111887000Y-127381000D01*
X113080155Y-127381000D01*
X113201476Y-127151110D01*
X113156825Y-127003901D01*
X113031641Y-126741080D01*
X112857588Y-126507731D01*
X112641355Y-126312822D01*
X112524477Y-126243201D01*
X112589014Y-126208706D01*
X112815134Y-126023134D01*
X113000706Y-125797014D01*
X113138599Y-125539034D01*
X113223513Y-125259111D01*
X113252185Y-124968000D01*
X113223513Y-124676889D01*
X113138599Y-124396966D01*
X113000706Y-124138986D01*
X112815134Y-123912866D01*
X112589014Y-123727294D01*
X112534209Y-123698000D01*
X112589014Y-123668706D01*
X112815134Y-123483134D01*
X113000706Y-123257014D01*
X113138599Y-122999034D01*
X113223513Y-122719111D01*
X113252185Y-122428000D01*
X113223513Y-122136889D01*
X113138599Y-121856966D01*
X113000706Y-121598986D01*
X112815134Y-121372866D01*
X112785313Y-121348393D01*
X112854180Y-121327502D01*
X112964494Y-121268537D01*
X113061185Y-121189185D01*
X113140537Y-121092494D01*
X113144106Y-121085817D01*
X114281000Y-122222711D01*
X114281001Y-135077162D01*
X114281000Y-136223289D01*
X113871290Y-136633000D01*
X89836711Y-136633000D01*
X84678101Y-131474391D01*
X84765508Y-131483000D01*
X84807290Y-131483000D01*
X89148197Y-135823908D01*
X89180604Y-135863396D01*
X89220092Y-135895803D01*
X89338202Y-135992734D01*
X89434309Y-136044104D01*
X89518007Y-136088841D01*
X89713105Y-136148024D01*
X89865162Y-136163000D01*
X89865164Y-136163000D01*
X89916000Y-136168007D01*
X89966835Y-136163000D01*
X112826838Y-136163000D01*
X112978895Y-136148024D01*
X113173993Y-136088841D01*
X113353797Y-135992734D01*
X113511396Y-135863396D01*
X113640734Y-135705797D01*
X113736841Y-135525993D01*
X113796024Y-135330895D01*
X113816007Y-135128000D01*
X113796024Y-134925105D01*
X113736841Y-134730007D01*
X113640734Y-134550203D01*
X113511396Y-134392604D01*
X113353797Y-134263266D01*
X113173993Y-134167159D01*
X112978895Y-134107976D01*
X112826838Y-134093000D01*
X90344711Y-134093000D01*
X86275565Y-130023855D01*
X86250236Y-129766691D01*
X86168182Y-129496192D01*
X86034932Y-129246899D01*
X85855608Y-129028392D01*
X85637101Y-128849068D01*
X85504142Y-128778000D01*
X85637101Y-128706932D01*
X85855608Y-128527608D01*
X86034932Y-128309101D01*
X86168182Y-128059808D01*
X86250236Y-127789309D01*
X86277943Y-127508000D01*
X86250236Y-127226691D01*
X86168182Y-126956192D01*
X86034932Y-126706899D01*
X85855608Y-126488392D01*
X85637101Y-126309068D01*
X85504142Y-126238000D01*
X85637101Y-126166932D01*
X85855608Y-125987608D01*
X86034932Y-125769101D01*
X86168182Y-125519808D01*
X86250236Y-125249309D01*
X86277943Y-124968000D01*
X86250236Y-124686691D01*
X86168182Y-124416192D01*
X86034932Y-124166899D01*
X85855608Y-123948392D01*
X85637101Y-123769068D01*
X85504142Y-123698000D01*
X85637101Y-123626932D01*
X85855608Y-123447608D01*
X86034932Y-123229101D01*
X86168182Y-122979808D01*
X86250236Y-122709309D01*
X86277943Y-122428000D01*
X86250236Y-122146691D01*
X86168182Y-121876192D01*
X86034932Y-121626899D01*
X85855608Y-121408392D01*
X85637101Y-121229068D01*
X85504142Y-121158000D01*
X85637101Y-121086932D01*
X85855608Y-120907608D01*
X86034932Y-120689101D01*
X86168182Y-120439808D01*
X86250236Y-120169309D01*
X86277943Y-119888000D01*
X86250236Y-119606691D01*
X86168182Y-119336192D01*
X86034932Y-119086899D01*
X85855608Y-118868392D01*
X85637101Y-118689068D01*
X85504142Y-118618000D01*
X85637101Y-118546932D01*
X85855608Y-118367608D01*
X86034932Y-118149101D01*
X86168182Y-117899808D01*
X86250236Y-117629309D01*
X86277943Y-117348000D01*
X86250236Y-117066691D01*
X86168182Y-116796192D01*
X86034932Y-116546899D01*
X85855608Y-116328392D01*
X85637101Y-116149068D01*
X85504142Y-116078000D01*
X85637101Y-116006932D01*
X85855608Y-115827608D01*
X86034932Y-115609101D01*
X86168182Y-115359808D01*
X86250236Y-115089309D01*
X86277943Y-114808000D01*
X86250236Y-114526691D01*
X86168182Y-114256192D01*
X86034932Y-114006899D01*
X85855608Y-113788392D01*
X85637101Y-113609068D01*
X85504142Y-113538000D01*
X85637101Y-113466932D01*
X85855608Y-113287608D01*
X86034932Y-113069101D01*
X86168182Y-112819808D01*
X86250236Y-112549309D01*
X86277943Y-112268000D01*
X86250236Y-111986691D01*
X86168182Y-111716192D01*
X86034932Y-111466899D01*
X85855608Y-111248392D01*
X85637101Y-111069068D01*
X85504142Y-110998000D01*
X85637101Y-110926932D01*
X85855608Y-110747608D01*
X86034932Y-110529101D01*
X86168182Y-110279808D01*
X86250236Y-110009309D01*
X86277943Y-109728000D01*
X86250236Y-109446691D01*
X86168182Y-109176192D01*
X86034932Y-108926899D01*
X85855608Y-108708392D01*
X85637101Y-108529068D01*
X85504142Y-108458000D01*
X85637101Y-108386932D01*
X85855608Y-108207608D01*
X86034932Y-107989101D01*
X86168182Y-107739808D01*
X86250236Y-107469309D01*
X86277943Y-107188000D01*
X86250236Y-106906691D01*
X86168182Y-106636192D01*
X86034932Y-106386899D01*
X85855608Y-106168392D01*
X85637101Y-105989068D01*
X85504142Y-105918000D01*
X85637101Y-105846932D01*
X85836853Y-105683000D01*
X94945172Y-105683000D01*
X94996000Y-105688006D01*
X95046828Y-105683000D01*
X95046838Y-105683000D01*
X95198895Y-105668024D01*
X95393993Y-105608841D01*
X95573797Y-105512734D01*
X95731396Y-105383396D01*
X95763807Y-105343903D01*
X98231908Y-102875803D01*
X98271396Y-102843396D01*
X98303803Y-102803908D01*
X98400734Y-102685798D01*
X98496840Y-102505994D01*
X98496841Y-102505993D01*
X98556024Y-102310895D01*
X98571000Y-102158838D01*
X98571000Y-102158829D01*
X98576006Y-102108001D01*
X98571000Y-102057173D01*
X98571000Y-100126838D01*
X98576007Y-100076000D01*
X98571000Y-100025162D01*
X98571000Y-99974061D01*
X98561031Y-99923943D01*
X98556024Y-99873105D01*
X98541196Y-99824223D01*
X98531226Y-99774102D01*
X98511669Y-99726887D01*
X98496841Y-99678007D01*
X98472762Y-99632958D01*
X98453205Y-99585744D01*
X98424814Y-99543254D01*
X98400734Y-99498203D01*
X98368328Y-99458716D01*
X98339937Y-99416226D01*
X98303803Y-99380092D01*
X98271396Y-99340604D01*
X98231908Y-99308197D01*
X98195774Y-99272063D01*
X98153284Y-99243672D01*
X98113797Y-99211266D01*
X98068746Y-99187186D01*
X98026256Y-99158795D01*
X97979042Y-99139238D01*
X97933993Y-99115159D01*
X97885113Y-99100331D01*
X97837898Y-99080774D01*
X97787777Y-99070804D01*
X97738895Y-99055976D01*
X97688057Y-99050969D01*
X97637939Y-99041000D01*
X97586838Y-99041000D01*
X97536000Y-99035993D01*
X97485162Y-99041000D01*
X97434061Y-99041000D01*
X97383943Y-99050969D01*
X97333105Y-99055976D01*
X97284223Y-99070804D01*
X97234102Y-99080774D01*
X97186887Y-99100331D01*
X97138007Y-99115159D01*
X97092958Y-99139238D01*
X97045744Y-99158795D01*
X97003254Y-99187186D01*
X96958203Y-99211266D01*
X96918716Y-99243672D01*
X96876226Y-99272063D01*
X96840092Y-99308197D01*
X96800604Y-99340604D01*
X96768197Y-99380092D01*
X96732063Y-99416226D01*
X96703672Y-99458716D01*
X96671266Y-99498203D01*
X96647186Y-99543254D01*
X96618795Y-99585744D01*
X96599238Y-99632958D01*
X96575159Y-99678007D01*
X96560331Y-99726887D01*
X96540774Y-99774102D01*
X96530804Y-99824223D01*
X96515976Y-99873105D01*
X96510969Y-99923943D01*
X96501000Y-99974061D01*
X96501000Y-100025162D01*
X96495993Y-100076000D01*
X96501000Y-100126838D01*
X96501000Y-100177939D01*
X96501001Y-100177944D01*
X96501000Y-101679289D01*
X94567290Y-103613000D01*
X85836853Y-103613000D01*
X85637101Y-103449068D01*
X85499318Y-103375421D01*
X85691131Y-103260385D01*
X85899519Y-103071414D01*
X86067037Y-102845420D01*
X86187246Y-102591087D01*
X86227904Y-102457039D01*
X86105915Y-102235000D01*
X84963000Y-102235000D01*
X84963000Y-102255000D01*
X84709000Y-102255000D01*
X84709000Y-102235000D01*
X83566085Y-102235000D01*
X83444096Y-102457039D01*
X83484754Y-102591087D01*
X83604963Y-102845420D01*
X83772481Y-103071414D01*
X83980869Y-103260385D01*
X84172682Y-103375421D01*
X84034899Y-103449068D01*
X83816392Y-103628392D01*
X83637068Y-103846899D01*
X83503818Y-104096192D01*
X83421764Y-104366691D01*
X83394057Y-104648000D01*
X83421764Y-104929309D01*
X83503818Y-105199808D01*
X83637068Y-105449101D01*
X83816392Y-105667608D01*
X84034899Y-105846932D01*
X84167858Y-105918000D01*
X84034899Y-105989068D01*
X83816392Y-106168392D01*
X83637068Y-106386899D01*
X83503818Y-106636192D01*
X83421764Y-106906691D01*
X83394057Y-107188000D01*
X83421764Y-107469309D01*
X83503818Y-107739808D01*
X83637068Y-107989101D01*
X83816392Y-108207608D01*
X84034899Y-108386932D01*
X84167858Y-108458000D01*
X84034899Y-108529068D01*
X83835147Y-108693000D01*
X83740711Y-108693000D01*
X75951807Y-100904097D01*
X75919396Y-100864604D01*
X75761797Y-100735266D01*
X75581993Y-100639159D01*
X75386895Y-100579976D01*
X75234838Y-100565000D01*
X75234828Y-100565000D01*
X75184000Y-100559994D01*
X75133172Y-100565000D01*
X67111658Y-100565000D01*
X67095134Y-100544866D01*
X66869014Y-100359294D01*
X66814209Y-100330000D01*
X66869014Y-100300706D01*
X67095134Y-100115134D01*
X67280706Y-99889014D01*
X67418599Y-99631034D01*
X67503513Y-99351111D01*
X67532185Y-99060000D01*
X67503513Y-98768889D01*
X67418599Y-98488966D01*
X67280706Y-98230986D01*
X67095134Y-98004866D01*
X66869014Y-97819294D01*
X66814209Y-97790000D01*
X66869014Y-97760706D01*
X67095134Y-97575134D01*
X67280706Y-97349014D01*
X67418599Y-97091034D01*
X67503513Y-96811111D01*
X67532185Y-96520000D01*
X67503513Y-96228889D01*
X67418599Y-95948966D01*
X67280706Y-95690986D01*
X67095134Y-95464866D01*
X66869014Y-95279294D01*
X66814209Y-95250000D01*
X66869014Y-95220706D01*
X67095134Y-95035134D01*
X67280706Y-94809014D01*
X67418599Y-94551034D01*
X67503513Y-94271111D01*
X67532185Y-93980000D01*
X67503513Y-93688889D01*
X67418599Y-93408966D01*
X67280706Y-93150986D01*
X67095134Y-92924866D01*
X66869014Y-92739294D01*
X66814209Y-92710000D01*
X66869014Y-92680706D01*
X67095134Y-92495134D01*
X67280706Y-92269014D01*
X67418599Y-92011034D01*
X67503513Y-91731111D01*
X67532185Y-91440000D01*
X67503513Y-91148889D01*
X67418599Y-90868966D01*
X67280706Y-90610986D01*
X67095134Y-90384866D01*
X66869014Y-90199294D01*
X66814209Y-90170000D01*
X66869014Y-90140706D01*
X67095134Y-89955134D01*
X67280706Y-89729014D01*
X67418599Y-89471034D01*
X67503513Y-89191111D01*
X67532185Y-88900000D01*
X67503513Y-88608889D01*
X67418599Y-88328966D01*
X67280706Y-88070986D01*
X67095134Y-87844866D01*
X66869014Y-87659294D01*
X66814209Y-87630000D01*
X66869014Y-87600706D01*
X67095134Y-87415134D01*
X67280706Y-87189014D01*
X67418599Y-86931034D01*
X67503513Y-86651111D01*
X67532185Y-86360000D01*
X67503513Y-86068889D01*
X67418599Y-85788966D01*
X67280706Y-85530986D01*
X67095134Y-85304866D01*
X66869014Y-85119294D01*
X66814209Y-85090000D01*
X66869014Y-85060706D01*
X67095134Y-84875134D01*
X67280706Y-84649014D01*
X67418599Y-84391034D01*
X67503513Y-84111111D01*
X67532185Y-83820000D01*
X67503513Y-83528889D01*
X67418599Y-83248966D01*
X67280706Y-82990986D01*
X67095134Y-82764866D01*
X66869014Y-82579294D01*
X66814209Y-82550000D01*
X66869014Y-82520706D01*
X67095134Y-82335134D01*
X67280706Y-82109014D01*
X67418599Y-81851034D01*
X67503513Y-81571111D01*
X67532185Y-81280000D01*
X67503513Y-80988889D01*
X67418599Y-80708966D01*
X67280706Y-80450986D01*
X67095134Y-80224866D01*
X66869014Y-80039294D01*
X66814209Y-80010000D01*
X66869014Y-79980706D01*
X67095134Y-79795134D01*
X67111658Y-79775000D01*
X69675290Y-79775000D01*
X71876197Y-81975908D01*
X71908604Y-82015396D01*
X71948092Y-82047803D01*
X72066202Y-82144734D01*
X72162309Y-82196104D01*
X72246007Y-82240841D01*
X72441105Y-82300024D01*
X72593162Y-82315000D01*
X72593171Y-82315000D01*
X72643999Y-82320006D01*
X72694827Y-82315000D01*
X86532779Y-82315000D01*
X86630725Y-82395382D01*
X86862646Y-82519347D01*
X87114294Y-82595683D01*
X87310421Y-82615000D01*
X87441579Y-82615000D01*
X87637706Y-82595683D01*
X87889354Y-82519347D01*
X88121275Y-82395382D01*
X88324555Y-82228555D01*
X88491382Y-82025275D01*
X88615347Y-81793354D01*
X88691683Y-81541706D01*
X88717459Y-81280000D01*
X88691683Y-81018294D01*
X88615347Y-80766646D01*
X88491382Y-80534725D01*
X88324555Y-80331445D01*
X88121275Y-80164618D01*
X87889354Y-80040653D01*
X87637706Y-79964317D01*
X87441579Y-79945000D01*
X87310421Y-79945000D01*
X87114294Y-79964317D01*
X86862646Y-80040653D01*
X86630725Y-80164618D01*
X86532779Y-80245000D01*
X73072711Y-80245000D01*
X70871807Y-78044097D01*
X70839396Y-78004604D01*
X70681797Y-77875266D01*
X70501993Y-77779159D01*
X70306895Y-77719976D01*
X70154838Y-77705000D01*
X70154828Y-77705000D01*
X70104000Y-77699994D01*
X70053172Y-77705000D01*
X67111658Y-77705000D01*
X67095134Y-77684866D01*
X67065313Y-77660393D01*
X67134180Y-77639502D01*
X67244494Y-77580537D01*
X67341185Y-77501185D01*
X67420537Y-77404494D01*
X67479502Y-77294180D01*
X67515812Y-77174482D01*
X67528072Y-77050000D01*
X67525000Y-76485750D01*
X67366250Y-76327000D01*
X66167000Y-76327000D01*
X66167000Y-76347000D01*
X65913000Y-76347000D01*
X65913000Y-76327000D01*
X64713750Y-76327000D01*
X64555000Y-76485750D01*
X64551928Y-77050000D01*
X64564188Y-77174482D01*
X64600498Y-77294180D01*
X64659463Y-77404494D01*
X64738815Y-77501185D01*
X64835506Y-77580537D01*
X64945820Y-77639502D01*
X65014687Y-77660393D01*
X64984866Y-77684866D01*
X64799294Y-77910986D01*
X64661401Y-78168966D01*
X64576487Y-78448889D01*
X64547815Y-78740000D01*
X64576487Y-79031111D01*
X64661401Y-79311034D01*
X64799294Y-79569014D01*
X64984866Y-79795134D01*
X65210986Y-79980706D01*
X65265791Y-80010000D01*
X65210986Y-80039294D01*
X64984866Y-80224866D01*
X64968342Y-80245000D01*
X64436711Y-80245000D01*
X64027000Y-79835290D01*
X64027000Y-75350000D01*
X64551928Y-75350000D01*
X64555000Y-75914250D01*
X64713750Y-76073000D01*
X65913000Y-76073000D01*
X65913000Y-74873750D01*
X66167000Y-74873750D01*
X66167000Y-76073000D01*
X67366250Y-76073000D01*
X67525000Y-75914250D01*
X67528072Y-75350000D01*
X67515812Y-75225518D01*
X67479502Y-75105820D01*
X67420537Y-74995506D01*
X67341185Y-74898815D01*
X67244494Y-74819463D01*
X67134180Y-74760498D01*
X67014482Y-74724188D01*
X66890000Y-74711928D01*
X66325750Y-74715000D01*
X66167000Y-74873750D01*
X65913000Y-74873750D01*
X65754250Y-74715000D01*
X65190000Y-74711928D01*
X65065518Y-74724188D01*
X64945820Y-74760498D01*
X64835506Y-74819463D01*
X64738815Y-74898815D01*
X64659463Y-74995506D01*
X64600498Y-75105820D01*
X64564188Y-75225518D01*
X64551928Y-75350000D01*
X64027000Y-75350000D01*
X64027000Y-75104710D01*
X64944711Y-74187000D01*
X78311290Y-74187000D01*
X79057817Y-74933527D01*
X79057817Y-74933527D01*
G37*
X79057817Y-74933527D02*
X78941965Y-75049379D01*
X78744429Y-75345012D01*
X78608365Y-75673501D01*
X78539000Y-76022223D01*
X78539000Y-76377777D01*
X78608365Y-76726499D01*
X78744429Y-77054988D01*
X78941965Y-77350621D01*
X79193379Y-77602035D01*
X79347477Y-77705000D01*
X76628711Y-77705000D01*
X76510183Y-77586473D01*
X76746035Y-77350621D01*
X76943571Y-77054988D01*
X77079635Y-76726499D01*
X77149000Y-76377777D01*
X77149000Y-76022223D01*
X77079635Y-75673501D01*
X76943571Y-75345012D01*
X76746035Y-75049379D01*
X76494621Y-74797965D01*
X76198988Y-74600429D01*
X75870499Y-74464365D01*
X75521777Y-74395000D01*
X75166223Y-74395000D01*
X74817501Y-74464365D01*
X74489012Y-74600429D01*
X74193379Y-74797965D01*
X73941965Y-75049379D01*
X73744429Y-75345012D01*
X73608365Y-75673501D01*
X73539000Y-76022223D01*
X73539000Y-76377777D01*
X73608365Y-76726499D01*
X73744429Y-77054988D01*
X73941965Y-77350621D01*
X74193379Y-77602035D01*
X74309001Y-77679291D01*
X74309001Y-77833163D01*
X74303994Y-77884000D01*
X74323977Y-78086895D01*
X74383160Y-78281993D01*
X74479266Y-78461797D01*
X74541071Y-78537106D01*
X74608605Y-78619396D01*
X74648092Y-78651802D01*
X75432196Y-79435907D01*
X75464604Y-79475396D01*
X75504092Y-79507803D01*
X75622202Y-79604734D01*
X75718309Y-79656104D01*
X75802007Y-79700841D01*
X75997105Y-79760024D01*
X76149162Y-79775000D01*
X76149165Y-79775000D01*
X76200000Y-79780007D01*
X76250835Y-79775000D01*
X93961001Y-79775000D01*
X93961000Y-80427025D01*
X93959038Y-80428987D01*
X93812939Y-80647641D01*
X93712304Y-80890595D01*
X93661000Y-81148514D01*
X93661000Y-81411486D01*
X93712304Y-81669405D01*
X93812939Y-81912359D01*
X93959038Y-82131013D01*
X93961000Y-82132975D01*
X93961001Y-86458275D01*
X93915042Y-86439238D01*
X93869993Y-86415159D01*
X93821113Y-86400331D01*
X93773898Y-86380774D01*
X93723777Y-86370804D01*
X93674895Y-86355976D01*
X93624057Y-86350969D01*
X93573939Y-86341000D01*
X93522838Y-86341000D01*
X93472000Y-86335993D01*
X93421162Y-86341000D01*
X93370061Y-86341000D01*
X93319942Y-86350969D01*
X93269106Y-86355976D01*
X93220226Y-86370804D01*
X93170102Y-86380774D01*
X93122884Y-86400332D01*
X93074008Y-86415159D01*
X93028962Y-86439237D01*
X92981744Y-86458795D01*
X92939250Y-86487188D01*
X92894204Y-86511266D01*
X92854721Y-86543669D01*
X92812226Y-86572063D01*
X92776087Y-86608202D01*
X92736605Y-86640604D01*
X92704203Y-86680086D01*
X92668063Y-86716226D01*
X92639668Y-86758722D01*
X92607267Y-86798203D01*
X92583191Y-86843247D01*
X92554795Y-86885744D01*
X92535235Y-86932966D01*
X92511160Y-86978007D01*
X92496335Y-87026878D01*
X92476774Y-87074102D01*
X92466803Y-87124232D01*
X92451977Y-87173105D01*
X92446971Y-87223933D01*
X92437000Y-87274061D01*
X92437000Y-87477939D01*
X92437001Y-87477944D01*
X92437000Y-91519289D01*
X87963290Y-95993000D01*
X85836853Y-95993000D01*
X85742518Y-95915581D01*
X85760482Y-95913812D01*
X85880180Y-95877502D01*
X85990494Y-95818537D01*
X86087185Y-95739185D01*
X86166537Y-95642494D01*
X86225502Y-95532180D01*
X86261812Y-95412482D01*
X86274072Y-95288000D01*
X86274072Y-93688000D01*
X86261812Y-93563518D01*
X86225502Y-93443820D01*
X86166537Y-93333506D01*
X86087185Y-93236815D01*
X85990494Y-93157463D01*
X85880180Y-93098498D01*
X85871000Y-93095713D01*
X85871000Y-91868710D01*
X88820711Y-88919000D01*
X90525939Y-88919000D01*
X90576057Y-88909031D01*
X90626895Y-88904024D01*
X90675777Y-88889196D01*
X90725898Y-88879226D01*
X90773113Y-88859669D01*
X90821993Y-88844841D01*
X90867042Y-88820762D01*
X90914256Y-88801205D01*
X90956746Y-88772814D01*
X91001797Y-88748734D01*
X91041284Y-88716328D01*
X91083774Y-88687937D01*
X91119908Y-88651803D01*
X91159396Y-88619396D01*
X91191803Y-88579908D01*
X91227937Y-88543774D01*
X91256328Y-88501284D01*
X91288734Y-88461797D01*
X91312814Y-88416746D01*
X91341205Y-88374256D01*
X91360762Y-88327042D01*
X91384841Y-88281993D01*
X91399669Y-88233113D01*
X91419226Y-88185898D01*
X91429196Y-88135777D01*
X91444024Y-88086895D01*
X91449031Y-88036057D01*
X91459000Y-87985939D01*
X91459000Y-87934838D01*
X91464007Y-87884000D01*
X91459000Y-87833162D01*
X91459000Y-87782061D01*
X91449031Y-87731943D01*
X91444024Y-87681105D01*
X91429196Y-87632223D01*
X91419226Y-87582102D01*
X91399669Y-87534887D01*
X91384841Y-87486007D01*
X91360762Y-87440958D01*
X91341205Y-87393744D01*
X91312814Y-87351254D01*
X91288734Y-87306203D01*
X91256328Y-87266716D01*
X91227937Y-87224226D01*
X91191803Y-87188092D01*
X91159396Y-87148604D01*
X91119908Y-87116197D01*
X91083774Y-87080063D01*
X91041284Y-87051672D01*
X91001797Y-87019266D01*
X90956746Y-86995186D01*
X90914256Y-86966795D01*
X90867042Y-86947238D01*
X90821993Y-86923159D01*
X90773113Y-86908331D01*
X90725898Y-86888774D01*
X90675777Y-86878804D01*
X90626895Y-86863976D01*
X90576057Y-86858969D01*
X90525939Y-86849000D01*
X88442827Y-86849000D01*
X88391999Y-86843994D01*
X88341171Y-86849000D01*
X88341162Y-86849000D01*
X88189105Y-86863976D01*
X87994007Y-86923159D01*
X87912370Y-86966795D01*
X87814202Y-87019266D01*
X87696092Y-87116197D01*
X87656604Y-87148604D01*
X87624197Y-87188092D01*
X84140097Y-90672193D01*
X84100604Y-90704604D01*
X83971266Y-90862203D01*
X83875159Y-91042008D01*
X83815976Y-91237106D01*
X83801000Y-91389163D01*
X83801000Y-91389172D01*
X83795994Y-91440000D01*
X83801000Y-91490828D01*
X83801001Y-93095713D01*
X83791820Y-93098498D01*
X83681506Y-93157463D01*
X83584815Y-93236815D01*
X83505463Y-93333506D01*
X83446498Y-93443820D01*
X83410188Y-93563518D01*
X83397928Y-93688000D01*
X83397928Y-95288000D01*
X83410188Y-95412482D01*
X83446498Y-95532180D01*
X83505463Y-95642494D01*
X83584815Y-95739185D01*
X83681506Y-95818537D01*
X83791820Y-95877502D01*
X83911518Y-95913812D01*
X83929482Y-95915581D01*
X83816392Y-96008392D01*
X83637068Y-96226899D01*
X83503818Y-96476192D01*
X83421764Y-96746691D01*
X83394057Y-97028000D01*
X83421764Y-97309309D01*
X83503818Y-97579808D01*
X83637068Y-97829101D01*
X83816392Y-98047608D01*
X84034899Y-98226932D01*
X84167858Y-98298000D01*
X84034899Y-98369068D01*
X83816392Y-98548392D01*
X83637068Y-98766899D01*
X83503818Y-99016192D01*
X83421764Y-99286691D01*
X83394057Y-99568000D01*
X83421764Y-99849309D01*
X83503818Y-100119808D01*
X83637068Y-100369101D01*
X83816392Y-100587608D01*
X84034899Y-100766932D01*
X84172682Y-100840579D01*
X83980869Y-100955615D01*
X83772481Y-101144586D01*
X83604963Y-101370580D01*
X83484754Y-101624913D01*
X83444096Y-101758961D01*
X83566085Y-101981000D01*
X84709000Y-101981000D01*
X84709000Y-101961000D01*
X84963000Y-101961000D01*
X84963000Y-101981000D01*
X86105915Y-101981000D01*
X86227904Y-101758961D01*
X86187246Y-101624913D01*
X86067037Y-101370580D01*
X85899519Y-101144586D01*
X85691131Y-100955615D01*
X85499318Y-100840579D01*
X85637101Y-100766932D01*
X85855608Y-100587608D01*
X86034932Y-100369101D01*
X86168182Y-100119808D01*
X86250236Y-99849309D01*
X86277943Y-99568000D01*
X86250236Y-99286691D01*
X86168182Y-99016192D01*
X86034932Y-98766899D01*
X85855608Y-98548392D01*
X85637101Y-98369068D01*
X85504142Y-98298000D01*
X85637101Y-98226932D01*
X85836853Y-98063000D01*
X88341172Y-98063000D01*
X88392000Y-98068006D01*
X88432248Y-98064042D01*
X87732229Y-98764061D01*
X87732226Y-98764063D01*
X87696092Y-98800197D01*
X87656604Y-98832604D01*
X87624197Y-98872092D01*
X87588063Y-98908226D01*
X87559672Y-98950716D01*
X87527266Y-98990203D01*
X87503186Y-99035254D01*
X87474795Y-99077744D01*
X87455238Y-99124958D01*
X87431159Y-99170007D01*
X87416331Y-99218887D01*
X87396774Y-99266102D01*
X87386804Y-99316223D01*
X87371976Y-99365105D01*
X87366969Y-99415943D01*
X87357000Y-99466061D01*
X87357000Y-99517162D01*
X87351993Y-99568000D01*
X87357000Y-99618838D01*
X87357000Y-99669939D01*
X87366969Y-99720057D01*
X87371976Y-99770895D01*
X87386804Y-99819777D01*
X87396774Y-99869898D01*
X87416331Y-99917113D01*
X87431159Y-99965993D01*
X87455238Y-100011042D01*
X87474795Y-100058256D01*
X87503186Y-100100746D01*
X87527266Y-100145797D01*
X87559672Y-100185284D01*
X87588063Y-100227774D01*
X87624197Y-100263908D01*
X87656604Y-100303396D01*
X87696092Y-100335803D01*
X87732226Y-100371937D01*
X87774716Y-100400328D01*
X87814203Y-100432734D01*
X87859254Y-100456814D01*
X87901744Y-100485205D01*
X87948958Y-100504762D01*
X87994007Y-100528841D01*
X88042887Y-100543669D01*
X88090102Y-100563226D01*
X88140223Y-100573196D01*
X88189105Y-100588024D01*
X88239943Y-100593031D01*
X88290061Y-100603000D01*
X88341172Y-100603000D01*
X88392000Y-100608006D01*
X88442828Y-100603000D01*
X88493939Y-100603000D01*
X88544057Y-100593031D01*
X88594895Y-100588024D01*
X88643777Y-100573196D01*
X88693898Y-100563226D01*
X88741113Y-100543669D01*
X88789993Y-100528841D01*
X88835042Y-100504762D01*
X88882256Y-100485205D01*
X88924746Y-100456814D01*
X88969797Y-100432734D01*
X89009284Y-100400328D01*
X89051774Y-100371937D01*
X89087908Y-100335803D01*
X89127396Y-100303396D01*
X89159803Y-100263908D01*
X89195937Y-100227774D01*
X89195939Y-100227771D01*
X95255803Y-94167908D01*
X95291937Y-94131774D01*
X95320325Y-94089288D01*
X95352734Y-94049798D01*
X95376816Y-94004744D01*
X95405205Y-93962256D01*
X95424762Y-93915041D01*
X95448840Y-93869994D01*
X95463666Y-93821119D01*
X95483226Y-93773898D01*
X95493197Y-93723771D01*
X95508023Y-93674896D01*
X95513030Y-93624064D01*
X95523000Y-93573939D01*
X95523000Y-93522836D01*
X95528007Y-93472000D01*
X95523000Y-93421165D01*
X95523000Y-93370061D01*
X95513030Y-93319936D01*
X95508023Y-93269105D01*
X95493197Y-93220232D01*
X95483226Y-93170102D01*
X95463665Y-93122878D01*
X95448840Y-93074007D01*
X95424764Y-93028964D01*
X95405205Y-92981744D01*
X95376813Y-92939252D01*
X95352734Y-92894203D01*
X95320328Y-92854716D01*
X95291937Y-92812226D01*
X95255803Y-92776092D01*
X95223396Y-92736604D01*
X95183908Y-92704197D01*
X95147774Y-92668063D01*
X95105284Y-92639672D01*
X95065797Y-92607266D01*
X95020748Y-92583187D01*
X94978256Y-92554795D01*
X94931036Y-92535236D01*
X94885993Y-92511160D01*
X94837122Y-92496335D01*
X94789898Y-92476774D01*
X94739768Y-92466803D01*
X94690895Y-92451977D01*
X94640064Y-92446970D01*
X94589939Y-92437000D01*
X94538835Y-92437000D01*
X94488000Y-92431993D01*
X94437164Y-92437000D01*
X94386061Y-92437000D01*
X94383975Y-92437415D01*
X94432840Y-92345994D01*
X94432841Y-92345993D01*
X94492024Y-92150895D01*
X94507000Y-91998838D01*
X94507000Y-91998836D01*
X94512007Y-91948000D01*
X94507000Y-91897165D01*
X94507000Y-90382710D01*
X98636435Y-94512146D01*
X98661764Y-94769309D01*
X98743818Y-95039808D01*
X98877068Y-95289101D01*
X99056392Y-95507608D01*
X99274899Y-95686932D01*
X99412682Y-95760579D01*
X99220869Y-95875615D01*
X99012481Y-96064586D01*
X98844963Y-96290580D01*
X98724754Y-96544913D01*
X98684096Y-96678961D01*
X98806085Y-96901000D01*
X99949000Y-96901000D01*
X99949000Y-96881000D01*
X100203000Y-96881000D01*
X100203000Y-96901000D01*
X101345915Y-96901000D01*
X101467904Y-96678961D01*
X101427246Y-96544913D01*
X101307037Y-96290580D01*
X101139519Y-96064586D01*
X100931131Y-95875615D01*
X100739318Y-95760579D01*
X100877101Y-95686932D01*
X101095608Y-95507608D01*
X101274932Y-95289101D01*
X101408182Y-95039808D01*
X101490236Y-94769309D01*
X101494797Y-94723001D01*
X107937171Y-94723001D01*
X107987999Y-94728007D01*
X108038827Y-94723001D01*
X108038837Y-94723001D01*
X108190894Y-94708025D01*
X108385992Y-94648842D01*
X108565796Y-94552735D01*
X108723395Y-94423397D01*
X108755806Y-94383904D01*
X109140711Y-93999000D01*
X110302546Y-93999000D01*
X110320498Y-94058180D01*
X110379463Y-94168494D01*
X110458815Y-94265185D01*
X110555506Y-94344537D01*
X110665820Y-94403502D01*
X110746466Y-94427966D01*
X110662412Y-94503731D01*
X110488359Y-94737080D01*
X110363175Y-94999901D01*
X110318524Y-95147110D01*
X110439845Y-95377000D01*
X111633000Y-95377000D01*
X111633000Y-95357000D01*
X111887000Y-95357000D01*
X111887000Y-95377000D01*
X113080155Y-95377000D01*
X113201476Y-95147110D01*
X113156825Y-94999901D01*
X113031641Y-94737080D01*
X112857588Y-94503731D01*
X112773534Y-94427966D01*
X112854180Y-94403502D01*
X112964494Y-94344537D01*
X113061185Y-94265185D01*
X113140537Y-94168494D01*
X113144106Y-94161817D01*
X113773001Y-94790712D01*
X113773000Y-101171289D01*
X113148392Y-101795897D01*
X113022294Y-101808317D01*
X112770646Y-101884653D01*
X112538725Y-102008618D01*
X112335445Y-102175445D01*
X112168618Y-102378725D01*
X112044653Y-102610646D01*
X111968317Y-102862294D01*
X111955897Y-102988392D01*
X111064092Y-103880198D01*
X111024605Y-103912604D01*
X110992198Y-103952092D01*
X110992197Y-103952093D01*
X110895266Y-104070203D01*
X110799160Y-104250007D01*
X110739977Y-104445105D01*
X110719994Y-104648000D01*
X110725001Y-104698838D01*
X110725000Y-106238546D01*
X110665820Y-106256498D01*
X110555506Y-106315463D01*
X110458815Y-106394815D01*
X110379463Y-106491506D01*
X110320498Y-106601820D01*
X110284188Y-106721518D01*
X110271928Y-106846000D01*
X110271928Y-107212361D01*
X109748043Y-107736246D01*
X109752007Y-107696000D01*
X109747000Y-107645165D01*
X109747000Y-107594061D01*
X109737030Y-107543936D01*
X109732023Y-107493105D01*
X109717197Y-107444232D01*
X109707226Y-107394102D01*
X109687665Y-107346878D01*
X109672840Y-107298007D01*
X109648764Y-107252964D01*
X109629205Y-107205744D01*
X109600813Y-107163252D01*
X109576734Y-107118203D01*
X109544328Y-107078716D01*
X109515937Y-107036226D01*
X109479803Y-107000092D01*
X109447396Y-106960604D01*
X109407908Y-106928197D01*
X109371774Y-106892063D01*
X109329284Y-106863672D01*
X109289797Y-106831266D01*
X109244748Y-106807187D01*
X109202256Y-106778795D01*
X109155036Y-106759236D01*
X109109993Y-106735160D01*
X109061122Y-106720335D01*
X109013898Y-106700774D01*
X108963768Y-106690803D01*
X108914895Y-106675977D01*
X108864064Y-106670970D01*
X108813939Y-106661000D01*
X108762835Y-106661000D01*
X108712000Y-106655993D01*
X108661164Y-106661000D01*
X108610061Y-106661000D01*
X108559936Y-106670970D01*
X108509104Y-106675977D01*
X108460229Y-106690803D01*
X108410102Y-106700774D01*
X108362881Y-106720334D01*
X108314006Y-106735160D01*
X108268959Y-106759238D01*
X108221744Y-106778795D01*
X108179256Y-106807184D01*
X108134202Y-106831266D01*
X108094712Y-106863675D01*
X108052226Y-106892063D01*
X108016092Y-106928197D01*
X106251290Y-108693000D01*
X101076853Y-108693000D01*
X100877101Y-108529068D01*
X100744142Y-108458000D01*
X100877101Y-108386932D01*
X101076853Y-108223000D01*
X105105172Y-108223000D01*
X105156000Y-108228006D01*
X105206828Y-108223000D01*
X105206838Y-108223000D01*
X105358895Y-108208024D01*
X105553993Y-108148841D01*
X105733797Y-108052734D01*
X105891396Y-107923396D01*
X105923807Y-107883903D01*
X112455908Y-101351803D01*
X112495396Y-101319396D01*
X112527803Y-101279908D01*
X112624734Y-101161798D01*
X112699348Y-101022203D01*
X112720841Y-100981993D01*
X112780024Y-100786895D01*
X112795000Y-100634838D01*
X112795000Y-100634829D01*
X112800006Y-100584001D01*
X112795000Y-100533173D01*
X112795000Y-99115658D01*
X112815134Y-99099134D01*
X113000706Y-98873014D01*
X113138599Y-98615034D01*
X113223513Y-98335111D01*
X113252185Y-98044000D01*
X113223513Y-97752889D01*
X113138599Y-97472966D01*
X113000706Y-97214986D01*
X112815134Y-96988866D01*
X112589014Y-96803294D01*
X112524477Y-96768799D01*
X112641355Y-96699178D01*
X112857588Y-96504269D01*
X113031641Y-96270920D01*
X113156825Y-96008099D01*
X113201476Y-95860890D01*
X113080155Y-95631000D01*
X111887000Y-95631000D01*
X111887000Y-95651000D01*
X111633000Y-95651000D01*
X111633000Y-95631000D01*
X110439845Y-95631000D01*
X110318524Y-95860890D01*
X110363175Y-96008099D01*
X110488359Y-96270920D01*
X110662412Y-96504269D01*
X110878645Y-96699178D01*
X110995523Y-96768799D01*
X110930986Y-96803294D01*
X110704866Y-96988866D01*
X110519294Y-97214986D01*
X110381401Y-97472966D01*
X110296487Y-97752889D01*
X110267815Y-98044000D01*
X110296487Y-98335111D01*
X110381401Y-98615034D01*
X110519294Y-98873014D01*
X110704866Y-99099134D01*
X110725000Y-99115658D01*
X110725001Y-100155288D01*
X104727290Y-106153000D01*
X101076853Y-106153000D01*
X100877101Y-105989068D01*
X100744142Y-105918000D01*
X100877101Y-105846932D01*
X101095608Y-105667608D01*
X101274932Y-105449101D01*
X101408182Y-105199808D01*
X101490236Y-104929309D01*
X101517943Y-104648000D01*
X101490236Y-104366691D01*
X101408182Y-104096192D01*
X101274932Y-103846899D01*
X101095608Y-103628392D01*
X100877101Y-103449068D01*
X100744142Y-103378000D01*
X100877101Y-103306932D01*
X101095608Y-103127608D01*
X101206476Y-102992514D01*
X104329000Y-102992514D01*
X104329000Y-103255486D01*
X104380304Y-103513405D01*
X104480939Y-103756359D01*
X104627038Y-103975013D01*
X104812987Y-104160962D01*
X105031641Y-104307061D01*
X105274595Y-104407696D01*
X105532514Y-104459000D01*
X105795486Y-104459000D01*
X106053405Y-104407696D01*
X106296359Y-104307061D01*
X106515013Y-104160962D01*
X106700962Y-103975013D01*
X106847061Y-103756359D01*
X106947696Y-103513405D01*
X106999000Y-103255486D01*
X106999000Y-102992514D01*
X106947696Y-102734595D01*
X106847061Y-102491641D01*
X106700962Y-102272987D01*
X106515013Y-102087038D01*
X106296359Y-101940939D01*
X106053405Y-101840304D01*
X105795486Y-101789000D01*
X105532514Y-101789000D01*
X105274595Y-101840304D01*
X105031641Y-101940939D01*
X104812987Y-102087038D01*
X104627038Y-102272987D01*
X104480939Y-102491641D01*
X104380304Y-102734595D01*
X104329000Y-102992514D01*
X101206476Y-102992514D01*
X101274932Y-102909101D01*
X101408182Y-102659808D01*
X101490236Y-102389309D01*
X101517943Y-102108000D01*
X101490236Y-101826691D01*
X101408182Y-101556192D01*
X101274932Y-101306899D01*
X101095608Y-101088392D01*
X100877101Y-100909068D01*
X100744142Y-100838000D01*
X100877101Y-100766932D01*
X101095608Y-100587608D01*
X101274932Y-100369101D01*
X101408182Y-100119808D01*
X101490236Y-99849309D01*
X101517943Y-99568000D01*
X101490236Y-99286691D01*
X101408182Y-99016192D01*
X101274932Y-98766899D01*
X101095608Y-98548392D01*
X100877101Y-98369068D01*
X100739318Y-98295421D01*
X100931131Y-98180385D01*
X101139519Y-97991414D01*
X101307037Y-97765420D01*
X101427246Y-97511087D01*
X101467904Y-97377039D01*
X101345915Y-97155000D01*
X100203000Y-97155000D01*
X100203000Y-97175000D01*
X99949000Y-97175000D01*
X99949000Y-97155000D01*
X98806085Y-97155000D01*
X98684096Y-97377039D01*
X98724754Y-97511087D01*
X98844963Y-97765420D01*
X99012481Y-97991414D01*
X99220869Y-98180385D01*
X99412682Y-98295421D01*
X99274899Y-98369068D01*
X99056392Y-98548392D01*
X98877068Y-98766899D01*
X98743818Y-99016192D01*
X98661764Y-99286691D01*
X98634057Y-99568000D01*
X98661764Y-99849309D01*
X98743818Y-100119808D01*
X98877068Y-100369101D01*
X99056392Y-100587608D01*
X99274899Y-100766932D01*
X99407858Y-100838000D01*
X99274899Y-100909068D01*
X99056392Y-101088392D01*
X98877068Y-101306899D01*
X98743818Y-101556192D01*
X98661764Y-101826691D01*
X98634057Y-102108000D01*
X98661764Y-102389309D01*
X98743818Y-102659808D01*
X98877068Y-102909101D01*
X99056392Y-103127608D01*
X99274899Y-103306932D01*
X99407858Y-103378000D01*
X99274899Y-103449068D01*
X99056392Y-103628392D01*
X98877068Y-103846899D01*
X98743818Y-104096192D01*
X98661764Y-104366691D01*
X98634057Y-104648000D01*
X98661764Y-104929309D01*
X98743818Y-105199808D01*
X98877068Y-105449101D01*
X99056392Y-105667608D01*
X99274899Y-105846932D01*
X99407858Y-105918000D01*
X99274899Y-105989068D01*
X99056392Y-106168392D01*
X98877068Y-106386899D01*
X98743818Y-106636192D01*
X98661764Y-106906691D01*
X98634057Y-107188000D01*
X98661764Y-107469309D01*
X98743818Y-107739808D01*
X98877068Y-107989101D01*
X99056392Y-108207608D01*
X99274899Y-108386932D01*
X99407858Y-108458000D01*
X99274899Y-108529068D01*
X99056392Y-108708392D01*
X98877068Y-108926899D01*
X98743818Y-109176192D01*
X98661764Y-109446691D01*
X98634057Y-109728000D01*
X98661764Y-110009309D01*
X98743818Y-110279808D01*
X98877068Y-110529101D01*
X99056392Y-110747608D01*
X99274899Y-110926932D01*
X99407858Y-110998000D01*
X99274899Y-111069068D01*
X99075147Y-111233000D01*
X94408711Y-111233000D01*
X92243939Y-109068229D01*
X92243937Y-109068226D01*
X92099774Y-108924063D01*
X92057283Y-108895671D01*
X92017797Y-108863266D01*
X91972748Y-108839187D01*
X91930256Y-108810795D01*
X91883036Y-108791236D01*
X91837993Y-108767160D01*
X91789122Y-108752335D01*
X91741898Y-108732774D01*
X91691768Y-108722803D01*
X91642895Y-108707977D01*
X91592067Y-108702971D01*
X91541939Y-108693000D01*
X91490828Y-108693000D01*
X91440000Y-108687994D01*
X91389172Y-108693000D01*
X91338061Y-108693000D01*
X91287933Y-108702971D01*
X91237105Y-108707977D01*
X91188232Y-108722803D01*
X91138102Y-108732774D01*
X91090878Y-108752335D01*
X91042007Y-108767160D01*
X90996964Y-108791236D01*
X90949744Y-108810795D01*
X90907252Y-108839187D01*
X90862203Y-108863266D01*
X90822716Y-108895672D01*
X90780226Y-108924063D01*
X90744092Y-108960197D01*
X90704604Y-108992604D01*
X90672197Y-109032092D01*
X90636063Y-109068226D01*
X90607672Y-109110716D01*
X90575266Y-109150203D01*
X90551187Y-109195252D01*
X90522795Y-109237744D01*
X90503236Y-109284964D01*
X90479160Y-109330007D01*
X90464335Y-109378878D01*
X90444774Y-109426102D01*
X90434803Y-109476232D01*
X90419977Y-109525105D01*
X90414971Y-109575933D01*
X90405000Y-109626061D01*
X90405000Y-109677172D01*
X90399994Y-109728000D01*
X90405000Y-109778828D01*
X90405000Y-109829939D01*
X90414971Y-109880067D01*
X90419977Y-109930895D01*
X90434803Y-109979768D01*
X90444774Y-110029898D01*
X90464335Y-110077122D01*
X90479160Y-110125993D01*
X90503236Y-110171036D01*
X90522795Y-110218256D01*
X90551187Y-110260748D01*
X90575266Y-110305797D01*
X90607671Y-110345283D01*
X90636063Y-110387774D01*
X90780226Y-110531937D01*
X90780229Y-110531939D01*
X93212197Y-112963908D01*
X93244604Y-113003396D01*
X93284092Y-113035803D01*
X93402202Y-113132734D01*
X93498309Y-113184104D01*
X93582007Y-113228841D01*
X93777105Y-113288024D01*
X93929162Y-113303000D01*
X93929171Y-113303000D01*
X93979999Y-113308006D01*
X94030827Y-113303000D01*
X99075147Y-113303000D01*
X99274899Y-113466932D01*
X99407858Y-113538000D01*
X99274899Y-113609068D01*
X99056392Y-113788392D01*
X98877068Y-114006899D01*
X98743818Y-114256192D01*
X98661764Y-114526691D01*
X98634057Y-114808000D01*
X98661764Y-115089309D01*
X98743818Y-115359808D01*
X98877068Y-115609101D01*
X99056392Y-115827608D01*
X99274899Y-116006932D01*
X99407858Y-116078000D01*
X99274899Y-116149068D01*
X99056392Y-116328392D01*
X98877068Y-116546899D01*
X98743818Y-116796192D01*
X98661764Y-117066691D01*
X98634057Y-117348000D01*
X98661764Y-117629309D01*
X98743818Y-117899808D01*
X98877068Y-118149101D01*
X99056392Y-118367608D01*
X99274899Y-118546932D01*
X99407858Y-118618000D01*
X99274899Y-118689068D01*
X99056392Y-118868392D01*
X98877068Y-119086899D01*
X98743818Y-119336192D01*
X98661764Y-119606691D01*
X98634057Y-119888000D01*
X98661764Y-120169309D01*
X98743818Y-120439808D01*
X98877068Y-120689101D01*
X99056392Y-120907608D01*
X99274899Y-121086932D01*
X99407858Y-121158000D01*
X99274899Y-121229068D01*
X99056392Y-121408392D01*
X98877068Y-121626899D01*
X98743818Y-121876192D01*
X98661764Y-122146691D01*
X98634057Y-122428000D01*
X98661764Y-122709309D01*
X98743818Y-122979808D01*
X98877068Y-123229101D01*
X99056392Y-123447608D01*
X99274899Y-123626932D01*
X99407858Y-123698000D01*
X99274899Y-123769068D01*
X99056392Y-123948392D01*
X98877068Y-124166899D01*
X98743818Y-124416192D01*
X98661764Y-124686691D01*
X98634057Y-124968000D01*
X98661764Y-125249309D01*
X98743818Y-125519808D01*
X98877068Y-125769101D01*
X99056392Y-125987608D01*
X99274899Y-126166932D01*
X99407858Y-126238000D01*
X99274899Y-126309068D01*
X99056392Y-126488392D01*
X98877068Y-126706899D01*
X98743818Y-126956192D01*
X98661764Y-127226691D01*
X98634057Y-127508000D01*
X98661764Y-127789309D01*
X98743818Y-128059808D01*
X98877068Y-128309101D01*
X99056392Y-128527608D01*
X99274899Y-128706932D01*
X99407858Y-128778000D01*
X99274899Y-128849068D01*
X99056392Y-129028392D01*
X98877068Y-129246899D01*
X98743818Y-129496192D01*
X98661764Y-129766691D01*
X98634057Y-130048000D01*
X98661764Y-130329309D01*
X98743818Y-130599808D01*
X98877068Y-130849101D01*
X99056392Y-131067608D01*
X99274899Y-131246932D01*
X99524192Y-131380182D01*
X99794691Y-131462236D01*
X100005508Y-131483000D01*
X100146492Y-131483000D01*
X100357309Y-131462236D01*
X100627808Y-131380182D01*
X100877101Y-131246932D01*
X101076853Y-131083000D01*
X104597172Y-131083000D01*
X104648000Y-131088006D01*
X104698828Y-131083000D01*
X104698838Y-131083000D01*
X104850895Y-131068024D01*
X105045993Y-131008841D01*
X105225797Y-130912734D01*
X105383396Y-130783396D01*
X105415807Y-130743903D01*
X106359908Y-129799803D01*
X106399396Y-129767396D01*
X106495735Y-129650007D01*
X106528734Y-129609798D01*
X106593214Y-129489163D01*
X106624841Y-129429993D01*
X106684024Y-129234895D01*
X106699000Y-129082838D01*
X106699000Y-129082836D01*
X106704007Y-129032000D01*
X106699000Y-128981165D01*
X106699000Y-127864890D01*
X110318524Y-127864890D01*
X110363175Y-128012099D01*
X110488359Y-128274920D01*
X110662412Y-128508269D01*
X110878645Y-128703178D01*
X111128748Y-128852157D01*
X111403109Y-128949481D01*
X111633000Y-128828814D01*
X111633000Y-127635000D01*
X111887000Y-127635000D01*
X111887000Y-128828814D01*
X112116891Y-128949481D01*
X112391252Y-128852157D01*
X112641355Y-128703178D01*
X112857588Y-128508269D01*
X113031641Y-128274920D01*
X113156825Y-128012099D01*
X113201476Y-127864890D01*
X113080155Y-127635000D01*
X111887000Y-127635000D01*
X111633000Y-127635000D01*
X110439845Y-127635000D01*
X110318524Y-127864890D01*
X106699000Y-127864890D01*
X106699000Y-125312975D01*
X106700962Y-125311013D01*
X106847061Y-125092359D01*
X106947696Y-124849405D01*
X106999000Y-124591486D01*
X106999000Y-124588710D01*
X108124711Y-123463000D01*
X110688342Y-123463000D01*
X110704866Y-123483134D01*
X110930986Y-123668706D01*
X110985791Y-123698000D01*
X110930986Y-123727294D01*
X110704866Y-123912866D01*
X110519294Y-124138986D01*
X110381401Y-124396966D01*
X110296487Y-124676889D01*
X110267815Y-124968000D01*
X110296487Y-125259111D01*
X110381401Y-125539034D01*
X110519294Y-125797014D01*
X110704866Y-126023134D01*
X110930986Y-126208706D01*
X110995523Y-126243201D01*
X110878645Y-126312822D01*
X110662412Y-126507731D01*
X110488359Y-126741080D01*
X110363175Y-127003901D01*
X110318524Y-127151110D01*
X110439845Y-127381000D01*
X111633000Y-127381000D01*
X111633000Y-127361000D01*
X111887000Y-127361000D01*
X111887000Y-127381000D01*
X113080155Y-127381000D01*
X113201476Y-127151110D01*
X113156825Y-127003901D01*
X113031641Y-126741080D01*
X112857588Y-126507731D01*
X112641355Y-126312822D01*
X112524477Y-126243201D01*
X112589014Y-126208706D01*
X112815134Y-126023134D01*
X113000706Y-125797014D01*
X113138599Y-125539034D01*
X113223513Y-125259111D01*
X113252185Y-124968000D01*
X113223513Y-124676889D01*
X113138599Y-124396966D01*
X113000706Y-124138986D01*
X112815134Y-123912866D01*
X112589014Y-123727294D01*
X112534209Y-123698000D01*
X112589014Y-123668706D01*
X112815134Y-123483134D01*
X113000706Y-123257014D01*
X113138599Y-122999034D01*
X113223513Y-122719111D01*
X113252185Y-122428000D01*
X113223513Y-122136889D01*
X113138599Y-121856966D01*
X113000706Y-121598986D01*
X112815134Y-121372866D01*
X112785313Y-121348393D01*
X112854180Y-121327502D01*
X112964494Y-121268537D01*
X113061185Y-121189185D01*
X113140537Y-121092494D01*
X113144106Y-121085817D01*
X114281000Y-122222711D01*
X114281001Y-135077162D01*
X114281000Y-136223289D01*
X113871290Y-136633000D01*
X89836711Y-136633000D01*
X84678101Y-131474391D01*
X84765508Y-131483000D01*
X84807290Y-131483000D01*
X89148197Y-135823908D01*
X89180604Y-135863396D01*
X89220092Y-135895803D01*
X89338202Y-135992734D01*
X89434309Y-136044104D01*
X89518007Y-136088841D01*
X89713105Y-136148024D01*
X89865162Y-136163000D01*
X89865164Y-136163000D01*
X89916000Y-136168007D01*
X89966835Y-136163000D01*
X112826838Y-136163000D01*
X112978895Y-136148024D01*
X113173993Y-136088841D01*
X113353797Y-135992734D01*
X113511396Y-135863396D01*
X113640734Y-135705797D01*
X113736841Y-135525993D01*
X113796024Y-135330895D01*
X113816007Y-135128000D01*
X113796024Y-134925105D01*
X113736841Y-134730007D01*
X113640734Y-134550203D01*
X113511396Y-134392604D01*
X113353797Y-134263266D01*
X113173993Y-134167159D01*
X112978895Y-134107976D01*
X112826838Y-134093000D01*
X90344711Y-134093000D01*
X86275565Y-130023855D01*
X86250236Y-129766691D01*
X86168182Y-129496192D01*
X86034932Y-129246899D01*
X85855608Y-129028392D01*
X85637101Y-128849068D01*
X85504142Y-128778000D01*
X85637101Y-128706932D01*
X85855608Y-128527608D01*
X86034932Y-128309101D01*
X86168182Y-128059808D01*
X86250236Y-127789309D01*
X86277943Y-127508000D01*
X86250236Y-127226691D01*
X86168182Y-126956192D01*
X86034932Y-126706899D01*
X85855608Y-126488392D01*
X85637101Y-126309068D01*
X85504142Y-126238000D01*
X85637101Y-126166932D01*
X85855608Y-125987608D01*
X86034932Y-125769101D01*
X86168182Y-125519808D01*
X86250236Y-125249309D01*
X86277943Y-124968000D01*
X86250236Y-124686691D01*
X86168182Y-124416192D01*
X86034932Y-124166899D01*
X85855608Y-123948392D01*
X85637101Y-123769068D01*
X85504142Y-123698000D01*
X85637101Y-123626932D01*
X85855608Y-123447608D01*
X86034932Y-123229101D01*
X86168182Y-122979808D01*
X86250236Y-122709309D01*
X86277943Y-122428000D01*
X86250236Y-122146691D01*
X86168182Y-121876192D01*
X86034932Y-121626899D01*
X85855608Y-121408392D01*
X85637101Y-121229068D01*
X85504142Y-121158000D01*
X85637101Y-121086932D01*
X85855608Y-120907608D01*
X86034932Y-120689101D01*
X86168182Y-120439808D01*
X86250236Y-120169309D01*
X86277943Y-119888000D01*
X86250236Y-119606691D01*
X86168182Y-119336192D01*
X86034932Y-119086899D01*
X85855608Y-118868392D01*
X85637101Y-118689068D01*
X85504142Y-118618000D01*
X85637101Y-118546932D01*
X85855608Y-118367608D01*
X86034932Y-118149101D01*
X86168182Y-117899808D01*
X86250236Y-117629309D01*
X86277943Y-117348000D01*
X86250236Y-117066691D01*
X86168182Y-116796192D01*
X86034932Y-116546899D01*
X85855608Y-116328392D01*
X85637101Y-116149068D01*
X85504142Y-116078000D01*
X85637101Y-116006932D01*
X85855608Y-115827608D01*
X86034932Y-115609101D01*
X86168182Y-115359808D01*
X86250236Y-115089309D01*
X86277943Y-114808000D01*
X86250236Y-114526691D01*
X86168182Y-114256192D01*
X86034932Y-114006899D01*
X85855608Y-113788392D01*
X85637101Y-113609068D01*
X85504142Y-113538000D01*
X85637101Y-113466932D01*
X85855608Y-113287608D01*
X86034932Y-113069101D01*
X86168182Y-112819808D01*
X86250236Y-112549309D01*
X86277943Y-112268000D01*
X86250236Y-111986691D01*
X86168182Y-111716192D01*
X86034932Y-111466899D01*
X85855608Y-111248392D01*
X85637101Y-111069068D01*
X85504142Y-110998000D01*
X85637101Y-110926932D01*
X85855608Y-110747608D01*
X86034932Y-110529101D01*
X86168182Y-110279808D01*
X86250236Y-110009309D01*
X86277943Y-109728000D01*
X86250236Y-109446691D01*
X86168182Y-109176192D01*
X86034932Y-108926899D01*
X85855608Y-108708392D01*
X85637101Y-108529068D01*
X85504142Y-108458000D01*
X85637101Y-108386932D01*
X85855608Y-108207608D01*
X86034932Y-107989101D01*
X86168182Y-107739808D01*
X86250236Y-107469309D01*
X86277943Y-107188000D01*
X86250236Y-106906691D01*
X86168182Y-106636192D01*
X86034932Y-106386899D01*
X85855608Y-106168392D01*
X85637101Y-105989068D01*
X85504142Y-105918000D01*
X85637101Y-105846932D01*
X85836853Y-105683000D01*
X94945172Y-105683000D01*
X94996000Y-105688006D01*
X95046828Y-105683000D01*
X95046838Y-105683000D01*
X95198895Y-105668024D01*
X95393993Y-105608841D01*
X95573797Y-105512734D01*
X95731396Y-105383396D01*
X95763807Y-105343903D01*
X98231908Y-102875803D01*
X98271396Y-102843396D01*
X98303803Y-102803908D01*
X98400734Y-102685798D01*
X98496840Y-102505994D01*
X98496841Y-102505993D01*
X98556024Y-102310895D01*
X98571000Y-102158838D01*
X98571000Y-102158829D01*
X98576006Y-102108001D01*
X98571000Y-102057173D01*
X98571000Y-100126838D01*
X98576007Y-100076000D01*
X98571000Y-100025162D01*
X98571000Y-99974061D01*
X98561031Y-99923943D01*
X98556024Y-99873105D01*
X98541196Y-99824223D01*
X98531226Y-99774102D01*
X98511669Y-99726887D01*
X98496841Y-99678007D01*
X98472762Y-99632958D01*
X98453205Y-99585744D01*
X98424814Y-99543254D01*
X98400734Y-99498203D01*
X98368328Y-99458716D01*
X98339937Y-99416226D01*
X98303803Y-99380092D01*
X98271396Y-99340604D01*
X98231908Y-99308197D01*
X98195774Y-99272063D01*
X98153284Y-99243672D01*
X98113797Y-99211266D01*
X98068746Y-99187186D01*
X98026256Y-99158795D01*
X97979042Y-99139238D01*
X97933993Y-99115159D01*
X97885113Y-99100331D01*
X97837898Y-99080774D01*
X97787777Y-99070804D01*
X97738895Y-99055976D01*
X97688057Y-99050969D01*
X97637939Y-99041000D01*
X97586838Y-99041000D01*
X97536000Y-99035993D01*
X97485162Y-99041000D01*
X97434061Y-99041000D01*
X97383943Y-99050969D01*
X97333105Y-99055976D01*
X97284223Y-99070804D01*
X97234102Y-99080774D01*
X97186887Y-99100331D01*
X97138007Y-99115159D01*
X97092958Y-99139238D01*
X97045744Y-99158795D01*
X97003254Y-99187186D01*
X96958203Y-99211266D01*
X96918716Y-99243672D01*
X96876226Y-99272063D01*
X96840092Y-99308197D01*
X96800604Y-99340604D01*
X96768197Y-99380092D01*
X96732063Y-99416226D01*
X96703672Y-99458716D01*
X96671266Y-99498203D01*
X96647186Y-99543254D01*
X96618795Y-99585744D01*
X96599238Y-99632958D01*
X96575159Y-99678007D01*
X96560331Y-99726887D01*
X96540774Y-99774102D01*
X96530804Y-99824223D01*
X96515976Y-99873105D01*
X96510969Y-99923943D01*
X96501000Y-99974061D01*
X96501000Y-100025162D01*
X96495993Y-100076000D01*
X96501000Y-100126838D01*
X96501000Y-100177939D01*
X96501001Y-100177944D01*
X96501000Y-101679289D01*
X94567290Y-103613000D01*
X85836853Y-103613000D01*
X85637101Y-103449068D01*
X85499318Y-103375421D01*
X85691131Y-103260385D01*
X85899519Y-103071414D01*
X86067037Y-102845420D01*
X86187246Y-102591087D01*
X86227904Y-102457039D01*
X86105915Y-102235000D01*
X84963000Y-102235000D01*
X84963000Y-102255000D01*
X84709000Y-102255000D01*
X84709000Y-102235000D01*
X83566085Y-102235000D01*
X83444096Y-102457039D01*
X83484754Y-102591087D01*
X83604963Y-102845420D01*
X83772481Y-103071414D01*
X83980869Y-103260385D01*
X84172682Y-103375421D01*
X84034899Y-103449068D01*
X83816392Y-103628392D01*
X83637068Y-103846899D01*
X83503818Y-104096192D01*
X83421764Y-104366691D01*
X83394057Y-104648000D01*
X83421764Y-104929309D01*
X83503818Y-105199808D01*
X83637068Y-105449101D01*
X83816392Y-105667608D01*
X84034899Y-105846932D01*
X84167858Y-105918000D01*
X84034899Y-105989068D01*
X83816392Y-106168392D01*
X83637068Y-106386899D01*
X83503818Y-106636192D01*
X83421764Y-106906691D01*
X83394057Y-107188000D01*
X83421764Y-107469309D01*
X83503818Y-107739808D01*
X83637068Y-107989101D01*
X83816392Y-108207608D01*
X84034899Y-108386932D01*
X84167858Y-108458000D01*
X84034899Y-108529068D01*
X83835147Y-108693000D01*
X83740711Y-108693000D01*
X75951807Y-100904097D01*
X75919396Y-100864604D01*
X75761797Y-100735266D01*
X75581993Y-100639159D01*
X75386895Y-100579976D01*
X75234838Y-100565000D01*
X75234828Y-100565000D01*
X75184000Y-100559994D01*
X75133172Y-100565000D01*
X67111658Y-100565000D01*
X67095134Y-100544866D01*
X66869014Y-100359294D01*
X66814209Y-100330000D01*
X66869014Y-100300706D01*
X67095134Y-100115134D01*
X67280706Y-99889014D01*
X67418599Y-99631034D01*
X67503513Y-99351111D01*
X67532185Y-99060000D01*
X67503513Y-98768889D01*
X67418599Y-98488966D01*
X67280706Y-98230986D01*
X67095134Y-98004866D01*
X66869014Y-97819294D01*
X66814209Y-97790000D01*
X66869014Y-97760706D01*
X67095134Y-97575134D01*
X67280706Y-97349014D01*
X67418599Y-97091034D01*
X67503513Y-96811111D01*
X67532185Y-96520000D01*
X67503513Y-96228889D01*
X67418599Y-95948966D01*
X67280706Y-95690986D01*
X67095134Y-95464866D01*
X66869014Y-95279294D01*
X66814209Y-95250000D01*
X66869014Y-95220706D01*
X67095134Y-95035134D01*
X67280706Y-94809014D01*
X67418599Y-94551034D01*
X67503513Y-94271111D01*
X67532185Y-93980000D01*
X67503513Y-93688889D01*
X67418599Y-93408966D01*
X67280706Y-93150986D01*
X67095134Y-92924866D01*
X66869014Y-92739294D01*
X66814209Y-92710000D01*
X66869014Y-92680706D01*
X67095134Y-92495134D01*
X67280706Y-92269014D01*
X67418599Y-92011034D01*
X67503513Y-91731111D01*
X67532185Y-91440000D01*
X67503513Y-91148889D01*
X67418599Y-90868966D01*
X67280706Y-90610986D01*
X67095134Y-90384866D01*
X66869014Y-90199294D01*
X66814209Y-90170000D01*
X66869014Y-90140706D01*
X67095134Y-89955134D01*
X67280706Y-89729014D01*
X67418599Y-89471034D01*
X67503513Y-89191111D01*
X67532185Y-88900000D01*
X67503513Y-88608889D01*
X67418599Y-88328966D01*
X67280706Y-88070986D01*
X67095134Y-87844866D01*
X66869014Y-87659294D01*
X66814209Y-87630000D01*
X66869014Y-87600706D01*
X67095134Y-87415134D01*
X67280706Y-87189014D01*
X67418599Y-86931034D01*
X67503513Y-86651111D01*
X67532185Y-86360000D01*
X67503513Y-86068889D01*
X67418599Y-85788966D01*
X67280706Y-85530986D01*
X67095134Y-85304866D01*
X66869014Y-85119294D01*
X66814209Y-85090000D01*
X66869014Y-85060706D01*
X67095134Y-84875134D01*
X67280706Y-84649014D01*
X67418599Y-84391034D01*
X67503513Y-84111111D01*
X67532185Y-83820000D01*
X67503513Y-83528889D01*
X67418599Y-83248966D01*
X67280706Y-82990986D01*
X67095134Y-82764866D01*
X66869014Y-82579294D01*
X66814209Y-82550000D01*
X66869014Y-82520706D01*
X67095134Y-82335134D01*
X67280706Y-82109014D01*
X67418599Y-81851034D01*
X67503513Y-81571111D01*
X67532185Y-81280000D01*
X67503513Y-80988889D01*
X67418599Y-80708966D01*
X67280706Y-80450986D01*
X67095134Y-80224866D01*
X66869014Y-80039294D01*
X66814209Y-80010000D01*
X66869014Y-79980706D01*
X67095134Y-79795134D01*
X67111658Y-79775000D01*
X69675290Y-79775000D01*
X71876197Y-81975908D01*
X71908604Y-82015396D01*
X71948092Y-82047803D01*
X72066202Y-82144734D01*
X72162309Y-82196104D01*
X72246007Y-82240841D01*
X72441105Y-82300024D01*
X72593162Y-82315000D01*
X72593171Y-82315000D01*
X72643999Y-82320006D01*
X72694827Y-82315000D01*
X86532779Y-82315000D01*
X86630725Y-82395382D01*
X86862646Y-82519347D01*
X87114294Y-82595683D01*
X87310421Y-82615000D01*
X87441579Y-82615000D01*
X87637706Y-82595683D01*
X87889354Y-82519347D01*
X88121275Y-82395382D01*
X88324555Y-82228555D01*
X88491382Y-82025275D01*
X88615347Y-81793354D01*
X88691683Y-81541706D01*
X88717459Y-81280000D01*
X88691683Y-81018294D01*
X88615347Y-80766646D01*
X88491382Y-80534725D01*
X88324555Y-80331445D01*
X88121275Y-80164618D01*
X87889354Y-80040653D01*
X87637706Y-79964317D01*
X87441579Y-79945000D01*
X87310421Y-79945000D01*
X87114294Y-79964317D01*
X86862646Y-80040653D01*
X86630725Y-80164618D01*
X86532779Y-80245000D01*
X73072711Y-80245000D01*
X70871807Y-78044097D01*
X70839396Y-78004604D01*
X70681797Y-77875266D01*
X70501993Y-77779159D01*
X70306895Y-77719976D01*
X70154838Y-77705000D01*
X70154828Y-77705000D01*
X70104000Y-77699994D01*
X70053172Y-77705000D01*
X67111658Y-77705000D01*
X67095134Y-77684866D01*
X67065313Y-77660393D01*
X67134180Y-77639502D01*
X67244494Y-77580537D01*
X67341185Y-77501185D01*
X67420537Y-77404494D01*
X67479502Y-77294180D01*
X67515812Y-77174482D01*
X67528072Y-77050000D01*
X67525000Y-76485750D01*
X67366250Y-76327000D01*
X66167000Y-76327000D01*
X66167000Y-76347000D01*
X65913000Y-76347000D01*
X65913000Y-76327000D01*
X64713750Y-76327000D01*
X64555000Y-76485750D01*
X64551928Y-77050000D01*
X64564188Y-77174482D01*
X64600498Y-77294180D01*
X64659463Y-77404494D01*
X64738815Y-77501185D01*
X64835506Y-77580537D01*
X64945820Y-77639502D01*
X65014687Y-77660393D01*
X64984866Y-77684866D01*
X64799294Y-77910986D01*
X64661401Y-78168966D01*
X64576487Y-78448889D01*
X64547815Y-78740000D01*
X64576487Y-79031111D01*
X64661401Y-79311034D01*
X64799294Y-79569014D01*
X64984866Y-79795134D01*
X65210986Y-79980706D01*
X65265791Y-80010000D01*
X65210986Y-80039294D01*
X64984866Y-80224866D01*
X64968342Y-80245000D01*
X64436711Y-80245000D01*
X64027000Y-79835290D01*
X64027000Y-75350000D01*
X64551928Y-75350000D01*
X64555000Y-75914250D01*
X64713750Y-76073000D01*
X65913000Y-76073000D01*
X65913000Y-74873750D01*
X66167000Y-74873750D01*
X66167000Y-76073000D01*
X67366250Y-76073000D01*
X67525000Y-75914250D01*
X67528072Y-75350000D01*
X67515812Y-75225518D01*
X67479502Y-75105820D01*
X67420537Y-74995506D01*
X67341185Y-74898815D01*
X67244494Y-74819463D01*
X67134180Y-74760498D01*
X67014482Y-74724188D01*
X66890000Y-74711928D01*
X66325750Y-74715000D01*
X66167000Y-74873750D01*
X65913000Y-74873750D01*
X65754250Y-74715000D01*
X65190000Y-74711928D01*
X65065518Y-74724188D01*
X64945820Y-74760498D01*
X64835506Y-74819463D01*
X64738815Y-74898815D01*
X64659463Y-74995506D01*
X64600498Y-75105820D01*
X64564188Y-75225518D01*
X64551928Y-75350000D01*
X64027000Y-75350000D01*
X64027000Y-75104710D01*
X64944711Y-74187000D01*
X78311290Y-74187000D01*
X79057817Y-74933527D01*
M02*
