M48
; DRILL file {KiCad (5.1.4)-1} date 04/11/2019 01:23:51 p. m.
; FORMAT={-:-/ absolute / inch / decimal}
; #@! TF.CreationDate,2019-11-04T13:23:51-06:00
; #@! TF.GenerationSoftware,Kicad,Pcbnew,(5.1.4)-1
; #@! TF.FileFunction,Plated,1,2,PTH
FMAT,2
INCH
T1C0.0157
T2C0.0276
T3C0.0315
T4C0.0394
T5C0.0512
%
G90
G05
T1
X3.48Y-3.92
X3.56Y-3.46
X3.6Y-4.32
X3.68Y-3.44
X3.72Y-3.68
X3.84Y-3.94
X4.28Y-4.24
T2
X3.44Y-3.2
X3.74Y-3.2
X4.16Y-4.06
X4.46Y-4.06
X4.16Y-4.6
X4.16Y-4.9
T3
X3.34Y-3.72
X3.34Y-3.82
X3.34Y-3.92
X3.34Y-4.02
X3.34Y-4.12
X3.34Y-4.22
X3.34Y-4.32
X3.34Y-4.42
X3.34Y-4.52
X3.34Y-4.62
X3.34Y-4.72
X3.34Y-4.82
X3.34Y-4.92
X3.34Y-5.02
X3.34Y-5.12
X3.94Y-3.72
X3.94Y-3.82
X3.94Y-3.92
X3.94Y-4.02
X3.94Y-4.12
X3.94Y-4.22
X3.94Y-4.32
X3.94Y-4.42
X3.94Y-4.52
X3.94Y-4.62
X3.94Y-4.72
X3.94Y-4.82
X3.94Y-4.92
X3.94Y-5.02
X3.94Y-5.12
T4
X4.4Y-4.24
X4.4Y-4.34
X4.4Y-4.44
X4.4Y-3.66
X4.4Y-3.76
X4.4Y-3.86
X3.76Y-3.0
X3.86Y-3.0
X3.96Y-3.0
X4.06Y-3.0
X4.4Y-4.72
X4.4Y-4.82
X4.4Y-4.92
X4.4Y-5.02
X2.6Y-3.0
X2.6Y-3.1
X2.6Y-3.2
X2.6Y-3.3
X2.6Y-3.4
X2.6Y-3.5
X2.6Y-3.6
X2.6Y-3.7
X2.6Y-3.8
X2.6Y-3.9
X2.6Y-4.0
X2.6Y-4.1
X2.6Y-4.2
X2.6Y-4.3
X2.6Y-4.4
X2.6Y-4.5
X2.6Y-4.6
X2.6Y-4.7
X2.6Y-4.8
X2.6Y-4.9
X2.94Y-5.24
X3.04Y-5.24
X3.14Y-5.24
X4.42Y-3.1
X4.42Y-3.2
X4.42Y-3.3
X4.42Y-3.4
X2.62Y-5.24
X2.72Y-5.24
T5
X2.9663Y-3.0
X3.1631Y-3.0
X3.36Y-3.0
T0
M30
